<svg viewBox="0 0 407.81 317.04" xmlns="http://www.w3.org/2000/svg"><path d="m108.7 270a97.09 97.09 0 0 1 18-3c15.2-1.08 28.79 1.4 35 4 11.86 5 16 14.28 29 17s18.83-4.45 32-1c9.66 2.53 18.58 13 23 16 11.56 7.77 20.59 10.29 20 14l7-14a63.54 63.54 0 0 1 25-13c.62-.16 18.19-1.26 28-7 5.09-3 14.08-9.71 15-19 .74-7.5-3.94-13.46-9-20-9-11.61-13.86-18.83-12-22 2-3.45 14.14-.81 21-2 8.15-1.41 12-5.08 20-7a57.93 57.93 0 0 1 26 0c7.31-1.07 25.82-27.95 20-19-3.22-5-6.19-9.9-9-15-3.33-6-5.18-11.27-9-17-4.38-6.57-8.68-10-11-17-3.5-10.52 1-17.49 0-26-2.22-18.81-17.89-23.35-22-42-2.71-12.29 4.42-24.73 6-38 1-8.24 1.39-15.44 7-20 0 0-9.12-.82-20-2s-31 5-31 5c-17.2 5.44-33.94 6.7-50 3s-21.81-12.73-39-14c-8.4-.62-25.6 5.07-39-1a37.35 37.35 0 0 1 -13-10c-2.79 2.33-6.66.23-13 0a31.19 31.19 0 0 0 -15 3c-7.77 3.86-8.37 8.9-16 13-4.43 2.38-7.74 2.08-12 5-4.48 3.07-6.74 6.64-10 12-4.9 8-8.22 13.18-13 15-4 1.53-11.18.06-13 3-1.67 2.69 1.78 6.75 0 9s-7.28-.24-9 2 2.84 7.8 2 13c-.59 3.64-3.21 6.51-5 8-5.23 4.35-10.06 2-15 6-1.57 1.26-4.53 5.82-6 12-.72 3-.25 5-1 8-2.47 9.85-11.85 11.57-13 20-1 7.05 6.06 11.42 4 17-2.41 6.5-15.32 6.79-23 14-3.61 3.37-5.78 7-5 8 1 1.23 5.87-2.51 10-1 6.52 2.39 10.15 15.38 6 24-1.78 3.69-6.58 6.84-13 11a42 42 0 0 0 -11 10c-4.3 5.86-7 12.21-5 17s7.05 4.24 10 9c2.36 3.81.94 8.85 4 11 3.93 2.76 9.46-2.38 14 0 5.87 3.08 3.62 14.81 9 17 4 1.61 8-3.79 12-2s2.72 8.52 7 11c4 2.3 8.24-1.5 12 1 3.3 2.21 2 6.51 5 9 4.89 4 15.09-.4 20-3a51.59 51.59 0 0 0 15-12z"/></svg>