<svg viewBox="0 0 300.11 195.99" xmlns="http://www.w3.org/2000/svg"><path d="m224 .44c13.17 10.48 21.17 21.76 24 34 1.89 8.19 1.15 15.17 7 22 2.84 3.32 8.39 5.46 11 11 2.73 5.8-.05 9.06 2 15 2.27 6.59 6.45 7.35 9 14 2.72 7.1 2.11 15.66-1 17-2.79 1.2-7.47-5.07-13-7-7.25-2.53-11.55.38-18-1-8.6-1.84-13.37-7.92-21-17-6.68-8-13-13.52-19-22-9.38-13.3-14.23-26.31-15-26s2.34 14 11 28c5.65 9.13 14.43 16.58 19 22 9.39 11.15 14.67 19.38 25 21 5.52.86 8.48-.86 14 0 5.1.79 11.13 3.16 18 9s10 12.3 13 18a136.88 136.88 0 0 0 10.11 16.64c-4 6.85-3.28 13.06-21.11 19.36s-35.48 1.38-43 2-35.34 11.54-42 13-30-1.89-49-3-29.65 4.73-33 5-5.14.48-11-1c-10.68-2.7-19.23-14.1-24-12-3.85 1.69-1.81 9.77-6 14-7.19 7.25-25.45 2.28-38-5a68.12 68.12 0 0 1 -15-12c-7.5-7.77-10.23-13.92-18-16a64 64 0 0 1 20-19c11.12-6.6 19.29-6.53 31.51-9.32 19-4.35 32.27-11.29 41.49-18.68 10.37-8.32 12.21-16.24 23-24 11.47-8.25 21.27-9.21 26-19 4.94-10.23-.37-21.61 1-31 1.65-11.35 8.24-23.13 20-32s61-6 61-6"/></svg>