<svg viewBox="0 0 750.25 543.41" xmlns="http://www.w3.org/2000/svg"><path d="m419.25 20.41c-2.91 1.43-1 7.61-4 10-3.61 2.85-10.47-2-17 0-3.5 1.05-5.4 2.82-6 4-2.21 4.37 2.72 9.05 1 14-1.37 3.91-6 6.47-12 8a37.12 37.12 0 0 1 -8 1c-3 .08-4.8-.2-6 1-3.16 3.16 1.77 11.83-1 14-1.81 1.41-5.06-1.4-8 0-2.34 1.11-2.13 3.53-4 5-4.26 3.35-11.51-1.49-18 0-4.17 1-5.49 3.89-10 4-6.16.15-12.59-4.71-16-10-1.23-1.9-2.32-4.2-3-4-1.08.31.7 6.48-2 11-2.38 4-7.85 7.24-12 6-6.81-2-6.1-15.14-13-17-4.16-1.12-6.45 3.11-11 2-5.29-1.29-6.8-9-11-9-3.77 0-5.73 6.38-9 6s-3.7-7.36-8-9c-4-1.53-7.71 2.76-11 1-4.07-2.17-1.76-10.42-6-13-3.14-1.91-7.65.25-9 1-4 2.24-5.62 7.74-9 8s-5.44-4.64-8-4c-3 .75-2.27 8.09-6 10s-8.56-3.45-14-3c-7.42.61-12.67 10.43-16 9-2.18-.94-1.12-5.57-4-8a7.62 7.62 0 0 0 -8-1c-3.16 1.75-2.33 5.83-5 8-5.63 4.55-20.55-.85-22-8-.79-3.86 3.45-7.49 2-10-1.79-3.1-9.81.14-15-3-5.87-3.55-7.37-15.34-10-20-4.71-8.36-12.13-14.39-15-13-2.32 1.12-.62 6.59-3.39 8.71s-9-.92-19.61-6.71c-23.34-12.69-15-17.83-24-9s-10.53-6-16-1-18.38 10.54-10 15 2.15 11.69 12 10 19.85-16.16 24-7 18.29 10.1 4 13-18.16-3.49-22 5-11.42 13.21-11 7-8.94-2.23-11 3-15.49 9.29-3 14 18.48 12.41 28 10 10.11 4.85 18 7 16.94-12.89 23-2 18.54 15.12 20 26-6.87 20 5 27 13.77 12.5 21 16 16.85.8 26 6 25.08 7.32 20 0-7.37-20.83 1-16 20.89 4.87 18 14-2.87 14.66 13 22 19.24-.82 19 10 9.95 13.55 14 17 9.81 12.33 18 5 14.93-2.81 26 6 .65 13 15 9 9.8-4.48 14 2 9.51 4 16 12 3.37 6.79 16 17 15.39 17.11 19 21 4.33 18 15 22 25.28 18.85 29 24-3.37 21.55 7 27 12.63-15.2 22 3 19.63 17.95 25 27-9.48 2.9-1 17 22.42 2.95 27 8 12.32-.7 20 9 1.17 20.45 6 24 20 16 20 16-3.2-13.91 26 1 18-9 22-7 13.15-6.76 17 6 6.4 1.64 13 3 10 18.09 12 26c.4 1.62.93 2.43 1.59 2.79 1.81 1 4.48 0 6.11.22 2.86.43 5.27 3 7.3 7a11.4 11.4 0 0 0 5 5 10.68 10.68 0 0 0 5 1c.66 0 6.54-.72 9 0 4.45 1.3 6.7 5.68 8 8 4.6 8.24 9.8 11.54 14 20a80 80 0 0 1 7 21 190.52 190.52 0 0 0 19-3c4.28-.9 8.74-2 12-3 5.67-1.78 11-4.2 16-6 3.07-1.11 6.09-2.12 9-3q7.92-2.4 16-4a52.23 52.23 0 0 0 -16-11c-9.51-4.13-15.65-2.51-25-7-8.7-4.18-10.93-9.71-19-15s-14.14-5.69-22-11c-7.38-5-14.74-12.6-21-24-2.49-4.53-5.36-16-12-23-7.27-7.71-17.65-11.75-30-13a181.59 181.59 0 0 1 -35-24c-6.1-5.34-15.07-15.31-23-25-7.3-8.92-12.38-16.38-14-27-1.52-10-.49-26.84 10-34 9.93-6.78 32.9.13 39 0 12.29-.27 24.57-4 37-11.24l14-17.76a59.16 59.16 0 0 0 -15-18c-10-8-22.19-11-27-12-28.65-5.73-68.31-11.42-71-25-1.15-5.78 6.23-11.35 4-15-3.11-5.08-22.3 2.36-37-1-7.44-1.7-15.77-5.66-25-14-17.41-15.73-22.8-37.76-23-53-.14-10.74 5.79-22.15 2-36-3.36-12.25-10.18-15.78-14-28a57.28 57.28 0 0 1 -2-24l-10-25"/></svg>