<svg viewBox="0 0 143 169" xmlns="http://www.w3.org/2000/svg"><path d="m126 152c-.78-6.47-1.76-12.74-3-19-3.81-19.28-8.82-30.91-4-43 4.89-12.27 14.08-13.63 20-27 4.78-10.81 4.56-19 3-25a35.32 35.32 0 0 0 -13-19s3.48 2.81-5-1-8.92-8.37-17-12-21-6-21-6-3 5.33-11 8-16.33 4.22-20 6-7.4 8.79-14 8-6.61-6.74-9-6-3.39 5.59-8 7-17.1 1.8-19 4-2.67 8.78-5 9a49.15 49.15 0 0 0 14 17c8.72 6.56 16.44 6.17 24 13 4.72 4.26 10.53 17.82 12 37 .7 9.16-.68 23.2 2 36a83 83 0 0 0 13 30 18.83 18.83 0 0 1 8-8c3.7-1.82 7-1.16 10-2 7.79-2.18 8.44-7.69 16-10 4.56-1.39 9.12-.34 16 1 3.64.71 7.27 1.37 11 2z"/></svg>