<svg viewBox="0 0 381 329.13" xmlns="http://www.w3.org/2000/svg"><path d="m174 20.06c-5.53 1.38-11.21-.31-22 1s-12.9-1-15-1-12.79 10.94-15 11-11 2-11 2-10-2.67-12-3-15 13-15 13a159.18 159.18 0 0 0 -2 17c-.73 12.15.58 26.27-3 25-4-1.41-2 16-2 16s-5.22.75-11 7-9.38 26.8-11 30-21.69 15.38-24 20-6.67 14.82-7 19-19 6-19 6l-5 8s2.68 3.68 6 8c2.84 3.7 6.42 8.05 6 9-.91 2.06-3 9-3 9s31.89 32.65 38 32 14.36 5.58 15 11 6.94 15.81 7 14 15.53 22.59 32 50c-18.16 15.32 17-9 17-9l54-12s32.75-13.55 41-16 22.29-.65 28-4 10.55-26.06 11-35 28.52-19.3 29-22 29.64-25.17 33-31 26.14 5.11 31 1 35.94-2.66 36-13c0-4.48-10.51-14.91-12-25-1.95-13.19 5-26 5-26s-.57-15.06-1-16-8.05-16.3-9-18-25.91-9.61-32-12-24.44 3-26-3 1.56-6.77 0-11-10.88-9.91-13-12-23.05-8.65-24-10 1.8-24.38 2-27-3-15-3-15l-6-8c-2.71 1.1-10.06.65-11 0s-3.21 4-5 4a76.33 76.33 0 0 0 -14 1c-6.7 1.16-13.26 2-16 2a90.54 90.54 0 0 1 -10-1c-2.69-.4-3.06 3-6 4s-8 0-8 0-12.47 8.62-18 10z"/></svg>