<svg viewBox="0 0 963.82 328.55" xmlns="http://www.w3.org/2000/svg"><path d="m8 278c-.08-5-8.52-11.39-8-18a26.47 26.47 0 0 1 4-10c3.22-5 10.93-9.21 11-14 .1-6.36-10.95-10.4-10-15 .88-4.19 10.68-4 12-9 .9-3.32-2.83-5.52-2-9 .94-3.87 8.55-6 11-8 7.69-6.33 11.13-19.54 7-27-1.58-2.86-5.48-4.44-6-8-.68-4.74 4.15-10.94 10-13 4.42-1.55 10.21.8 13-2 2.54-2.54.74-7.8 3-9s5.43 3 8 2c4.12-1.59 2.29-14.3 5-15 2.24-.57 4.78 7.83 10 9 6.28 1.4 15.74-6.2 20-15 1.5-3.07 2.68-6.9 6-8 3.73-1.23 6.88 2.42 10 1 4.46-2 3.22-12.35 6-13 3-.69 6.75 10.35 11 10 4.87-.4 7.06-15.18 10-15s3.45 14.21 8 15c2.75.48 4.63-4.17 8-4 4.36.23 5.26 7.62 9 8 6.12.62 16.28-21.72 26-31 4.26-4 8.89-7.11 13-6 3.7 1 5.43 5.53 9 8 3.95 2.72 7.49 3.31 9 3 5.67-1.16 6.33-8.51 12-10 5.17-1.36 9.63 4.15 14 2 3.2-1.57 2.78-5.77 6-7 3.41-1.3 7.06 2.71 11 3 7 .52 15.08-5.84 18-13 1.29-3.18 1.24-9.51 3-10 2.82-.79 6.88 10.34 12 10s7.18-11.94 12-12c4 0 5.61 8.06 11 10 7.1 2.57 16.59-4.5 21-9 3.91-4 5.3-7.33 10-9 3-1.08 6 0 9-2 3.81-2.51 3.77-8.17 7-9s5.94 4.4 10 4 6-6.4 9-6c3.38.45 3.63 8.37 7 9 4.06.76 7.84-10.59 16-14 5.87-2.45 8.35.65 14-2 8.44-4 8.87-15.51 16-17 5.72-1.2 9.14 5.6 16 6 9 .53 12-8.06 21-8 8.36.06 10.78 7.1 20 8 6.62.65 9.2-2.54 16-3 7.08-.48 10.06 2.46 17 1 7.13-1.5 10.14-6.85 17-7 3.87-.08 11.35 3.17 19 12 6 6.93 8.05 12.92 14 14 4.48.82 9.1-3 12-1 3.75 2.59.15 11 4 14 3.43 2.64 9.47-1.8 15 0 4.08 1.33 5.86 4.56 9 9 6.16 8.72 13 14.29 16 15 4.56 1.08 10.65-1.85 14 1s1 7.79 4 11c3.93 4.29 11.17.33 23 0 4.61-.13 14.22 3.11 21 0 3.38-1.56 5.88-3.85 9-3 4.37 1.2 4.49 7.17 9 9s7.52-2.42 12-1c7.23 2.3 6.77 15 14 17 3.17.87 6.22-1.79 9 0s1.68 5.53 4 8c3.71 4 10.35.92 16 4 2.79 1.53 3.65 4.22 7 5 5.72 1.33 11.68-4.77 14-3 2 1.5-1.11 6.76 1 10 2.81 4.3 13.13 5.17 20 1 1-.62 5.25-5.31 8-5 4 .45 4.79 7.25 9 8 4 .71 6.4-4.7 11-5 6.65-.43 11.8 9.31 15 8 3.77-1.53-.21-16 5-19 3.15-1.83 6.74 2.09 11 1 7.07-1.8 7.36-12.3 15-15 2.81-1 5.89.12 9 0 4.12-.15 7.18-1.84 11-1 5.87 1.28 9.44 7.81 14 7 3.8-.67 5.16-6.23 8-6 3.86.31 5 10.69 9 11 2.66.21 4.25-4.37 7-4 2.3.31 3 4 5 4 2.37.06 3.4-4.77 6-5 2.41-.21 4.73 3.42 6 6 4.14 8.3 2.64 16.75 2 20-1.42 7.37-3.4 15.43-5 19-4.71 10.55-11 15.41-11 25 0 3.88 1.4 7.48 2 12 .79 5.85.8 9.44-1 13-2.5 5-6.31 5.47-9 10-4 6.79-1.82 16 0 21s4.67 8.23 6 9c2.08 1.2 5.22 1 7 3 2.71 3 1.16 8.9 0 12-1.73 4.66-4.26 6.67-6.18 11.26s-2.68 8.74-.82 10.74c-11.76-8.46-22.46-12.31-31-9-7.16 2.78-8.43 9.16-14.55 12.88-12.36 7.5-32.62-1.42-43.43-.84-16.73.9-33.11 14.09-43 18-37 14.41-61.36 12.79-73.08 4.59-7.76-5.43-11.11-12.34-18.92-12.59-13-.42-24 22.54-37 31-12.81 8.33-35.48 16.13-54.33 8.32-11.75-4.91-15.5-16.51-27.69-18.36-19-2.89-29.94 20.8-49.17 18.32-12.08-1.56-19.34-15.75-27.83-21.32-22.22-14.61-40.68-3.44-62-20-12.32-9.57-10.06-18.7-22.92-27.17-21.69-14.28-48.35.43-89.37.84-20.44.2-39.17-4-46.71-7.67-11.78-5.76-16.8-15.17-31-19-14.63-3.94-28.42 3.73-43-4-6.47-3.43-9.76-7.92-15-15-9.44-12.75-17.91-22.8-24-25-14.55-5.26-32.49 4.35-46 15-13.16 10.38-24.49 35.45-42 39-13.24 2.68-23.19-8.37-35-3-11.54 5.26-12 21.14-22 30-8.86 7.93-21.69 11.06-38 10z"/></svg>