<svg viewBox="0 0 794.05 225" xmlns="http://www.w3.org/2000/svg"><path d="m664.05 149 24 10s6.42-3.58 10-4 7.41 5.13 11 7 18 2 18 2 11.92-7 12-10 6.21 1.94 12-2 9.92-12.29 14-13 9 6 9 6 3.67-4.24 5-6 15-6 15-6-12.14-.62-20-1-14.58-.82-19-4-3.08-10.57-6-13-4.64-12.34-10-17-3.34-10.51-4-15-7.68-19.37-13-19-27.81.68-36 3-15.79 8.85-24 7-13.88-11.79-22-10-15.39.92-22 1-15.25 1.8-24 2-37.44 2.55-26-3c-2.7.73-23.48-2.31-32-1s-13.47 2.36-17 0-11.13-6-13-7-8.08 4.12-11 5c-1.39.42-19.32-4.55-38-6-20.59-1.6-41.84.32-37 1-18.26-2.58-39 2.38-53 0-16.05-2.73-21.72-11.57-31-15-14.53-5.37-16-11-16-11s-20.86-4-25-3c-8.36 2-16.74-5.31-28-7-27-4.06-23-20-23-20s-35.63 6.72-39 7-10.25-2.9-14-3-8.29 2.19-14 1c-9.12 6.07-16.65.52-21.4 11.78-1.9 24.33-7.33 36.56-14.6 42.22-10.23 8.62-20.39 7.7-22.69 11.49-4.08 6.69 6.87 13.44 17.69 19.51 5.65 3.17-.42 9.39-4 10s-21.55 5.15-27 6-26.49 2.3-29 2-2.2 6.58-6 7-16.62.63-24 2-29 6-29 6-6.85 21.25-8 25 2.18 6.68-2 13-7.5 11.75-7 14 0 11 0 11 6.4 4 7 6 8.82 11.07 11 11 6.2-9.36 8-9 7.1 6.45 11 10 8.67 5.35 15 6 8.33-1.7 11-2 11 14 11 14 5.18-6.89 8-7 8 10 8 10a40.85 40.85 0 0 1 9-5c4.11-1.4 3.74-9.08 6-11s7.17 2.45 12 5c2.73-3.21 15-9 15-9s-11.45-4-16-5 2-4 2-4l-27-3s13.84-10.35 18-10 6.83-5.07 9-8 5.16-6 9-6 6 5 6 5a50 50 0 0 1 9-8c4.7-3 11.53-2.73 20-8s8.81-6.25 12-6 8.33 9.7 11 12 5.19-.73 8-3 8.18-4.53 11-6 7.65-7.43 12-7 13 15 13 15 6.74-4.44 12-4 10 9 10 9 5.16-6.82 8-7 7.63-1.91 14-6 7.77-9 11-9 9 6 9 6a122 122 0 0 1 10-8c4.43-3 11.8-3.24 15-4s7.28-9.19 13-10 8.94 11.28 12 12 7-3 7-3 7.74-3.48 11-5 9.31-7.38 12-7 13 15 13 15 6.82-5.43 10-5 12.53 8.47 20 11 16.09.09 19 0 9 13 9 13 19 14.9 22 15 10.23 18.35 21 22 29.2 2.72 38 4 13.73-2.72 17-13 6.62-23.06 16-31 36-12 36-12z"/></svg>