<svg viewBox="0 0 773.26 404.58" xmlns="http://www.w3.org/2000/svg"><path d="m730.14 218.58s-4 14.8-8 23c-2.46 4.11-1 6 1 7s5.89-.7 5 2a28.52 28.52 0 0 1 -3 6c-.79 1.37-3 5.87-3 8s.81 8.72-2 10-7.79 2.55-9 6 .15 6.27 2 7 8.56.6 9 3 1.86 11.2 3 14 3.11 11 3 14-1 5.49 1 6 9.54-.85 12 1 3.81 4.65 8 5 10.53.15 13 2 7.05 8.58 7 13 4.93 11.82 4 16-5.23 9.95-6 13-1.39 6.19-4 9-8.63 4.63-10 8-4 13-4 13-13.82-10.34-27-13-16.81.46-22-1-18.62 1.24-23 3-9.86 1.1-15-1-22.7-1-29 0-11.41 1-29-6-15.33-4.33-22-8-20.66-7.52-27-9-16 .57-23-3-9.67-6.79-26-2-19.08-.31-26-3-8.3-12.49-13-14-7-2-7-2l-5-1s-4.66.76-6-1-1.18-7.27-4-10-12.16-19.15-31-16-14.09 11.36-23 12-21 7-26 5-6.21-12.88-11-16-21.56-7.2-37-4-24.32 6.7-30 4-8.51-6-15-6c-17.67-.07-15.79 10.94-22 11s-9 3-20 7a134.12 134.12 0 0 1 3-14c.63-2.66 2.06-11.41 1-13s-5.08-5.22-5-7 2-3.53 2-6 7.47-3.59 7-8-7.36-8.09-5-12 5.3-8.11 6-13-2.7-7.3-1-12 8.83-9.66 9-12-8.65-6.61-3-11 13.26-5.09 18-8 10.52-10.35 14-13 11.46-4.24 14-5 7.58-1.1 15 0 12.29 5.38 17 2a135.59 135.59 0 0 0 16-14c3-3.36 4.16-7 7-10s8.59-.34 11-4 7.32-12.4 3-13-13.12 2.7-14 4-2.69-3.75-8-2-17.73 2.66-21 5 3.75 5-1 6-14.87-1.62-21 0-10.72 6.43-12 9 4.52 9 1 12-7.91 5.86-11 8-8.62 8.36-13 11-19.47 6.79-20 10 3.3 10.36 2 13-8.49 8.49-8 11 3.51 8.44 2 12-8.76 9.52-7 14 7.61 10.95 5 13-7.35 9-7 13 4.86 7.65 4 10-.65 7.53-2 11-3 14-3 14a55.28 55.28 0 0 1 -9 6c-6.45 3.67-25.42 11.86-31 16s-7 4.4-10 8-7.6 5.87-12 8-2.8-2.4-5-2-6.48 7.31-9 11-5 4.58-7 6 1.5-5.52-4-5-13.45 1.31-16 2-7.09-3.06-7-6 7-4.84 9-7 7.81-3.32 8-6 6.13-8.17 3-9-7.1-.59-9 1-2.52.94-5-2-1.44-5.06-6-4-2.64-4.85-5-5-5.21 1.94-10 4-2-8.6-4-7-2.33 7.11-7 7-1.6-6.92-5-6-8.79 10.87-12 9-3-14-3-14-5.71 4.44-7 3-3.88-10.35-6-9-6.86 5.27-9 3-9.57-8.89-13-9-9.92 3-16 1-5.67-9.12-11-9-5.91-2.35-5-5 6.21-4.69 9-6 5.31-7.06 7-9 2-6.19 9-5-.7 6.81 12 4 7.66.84 15-3 13.15-7.63 9-9-3.6-4.32-9-3-8.65-7.45-12-4-2.88 10-7 10-4.87-1.22-9 0-6 4.47-8 3-8-5.17-10-10-7-8.3-7-12 5.73-6.35 6-10 4.18-5.3 3-11-6.74-4.22-8-9-3.54-10-1-15 11.34-11.9 13-17 7.88-14.92 13-17 22.15-13.58 27-17 10.37.08 16-4 6.56-9.8 12-13 15.66 2.21 25-5 13.78-10.09 17-13 11.52-6.08 17-9 14.83-5.31 10-8-9.81-4.59-14-1-13.2 11-16 7-3.88-10.16-8-13-7.25-3-11-5 .17-6.51-1-8-9-.09-11 0-6-3-6-6 6.13-8.45-1-9-6.1-3.31-8-5-6.51-3.52-14-3-10.7-2.6-9-5 3.56-3.47 6-6 7.27-1.27 10-2 .09-5.21 2-10 3.59-9.51 8-12 6.31 2.07 11-1 4-8.44 7-11 7-5.92 9-8 2.11-5.34 5-5 8.59 2.61 10-1 7.35-10.65 12-10 3.41 4.34 7 2 6.53-9.68 11-7 5.24 5.32 10 4 11.14-4.46 13-2 4.09 1.34 4 7-5.86 8.21-1 11 12.16 4.53 14 3 5.08-2.86 5 0-1.89 7.48 0 10 7.78 6.21 10 7 9.29-7.06 13-5 7.29 6.72 10 9 6.48-.84 8 5 1.45 13 5 17 3.62 3.22 6 8 2.79 6.44 5 10 1.21 4.24 5 5 8.81-6.51 13-2 6.4 7 11 6 17.9-6.56 23-6 7.22-3.2 10 0 2.26 6.41 9 7 12.57-2.61 18-2 7.61 3.8 13 1 9.4-4.32 12-4 9.8 3.66 14 1 5.75-10.53 12-10 12.31 4.32 14 1 9.09-6.16 10-11 1.6-8.65 4-13 10.89-10.4 14-11 9 2.25 10 5 2.64 10.71 6 12 10.35 4.3 13 4 8.81-3.29 11-3 5.52 5.76 10 5 6-6 8-6 8.85-2 12-3 6.94-.16 9-2 2.48-8 6-6 2.77 8.08 6 7 10.91-3.8 13-2 5.86 9.66 2 11c3.18-3 9.17 9.69 16 11s17.72-8.09 30-5 19.37 18.84 22 26-2.8 36 12 46 35.51 3.68 52 20 23.49 35.37 31 39 27 13 27 13z"/></svg>