<svg viewBox="0 0 531.75 213.99" xmlns="http://www.w3.org/2000/svg"><path d="m530.14 108c-3.15 11.39-12.14 14.61-14 26-2.06 12.63 7.1 18.52 7 33 0 4.76-1.29 7.7 0 12l-17 8c-9.48 1.53-18.66 3.17-28 5-17.95 3.52-34.59 8.07-53 11a467.53 467.53 0 0 1 -54 5c-15.34.61-33.51.95-42 0-23.58-2.65-42.12-9.1-64-1-5 1.84-8.84 3.74-14 5a73.7 73.7 0 0 1 -34 0c.22-.6-6-4.25-14-6-6.19-1.35-16.18-1.38-28 2-9.31 2.66-16.48 6.25-20 3-2.64-2.43-.64-6.48-3-10-3.44-5.12-10.3-3.36-15-8-3.84-3.8-3.68-9-6-13-1.33-2.29-6-7.22-12-11s-13.9-4.16-19-10c-3.27-3.74-3.37-9-8-12-5.38-3.5-11-.29-17-2-6.59-1.88-10.24-8.76-16-8-6.28.83-8.34 9.16-15 12-4.25 1.81-9.36.34-17-1-10.12-1.78-16.21-2.17-21-7a21.28 21.28 0 0 1 -6-12c-1.22-9.57 5.67-14.86 11-26s2.51-17.91 8-29c5.18-10.48 11.77-14.11 18-24 3.06-4.87 5.65-13.57 12-20 5.25-5.32 22-30 22-30 15.51 4.3 15.13 4.57 17 12s4.28 5.69 7 20-12.32 10.17 5 17-3-4.11 8-2 19.8 5.88 21 11 13.35 4.56 14 11 1.42 15.88 10 19 20.94-1.84 24 4 12.38 6.48 15 7-10 3.27 4 7 28.24-3.73 34 0 33.61 18 43 17 34.43-3 44-10 25.94-10.32 38-16 17.71-4 29-11 13.26-7.42 27-17 49-24 49-24 27.77-13 30-3 11.41 6.27 24 10 7.59 35.41 15 30c0 0 5.12 11.07 1 26z"/></svg>