<svg viewBox="0 0 416 407.63" xmlns="http://www.w3.org/2000/svg"><path d="m0 50c9.84-8.35 18.79-12.45 26-10 6.54 2.23 7.75 9.14 15 11 6.89 1.77 16-1.83 20-8 2.82-4.36 1.36-10.16 5-13 4.24-3.31 11.21 1.1 17 0 10.35-2 16-15.44 24-21 3.35-2.35 12.8-6.19 23-8 6.29-1.12 19-1 19-1s5.52 23 5 29 3.47 14.82 3 20 2.67 13 7 15c2 .93 3.51 2.73 4.89 5.3 1.55 2.89.92 4.92 2.11 7.7 2.11 4.94 4.76 5.22 8 9 1.56 1.82.94 12.82 3 13s8.58-1.24 11 1 .4 12.4 6 13 10.35-1.66 13 1 6 8.67 10 12 8.94 8.44 8 12 2.5 8 1 13-2.11 13.84 3 14 8.84 1 12 3 8.79 2 11 0 5.74-2.15 9 1 6.69 8.05 10 8 7.08-2.57 10 0 3 4.76 6 10 7.85 7.51 12 9 7.55 1.45 10 3 4.51 10.54 12 15 11.77 5.93 14 10 9.47 6.89 10 14 3.6 16.29 6 20 10.24 5.18 12 11 4.82 12.08 7 19 10.34 3.29 15 11 10.85 15.25 13 20 10.31 7.89 13 12a25.45 25.45 0 0 1 -8 11c-7.85 6-18 3.06-24 10-3.93 4.53-1.64 8.36-6 13-5 5.28-12.79 4.24-18 7-9.64 5.09-12.51 17-17 22-10.17 11.3-28.12 15.3-53 13 3.66-20 2-35.36-7-44-12.18-11.73-33.23-3.8-49-10-30.38-11.94-34-53.27-58-77-20.44-20.18-41.13-17.94-59-44-15.56-22.7-8.52-40.51-27-62-15.25-17.73-30.35-15-45-35-11.28-15.38-12.57-33.77-18-46a132 132 0 0 0 -27-39z"/></svg>