<svg viewBox="0 0 169.79 262" xmlns="http://www.w3.org/2000/svg"><path d="m89.79 262a23.54 23.54 0 0 1 7-11c4.77-4 10.4-3.35 14-8 4.25-5.49.71-11.92 4-19 1.79-3.85 5.67-7 8-10 3-3.92 5.6-8.29 6-10 1.53-6.62-2.8-12.14 0-18 1.59-3.34 5.15-4.06 6-8 .82-3.78-1.8-5.34-1-9 1-4.34 5.35-5 7-9 2.07-5-1.24-9.66-3-16-.83-3-.91-11.16 0-19 1.18-10.15 4.82-17.35 7-19 5.54-4.19 15-2 17-6 1.71-3.52-4-8.55-4-14 0-6 3.43-10.47 12-17-9.54 1.11-19.08 2-28-1-11.82-4-16.3-10.93-26-18-13.87-10.11-27.55-9.59-40-15-23-10-30.64-23.68-53-35a67.76 67.76 0 0 0 -20 30c-2.79 8.57-3.56 19.09-2 33 1.21 10.71 5.21 26 6 30 2.82 14.46 2 25.58 5 40 4.78 22.68 14.48 39 20 43 7.63 5.57 22 6.35 28 16s.29 21.6 3 33c1 4.18 5.55 13.6 12 22a81.62 81.62 0 0 0 15 15z"/></svg>