<svg viewBox="0 0 521.37 358.03" xmlns="http://www.w3.org/2000/svg"><path d="m103.31 332s-9.47-15.68-8-17c-12.06-3.17-23.9-6.49-36.11-10.09-9.59-2.84-18.76-5.66-23.89-8.91-12.09-7.66-14.88-16.53-26-16-2.31-6.43-6.31-15.55-8-25s-3.13-28 5-34 5.63-28.65 6-29-5-4.95-8-13c-1.44-3.86-2.83-12-2-21 .78-8.46 3.36-15.35 5-17 6.39-6.45 15.34-2.71 24-8 3.71-2.27 5.14-4.5 9-5 6.2-.81 10.25 4.49 15 3 5.11-1.61 8.52-18.93 9-20 2.69-6 6.14-11 4-14-1.82-2.54-5.9-1.16-8-4-1.91-2.57-1.34-7.36 1-9 2.84-2 6.76 1.77 10 0 4-2.18 4.51-10.75 2-17a19.1 19.1 0 0 0 -3-5 133.44 133.44 0 0 0 16-11c3-2.47 6-5.29 11-6 5.65-.81 10.48 3.14 15 1 5.68-2.7 4.42-11.84 10-14 4.27-1.66 7.86 2.95 12 1s3.34-7.54 8-10a11.07 11.07 0 0 1 4-1c4.76-.68 9.38-2 11-3 3.25-2 5.18-5.44 8-8 1.51-1.38 4.25-3.59 5-3 1 .81-2.66 6.22-1 8 1.83 2 8.07-2.37 11 0 1.55 1.26 1.29 4.33 2 6 1.71 4 6.32 7.54 10 7 4-.59 4.58-5.73 9-7 3.38-1 6.77 1.69 9 0s1.08-7 2-10c1.43-4.73 7-5.07 10-6.83 3.89-2.22 5.05-5.55 7-5.17 4.13.82 6.13 5.22 10 5 2.39-.14 3.68-2.46 6-2s2.83 3 5 4c2.46 1.18 5-.16 7 0 5.79.47 9.1 7.07 13 6 3.28-.9 3.31-6.12 7-8 3.45-1.76 7.48 0 10 1a51.52 51.52 0 0 0 17 3 35.05 35.05 0 0 1 9 4c4.39 2.77 6.65 6.49 12 9 2.67 1.25 10.71 4.43 16 1 2.89-1.88 3.84-6.47 7-7 2.74-.46 4.08 2.36 7 2s4.29-3.73 7-5c1.18-.56 4.83-1 9 0a37.75 37.75 0 0 1 14 7c4.77 3.62 9.57 7.89 11 10 4 6 5 18.72 11 21 2.82 1.08 5-.48 8 0 4 .64 8.08 3.6 12 10 3.79 6.19 3.37 16.61 9 20 3.27 2 7.18.25 10 3s2.26 7.71 2 10c-1.05 9.29-.48 17.4 1 20 4 7 12.56 5.64 19 12 5 4.95 4 9.56 10 14 1.47 1.09 3 1.95 4 4 2.1 4.29-1.31 9.46 1 12 1.94 2.14 5.76 0 9 2 2.3 1.45 3.21 5 5 5 2.23 0 3.37-5.15 5-5 1.32.12 1.62 3.59 3 7 1.55 3.83 4.42 6.15 8 10 5.81 6.25 8.51 11.1 8 14-.65 3.64-4 6.64-7 8-2.07.93-4.36.5-6 2-3.31 3-.43 9.23-3 14a14.77 14.77 0 0 1 -10 7c-4.4.8-4.92 3-1 6 4.44 3.42 7 6.57 7 8 0 3.53-4.52 4.95-6 9-.87 2.38-.09 6.8-2 8s-4.08-1-6 0c-2.83 1.53-.77 8.43-3 13-2.15 4.41-6.2 4.73-8 10-.78 2.27-.32 3.7-1 6-1.34 4.53-4.95 8-8 10-5 3.3-8.07 1.63-13 5-3.49 2.38-4.62 6.71-9 8-3 .9-6.15-.86-9 1-1.81 1.17-2.42 3.88-4 4-2.53.19-3.86-5.74-7-6-3.38-.28-5.13 5.84-9 6s-5.6-5.75-10-6c-4-.23-5.94 4.52-10 4-3.06-.39-3.47-3.28-6.55-3.79-3.87-.63-6.52 3.37-10.45 3.79-3.58.38-8.41-4.76-11-5s-4.38 1.59-6 3c-5.65 4.9-14 14-14 14a21.77 21.77 0 0 1 -9 4c-5.49 1.07-23.61-2.54-30-2s-23.94 5.58-25 6-6.61-.41-17 0c1-7.39-3.32-16.47-10-19-5.65-2.14-13.05 1.65-14 0s6.54-6.58 6-12c-.36-3.62-3.85-4.53-4-8-.2-4.61 7.31-8.37 9.94-12.61 3.87-6.25 1.46-9.92 5.06-16.39 2-3.58 6.31-9.45 13-12 5.48-2.09 9.43-.22 15-3 6.11-3.05 11.51-10.25 10-16-2.16-8.19-16.66-9-20-9-8.64-.11-13.63 2.33-16 5-3.83 4.31-2 9.77-6 13-5.95 4.84-18.49-1.63-20 1-1.15 2 6.09 7.77 8 15 .64 2.43 2 9.43-1.49 12.29-3.07 2.53-11.91-.31-14.51-.29-5.65 0-9.14 2-14 4a149.44 149.44 0 0 1 -32 9 49 49 0 0 0 -10 3c-8.78 4-12.63 8.61-13.39 12.25-1.51 7.2 6.21 11.93 4.39 18.75-1.33 5-6.52 6-12 11-8.43 7.65-10 14-10 14l-1 8-11 14z"/></svg>