<svg viewBox="0 0 427.26 693" xmlns="http://www.w3.org/2000/svg"><path d="m286.88 176c-.09 2.23 2.15 1.38 4 5s4 3.9 2 8 2.05 14.69-2 18-8.53 10.82-6 14 6.93 10.54 3 10-4.38 3.66-4 8-3.75 10.24-2 12 4.09 2.9-1 5-10.63 2.88-11 5-1.15-1.81-5 0-7.75 9.95-8 12-4.18-4.67-3-9 3.48-14.08 5-18 3.81-6.15 8-11 8-8.9 8-13-5-3-5-3-4.52-1.22-7-1-11.47 5.59-12 4-2.53-.89-2 3-1.3 10.88-4 11-6.39 4.05-8-2-8.86-9.21-9-7-2.2 5.68-4 3-4.67 1.69-7 5-5 8.17-9 7-3.4-2.08-7-1-8.12 3.73-9 9 1.36 7.86-4 13-5.58 5.63-5 9-1.32 10-1 12-3.81 1.79-3 6 4.25 9.55 3 13-3 1.87-4 8 3.33 9.7 1 12-11.39-4.61-10-1 5.24 10.81 3 16-6.42 9.19-7 13-1.15 15.74-4 17-8.43.5-8 7 3.06 8.94 3 14-3.47 10.38-6 14-7.38 12.24-7 15 2.44 8.29 0 14-7.91 17.56-8 22a92.65 92.65 0 0 0 2 20c1.69 7.67 5 3.81 6 7s1.53 9.2 3 12 6.53 4.4 4 8-11 12-11 12-3.68 2.77-2 11 7.62 9.41 7 14-4.21 15-1 20 7.57 7.58 9 11-2.15 8.21 2 11 8.2-1.38 9 4 .89 16.29 1 19-.34 17.74-2 22-4.23 11.18-2 14 8 16 8 16-11.57 6.45-16.36 10.33c-5.28 4.26-8.79 8.83-14.28 12.72-12.19 8.62-29 8.28-42.36 15 0 0 1.82-5.38-2-13-6.68-2.23-11.16-5.51-13-10-3.21-7.82 3.75-14 1-22-3-8.61-13-8.23-18-17-4.53-8 0-13.19-5-21-5.07-8-15.51-7.8-17-14-2.74-11.41 28.42-23.38 27-38-1.41-14.46-31.78-17.87-34-35-.88-6.76 5.41-13.38 2-20-2.56-5-7.25-4.18-10-9-4.13-7.24 3-15.89-1-21-4.92-6.27-20.11 1.32-24-4-3.46-4.75 3.71-17.47 13-27 8.44-8.66 17.31-9.94 23-19 9.12-14.52-.75-36 8-42 6.9-4.74 17.29 5.07 25 0 5.78-3.81 7.51-14.22 5-22-3.93-12.17-20.4-15.88-20-23 .57-10.19 34-11.65 38-27 1.93-7.31-2.53-16.89-9-20s-13.69 2.21-17-1c-4-3.86.19-17.3 9-26 4.78-4.72 14.27-8.56 15-9 15.85-9.55 15.45-27.31 31-33 10.69-3.91 16.9 2.74 28-2 10.13-4.33 13.7-13.59 20-24a124.36 124.36 0 0 1 18-23c3.63-2.94 7.47-9.56 5-22s-21-13.31-24-22 3.41-16.49 5-24 19.85-10.87 24-15 5-21 5-21c15.43-3.13 31.45-34.22 35-38 12.87-13.73 24.44-21 52-29-4.26 13.84.59 32.63 12 42 5.1 4.19 13.21 4.72 17 11 5.83 9.67-3.21 21.94 0 34 2.07 7.76 7.58 14.38 16 20-1.41 7.43-9.34 23.46-3 27 7.26 4 16 3.13 18 11s15.24 10.4 14 5 4-8.8 8-10 3.09 5.27 11 7 7.85 2.13 8 7 3.26 7.48 5 9 4.05 1.47 4-4 3.27-1.67 6-2 5.64.84 10-1 5.76-4.51 6-6 2.1 1.45 4 5-.52 7.85 1 9-2 10-2 10-1.05 3.66-3 4-2 1.27-4 3-5 7-5 7-.79-2.5-3-2-7.31 1.35-9-3-3.92-6.51-5-7-5.26-1.91-6 1-5.3 8.23-6 4-2.7-3-5 0-1 9.76-4 7-6.52-3.91-9-6-4.5-4.85-6-3-1.78 5.29-4 2-3.18-5.77-6-5-2.79 2.61-5 2-8.14-4.53-8-1 .69 5.47-1 10-3.72 8.57-6 10-2.58 10.57-4 6-4.9-7-3-10-1.81-5.1-2-8-3.62-.82-3-5 3.19-6.17 3-8-2.78 3.79-4-2 2.79-10.55 0-11-9.6-2.73-12-3-12.17 3.3-12-1-4-6.73-6-3-8.36 4.31-8 7-3.54 3-3 6 5 .71 7 2c2.77 1.46 3.39 3.89 4 8.95z"/></svg>