<svg viewBox="0 0 280.03 360.74" xmlns="http://www.w3.org/2000/svg"><path d="m189 239.74c-3.25-8.5-8-19.06-8-33a71.48 71.48 0 0 1 7-31c5.3-10.94 12.06-13.89 17-25 4.37-9.84 1.9-19.79 9-28 9.38-10.84 22.53-6 31-17 7.11-9.2 1.38-17.93 9-27 8.19-9.75 25.21-8.08 26-13 .59-3.71-8.44-6.23-20-14-4.42-3-13.34-13.47-23-16-13.17-3.45-19.11 3.71-32 1s-17.14-12-29-17c-6.21-2.6-19.8-5.08-35-4a96.4 96.4 0 0 0 -18 3c.45.35-4.19 9.55-14 15-7.25 4-18.48 6.71-23 2-2.64-2.74-1.11-7-4-9-4.11-2.92-10.78 2.89-15 0-3.38-2.31-1.72-8.32-5-10s-7.21 3.31-11 2c-5.32-1.84-4-12.95-10-17-3.62-2.43-8.79-2.2-15 0a31.07 31.07 0 0 0 -12 6c-8.06 6.59-14.34 18.78-11 28 3.93 10.85 18.63 9.81 22 20 3.1 9.38-11.12 26.93-14 35-3.89 10.89-4.67 21.8-4 26 2.36 14.87 19.07 32.81 22 38 8 14.18 9.31 26.92 8 31-3.74 11.58-18.78 17.55-25 25-8.19 9.81-12.13 23.13-12 40 3.09 14.27 9.16 25.72 19 33 13.07 9.67 26.54 5.6 40 11 11.51 4.62 20.86 17.59 35.92 18.09 12.52.42 21.11-7.24 30.08-9.09 15.88-3.27 33.5 2.19 53 16 16.55 18.12 15 16 15 16s12.49 10.21 24 16 16.14 7.12 26 9c3.31-8.66 18.4-18.47 14-32s-25.58-16.82-35-29-10.76-30.9-17-39-10.92-7.74-16-21z"/></svg>