<svg viewBox="0 0 461.47 439.27" xmlns="http://www.w3.org/2000/svg"><path d="m88.47 19.61c30-2.13 30.19-6.42 44-4 16.77 2.93 25.68 10.07 39 6 14.59-4.47 16.27-17.73 30-21 13.9-3.32 26.79 7.31 50 23 11.68 7.89 22.37 14.12 29 15 25 3.28 40.62-20.7 61-15 20.79 5.81 20 34.83 42 41 15.91 4.46 25.17-8.38 43-5 15.57 2.94 20.31 13.87 35 25-18.79 16.66-29.56 36.08-30 54-.25 10.22 2.61 17.92-2 28-5 11-21.65 20.71-24 23-11.63 11.3-23.3 30.21-18 43 2.74 6.61 10.78 8.63 11 14 .44 10.9-38.89 19.19-59 35-17.1 13.43-21.84 29.61-43 42-8 4.7-26.59 11.45-47 14-17.68 2.21-48.08-4.89-71 6-8.92 4.23-8.11 24.51-27 39-15.93 12.22-28.92 44.76-25 54-24.09 4.94-44 3.43-56-8-10.08-9.6-8.51-21.65-16-33-11.59-17.55-24.95-16.5-38-33-8.62-10.89-22-34.79-14-54 7.29-17.4 28.68-17.22 34-34 5.45-17.2-13.74-33.4-15-53-1.3-20.27 12.23-36.72 33-65 15.73-21.42 27.49-39.4 33-57 8-25.61 7.69-52.51 1-80z"/></svg>