<svg viewBox="0 0 324.02 187.57" xmlns="http://www.w3.org/2000/svg"><path d="m26 126c14.11.4 21.88 5 36 5 18.72-.06 27.33-8.38 45-10 19.42-1.78 34.4 7.49 50 10 22.42 3.61 36.75 2.16 47 14 8.17 9.44 5.18 17.43 13 27 13.72 16.79 43.18 18.61 64 12a73.88 73.88 0 0 0 42-36 32.06 32.06 0 0 1 1-16c-5.78-8.69-12.73-15.09-21-19-15.49-7.33-28.87 0-42-9-12.23-8.4-10.15-21.11-23-32-2.94-2.49-11.35-6.94-20-10-5.17-1.83-28.06-4-38-13-7.37-6.68-6.53-12.44-14-19-9.13-8-19.72-23.54-22-25-4.88 2.31-8 1-8 1-4.51-.73-6.43-5.7-12-6-5-.27-8.72 4.46-13 6-4.79 1.74-9 0-13 3-5.82 4.42-3.71 12.7-8 19-4.8 7.05-10.14 5.58-15 13-3.17 4.83-2.06 9.78-6 13-7.14 5.82-21.61-1.72-32 0-9.28 1.53-17.58 7.13-25 16q2 9 4 18a1.55 1.55 0 0 1 1.14 0c4.79 2.2-8.14 35.7-17.14 41-.62.39 16.74-3.25 26-3z"/></svg>