<svg viewBox="0 0 607.87 178.35" xmlns="http://www.w3.org/2000/svg"><path d="m375.42 178c5 .8 8.78.26 11-2 2.69-2.75 1.28-7.06 4-9 3.53-2.52 9.71 2.47 16 1a12.38 12.38 0 0 0 7-4c3.84-4.85.36-10.54 4-15 3.05-3.73 10.43-3.46 14-5 5.52-2.38 10-8.35 12-10 8.35-6.77 22.23-13.63 30-9 3 1.78 4.19 6.33 8 7s6-3.17 10-3c6.22.27 13.13 9 13 17 12.06.8 28.49 1.41 37 2s21.06 2.27 30 0 27.28-5.82 29-8c5.85-7.42 8.76-16.23 6.88-17.86-1.63-1.41-6.38 3-9.48 1.1-2.55-1.52-1.6-5.75-4-6.93-2.85-1.4-6.42 3.45-10.21 2.55-4.42-1-4.57-7.86-8.76-8.76-4.36-.93-7.54 5.76-12.4 5.11-3.32-.44-4.35-3.84-8-7.3-2.17-2-8.58-7.27-15.68-6.56-5.93.59-10.61 6.93-15 5.47-2.81-.94-3.11-4.44-5.84-8.39-3-4.42-7.36-8.57-12.5-9.43-4.12-.69-7.59 1.71-12 0-3.66-1.42-5.47-5.09-8-7-3.15-2.38-5.66-2.19-9.09-4-3-1.6-8.16-7.4-13.91-8a15.47 15.47 0 0 0 -7 1c-5 1.82-8.61 7.7-12 7-3.19-.66-3.26-5.77-7-7-2.93-1-4.68 1.42-8 1s-5.47-3.72-8-3-2.56 4.29-5 6c-3.37 2.35-7.19-.14-11 1-6.24 1.86-8 10-13 10-4.08 0-5.37-5.27-10-6-5.19-.82-7.63 4.35-13 4-5.59-.36-7.29-6-13-8-5.1-1.75-9.93 1.06-14-2s-3.32-8.8-6-13c-3.11-4.87-6.48-4.43-10-9-2.43-3.14-3.72-10.06-8-12-3.95-1.79-7.17 1.14-11-1s-2.68-5.88-6-8c-5.68-3.63-15 3.59-19 0-2.08-1.88-.67-5.54-3-7s-6.23 1.51-8 0 .94-6.23-1-9c-1.79-2.55-6.84-1.63-10-3-4-1.72-4.77-5.22-9-6-4-.75-6.32 2.19-10 1-4.07-1.32-5.1-7-8-7-2.59 0-5.18 6.16-7 8-5.74 5.79-15.95 6.83-23 5-5.9-1.53-11.79-8.45-17-7-4.44 1.23-4.54 6.57-9 9-6.6 3.58-12.27-2.32-19 1-5.51 2.71-5.06 8.84-11 11-4.12 1.5-7.45-1.22-11 1-3.91 2.45-3.46 9-7 10-2.24.64-3.59-1.6-6-1-3.17.78-3.21 5.22-6 7-5.82 3.71-14.71-4.59-20-1-3.1 2.1-2 6.47-5 10-3.58 4.14-9.38 4.91-12 5-5.62.19-10.79-2.54-14-5-1.82-1.4-2.84-2.57-5-3-3.76-.74-6.79 2.37-10 1-1.76-.75-2.34-3-4-3-2.24-.07-3.29 3.78-6 5-3.77 1.69-6.54-1.66-10 0-3.81 1.83-3.6 8.23-7 9-2 .45-3.06-1.48-5-1-2.8.69-3.56 5.45-5 10a39.42 39.42 0 0 1 -4 9c-2.81 4.24-9.73 8.82-9 11 .94 2.82 10.84.91 12 4 .92 2.47-6.53 8.91-9 13-2.73 4.51-4.19 9.06-3 10 1.52 1.21 6.42-4.66 12-4s6.46 6.09 12 7c5 .82 9.07-3.91 13-2 3.32 1.61 2.48 5.84 6 8 3.18 2 6.17 0 9 2 2.56 1.84 3.37 5.79 3 11 13.23-8 26.43-11.66 39-9 10.38 2.19 19.1 9.43 25 12 8.51 3.71 20.12 5 35 5 28.34 0 49-5.6 69 2 13.05 5 16.75 13.14 31 16 25.33 5.08 37.47-13.35 63-10 13.67 1.79 25.19 10.91 39 16 6.17 2.28 12.48 4.27 18.99 6z"/></svg>