<svg viewBox="0 0 452.02 517.02" xmlns="http://www.w3.org/2000/svg"><path d="m395 213c1.16 1.1-.27 3.43 1 5a4.69 4.69 0 0 0 5 1c2.56-1 2.73-4.54 5-5 1.81-.37 3.51 1.4 4 2 1.05 1.27 1.82 3.87 1 8-.95 4.73-3.43 6.55-4 11a15 15 0 0 0 3 11c1.57 2 4.55 4.94 8 5 3.12.05 5.11-2.62 8-2 2.48.53 3.63 3 5 5 1.19 1.76 6.43 5.54 11 9s7.43 5.57 9 9c1.4 3.08 1.32 9.29 0 17a41.28 41.28 0 0 0 -1 7c0 3.84 1.25 6.29 0 9-1.81 3.89-6.11 3.8-8.24 7.38-1.21 2-1.73 5.93.24 11.62 2 5.86 7.85 9.55 8.22 15.89.19 3.24-.89 7.46-3.52 8.7-2.06 1-4.46-.69-5.7.41-2.34 2.06 3.05 10.11 1 12-1.45 1.33-6.27-.66-10-4-8.09-7.22-9-20.11-10-20-.51.06-.22 3.52-2 6-1.43 2-4.14 3.7-6 3-2.4-.9-2.27-5.74-4-6-1.56-.23-3 3.7-6 5-1.57.68-3.93 1.08-5 0-1.64-1.64.49-5.89 2-10 2-5.59 1.2-9.33 3-15 2.3-7.28 5-11.38 4-18-.73-4.82-3.24-6.19-4-11-.66-4.09 1.56-9.8-1-14-1.83-3-4.49-2.8-6-6-2-4.23 1.28-7.48 0-12-1.42-5-5.67-5-7-10-1.25-4.69 1.89-6.88 1-12-.68-3.87-2.8-5.15-4-9a19.25 19.25 0 0 1 0-11c1.17-3.46 2.44-3.63 4-4s2.71-1.22 4 0zm-2 133c.88-3.55 2.08-6.46 3-10 .82-3.17 1.07-5.86 2-9a66.92 66.92 0 0 1 3-8c1.64-3.74 2.89-5.93 3.38-9.8a23.32 23.32 0 0 0 -.38-8.2c-1-4.35-3.36-5.61-4-10-.54-3.69 1.47-6.43 0-10s-4.3-3.51-6-7c-1.63-3.32-.61-7.42-1-10a18.18 18.18 0 0 0 -3-8c-.24-.33-4.06-3.84-5-7a17.77 17.77 0 0 1 0-6c.43-3.09 1.3-5.29 1-8a14.18 14.18 0 0 0 -3-7 21.53 21.53 0 0 0 -10 7 26.68 26.68 0 0 0 -4 9c-1.69 6.15-2.36 12.58-2 15 .65 4.45 3 7 3 12 0 6.5-3.88 8.15-4 14-.09 4 3.76 12.13 12.95 20.57 4.11 3.78 8.42 6.89 8.55 11.76.1 4.05-3.4 7.26-4.5 10.67-.89 2.76-1.93 8.06 0 13 1.18 3 5.22 6.3 5 10-.25 4.1-5.3 6.71-7 10-2.81 5.41-1.07 11.35.94 17.67 3.53 11.11 5.38 17.5 7.06 17.33s2.46-4.53 3-9a30.61 30.61 0 0 0 0-8c-.62-3-3.51-6.92-3-11 .4-3.21 2.22-3.84 3-7 .9-3.72-.33-6.29 0-10a36.87 36.87 0 0 1 1-5zm-14-3c2.22-2.31-.92-7.56 0-12 .8-3.92 3.67-5.31 4-10a13 13 0 0 0 -1-6c-2-4.52-5.79-5.41-10-9a25.82 25.82 0 0 1 -8-12c-1.63-5.49-.56-9.6 0-15a65.67 65.67 0 0 0 0-13 34 34 0 0 1 -8 9c-3.53 2.72-6.4 3.52-9 7-3 4-2.79 7.89-4 14-1.46 7.37-4.39 13.49-6 15-2.39 2.24-7 3.31-9 7-2.13 4-1.08 9.38 1 13 4.67 8.15 16.14 7.33 19 15 1.56 4.19-1.66 9.15 1 12 2.36 2.54 6.64.41 10 2 6.51 3.09 10.48 22.79 12 26 1.9 4 3.79 7.3 5 7s1.88-4.85 1-9c-1.23-5.71-6.52-9.07-6-14 .39-3.77 4.69-5.87 4-9s-5.68-3.39-7-7a8.37 8.37 0 0 1 3-9c2.75-1.89 6.13-.07 8-2zm-48-3c1.94-1.6 8.16.73 10 5 1.57 3.65-1.19 6.19 0 10 1.37 4.43 5.7 4.52 7 9 1.08 3.75-.63 8.28-3.16 11-2.29 2.44-6.14 2.71-6.84 5-1.19 3.89 7.09 8.25 8 15 .46 3.42-.48 8.16-4 11s-7.81 2.47-10 2c-4.38-.94-6.08-3.94-9.16-5.24-8.51-3.58-19.24 3.35-19.84 2.24-.44-.81 6.16-4.84 10-10 4.24-5.72 5.89-10.64 6-15 .16-6.78-5.28-13-3-20a12.11 12.11 0 0 1 4-6c3.35-2.51 7.85-1.25 10-4 2.43-3.13-1-8.34 1-10zm37.32-102.42c-5.14 9.73-2.2 16.79-9.32 26.42-5.16 7-10.26 7.25-15.17 14.4-6.8 9.9-2.56 16-9.38 25.31-4.73 6.4-13.74 8.15-15.45 15.29-2.06 8.59 8.29 16.32 5 24a8.3 8.3 0 0 1 -3.36 4c-3.19 1.7-6.49-.51-9.15 1.24-1.29.85-2.21 2.73-2.49 6.75-1 14.4 5.58 21.75 2 29s-18.19 6.75-19 14-10.46 8.83-9 17 8 14 8 14-8.74 8.22-11 18-1.57 9-5 22-4.09 6.69-6 16-2.18 14.13-4 19-9.88 4.92-14 13c4.95-9.4-14.3 3.59-26-1s-26.65-17.38-36-20-37-4-37-4v-12.99c-3.39-11.33-3.74-21.63-1-31 2.11-7.22 8.5-13.84 9-24 .44-9-5-13.7-3-22 2.64-11 16.62-15.81 22.51-23.82 7.42-10.1 5-21.91 7.49-39.18 2.07-14.41 2.57-27.26 4.71-41.66.49-3.29 1.79-11.92-2.71-15.34-7.9-6-25.43 10.85-39 5-3-1.3-9.85-9.66-14.41-22.35-5-13.85-4.63-24.2-12.59-32.65-6.82-7.24-14.83-7.34-22-12-12.38-8-12.17-17-25-23-10.16-4.71-18.47-1.47-29.68-8.29-7.24-4.4-11.38-10.06-12.32-12.71-3.51-9.9 4.71-18.24.51-26.8-4-8.08-14.56-6.37-17.95-14.36-3.56-8.28 5.44-16.31 3.44-25.84-1.62-7.77-8.8-14-20-19 0 0 .5-.71 1.38-1.93a279.24 279.24 0 0 1 17.62-22.07c8.6-9.32 24.24-16.33 33-21s25.1-24.07 33-30 24-15 24-15c8 8.56 16.06 11.42 24 15 20.3 9.15 33.72 19.24 43 30 10.13 11.75 12.8 22.74 21 35 11.59 17.34 26 31.12 32 34 15.29 7.34 41.08 3 49 15 7.19 10.87-4 24.44 3 36 5.41 8.92 18.7 12.36 37 12 9.76 5.39 16.18 12 18 20 2 8.94-4.87 19.85 0 27 1.8 2.66 4.37 3.77 7.67 5 5.91 2.26 11.61 4.22 17.35 6 2 1.3 6 2 8 2"/></svg>