<svg viewBox="0 0 419.97 514.3" xmlns="http://www.w3.org/2000/svg"><path d="m173 450.3c2.33 5 4.94 9.38 7 9 2.33-.42 2.1-6.68 6-9 2.92-1.73 5.11.11 8-1 6.75-2.6 5.28-13.56 12-18 5.8-3.83 10.62.52 17-3 7.5-4.14 9.27-16.23 13-16 2.58.17 3.53 6 6 6 2.9 0 3.92-8.2 8-9 3.65-.72 6.4 4.85 10 4 2.74-.64 3.72-5.05 6-7 3.14-2.67 7.92-3.2 14-2a34.67 34.67 0 0 1 5-11c3.21-4.61 6.87-7.39 6-10-1.22-3.61-9.69-2.48-10.81-5.94-.94-2.9 4.24-6.15 8.81-12.06a39.35 39.35 0 0 0 6-11c2.27-6.54 2.46-12.87 6-14 2.53-.8 4.42 1.95 7 1 3.27-1.2 2.68-6.53 6-8 3-1.33 5.61 2 9 1 4.15-1.25 5.07-8 8-8 2.15 0 3.18 3.76 6 5 3.47 1.54 6.68-1.16 10-1 7.75.38 9.91 8.66 18 9a13.21 13.21 0 0 0 9-3c4.57-4 2.85-10.5 7-13-3.09-4.1-20-28-20-28 3.56-5 6.85-9.9 10-15 6.75-10.93 10.34-19.5 18-25 9.19-6.59 21.49-5.4 28-14 3.07-4.06 4.75-17.2 0-35a140.14 140.14 0 0 0 -13-32c-6.67-.21-12.56-2.12-17-6-4.82-4.2-9.72-14.93-8-33 1.3-13.66 6.75-20.27 7-34a58.31 58.31 0 0 0 -7-29c-7.59-13.67-17.88-16.21-31-27-13.33-11-18.11-24.06-35-34-11.64-6.84-22.7-10.11-33-11-11.29-1-33.19-.36-47 13s-12.79 32.15-14 61c-.88 21-3 39.88-7 58a177.15 177.15 0 0 1 -23 54c-15.67 23.89-28.66 33.12-39 32-8.64-.93-13-9.84-22-9-9.86.93-14.1 13.89-22 13-5.86-.65-11.33-8.57-12-16-1.14-12.54 13.88-21.54 11-29-3.53-9.13-28.84-3.26-38-16-4.34-6-1.46-12.64-7-18-7.7-7.44-23.28-4.83-33 0-7.87 3.92-16.41 11.76-22.57 28.77-5.34 14.76-4.51 26.93-2.43 32.23 4.59 11.83 19.83 18.17 19 27-.95 10.09-21 13.44-21 22 0 8.77 21.3 11.64 26 25 4.17 11.88-7.27 21.55-2 33 4.11 8.95 14.46 8 17 16 4.14 13.12-20.54 26.93-21 48a34.5 34.5 0 0 0 5 19c7.72 12.12 18.82 9.76 26 21 6 9.45 1 19.69 9 28 4.85 5 9.67 3.57 14 9 3 3.75 4.57 15.35 2 31-.58 3.54-1.4 8.3 0 14 1.6 6.53 5.49 12.17 11 17a28.07 28.07 0 0 1 10-2c4.41 0 9.13 2.23 14 1 4.13-1 7.49-4.4 12-11 4-5.9 6.35-12.74 8-23 2.07-12.85 1.74-20.85 8-26 2.84-2.33 7.22-3.58 14-4a92.35 92.35 0 0 1 20 1z"/></svg>