<svg viewBox="0 0 409.57 446.19" xmlns="http://www.w3.org/2000/svg"><path d="m47.23 18.07c.58 4.84-15.29 14.5-15 22 .22 5.71 5.08 9.63 4 16-1 6.06-6.09 7-8 13s2.17 12.39-1 16c-3.61 4.13-12.16.13-19 4-1.66 1-7 4.36-7 9-.05 7.21 13.89 11.64 13 17-.66 4-9 4.35-10 9-.79 3.87 4.36 6.42 4 11-.28 3.74-4.57 6.45-6 9-3.19 5.72-2.73 13.65 0 19 3.18 6.18 11.86 8.69 12 14 .12 4.1-4.58 5.45-5 10-.49 5.39 5.18 8.24 6 14 .74 5.13-2.2 8.06-4 14-1.71 5.69-.62 12.18-1 17-.5 6.53-2 11.12-1 17 .73 4.37 3.28 7.77 3 13-.32 6.2-5.69 11.48-4 17 .4 1.27 3 4.39 7 7 6.89 4.51 12.58 5.49 14 10 1 3.14-1.21 4.88 0 8 1.81 4.6 7.8 3.84 10 8 3.14 5.91-4.85 12.85-2 19 2.66 5.72 11.52 4.26 14 10 2 4.51-3.23 12.08-4 16-1.74 9 3.38 11.95 1 20-3.25 11.05-15.1 12.46-21 24a41.61 41.61 0 0 0 -4 15 48.32 48.32 0 0 0 0 9c6.55-3.75 12.3-5.35 16-3 1.16.74 1.77 1.8 3 2.79 3.28 2.65 4.89 2.6 8 8.21 4 7.09 3 3.39 16 3s9.4 1.09 14 7 14.26-2.42 19-9-6.84-11.58-8-14 36.08-1.77 37 2-.21 8.8 0 13 3.28 2.09 16 9 11-5.51 13-3 16.18-6 22-12c7.34-7.56 6-13.9 13-21 13.91-14.11 35.76-4.78 54-16 11-6.78 14.29-17.2 23-26 15.06-15.22 31.39-24 48-27 15.89-2.84 26.67.45 31 4 4.75-12.06 2.4-16.2 12-29s15.93-5.84 24-13 11.69-12.7 19-28c-6.29-20.61 3.19-34.42 6-59 1.15-10.07-.65-32.43-6-54-6.06-24.41-14.36-40.46-14-67 .22-16.43 3.21-46 19-52-11.06-11.07-22.1-16.85-33-16-12.32 1-19.16 11.57-32 11-4.57-.2-13.5-4.8-23-13-11.41-9.84-17.18-18.79-28-22-5.9-1.75-17.76-1.94-32 4-14.74 6.14-21.85 14-23 19-2 8.54 5.54 17 7 26 1.42 8.7.39 16.06-2 22-4.77 11.83-15.63 19.23-25 23-10.68 4.3-18.77 3.78-22 2-6.71-3.69-5.83-10.77-12-14-9.48-5-27.41 3.45-38 16-7.79 9.23-9.08 17.79-17 20-7 2-14.84-2.69-20-7-8.68-7.24-15.76-20.72-11.81-30.92s17.08-9.86 19.81-19.08c3.53-11.93-13.7-28.24-27.26-35.94-12.52-7.13-26.97-9.65-41.74-8.06z"/></svg>