<svg viewBox="0 0 424.5 238.01" xmlns="http://www.w3.org/2000/svg"><path d="m422.24 111c-2-6.55 5-13.86 1-18-4.79-4.94-15.17-.56-18-5-2.52-4 4-10.12 2-16s-10.49-6.5-15-11c-7.18-7.16-4.3-16.86-12-22-6.9-4.6-13.25.43-21-3-11.22-5-9.72-18.1-20-22-11.76-4.47-25.81 10.45-34 5-5.21-3.46-2.8-12.41-8-15-5.39-2.69-13.52 4.59-21 7-21.93 7.06-30.39-11.43-46-11-12.35.34-5.38 7.64-18 9-15.7 1.69-22.87-10.22-37-7-13.5 3.08-15.78 15.8-29 20-10.38 3.3-16.83.65-28.69 2.51-9.67 1.53-7.26 8.57-5.31 12.49 4.52 7 8.18 9.61-8 9-6.26-.24-11.85-3.92-20 4s-6.66 13-15 15-10-3.53-21-5-7.5 14.1-12 13 2.48 10.77-8 10-12.84-8.44-15-4-10.55 14.9-10 20-6.8 15-1 14-.73 0 8-2 18 5 18 5 3 9.51-1 14a49 49 0 0 1 16 6c4.87 2.92 11 11.15 18 12 10.94 1.34 17.4-11.44 29-13 6.4-.86 19 3 33 16 10.59 9.85 11.31 18.69 22 28 15.57 13.56 34.28 9.86 60 17 17.27 4.79 30.61 11.1 41 18a129.9 129.9 0 0 1 27 24c3.95-6.73 8.9-11.54 15-14 10.86-4.38 20.16 1.12 30-1 8-1.73 19-9.31 29-27 6.74-12 6.85-21.18 16-27 6.26-4 14.71-2.36 19-8 6.22-8.19-3-20.11 3-29 3.1-4.57 10.36-5.54 20-9 9.89-3.54 11.91-7.19 17-12z"/></svg>