<svg viewBox="0 0 273.16 319.23" xmlns="http://www.w3.org/2000/svg"><path d="m273.16 293.23c-3.45-4.93-7.13-9.16-11-12a16.26 16.26 0 0 1 -4.38-4.29c-2.14-3.57-1.46-7.2-3.62-10.71-3-4.93-8-10.27-11-15s.55-9.25-1-14-6.79-8-5-13a19.91 19.91 0 0 0 1-10c-.16-2.24-1.32-11-1-14s1.15-8 2-13-1.34-6.81-4-11 1.19-9.3 4-13-.6-11.26-2-16-3.26-11.44-3-18 2.19-14.29 2-21 1.42-20.51-3-24-5.15.55-8 0-6.22 5.94-9 8-6.54-1.32-9-3-5.39.7-9-2 2.14-8.83 3-12-1.1-9.83-2-14 7.27-14.46 10-21-2.24-8.18-6-12-11.44-4.52-13-6-7.76-5.38-9-9-12-5.46-17-5-3.1-6.59-7-8-4.92 4.11-8 5-8.94-1.63-13 1-8.2 4.24-11 6-.39 7.31-2 9-10.41 5.92-11 9 3.29 9.67 1 12-5.31 6.74-8 11 2.2 10 0 12-5.41 11.46-10 14-5.21 7-9 11-4.06 10.24-7 13-3.93-.79-4 6 3.26 6.2 6 8 4.37 2.86 5 6 3.79 3.73 4 8-2.18 7.75 0 12-1.81 9.35-2 10 .84 6.39 0 8-4.39 3.46-5 5-.54 3.37-2 5-10 1.81-13 3-5.5-2-7-3-4.07.17-8 1-1.47-4.76-3-6-2.39-2.68-5-3-4.92 4.24-7 6-7.58 1.84-10 2a12 12 0 0 0 -7 3 18.29 18.29 0 0 0 -3 6c-.32 1.14-4.6 4.92-6 7s.42 6.1 0 8-4.65 4.15-6 8 1.19 5.15 0 7-1.92 9.77-4 11 .44 6.46 1 8 1.57 5.17 1 7-3 6.36-4 9 2.77 4.23 5 6 4.64 6.57 5 8 7.66 2.67 10 5 3.55 5 6 7 7-.17 8 2 1 7.16 3 8 7.17 1.78 8 3-.18 7.45 0 9 4.41.58 6 0 2-4.33 4-5 4.06 1.32 5 0 4.62-8.17 6-9 9.59-.32 11-1 2.35-7.5 4-10 4.08-8 6-11 .86-7.61 1-11 .52-10.52 2-12 7.68-2.12 9-3 1.63-5.66 3-7 8.28-.63 10-1 6-4.37 9-3 9.57 10.74 10 13-.43 8.05 0 9 4-1.28 6-1 4.54 3.65 6 5 5.74-1.19 9-2 8.2-1.32 11 0 6.2 4.74 8 7 5.56 1.83 8 3 3.13 5.21 5 6 7.45-3.08 13 0 6.07 11 6 13-.58 5.85 0 9 5.8 6.5 7 9 .93 7.81 1 10a10.77 10.77 0 0 0 .08 2.89 4.24 4.24 0 0 0 1.92 2.11c2.38 1.64 2.35 4 5 5a10.42 10.42 0 0 0 1.74.48c1.53.28 3.08.31 4.26.52 2.93.51 4.29 2.17 7 4a26.31 26.31 0 0 0 6 3 13.54 13.54 0 0 1 5-6c4-2.55 8.2-1.49 12-3 4.11-1.64 5.82-4.4 9-8a60.63 60.63 0 0 1 10-9z"/></svg>