<svg viewBox="0 0 140.06 158.48" xmlns="http://www.w3.org/2000/svg"><path d="m96 1.48c-2.59-1.66-6.77-1.81-13-1-9.3 1.21-18.37 4-22 6-3.07 1.66-4.86 3.49-8 5a40.81 40.81 0 0 1 -25 3c-2.39-.46-7-2-7-2a37 37 0 0 0 1 6c.76 2.79-7.15 6.36-9 6s-1.26 1.74-2 3-3 3.22-5 5 3.41 15.62 3 19-6.27 5.86-6 8-3 18.64-3 21 4.79 10.35 7 14 13.1 13.84 14 17-1 8.85-1 13 .7 9.88-2 18a28.78 28.78 0 0 0 4 7c3.36 4.31 7.37 6.63 9 7 5.15 1.17 10.78-1.35 14-5 4.35-4.94 2.38-10.81 7-15 3.8-3.45 9.86-3.38 13-3 5.72.7 7.84 3.78 13 5 6.08 1.44 8.83-1 15 0a27.67 27.67 0 0 1 18 11 25.49 25.49 0 0 1 4 9c11.44-5 26.08-13.39 25-21-.38-2.63-5-6.11-13-10-8.79-4.29-15.35-6.31-21-12-3.5-3.52-10-11.62-9-21 .51-4.86 4.56-10.75 12-18 6.77-6.6 12.17-10.37 15-17 1.92-4.5 4.82-14.65 0-24-5.13-10-14.2-8.42-20-18-2.49-4.12-2.73-12.62-8-16z"/></svg>