<svg viewBox="0 0 602.07 368.02" xmlns="http://www.w3.org/2000/svg"><path d="m544 300.55c6.34-19.26 27.17-23.11 38-37 13.76-17.65 19.09-25.71 20-43s-9.29-35.3-29-53c-13-11.7-24.49-14.87-38-26a146.88 146.88 0 0 1 -25-27c-12.26-16.79-16.73-33.06-16-39-9.2-6.4-19.23-10.42-30-11-21.07-1.13-50.5 18.72-54 20-22.95 8.4-34.38-.27-58 6-20.16 5.35-40.56 24.14-67 23-22.19-1-48.7-13.17-54-32-4.24-15.06 8-26.53 7-45-.45-8.52-3.74-29.07-18-35-13.37-5.56-31.12 4.77-41 16-15.5 17.6-13.71 44.52-22 63s-23.13 38.11-34 36c-10.12-2-13.82-27.13-24-40-9.51-12-26.06-17.31-46-28-16.36-8.77-25.76-15.13-34-12-15.79 6-18.78 35.57-19 52-.36 26.54 7.94 42.59 14 67 5.35 21.57 7.15 43.93 6 54-2.81 24.58-12.29 38.39-6 59 5.89 19.3 21.82 31.4 32 37 22.63 12.46 52.62 12.44 73-1 25.84-17.05 21.68-46.43 47-68 20.6-17.55 51.64-25.7 64-15 10.45 9 1.81 26.61 13 37 10.44 9.7 28.5 1.45 43 6 23.49 7.36 27.23 32.38 49 35 19.84 2.39 30.89-18.43 50-14 14.46 3.35 25.6 19.28 29 33 2.25 9.11-.8 15.63 3 25 6.16 15.2 25.11 27 40 24 15.43-3.13 31.45-34.22 35-38 12.88-13.73 30.18-23.32 52-29z"/></svg>