<svg viewBox="0 0 500.02 465.03" xmlns="http://www.w3.org/2000/svg"><path d="m8 319.58c.92 2.48 2.23 4.18 4 5 2.55 1.19 4.8-.45 7 1 2.8 1.85.4 5.56 3 7 0 0-6.6 18.3 2 33 7.63 13 16.37 19.06 21 30 6.15 14.55 6.38 30 15 47 7.17 14.16 15.66 20.84 21 22 12.54 2.72 27.39-7.26 35-19 5.13-7.92 5.53-22.14 13-26 7.22-3.73 16.1 2.2 32 10 14.64 7.18 25.31 10.38 34 9 6.86-1.09 20-5.33 27.87-17.57 2.74-4.27 5.49-17.88 11.13-19.43 4.78-1.31 8.49 4.29 15 4 4.05-.18 9-2.21 11-6 1.87-3.52 0-6.59 1-10 1.78-6.09 8.27-7.12 15-12 10.43-7.56 7.5-15.34 18-22 11.28-7.17 29-7.34 39 1 7.23 6 7 14 14 22 3.09 3.52 5.29 6.43 11 9 4.85-4.28 18.76 4 31 1 16.1-3.92 19-20.1 35-28 11.66-5.74 19-3.05 31-8a87.13 87.13 0 0 0 25-16 84.45 84.45 0 0 0 20-26c-2.42-3.33-2.62-5.7-2-10s.88-8.1-2-10-8.33 3.4-11 3c-4.81-.72-6-7-6-7s-.56-10.79-6-12c0 0 3-14 4-19 3.59-16.17 3.71-29.11-3-34s-16.79 1-26-2c-10.32-3.36-15.81-13.19-21-24-12.59-26.23-18.51-48.84-16-57 4.13-13.47 21.22-23.48 19-35-1.84-9.53-14.35-11.07-20-22-4.41-8.52-2.07-15.36-5-25-4.14-13.59-10.4-20.42-15-22-9.18-3.16-16.56 5.51-25 2-9.52-4-14.72-21.07-10-33a97.78 97.78 0 0 1 -21 5c-24.3 3-54.81-6.81-66-8-7.43-.79-18.92-.75-30 0-22.05 1.49-33.78 5.75-37 13-4.54 10.22 7.94 19.93 5 32-4 16.58-33.21 22-47 37-4.52 4.93-12.9 20.11-18 37-5.61 18.58-5.32 32.27-17 41-9.76 7.29-25.48 5.83-33 8-9.6 2.76-24.84 9.54-35 23-9 11.92-8.27 28.35-21 38-9.72 7.37-21.24 3.71-29 13s-7.9 26.4-1 37c2.8 4.3 6.7 6 9 11 4 8.74 2.38 16.24-6 29z"/></svg>