<svg viewBox="0 0 345.01 553" xmlns="http://www.w3.org/2000/svg"><path d="m262 13c6.54 8.23 1.28 16.06 8 24 8.41 9.93 22 3.92 31 13s4.78 31.1 7 41c3.42 15.28 11.15 20.82 15 36 3.43 13.54 3.53 33.16 1 40-9.87 8.35-14.11 23.24-23 40-8 15-13.13 23.53-13 37 .14 14.81 6.89 28.58 15.1 38.67 12.16 14.93 34.2 19.72 39.9 36.33 1.8 5.26.11 21-9 39-4.27 8.42-14.73 18.28-16 29-2.64 22.21 24 38.67 18 57-2.25 6.88-9.21 9.19-10 17-.9 8.91 6.56 18.06 19 27-10 5.57-13.34 23-12 37 0 0-2 5.89-15 3s-24.33-.61-31 1c-3.12-11.31-13.61-18.24-19-21-5.66-2.91-10.6-3.19-12.37-2.58-5 1.73-5.7 7.34-10.63 8.58-5.3 1.33-10.9-4.65-13-3-2.58 2 4.44 12.31 1 20-2 4.54-6.39 7-9 8-2.83 1-5.25.36-8 2-5.5 3.28-5.86 12.08-7 12-1.48-.11-1.54-14.87-3-15-1.1-.1-2.61 8.11-4 8-1.64-.13-.09-12-6-16-6.47-4.41-15.73 3.66-23.37-.62-5.82-3.28-7.3-11.58-7.62-14.38-.74-6.44 3.39-13.26 1-16-3.24-3.7-13.63 2.23-28 5-14.6 2.81-30.45 1.87-32-3-.88-2.73 6-8.83 8-12 3.75-6.07 2.81-10.22 7-16s13.94-9.61 14-15c0-4.37-5-9.17-10-10-4.1-.67-5.94 1.74-10 1-4.82-.87-8.94-5.48-10-10-1.31-5.5 2.11-10 6-17 4.77-8.55 6.66-16.16 6-19.23-1.61-7.52-11-11.66-15-16.77-2.32-3-5.13-12.06-11-15-5-2.48-10.83-1.4-20 0-7.4 1.13-11.77 1.56-14-1-3.26-3.74 1.31-11.92 0-19-1.1-5.91-4.38-7.21-6-13-3-10.6 3.5-15.91 0-25-3-7.72-12.88-10.56-13-18-.1-4.88 3.87-6 4-11 .19-7.89-9.85-11.69-9-18 1-7.58 17.53-11.25 17-14-.42-2.13-10.43-.61-13-5s4.19-11.59 4-19a24.39 24.39 0 0 0 -11-19c-7.67-4.73-14.56-.64-22-6a19.85 19.85 0 0 1 -8-15c-.19-5.92 3.27-9.16 7-16 2.54-4.67 3.32-11.11 8-16a30.36 30.36 0 0 1 25-9c5.39.69 9.08 2.89 14 6 11.14 7.06 19.39 12.22 24.51 9.38 3.57-2 2.69-6.5 6.49-8.38 5.23-2.58 11 4 17 2 5.21-1.72 7.87-8.62 9-13 2-7.8-1.94-13 1-19 4.3-8.78 18.38-7.56 20.41-14.66 2.36-8.25-14.75-17-12.41-24.34 1.49-4.69 10.54-7.61 18-6 10.76 2.32 12.41 12.92 22.64 15.79 10.6 3 22.28-4.71 27.36-8.79 8.76-7 13.69-14.2 13-21-.29-2.85-3.2-6.8-2-10 1.65-4.36 10.38-5.44 14-8 5.36-3.78 7.25-9.22 10-18 4.7-15 7.51-24.46 4-29 9.67 1.5 29.26 5.78 34.99 13z"/></svg>