<svg viewBox="0 0 314.18 209" xmlns="http://www.w3.org/2000/svg"><path d="m181.18 209c4.39-5.17 3.48-12.48 10-18 7.54-6.38 14.74-2.18 23-8 6.33-4.46 6-10.83 13-14 6.68-3 15.82.45 23 0a36 36 0 0 0 10-2c8.31-2.95 12.1-6.74 13-10 1.24-4.54-2.2-7.39-.78-12.05 1.76-5.81 9.28-8.61 9.78-7.95s6.95 2.79 10 3 6.46-1.4 9-1 13 7 13 7v-12s-7.32-2.62-9-6c-1.27-2.54 2.56-12.6 2-16s-4.82-8.55-7-13-1-10-1-10-9.83-.43-13 0-12.15 4.6-16 7-15 0-15 0-9.61-12-10-15-19-8-19-8l-11-7s-13.31-4.43-15-8-4.92-5.7-4-8 3.75-4.18 6-7 6.13-9.39 8-11 4.59-2.31 6-3 4.95-3.84 6-11 5.9-9.2 6-11-3.52-4.43-4-1-19.64 8.63-27 7a81.88 81.88 0 0 0 -34-1c-16 2.7-30.69 8.42-41 8s-15.4-3.47-25-8c-8.43-4-11.71-8.27-16-9a78 78 0 0 0 -10-1 52.45 52.45 0 0 1 -9-2s-13.35 3.64-19 10c-6 6.77-3.58 18.72-9 21-5 2.09-11.75-6.07-15-4-4 2.55 4 17-1 27-4.37 8.67-16.18 9.21-18 17-1.33 5.77 4.91 10.3 12 20 7.66 10.49 9.94 18.12 19 22 5.45 2.33 8.53.69 14 3 12 5 13.29 17.67 25 25 6.83 4.28 12.43 4.84 15 4 7.1-2.32 13.12 10.58 18 11s15 11.62 23 17 13.42 4.42 20 8 20.5 11.51 24 14 6.35 7.8 11 14z"/></svg>