<svg viewBox="0 0 418.54 244.76" xmlns="http://www.w3.org/2000/svg"><path d="m29 85.76-24-12-5-14s26.36-19.86 13-26 16.06-10.76 27-11 27.84 8.63 38 7 37-20.38 72-22 51 5.81 79 14 85.17 1.25 129-2c22.28-1.65 42.32-9.9 56.65-17.6 1.35-.73 3.89-2.16 3.89-2.16v153.69l-2.54 45.73-3.22 1c-5.51 1.72-11 3.55-15.78 5.34-17.8 6.67-37.75 26.87-45 30s-61.69 14.12-78 6-33.42 1.77-41 2-42.42-34.32-46-42-25.55-5.1-31-7-22.29 8.94-30 9 3.19 17.86 2 19c-7.34 7-24 22-24 22l-22-8-21-6s-11.89-5.56-14-16-20.64-22.07-26-29-11.71-30.46-13-39 28.11-25.59 22-27-14.21-15.66-6-16 5-18 5-18z"/></svg>