<svg viewBox="0 0 342.48 472.11" xmlns="http://www.w3.org/2000/svg"><path d="m340.56 72.88c-12.39 3.69-20.31 22-31 32-12.6 11.75-20.24 16.7-30 26a133.56 133.56 0 0 0 -20 25c-5.62 9.37-9.45 19.75-10 24-1 8 2.52 16.1-1 24-6.19 13.86-27.37 14-30 26-1.69 7.71 7 13.87 4 21-2 4.68-7 5-13 9-9.3 6.2-17.13 18.51-15 28 1.83 8.13 9.93 9.62 12 18 .73 3-.28 11.11-6 20-6.71 10.42-24.25 20.14-24 30 .16 6.31 6.6 9.4 9 16 3.26 9-.2 15.72-1.74 26.36-1.16 8-.37 17.33.74 24.64-7.87 1.29-8.57 8.26-17 11-13.16 4.26-23.62-7.39-35-2-7.71 3.64-6.66 10.91-14 16-11 7.62-26.57.56-32 8-2.68 3.67 1 15.23 1 15.23s-7.89 2.92-12-1.23-3.44-21.78-7-30-6.14-20.38-4-29 3.47-8.86-11-20-9.85-19.58-15-31-24.2-10.42-33-19-5.32-14.5-2-25a65.28 65.28 0 0 0 2.64-11.63 57.91 57.91 0 0 0 -2.63-25.37c13.84-10.11 23.81-21.72 30-35 1.15-2.48 6.38-28.38 18-39 10.22-9.35 21.62-8.35 33-15 12.12-7.09 25.45-18.48 28-33 2.7-15.39-8.09-26.79-9-41-.9-14 9.45-25.91 17-45 5.07-12.83 9.08-25.07 20-29 7.57-2.73 12.52 1.33 20-2 11.67-5.2 9.81-19.8 20-27 12.93-9.15 34.61 1.16 51-1 14.76-2 20.25-9 35-11 11.61-1.6 46.28-3.76 65 21 10.83 14.34 13.09 33.23 8.99 51z"/></svg>