<svg viewBox="0 0 229.09 278.71" xmlns="http://www.w3.org/2000/svg"><path d="m217 37.71c-3.78.95-11.59 5.89-19 12a79.11 79.11 0 0 0 -16 18c-4.44-3.1-7.81-2.36-9-1a88.6 88.6 0 0 0 -10 15s22.6 9.88 32 16 2.59 8 3 15-18.14 5.48-24 11-10.83 15.35-9 20-5 21.42-8 25-5.14 17.49-5 20 0 2 0 2 5.64 11.9 8 16 13.74 10.49 15 19a24.09 24.09 0 0 0 10 16c3.05 2 16 15 16 15s-43.68 17.52-47 22c-3.93-2.21-27.47-3.56-35-4s-25.8-19.42-32-23-4.69-21.41-8-23-9.51-18.92-15-21-7.32 5.28-9 10-4.09 1.69-10 6-13 17-13 17-1-.8-10-1-13-9-13-9l-9-45 28-4s23.55-10.37 29-19 18.26-11.23 23-11 22.82-9.85 29-12 7.91-24.12 7-34-13.79-13.06-16-12-4.34-.42-6-3-8.48-13.8-11-14-8 6-8 6a52 52 0 0 1 -13-1s3.49-19.7 2-27c-.53-2.6-.5-6 0-14.59.21-3.73-10.32-7.51-10-11.41s4.61-8.07 6-10 1-8 0-10c5.62-2.24 11.49-3.3 13-6a17.34 17.34 0 0 1 5-2c3-.69 5.6.12 8 0 4.1-.21 6.55-1.49 8 0 .88.91.83 3.38 1 4a8.49 8.49 0 0 0 3 5c1.78 1.23 3.15.64 5 2 1.55 1.14 2.06 2.9 3 4a11.81 11.81 0 0 0 4 3c4.42-.42 8.87-.77 13-1 7.08-.4 11.77-.49 15.19-3.9 1.51-1.51 2.41-3.26 4.81-4.1s4.26.12 6 0c3.32-.22 4.84-2.45 8-2s4 2.79 7 5c5.47 4 8.81.87 14 5 1.85 1.47 3 3.1 5 3 2.81-.14 3.9-3.59 7-4a9.93 9.93 0 0 1 4 1c2.78 1.24 4.16 3.16 7 4a15.15 15.15 0 0 0 6 0c2.33-.43 3.89-1.41 6-2 2.32-.64 3.74-.17 6-1 2.59-.95 3.81-2.3 6-2 1.73.24 3.57 1.41 4 3s-.86 2.82-2 5c-1.77 3.39-.56 6-3 9a12.49 12.49 0 0 1 -7 4z"/></svg>