<svg viewBox="0 0 326.09 329.55" xmlns="http://www.w3.org/2000/svg"><path d="m299.79 0 26.3 22.45a115.83 115.83 0 0 0 -2 14c-.23 5.08-.19 12.26-4 14-2.73 1.25-5.84-1.48-8 0-2.88 2-.37 10.4-2 16-.86 3-3.67 9.84-9 11-3.58.78-7.14-2.38-9-1-3 2.24 3.37 12.5 0 20-2.72 6-8.57 6-12 12s-2.18 14-1 18c2 6.94 7.75 10.26 8 17 .29 8.19-7 16.87-15 19-4.76 1.27-7.66-.4-13-1a38.59 38.59 0 0 0 -23 5c-9.78 5.68-15.38 15.9-18 24-2 6.22-1.28 14.71-6 23-3 5.27-7.09 7.43-11 12-4.49 5.25-6.56 8.89-11 10-6.87 1.72-12.56-4.39-18-2-4.58 2-4.6 8-7 17-3.34 12.47-9.58 18.9-7 28 1.92 6.79 6.18 7.93 8 15s-.85 11 0 18c1.13 9.33.75 3.17 2 9-7.5 6.48-14.84 9.63-22 9-13.9-1.21-17.9-16.12-31-17-13.9-.93-19.8 15.25-34.78 15.88-11.31.47-17.92-8.88-32.22-16.88-8.05-4.5-22.12-10-39-12 4.5-9 4.7-10.84 4-16-1.48-11-14.39-17.1-13-25 1.33-7.6 14.16-8 18-17 3.57-8.36-3.15-15-1-25s9.73-16.92 16-20c5.37-2.63 9.32-2.26 15-3 11.62-1.5 25.79-7.24 26-13 .23-6.35-30.55-18.56-39-24-16.25-10.46-23.89-20.38-25-28-1.75-12.06 11.46-32.48 13-37 6.31-18.52 5.49-30 1-35-7.65-8.46-9.64-11.26-13-24s6-32 6-32z"/></svg>