<svg viewBox="0 0 338.02 414.26" xmlns="http://www.w3.org/2000/svg"><path d="m55 47.89c-5.78 10.9-2.15 17.17-8 28-10.5 19.48-31.08 15.72-41.66 34.44-7.13 12.63-7 30.26-.32 42.56 8.77 16.18 24.2 14.61 33 30 7.51 13.13 1.48 26.48 1 48-.66 29.11 6.69 52.11 12.12 58.5 7.68 9 17.45 13.55 16.88 21.5-.66 9.18-15.11 13.11-20 24-3.2 7.11-3 15.52 0 25 10.3-5.58 20.53 5.4 30 4 7.94-1.18 14.24-4 22-1 6.35 2.47 7.44 7.29 14 9 8.52 2.22 13.94-4.82 21-2 8.42 3.36 6.62 15.62 15 20 9 4.71 19.36-5.14 27 0 6.51 4.38 3.08 14.51 10 21.9a14 14 0 0 0 3.15 2.47 81.52 81.52 0 0 0 6.9-7.37c10.18-14.28 1.18-26 10-41 8.55-14.5 25.45-14.31 31-30 2.89-8.17-1.38-17.21 4-24 4-5.08 13.77-8 31-6 3.28-5.5 4.69-10.84 4-16-1.48-11-14.39-17.1-13-25 1.33-7.6 14.16-8 18-17 3.57-8.36-3.15-15-1-25s9.73-16.92 16-20c5.37-2.64 9.32-2.27 15-3 11.62-1.5 25.79-7.24 26-13 .23-6.35-30.55-18.56-39-24-16.25-10.46-23.9-20.38-25-28-1.54-10.59 6.78-20.83 13-37 2.6-6.77 6.24-18.71 3-30-1-3.45-2.67-5.21-4.75-8.47-1.52-2.36-3.28-5.54-5.25-7.53-1.4-3.59-2.71-7.21-4-11-1.63-4.77-2.49-8-2-12 .62-5.25 7-23 7-23l-221.53-5.89a32.65 32.65 0 0 1 1.46 3.89c2.21 9.2 5.16 18.13 2 29-1.78 6.16-7.37 13.84-8 15z"/></svg>