<svg viewBox="0 0 234.74 372.08" xmlns="http://www.w3.org/2000/svg"><path d="m85.57 281c12-9.65 22.18-15.49 22-24-.21-9.9-13-14.14-17-25-5.62-15.35 7.81-28.53 1-40-5.6-9.43-20.79-9.48-45-13-20.88-3-32.63-6.61-38-16-5.67-9.9.73-21.39-1-33-1.41-9.43-9.95-20-6.93-29.07 3.69-11.08 18.54-14.8 38.93-19.93 21.37-5.38 41.61-13.07 53-12 12.77 1.2 26.16 5.54 35-2 7.86-6.71 4.39-16.63 11-25 9.24-11.7 26.75-9.9 39-18 8.31-5.5 14.94-13.5 20-24 3.88 7.34 8.63 13.17 12 16 2.75 2.31 7.48 5.67 10 12 1.63 4.13 1.5 7.68 1 9-2.2 5.75-9.88 5.33-12 11-1.62 4.31 2 6.89 1 12-.79 3.83-4.19 5.81-4 10 .12 3 2.31 5.13 3 7 1.62 4.45 0 13.17 0 14 0 3.27.37 10.31 3 11 1.8.48 3.5-2.59 5-2 1.7.67 2.26 5.81 0 8-1.43 1.38-3.29.85-5 2a7.72 7.72 0 0 0 -3 5c-.77 4.33 3.54 8.41 2 11-.67 1.11-2 1.15-3 2-1.24 1.09-2.33 3.66-2 8 .46 6.2 5.78 12.11 4 16-1.51 3.29-6.13 2.46-8 6s-.32 9.05 3 12c4.08 3.62 11.43 1.77 13 5 1.21 2.5-2.24 5.28-1 8 1.1 2.41 4.61 2.07 9 4 2.72 1.19 8 4.19 9 9 1.05 5.16-3.12 10.11-5 12-4.32 4.32-13 5.65-14 10-.75 3.18 3.05 6.78 2 8s-4.53-1.27-6 0c-2 1.76 1.73 8.74 0 10-1.24.89-4-2-6-1-1.8.91-1.12 3.95-3 5-1.67.92-3.25-.79-5 0-2.42 1.09-1.61 5.1-4 7-2.55 2-6.76.12-8 2-.94 1.41.91 4.21 1 6 .29 5.66-6.57 10.49-9 12-6 3.7-12.39 2.3-17 7a17.56 17.56 0 0 0 -4 16c.69 2.51 2.86 4.46 3 8 .12 3-1.54 4.29-1 7 .92 4.52 6.48 5.13 7 9 .59 4.33-6.14 6.74-7 12-1 6.45 7 12.6 5 16-1.35 2.3-6.48 1.29-7 3-.65 2.18 7.23 5.29 7 9-.19 3.08-5.45 5.13-8 6-9.22 3.13-20.16 5.83-24 6a171.48 171.48 0 0 0 -32 5 83.36 83.36 0 0 1 -17 1c-11-.49-16.53-4.94-19-6-5.57-2.39-3.78-11.65 3-16s2.56-6.17-2-14-3-18-3-18c-.32-9.53-3-11-3-11s13.92-15.51 27-26z"/></svg>