<svg viewBox="0 0 195 194.01" xmlns="http://www.w3.org/2000/svg"><path d="m102 194a56.48 56.48 0 0 1 23-12c6.2-1.49 16.59-.5 26-5 5-2.41 10.52-6.54 16-14 5.77-7.87 6.44-16.23 14-24 3.78-3.89 14-9 14-9s-10.7-3.75-10-8 4.44-12.44 2-15-2.42-2.22-3-6 1.92-5 2-8-5-7-7-5-4.95-3.62-6-5-.73-5.13-3-6a34.18 34.18 0 0 1 -9-6c-3.34-2.93 1.85-7 1-9s-4.52-2.53-9-5-9.28-10-11-12-5.17-6.82-6-9 .08-7.71-3-9-1.22-2.11-5-2-14.66 2.19-18-2-3.81-6.43-7-9-9.17-1.46-14.43-4.74-7.57-9.61-10.57-9.26a29.21 29.21 0 0 0 -9 3c-2.85 1.41-6.2 4-13-3-9 9.27-13.42 18-12 26 1.73 9.75 11 11.82 13 21 2.87 13-12.6 22.34-27 44-3.84 5.78-9.32 16.67-16 25a137 137 0 0 1 -14 15c14.36 1.83 25.41 6.75 33 15 8.67 9.43 9.07 25.54 20 31 11.5 5.75 22.35-4.75 35 1 6 2.72 10.58 8.13 14 16z"/></svg>