<svg viewBox="0 0 547.15 460.26" xmlns="http://www.w3.org/2000/svg"><path d="m42 330c-1.9-14.07 6-14 6-14s-1.64-8.22 2-19 8.25-24.92 9-32-.41-18.49 1-25 .59-22.42 1-35 14.16-17.1 17-24 .27-24 1-31 .59-15-6-21-19.2-18.62-19-27-1.3-25.31 5-31 15.06-12.1 24-15 21.74 2.14 27 6 18.32 9.14 24 9 18.12 3 23-3 7.67-12.77 6-18-6.88-13.68-4-20a84.17 84.17 0 0 1 12-18c3.09-3.31 13.48-7.14 18-8s20.83.31 26 5 12.73 8.64 17 5 14.42-4.91 21-4 13.21 7.2 16 6 8.22 9.55 13 10 15.13 2.88 23 0 28.94-4.91 37-10 13.4-8.47 21-9 13.75-6.22 19-7 7.65 8.2 17 9 11 3.76 16 7 15.13 10.54 22 8 35.27-11.95 42-11 20.64-12.1 34-6-13 26-13 26l5 14 24 12s3.2 17.65-5 18-.12 14.59 6 16-23.3 18.45-22 27 7.64 32.07 13 39 23.88 18.56 26 29-18.36 29.62-26 31-19.92 22.11-28 28-35.28 14-42 16-32.71-3.2-38-3-3.58 19-15 23-42.19 7.1-52 8-30-16-50-16-124.67-19.83-134-15a73.1 73.1 0 0 0 -9.17 5.38c-4.18 3-8.25 4.35-9.83 8.62-1.52 4.09-.45 8.74 2 13a29.92 29.92 0 0 1 -2 15c-3 7.23-11.58 8-14 15-1.71 4.93 4 18 4 18a43.33 43.33 0 0 1 9 36s-1.89 5.32 0 6a88.42 88.42 0 0 0 17 5c8.36 1.54 15.78 4.74 15.59 5.69a1.35 1.35 0 0 1 -.59.31c-2.18 2-10 4.86-11 11-.79 4.71 2.08 10.26 8 14l-8 10-27 9s-8.15 18.59-11 17c-6.06-3.38-15 10-15 10h-25s-16.72 2.73-18 0 1-32 1-32l6-5-4-2 10-4s-5.68.11-7-2-9.48-14.21-13-15-13.1-1-18-3-16.38-10.1-19-11-5.78 4.3-8 4-15-14-15-14 25.94-13.32 30-19 .6-16.84 1-20 12.21 3 11-6z"/></svg>