<svg viewBox="0 0 498.02 237.08" xmlns="http://www.w3.org/2000/svg"><path d="m480 109.81c-16.77-2.45-20.07 10-36 10-20.44 0-25.93-10.23-44-8-13.24 1.64-26.4 14.16-34 18-13.68 6.91-23.61 8.18-32 18-8.68 10.15-7.33 18-15 29-5.17 7.4-10.4 10.23-15 18-7.79 13.16-11.72 31.3-5 37a60.55 60.55 0 0 1 -19 5c-12.48 1.16-22.09-1.7-25-4-7.45-5.89-6.16-13.89-14-20-2.2-1.72-8.35-4.42-16-5-8.84-.67-22 5.41-27 1-4-3.49-1.7-11.66-5-13-3-1.22-6.77 5.21-12 6-8.61 1.3-14.47-9.6-24-11-8.9-1.31-16 4.12-22 8-17.74 11.44-40.68 18.38-45 13-2.3-2.86 2.17-9.4 5-20 2.26-8.46 4.87-22.09 0-25-2.27-1.36-9.21 1.29-19 7-4.33 2.52-10.2 6.15-15 4s-5.15-9.4-9-10c-3.48-.54-7 5.91-11 8-9.83 5.14-21.89-1.3-26-4-10.2-6.72-15.33-18.81-15-31a96.89 96.89 0 0 0 17-21c3.5-5.94 6.18-12 13-15 8.88-4 17 2 25-3 5.93-3.71 4.65-8.93 11-13 5.82-3.73 10.75-1.87 18-3 8.63-1.35 15.58-7.19 26-17 11.62-11 20.34-20.38 29-23 8.81-2.67 20.66 1.18 28-5 9.16-7.72 3.63-21.33 12-31 10.36-12 30.43-10.08 37-9 13.43 2.21 18.29 9.2 31 12 13.16 2.9 21.86-1.67 37-4 18-2.77 27.45 2.9 45-2 10.41-2.91 16.65-6.64 27-5 13.64 2.17 16.69 11 30 13 12.1 1.82 26.32-5.9 32-7 6.21-1.2 21.66-.82 37 3a115.27 115.27 0 0 1 43 21 71.51 71.51 0 0 1 -6 18c-5.55 11.31-13.4 19.79-17 22-3.81 2.34-16.72 5-18 10-.88 3.43 1.91 7.68 5 10 6.64 5 16.65.57 20 5 2 2.65.9 7.34-2 13z"/></svg>