<svg viewBox="0 0 234.3 155.39" xmlns="http://www.w3.org/2000/svg"><path d="m234.3 55.23c-4.52-3.71-7.09-8.69-9.21-13.18-2.29-4.87-4.54-14.48-7.79-17.82-11.82-12.14-28.51-11-47-14-15.6-2.51-30.58-11.78-50-10-17.67 1.62-26.28 9.94-45 10-14.12 0-21.89-4.6-36-5-9.3-.23-26.64 3.38-26 3 3 9.37 3.4 18.05 1 26-3.42 11.31-12.14 14.61-14 26-2.06 12.63 7.1 18.52 7 33 0 4.76-1.29 7.7 0 12 4.23 14.1 24.26 19.24 34 22 25.91 7.35 47.71 26.42 83 28 35 1.56 57.59-8.6 68-18 12.48-11.27 16.31-23.91 23-44 4.7-14 13.58-23.76 19-38z"/></svg>