<svg viewBox="0 0 475.89 426.44" xmlns="http://www.w3.org/2000/svg"><path d="m299.89 8-1 6m6 41c1.77-1.1 5 .15 7 2 4 3.76 1.59 9.09 5 12 3.59 3 10.58.56 22-2 4.05-.91 9.26-1.86 13 1 3.5 2.68 2.68 9.11 6 11 5.95 3.39 16.92-5.12 24-2 3.86 1.7 4.27 2.84 4 7-.38 5.7-5.73 7.16-7 13-.68 3.11 1.11 8.16-1 10s-5.83-.46-9 1c-4.22 1.94-6.77 8.64-5 13 1.92 4.74 8.81 4.7 13 9 3.91 4 3 8.8 7 11 7.87 4.3 18.83-8.23 28-4 4 1.85 3.65 4.94 8 7 3.28 1.56 10.48 1.59 20-3a43.85 43.85 0 0 0 15-12l21 10a28.82 28.82 0 0 1 -2 5c-2 3.9-4.55 6.2-7 9a91.39 91.39 0 0 0 -6 9c-2.65 4.28-4.38 8-7.45 11.88a49.72 49.72 0 0 1 -12.55 11.12c-18.05 15.94-29.68 33.19-35 52-2.6 9.2-3.19 21.86-8 34-4.09 10.31-11.51 22.37-24 35-27.59 27.9-57.53 27.22-75 52-13.89 19.7-13.16 44.76-8.21 68.41-22.42-1.93-281.93-28-281.93-28l-5.54-203.29 2.79-.12c10.07-.48 19.6-.39 27.91-5.94 16.43-11 9.89-8.66-28.89-16.37l-3.13-.69-1.89-80s1.52-1.29 2.27-1.91c4-3.34 8.08-5.85 17.62 0 20.74 12.69 32-2.38 40-2s57.25.76 66-23 23.33 15.74 37 13 20.7 7.33 36 7-.4-23.73 2-35 21.66 15.85 43 7c3.75-1.56 8.28-3.62 9.8-7.53 3.5-9.06-10.3-19.13-6.8-27.47.68-1.62 5.13-4.85 12-7 6.38-2 16.49-1.36 23-6 3.7-2.64 7.08-9.55 10-9 2.22.41 3.78 4 4 7 .3 4.21-2.29 5.45-2 9 .48 6 8.36 7.28 9 13s-7.05 9-6 15c.48 2.75 2.76 3.55 3 7 .11 1.09 2.9 5.24 5 3.91z"/></svg>