<svg viewBox="0 0 551.67 414.09" xmlns="http://www.w3.org/2000/svg"><path d="m472.43 5.14 20.36 27.68a31 31 0 0 1 -2.45 2.27c-8.44 6.39-18.86.44-29 6-2.55 1.39-8.43 7.9-13 16-3.58 6.34-5.79 13.27-6 16-.65 8.41 3.17 11.9 3 20-.2 9-5.16 13.64-7 22-2.38 10.78-1.14 18.63 1 24 2.28 5.77 5.91 8 9 13 4.6 7.43 6.21 13.29 11 14 3.87.57 6.15-2.88 10-3 6.79-.22 10.91 8 18 17 5 6.36 11.92 11.52 17 20 6.13 10.24 7.43 19.3 6.6 23.45-1.55 7.72-6.66 10.48-8.6 17.55-1.48 5.38-.58 15.51 7 28 6.13 10.11 13.5 14.25 13 22-.44 6.77-8 10.9-6.61 16 1.33 5 9.87 7.66 16.6 8 8.6.39 17.32-5 19-3 1.48 1.76-2.17 8-7 13-6.43 6.74-15.16 11.43-26 14-6.59 1.56-10.76.42-17 3-12.87 5.3-13.06 15.62-25 20-9 3.3-16.7-2.11-24 3-3.58-9.47-33.71-7.22-47-11s-32.19 14.82-53 14-28.57-16.72-38-17-34.75 2.23-48 6-42.53-11.13-33-7c-11.28-6.4-21-8.68-28-5-6 3.1-6.47 8.83-13 12-5.92 2.88-11.36 1-21-1-10.35-2.18-18.91-2.55-24-1-4.71 1.43-10.6 5.46-17 12-8.5 8.68-12.53 16.49-22 22-7.14 4.15-13.52 5.79-18 6-8.14.37-15.79-4.8-24-2-7 2.4-10.09 9.68-16 14-7.41 5.42-14.78 7.11-18 7-12.83-.46-22.21-13.45-25.84-19.63-6.17-10.46-7.15-18.99-6.16-24.37 1.86-10 11.51-15 11-25-.25-4.93-4.47-8.76-3-14s6.7-5.71 9-11-1.06-9.93 2-14c3.31-4.41 9.54-2.12 14-6 5.52-4.82 2.4-11.94 7-18 5.31-7 13.86-4.82 18-12 3.61-6.26-1-14.82 3-18 3.74-3 11.19 2.46 18 1 9.3-2 17.77-12.92 17-22-.55-6.36-6.75-9.65-6-16 .55-4.77 4.68-9.16 9-11 5.58-2.39 12 1 15-2 3.64-3.66-1.74-11.66 2-17 2.94-4.21 8.46-2.64 11-7 2.68-4.61-1.86-11.05 1-14 .88-.92 2.77-1.5 6-1 5.72.9 8.62 6.72 12 6 4.17-.89 4.21-11 10-16 1.64-1.44 6.08-4.7 11-4 5.73.82 7.39 6.95 12 7 6.89.08 9.71-14.6 19-20 8.53-5 17.87-.4 25-7 1.81-1.68 5-8.33 6-17 .26-2.38-.83-12.72 2-19 2.56-5.7 6.14-6.45 9-12a29.54 29.54 0 0 0 1-24c-2.59-6.08-7.42-7.49-9-14-1.78-7.3 3.55-11.9 1-18-3-7.11-12.8-6.5-18-13-2.76-3.46-3.77-12.09-3.77-12.09z"/></svg>