<svg viewBox="0 0 331.57 420.57" xmlns="http://www.w3.org/2000/svg"><path d="m22.39 19.49c8.45-1.78 7.87-7.22 16.61-12.49 9.42-5.77 15.7-8.22 20-6.42 7.24 3 6.23 14.07 13.35 20.9 3 2.92 11.53 5.58 13 11 1.41 5.18-2.92 8.42-2 14 .67 4 3.85 8.54 12 13 6.89 3.77 11.86 4.22 14 3 6.53-3.68 2.79-18 9-21 4.22-2 8.54 3.43 14 2 6.36-1.65 6.75-9.63 12.63-12.87 8.46-4.65 19.67 4 30.37 3.87.84 0 12.25-3 18.77-.23 6 2.53 7.11 7.55 13.23 9.23 8 2.22 13-4.92 20-2.41 8.14 2.94 6.79 14.81 15 19.41 8.79 4.9 18.57-3.48 26 2 6.34 4.68 3 13.57 10 20 .54.49 1 1 1 1s-13.6 7.33-17 11c-12.63 13.65-21.93 34.55-15 46 5.14 8.51 16.52 6.26 21 15 4.85 9.46-5.39 24-5.9 34.75-.64 13.17 12.87 33 14.9 38.25 5.39 14.13 7.37 24.23 17 29 7.74 3.84 13.92.32 22 5 9.53 5.53 15.87 19 13 29-1.79 6.23-7.34 7.82-8 14-.92 8.48 8.68 13.79 10 23 .82 5.79-1.24 14-5 18-4.84-.22-11.25 1.42-19 8-10.82 9.21-16.56 26.62-21 26-3.72-.52-4.69-12.08-7-12-2 .07-3 9-5 9s-2.92-9.66-9-14c-1.53-1.09-5.85-3.65-9-2-4.92 2.59-3.33 14.79-5 15-1.17.16-2.09-6-6-8-3.62-1.83-9.44-.43-12 3-2.25 3-.58 7-3 9-3.07 2.58-8.41-1.46-12 1-2.94 2-2.49 7.87-4 11-3 6.38-10.65 11.33-16 10-5.2-1.3-7.35-9.45-10-9-3.4.58-2.65 14.22-8 16-2.8.94-5.54-2.32-8-1s-1.62 6.24-4 9c-2.15 2.51-6 3.37-11 3-4.74-6.16-7.65-12.84-8-20-.42-8.62 3.4-14.6 4-21 1.06-11.37-4.48-20.71-14-34-9.86-13.76-21.21-28.82-26-32-18.19-12-45.23-7.56-57-24-6.63-9.25-7.66-22.86-4-33 4.64-12.84 18.87-16.92 20-29 1-11.29-10.74-16.51-9-28 1.38-9.15 11.76-12.7 11-20-1.12-10.66-23.85-12.07-28-25-4.22-13.11 13.74-26.23 9-36-5.82-12-37.65-1.75-49.82-16.83-7.65-9.47-7.14-26.6-.18-37.17 5.73-8.7 17.13-9.8 20-19 3-9.48-6.23-16.73-2.96-25.99z"/></svg>