<svg viewBox="0 0 323.45 301.16" xmlns="http://www.w3.org/2000/svg"><path d="m0 10.16c7.25 7.89 11.9 16.19 14 25 1.44 6.06 2 13.68 4 22 1.11 4.55 10.31 16.31 13 18s9.93 3.56 12 5 13.84 19.79 16 26 3.57 29.67 3 31 3.64 17.8 4 20 4.25 10.64 7 13 6.46 11.19 7 14 5.07 4.6 7 8 1.23 9.38 2 11 10 0 12 2 1.77 9.62 3 12 13-.5 15 2 8 9.34 11 13 9.71 9.59 9 13 .41 11.08 0 14-1.18 8.51 1 10 8.15-.82 11 1 4 6.15 9 3 10.39-1.82 13 1 5.83 4.54 8 7 11.76-.68 13 0 5.6 9.17 6 12 8.83 6.23 10 7 7 1 7 1 .17-7.81 1-10 5.39-7.49 8-9 4.35-5.83 6-7 6.66.6 9-1 3.51-5.57 5-8-.55-6.82-2-9-1.76-6.68-2-8-4.85-4-7-6-4.08-8.72-4-11 1.43-10.37 4-12 6.11-4 6-7 4.45-9.67 6-11 8.64-4.52 9-8 8.7-6.9 12-9 9.53-6.77 10-9a59.66 59.66 0 0 0 1-12c-.5-5.45 4.39-11.65 6-13s2-3.26 3-5 3.87-4.6 6-5 10.64 3.41 13 1 7.84-9.61 13-12 3-1 3-1l-1-2c-2.3-8.59 1.34-16 .16-23.79-1.47-9.75-9.74-18.08-23.16-25.21-23.09 3.88-42.81 1.56-56-10-8.67-7.6-11.47-17.26-17-24-15.79-19.24-42.47-24-54-25-21.31-1.87-39 10.82-60.38 3.08-13.78-4.97-16.18-13.24-29.62-19.08-6.16-2.67-28-5-51-1a202.14 202.14 0 0 0 -31 8z"/></svg>