<svg viewBox="0 0 164 184.43" xmlns="http://www.w3.org/2000/svg"><path d="m0 177c9.75 1.2 17.17-2.46 23 2 3.33 2.55 11.3-3.84 13-3s11.61 2.61 16 1 11.55-4.31 14-3 6.11 6.68 11 8c28.85 7.78 18.15-4.45 19-18 .29-4.66 11-7.66 13-8s14-12 18-15 12.1-.54 14-4 4-8.22 6-9 9.93.2 12-2a28.32 28.32 0 0 1 5-4s-8.81-13.62-9-21c-.26-9.87 5.16-12.64 5-22-.22-12.36-9.94-17.68-12-30-1.19-7.08-.11-14.42 3-22s-7.66-2-11-6-7.72-6.41-8-9 .46-8.49-2-12a38 38 0 0 0 -14 9c-7.56 7.77-8.23 16.13-14 24-5.48 7.46-11 11.59-16 14-8.7 4.16-21.24 4-26 5-13.55 2.84-21.37 8.34-23 12-3.37 7.56 3.24 16.31-1 22-4.76 6.38-16.91.81-23 7-6.33 6.43-.86 18.55 0 34a80.6 80.6 0 0 1 -5 32z"/></svg>