<svg viewBox="0 0 167 177" xmlns="http://www.w3.org/2000/svg"><path d="m167 21c-8.31-.23-14.81-2.42-19-7-3.84-4.21-4.39-14-9-14-4.93 0-8.27 3.86-12 6s-13.56 13.65-19 16-19.7 13-20 16-3.15 16.73-8 23-11.23 16.07-18 18-11.48 10.51-13 16-14.55 18.28-18 20-19.15 13.46-22 17-9 10-9 10 9.73 14.68 12 15a25.4 25.4 0 0 1 10 5c2.6 2.33-2.38 5.92-1 8s8 7 8 7 6.55-4.22 10-6c13.42-6.94 23.2-5.47 34.77-13.35 8.62-5.87 10.42-13.65 21.23-18.65 6.42-2.95 15.81-2.35 27-3-6.7-7.94-10-15.16-8-21 1.5-4.45 6.17-5.91 7-11 .89-5.49-3.79-7.75-3-13 1-6.66 9.13-7.49 11-14 2.31-8-6.71-13.77-5-22 .77-3.73 6.52-10 18-15 7.24-3.18 12.45-3.84 18-9a30.15 30.15 0 0 0 7-10z"/></svg>