<svg viewBox="0 0 494.34 264.22" xmlns="http://www.w3.org/2000/svg"><path d="m428.3 260s.15-.17.78-.73c15.72-14.08 24.08-33.51 27.14-51.27a117.48 117.48 0 0 0 1.71-31c-.84-10.62-3.11-16.58-2.71-24 .68-12.52 18.34-21.67 18-27s3.47-19 11-23 10-26 10-26a23.24 23.24 0 0 0 -2-12c-11.6-1-17.51 2.9-29 1-6.29-1-13.81-3.15-20 1-5.73 3.84-6.32 11.33-10 16-6.81 8.63-18.74 12.57-28 12-6.5-.4-9.56-3.1-16-4-4.62-.65-11.23-.34-19 2-8.91 2.68-12.16 7.83-21 9-9.85 1.31-13-3.7-23-3-8.1.57-10.9 4.45-19 5-10.45.7-15.94-4.57-27-8-10.15-3.15-17.69-2.46-28-5-14.22-3.5-21.6-7.24-25-14-.25-.49-2-9.16-6-12-3.7-2.64-9.45-1.44-12-2-11.8-2.59-18.1-17-20-23-2.95-9.38.67-13.88-3-23-2.4-6-8.35-9.73-9-17-16.81.83-30.76 5.54-41 15-9.72 9-11.07 17.58-21 27-7.26 6.88-14.65 10.24-26 15-22.45 9.41-37.87 15.59-45 27-5.6 9-3.5 17.73-12 27-6.61 7.21-13.85 7.18-19.81 15.35-7.17 9.8-5.71 21.65-5.19 28.65 1.36 18.23-3.58 29.73-4 48-.34 14.7.49 27.37-1 42-.58 5.73-2.22 16.1-2.22 16.1l313.38 3.12 47.62-126.22 25 117.25 7.69 4.62z"/></svg>