<svg viewBox="0 0 232.06 151.09" xmlns="http://www.w3.org/2000/svg"><path d="m228.06 14.09c-5.71 3.28-10.21 7.54-13 13-4.4 8.61-3.75 13.75-4 23-.09 3.12-4.59 11.65-5 15s4.32 11 3 13-4.4 8-6 11-1.16 10.94-3 12-3.49 4.08-6 4-5.3-2.59-8-2-14.83-.68-16 1-5.5 9.94-6 12-1.3 12.6-1 14 4.08 8.55 3 13c-.8 3.26-3.35 5.9-7 8 0 0-18.28-1.55-26-7s-7.42-15.06-14-19c-10-6-17.79-1.4-28-6-12.1-5.45-12.13-14.8-24-21-4.28-2.24-17.27-4.86-32-3-9.75 1.23-14.19 5.38-24 6-4.61-4.24-7.11-8.58-7-13s3.4-6.53 3-11c-.53-5.83-7.79-8.78-7-13 .57-3.05 7.57-5.84 9-7 4.34-3.53 4.9-7.1 8-12 3.35-5.3 8.88-11.53 16-15 14.21-6.93 33.67 1.43 39-6 3.71-5.17-2.61-12.34 1-18 4.33-6.79 17-2.71 35.26-3.27 7.44-.23 20-4.9 30.88-1.71 12.91 3.76 17.59 14.32 30.86 16 12.34 1.55 25.61-8 34-10a72.14 72.14 0 0 1 28-1c-1.33 2.65-2.67 5.31-4 7.98z"/></svg>