<svg viewBox="0 0 377.43 368.29" xmlns="http://www.w3.org/2000/svg"><path d="m323 117c5.18.47 1.53 24.41 5 31s18.22 15.07 22 20 .81 22.9 8 34 11.55 13 18 17c-1.71 2.15 2.79 7.11 1 10-1.49 2.39-6 1-9 3-4.71 3.08-3.1 9.51-7 14-4.55 5.23-9.82 2.75-14 8-4 5.07-1.2 12.23-6 16-2.87 2.25-5.06.6-8 3-3.92 3.2-2.86 9.84-6 11-3.41 1.26-7.62-5.32-11-4-2.24.88-1.88 4.72-4 7-3.33 3.57-7.8 1.73-11 5-2.46 2.52-2.94 6.72-2 12-3.88-.83-7.26-.57-10 1-4.43 2.54-3.85 6.6-8 9-5.14 3-10.2-1.16-15 2-1.22.81-3.55 4.77-5 10-1.4 5-1.91 9.6-4 10-1.1.21-1.76-.93-3-1-2.82-.15-4.38 4.23-8 8s-6.93 5.45-10 6-7.48-1-11 1c-3 1.7-4.45 5.13-5 7-.93 3.17.44 5.76-1 8-2.59 4-11.33 3.92-18 2-4.15-1.2-8.59-5.13-14-5-5 .12-7.29 3.8-12 3-5.31-.9-6.64-6.62-12-7-3.4-.24-4.44 2-8 2-5.78.05-10.44-5-12-7-1.74-2.19-1.8-4.11-4-6-3.67-3.15-8.25-1.63-11-5-1.89-2.32-.81-5.46-3-7-2.62-1.84-6.36 1.1-10 0s-6.9-6.94-8-8c-3.34-3.24-7.67-3.62-13-6s-8.67-5.14-13-5c-4 .13-7.43 3-12 2-3.24-.73-6.31-4-8-5-2.39-1.42-4.93-2.06-7-3a45.3 45.3 0 0 1 -10-6c-5.3-4.5-8-9.46-12-9-3.54.41-5.82 5.5-7 5-1.61-.68 2.76-10.21-1-16-3-4.7-10.2-4.1-12-9-1.15-3.12 1.2-4.71 0-8-1.47-4-6-4.15-8-8-1.8-3.41 0-6.19 0-11 0-7-3.83-9.06-3-16 .29-2.43 3.16-8.38 7-14 2.75-4 4.54-6.2 5-10 .65-5.37-2.43-10-3-14a29.16 29.16 0 0 1 1-12c1-3.32 2.57-6.76 1-10-1.23-2.53-5.66-4.72-6-5-3.09-2.59-6-7.23-6-12 0-5.71 4.68-8.49 6-14 .49-2 .22-7.47-.5-12.63-.6-4.3-1.31-7.37.5-10.37 2-3.36 6.07-4 9-7a24.29 24.29 0 0 0 3-4 34.3 34.3 0 0 0 4-11c.82-3.6 4.49-11.22 8-18 1.13-2.18 2.87-5.25 6-6 4.11-1 7.62 3.42 11 2s2.51-6.59 6-8c2.5-1 4.47 1.21 7 0 2.35-1.13 1.89-3.67 4-5 3.61-2.27 8.23 2.06 12 0 2.22-1.21 2.24-4.2 4-8 1-2.17 3.37-4.62 4-8 .19-1 .08-3.83 1-6 1.43-3.34 5-6.66 8-6 .75.16 3.35-.42 4-2 1.07-2.57 9.41-1.56 14-3 5.4-1.7 6.46-4.85 12-6 1.92-.4 8.76.44 11-2 2.75-3-.26-7.82 2-12s8.21-4.74 12-8c6.46 6.1 27.46 17.86 37 14s30.27 6 50 8 29 13 29 13c-2.24 3.42-.45 8.4-1 12-.41 2.67-2.78 6.35-2 10 1.15 5.42 7.05 10.62 12 10 5.73-.71 6.75-8.8 13-10 4.28-.82 9.54 1.68 12 6 .73 1.27 2.79 5.46 1 9-2.37 4.7-9.19 3.52-12 8-1.94 3.1-.5 6.64 1 13 1.7 7.2 1.56 12.23 5 16s10.18 7.59 16 6c1.48-.41 3.53-2.13 6-2 3.83.2 4.69 3.7 8 4"/></svg>