<svg viewBox="0 0 357.65 272" xmlns="http://www.w3.org/2000/svg"><path d="m72 271.67c-2.06-.94-3.85-4-4.31-6.7a11.63 11.63 0 0 0 -.69-3.3c-.91-2.06-7-2.91-9-3s-6.64 2.76-13 2-4.85-8.13-7-9-9.87-4.14-11-5-5.81 4.6-10 4c-7.69-1.1-16.33-1.33-17-5-.29-1.55 1-3.31 1-6 1.33-6.33 3.93-11.08 8-14 7.76-5.58 16.62-1.11 25-5 9.59-4.45 11.52-14 18-25a79.22 79.22 0 0 1 22-24c14.72-10.5 33.39-9.45 45-24 1.11-1.39 7-16 15-19 8.32-3.16 13.79 3 22 1 12.24-3 20.68-25.22 27-32 7.13-7.66 16.52-11.19 27-18 12.14-7.89 25-17.17 29-22 14.76-17.86 13.7-45.95 31-55 8.1-4.24 22.76-4.24 44 6 12.16 5.86 20.14 13.53 24 19 7.21 10.23 7 18.31 10 32 4.31 19.73 13.25 31.22 8 41-6.52 12.14-27.64 12.85-39 21-10.88 7.79-19.52 20.84-25 41-2.6 9.58-.26 33.6-9 40-12.26 9-34.08-9.42-56-4-13.42 3.32-19.61 12.76-33 22a135.64 135.64 0 0 1 -34 17c-17.94 6-44.41 3-64 17-11.6 8.33-18.74 19.39-24 17z"/></svg>