<svg viewBox="0 0 170.5 444.93" xmlns="http://www.w3.org/2000/svg"><path d="m0 409.13s6.67-.6 11.51-1.21c3.62-.47 8.45-.93 12 2 3.78 3.13 2.82 8.25 7 11 3 2 5.7.58 9 2 4.49 1.92 6.21 6.1 9 11 4.24 7.42 7.78 11.2 10 11 4.62-.41 5.56-11.13 12-13 2.67-.78 5.69 0 9 2q4-6 8-12c-5.66-7.74-7.1-12.28-9-19-3.52-12.46-2-22.3 0-26 3.12-5.71 7.73-7.7 15-12 10.66-6.3 18.83-14 21-18 4.52-8.32 4.71-18.43 3-27s-5-14.53-8-18c-7.79-9-16.53-8.3-25-16-4.88-4.44-11.49-12.5-12-22-.64-11.89 8.11-18.53 15-31 2.82-5.12 6.38-20.72 9-35 1.9-10.38 2.83-30.67 8-46 3.32-9.86 15.07-30.81 31-49 17.45-19.93 31.4-28.29 34-47 1.46-10.5-5.52-25.88 1-35 0 0-4.08-12-11-14s-15.7-9.49-24-6-13.86 7.9-12 14 7.68 12.52 2 16-19.57 26.22-29 22-18.12-13-26-10-20.27 10.43-27 12c-7.33 1.7-16.73-.07-16.73-.07s-1.78 79.95-9.78 162.61-17 191.67-17 191.67z"/></svg>