<svg viewBox="0 0 280.52 324" xmlns="http://www.w3.org/2000/svg"><path d="m93.52 5 3-2.5 3-2.5 6 11 17 2 12 8a22.44 22.44 0 0 1 11 3c4.93 2.91 6.75 7.25 10 10 4.23 3.56 11 4.92 20 7 7.9 1.84 15.39 3.86 17 9 .76 2.41-.54 4.93 1 8a10.67 10.67 0 0 0 4 4c5.06 3.63 7.9 11.64 10 11 1.44-.44.94-4 3-6 2.35-2.27 6.9-2.63 10-1 3.91 2 4.37 7.7 7 8 3.77.42 7.68-10.59 10-10 1.47.38.87 5.08 3 6s4.72-2.83 7-2 3.18 5.43 2 9a11.3 11.3 0 0 1 -5 5.81c-6.47 4.07-11.89 7-11.61 8.08.23.89 4.11 1.24 8.33.25 5.95-1.39 11.19-7.36 15.24-6.14 4.3 1.29 5.24 9.14 6 9 .54-.1.75 9.57 0 15s-7.37 12.14-9 19-1 16-1 16a6.53 6.53 0 0 1 -2 3c1.63.67 1.74 7.88 2 9a19.54 19.54 0 0 0 3 7c3.43 3.9 7.53 3 11 7a11.94 11.94 0 0 1 3 8c-.18 4.15-3.18 6-4 10a16.12 16.12 0 0 0 1 9 21.19 21.19 0 0 0 5 7c5.3 5.55 6.13 13.59 9 19-6.73 11.8-11.69 18.5-20 24-12.25 8.1-29.76 6.3-39 18-6.62 8.37-3.14 18.29-11 25-8.84 7.54-22.23 3.2-35 2-8.19-.77-34.19 7.28-53 12-14.29 3.58-35 8.14-39 20q-7.44-9-15-18c-7.52-8.95-15.3-18.44-21-23-6.6-5.28-11.61-7.46-16-14-8.44-12.54-5.13-27.26-9-39-3.25-9.83-8.62-13.22-12-23-3.08-8.86-9.87-34.49 3-54 4.36-6.62 12.55-10.59 16-20 1.91-5.23 1.56-20-7-37-3.43-6.82-16.8-23.08-21-40-2.36-9.48-1.66-16.81 0-21 5.74-14.51 25.15-23.48 42-23 9.58.27 20 6.74 32 4 6.86-1.56 12.83-5.44 18.04-11z"/></svg>