<svg viewBox="0 0 421.11 271.17" xmlns="http://www.w3.org/2000/svg"><path d="m1.11 229.17c1.94 2.91 20.44 8 22 11s-1.56 16.52-1 21 11 10 11 10 8.76-5.59 11-6 5.36-3.19 7-3a9.49 9.49 0 0 0 3-.09 10.92 10.92 0 0 0 4-1.91c8.59-6.68 73.32-2.28 91-25 1.78-2.29 5.09-7.38 9-7 1.86.18 7.13 4.22 8 5s5.94-1 8-3 6.94-3.78 10-5 9.73-1.18 12-4 7.53-10.38 9-11a.93.93 0 0 0 .23-.21c9.9-8.9 69.92-94.14 81.77-92.79a12.89 12.89 0 0 0 3.4-.19 9.49 9.49 0 0 0 3.6-1.81c3.05-2.37 6.75-7.43 9-8s10.75 4.74 12 7 3.94 3.2 7 1 10.15-7.5 14-8 9.76-1.32 12-5 8.86-10.66 12-10 7 6 7 6a61.38 61.38 0 0 1 8-6c4.5-2.81 5-4 5-4q20.5-26.51 41-53c-5.6-6.19-4.1-7.94-5-10s-7-2.91-9-3-6.64 2.76-13 2-4.85-8.13-7-9-9.87-4.14-11-5-5.81 4.6-10 4-16.14-3.53-17-5 3-5.24 1-6-18.56 3.53-21 3-14.16 4.75-16 6-21.47 1.61-28 2-1.1-10.3-8-12-28.74-3.35-34-1-18.27 9.18-23 13-9.47 16.09-13 17-15.91.9-20-1-1.72 11.43-5 12-10-4.66-15-3-7 15.78-10 19-11.64 10.65-14 11-11.75 5.59-20 5-23.2 9.5-30 11-16.54 16.08-22 21-14.85 18.43-24 15-5.7 16-12 20-12.2 10.79-18 19 14.3 15 13 20-21.39 11.24-26 18-4.93 28.09-3 31z"/></svg>