<svg viewBox="0 0 485.42 203.02" xmlns="http://www.w3.org/2000/svg"><path d="m21 0-8 6c-4 2.51-13 6-13 6s7 5.76 13 10 12.54 5.23 22 11 6.9 13.16 14 20 7.79 3.09 15 8c1.19-5.85 5.92-4.57 13-3s6.66.8 18-7 11.39-8.78 27-10 11.78-5 14-5 1.58 3.46-2 7-7 6.45-9 9-2.35 6.1 1 10 4.93 5 4 7-8.87 1.84-11 2-5.57-2.15-8-2-5.28 4.51-7 7-6.17 3-6 6 9.54 5.3 9 8-4.89 5.09-5 6 3.58 3.88 5 5c13.17-10.58 20.74-8.51 24-6s10.57 13.15 11 17-2.4 7.9-2 10 3.89 11.23 4 15-2 13.12-3 18 2.7 8 6 11 4.29 2.71 12 4 17.62 7.77 20 10 6.55 3.4 12 2 23.43-8.15 28-6 5.95 5.07 13 3 25.37-6.61 30-4 6.63 13.9 10 17 14 10.61 21 11 20.77-4.8 25-7 7.52-9.3 14-11 4.89-7.46 15-7c5.59.25 11.13 2 14-3 2.15-2.81 5.87-10.69 14-11 3.93-8.07 4-10 4-10s3.28.8 5-7 27.59-7.2 30-17 5.09-9.28 2-16 4.45-14.41 18-8 32.12 1.08 41-4 11.57-34.45 10-45-17-39-17-39c-8.29 2.72-14.38-3.35-19 0s-4.84 11.15-9 19-8.44 9.8-12 13-1.48 13.82-8 18-21.22 2.75-28 3-21.58 2.27-35 4-26.3-10.55-33-14-14.1-9.16-29-13-13.46 1.32-20-1-13 2.32-22 4-12.43-1-17-3-22.53-.57-27 3-25.79-6.09-31-9-13.07-3.4-23-7-22.21-7.74-27-8-17.9-.37-24-5-9.66-2.94-22 0-20.44-2.31-29-4-8.47-7.76-15-13-11.12-3.59-17-5"/></svg>