<svg viewBox="0 0 483.21 430.09" xmlns="http://www.w3.org/2000/svg"><path d="m143 370c.81-2.72-1.44-5.43 0-8 .93-1.66 3-2.62 6-3 0 0 .29-3.88 3-4s7 .05 9-1 3.55-5.28 5-4 3 4.22 5 4 3.71-3.9 7-4 .21 6.35 3 7 5.67-5 7-3-1.88 9.15 0 10 8.09-1.07 9 1-2.91 9.41-1 11 4.27-1.87 6 0 3.84 5.7 5 6 5.85-3.69 6-1 .53 9.28 2 10 2 4 2 4 3.6-4.1 5-3c2.64 2.09 7.17 3.66 9 3s7-7 7-7a201.43 201.43 0 0 1 22-50c13-21.1 27.13-28.83 40-50 22.26-36.62 17.39-44.37 44-82 8.1-11.46 33.11-13.74 44.39-22.23 13.84-10.41 10-48 32.61-51.77 13.26-2.21 28.95-18.52 40.72-27.66 19.56-15.17 13.45-23.52 21.49-54a176.77 176.77 0 0 0 -38.21-19.34c-12-4.42-21.59-6.44-34-9-31.14-6.42-62.41-15.5-71-22-19.52 18.18-29.56 36.09-30 54-.25 10.22 2.61 17.93-2 28-5 11-21.65 20.72-24 23-11.63 11.3-23.3 30.21-18 43 2.74 6.61 10.78 8.63 11 14 .44 10.91-38.89 19.19-59 35-17.1 13.44-21.84 29.61-43 42-8 4.7-26.59 11.45-47 14-17.68 2.21-48.08-4.89-71 6-8.92 4.23-8.11 24.51-27 39-15.93 12.22-28.92 44.76-25 54 .5 1.18 10 12.74 9 21-.71 5.7-4.39 8.18-8 14a43.17 43.17 0 0 0 -6 18c.76 6.33 3 11.53 7 15 4.16 3.6 8.58 3.09 15 5s10.28 4.55 17 5a22.85 22.85 0 0 0 9-1 21.3 21.3 0 0 0 11-8c2-3 1.88-3.16 4-6 1.63-2.18 3.27-3.9 5-6 2.62-3.2 2.36-6.21 5-8 5.36-3.64 13.27 1.73 18-2 2.32-1.83 1.52-4.32 4-7 2.27-2.46 4.86-2.53 7-4 4.67-3.21 4.31-6.69 9-9 4-2 4.35-.11 10 0 5.1.1 7.33-1.56 11.62-4.28 2.64-1.66 10.11-3.81 10.38-4.72z"/></svg>