<svg viewBox="0 0 404.15 275.04" xmlns="http://www.w3.org/2000/svg"><path d="m98.08 1c-15.6-1.6-17 2.7-20 17s-12.69 22.68-27 33-12.72 32.89-14 44 1.28 42.77 3 54-28.33 22.4-25 22-15.38 5.91-15.08 6.92a.2.2 0 0 0 .08.08c1.78.86 4.4 25.35 11 36 3.38 5.46 3.56 8.37 15 12 8.38 2.66 14.69 2.25 18 6a9.9 9.9 0 0 1 1.39 1.71 7.92 7.92 0 0 1 .64 6.4c-.55 2.44-1.39 5.76-2 7.89-3.37 11.17 4.54 21.29 6 23a8.22 8.22 0 0 0 4 2.71c1.18.35 2.72.27 5-.71 5.58-2.39 12.28-1.91 25-2s21.66 4.49 28 4 19-1.21 28-1c6.27-1 12-.41 18-1s18.07-3.11 32-5 15.76-7 18-7 7.25-5.9 13-4 6.51 7.1 21 6 43.79-13.26 67-13 50.76-35.81 64-53 29.43-42.54 31-50-27.18-46.59-30-62-11-16-11-16l-14-11c-7.13 4.93-15.21 4.2-23 3s-13.53-5.9-22-9-10.81-7-19-12-15.16 2.92-16-5-10.33-11.37-17-14-6.52-3.46-19-1-7.82-4.49-19-2-15.21 1.57-21-1-16.55-9.61-29-17c-19.77 1.75-32 7-32 7s-10.27-3.56-34.03-6z"/></svg>