<svg viewBox="0 0 379.44 256.01" xmlns="http://www.w3.org/2000/svg"><path d="m1.12 183c10.55-7.5 23.36-17 27-33 4.53-19.93-8.77-35-18-57-11.95-28.47-10-64-10-64a467.53 467.53 0 0 0 54-5c18.41-2.93 35.05-7.48 53-11 9.34-1.83 21.17-3 28-5s17-8 17-8c4.23 14.1 24.26 19.24 34 22 25.91 7.35 47.71 26.42 83 28 35 1.56 57.59-8.6 68-18a126.24 126.24 0 0 1 30 35c12.69 22.07 13.93 39.84 11 46-6.59 13.85-25.71 22.23-41 19-11.55-2.44-19.5-15-28-13-9.39 2.17-14.34 26.86-18 33-16 26.88-74.13 35.15-84 40-34 16.72-58.09 63.14-99 64-19.48.41-38.24-7.73-56-22z"/></svg>