<svg viewBox="0 0 188.12 224.17" xmlns="http://www.w3.org/2000/svg"><path d="m45.12 38s13.83-4.2 22-12 6.88-20.18 18-26c9.53 8.63 24.23 2.09 45 3 8.59.38 29.52 6.14 49 16a65 65 0 0 0 -20 30c-2.76 8.57-3.56 19.09-2 33 1.2 10.71 5.22 26 6 30 2.82 14.46 2 25.58 5 40 4.78 22.68 14.48 39 20 43-9.05 6.09-15.82 7.35-24 9-13.73 2.76-25.73-2.17-39 4-8.72 4.05-14.42 14.55-26 16-8.11 1-12.72-2.61-21-5-10.22-2.95-26.15-.81-33 2-1-7.15-11.82-7.35-16-14-3.07-4.88-1.65-10.09-3-15-2.06-7.48-6.19-9.46-8-17-2-8.44.93-17.36 1-22 .16-10.07-4.39-13.95-5-24-.36-5.88 5.06-25.46-1-32-3.31-3.57-8.36-2.55-11-7-2.84-4.78-2-14-2-14s14.5-5.58 21-13 5.44-14.61 24-25z"/></svg>