<svg viewBox="0 0 268.4 333.02" xmlns="http://www.w3.org/2000/svg"><path d="m177.38 304c-14.88-21.16-37.62-29.63-55-24-24.56 8-29.2 42.19-30 53 0 0-5.82-7.95-19-18s-28.17-11.39-35-21-28-6.35-31-19-12.34-37.15-4-44 27.87-8.5 35-22-.07-17.73 5-27 23.83.49 24-11-26-44-21-52 20.22-10.69 24-31a272.48 272.48 0 0 0 5-50c.25-15.86-.41-17.86 8-22s22.82 6.8 27 5 8.76-20.37 23-21 23.15 13.2 40 14 57-8 57-8c2.42 6.83 30.28 9.45 33 9 6.69 27.49 7 54.44-1 80-5.51 17.61-17.27 35.58-33 57-20.77 28.28-34.3 44.73-33 65 1.26 19.6 20.45 35.8 15 53-5.32 16.79-26.71 16.6-34 34"/></svg>