<svg viewBox="0 0 307.02 332" xmlns="http://www.w3.org/2000/svg"><path d="m85 0a66.81 66.81 0 0 0 4.62 16.1c.83 1.9 1.64 3.48 2.38 4.9 2.08 4 6.47 8.88 11 14s7.15 13.2 12 17 13.62 1 14 8-1.1 16.43 3 26 16 11 16 11 12.14 11.74 13 20 5.37 20.38 9 23 16.61 6.81 16 12 1.88 12.65 11 19 6 20 6 20 9.12 8.12 12 16 9.27 7.64 17 17 14.51 14.47 17 22 13.82 6.95 16 12 6 8.38 15 21 10.51 13.54 12 17 15.78 16.55 15 24c-8.22-.16-34 2.48-48 12-5.59-7.77-13.56-.51-24-9-20.66-7.63-34.05-18.13-39-32-3.22-9 .39-22.89-7-31-8.26-9.08-23.79-5.12-35-11-4.55-2.39-15.13-14.25-23-30-8.56-17.13-9.56-30.73-21-40-11.61-9.4-27.64-8.73-38-13-14.63-6-18.38-14.95-32-23-3.48-2.06-18.69-24.5-24-37-6.83-16.09-5.55-20.65-13-33-9.09-15.08 5.61-27.51 3-35-2.16-6.18 21.5-20.09 42-31l21-1z"/></svg>