<svg viewBox="0 0 329.03 474.28" xmlns="http://www.w3.org/2000/svg"><path d="m220 15.28c-2.92 12.49 13.69 27.37 18 42 3.29 11.17 4.6 20.86 8 32 3.06 10 7.09 16.69 9 27 .46 2.51-.27 23.59 6 33 8.74 13.12 24.11 11.79 36 23 4.94 4.66 17.2 18.11 17 35-.14 11.35-8.78 19.9-6 32 2.09 9.09 10.63 15.26 14 21a48 48 0 0 1 7 27c-6.2 4.58-2.71 10.42-8 15-4.16 3.6-8.93 2.93-13 5-7.73 3.92-7.8 10.52-14 16-5 4.38-10 6.6-10 11 0 2.79 2.15 4 2 7-.22 4.14-4.38 7.05-6 8-5.21 3.06-8.55.42-13 3-5.52 3.2-7 14.37-9 18-1.61 2.93-7 8.82-12 14a30.65 30.65 0 0 0 -7 10c-1.89 4.66-2.77 10.83-1 19 .6 2.78 5.41 11.39 4 17-1 3.86-4.16 8.1-12 12-6.82 3.39-13.61 3.61-18 4-18.13 1.59-32.37 13.11-32 14 .25.6-17 6-17 6s-18.69 1.47-29 8c-.79-4.38-3.48-11.34-6.76-18.24-1.17-2.46-2.47-4.79-4.24-7.76-4.87-8.16-18-31.85-9-47s-.45-56.15-8-68-5-50-5-50 12.63-20.88 17-38 13.2-30.62 4-43-16.49.34-26-12-10.23-41-29-41-26.14-1.92-38 5-37.76 13.72-26-10 5.51-28 17-45 43-5 43-5 52-.82 21-10-35.8 9.45-31-19-4-12.11-2-43c2.3-12.37 4-19 4-19a73 73 0 0 1 15-3c16.07-1.47 28 3.11 38.34 6.25 15.35 4.69 29.77 6.89 39.65 6.75 14.35-.2 23.64-4.06 38-4a103.44 103.44 0 0 1 34.01 6z"/></svg>