<svg viewBox="0 0 511.15 469.61" xmlns="http://www.w3.org/2000/svg"><path d="m300.76 461.91s.34-4.21.39-5.87c.38-12.37-1.08-22.57-2-35-1.46-19.73-.46-33.07 5-40 7.1-9 20.2-9.35 24-19 4.43-11.26-9.08-24.45-10-39-.69-10.89 2.63-27.28 14-37 17.83-15.25 47.37-1.26 59-16 6.86-8.7 1.16-24 3-34 3.6-19.62 20.7-29.94 41-52 13.28-14.44 25.38-30.94 28-38 1.51-4.06 4.32-24.15 13-36 8.05-11 21.51-18.5 35-22-2.3-4.52-4-10.6-4-19 0-9.6 2.6-15.63-1-20s-10.19-4.32-15-4c-13.74.91-30.25 6-37 7a71.1 71.1 0 0 1 -46-9c-6.62-4-15.63-11.11-23-8-4.88 2.06-5.06 7.5-10 9-7.18 2.18-13-7.39-21-6-6.2 1.07-8.61 8-14 11-10.94 6.18-28.27 3.28-35-6-2.44-3.36-3.22-11.77-2-23 1.13-10.44 2.94-19.25 1-20-1.57-.61-4.15 5.49-9 8-8.77 4.53-18.93-3-25 2-4.6 3.75-2.45 12.35-5 13s-9-15-9-15-28 6.09-38 6-14.68-3.71-24-3-6.65 1.79-18 4c-3.78 3.83-7.27 2.26-11 6-5.25 5.27-3 14.33-6 21-2.66 5.93-9.25 10.88-11 13-6.62 8-10 15.79-11 21-1.55 7.81 2.42 20.4-3 28-4.52 6.34-11.53 5.76-21 10-5.05 2.26-13.47 8.29-21 17-6.51 7.53-8.92 13.26-17 17-8.92 4.12-14.75.12-23 5-7.16 4.24-9.1 14-16 15s-10.75-7.53-18-7c-9 .66-15.09 14-17 19-.48 1.24-1.15 3.54-1.15 3.54a132.2 132.2 0 0 1 5.37 24.42c1.85 14.38 2.06 36.37 2.06 36.37s6.78-5.18 9.72-4.31c5.75 1.71 7.17 18.53 6 34-.81 10.67-2.75 20.45 3 26 4.25 4.1 12.75 3.51 17 5 7.58 2.66 17.06 9.2 20 19 .82 2.73.83 11.63-3 21-5.21 12.73-13.14 19.1-11 27 1.36 5 7.4 7.45 7 12s-10.62 9.7-12 11a26.53 26.53 0 0 0 -5.84 8.49c-.44 1-1.19 2.89-1.19 2.89l123.09 63.19z"/></svg>