<svg viewBox="0 0 783 271.19" xmlns="http://www.w3.org/2000/svg"><path d="m783 154.19c-3.64 10.78-2 19-2 19s-7.9-.07-6 14c1.21 9-10.6 2.84-11 6s3.06 14.32-1 20-30 19-30 19l-4-2s-6.8 11.13-8 7-5.31-14.83-9-15-16.54 1.25-20 1-14.44-13.34-17-13-10 5-10 5-11.69-15.84-15-16-10.58 9-12 9-13 7-13 7-12.61-9.82-15-10-13.35 12.23-15 12-14 1-14 1l-10 9c-2.43 4.79-5.1 9.47-8 14 1.7-2.7-6.19 10.83-9 12s-13 8-13 8-15.69 10-18 10-24-18-24-18-8.91-11.22-12-12-14.36-.76-17-1-16.05-10.27-19-11-10 4-10 4-12.84-14.85-16-16-16 13-16 13-2.83-2.11-5-1-14 5-14 5-5.14-14.45-7-14-13 11.13-15 12-19 7-19 7l-7-8 18-5-8-6s-4.21-14.22-8-17-16.28 2.32-19 0-20.13-12.35-22-14-8 6-8 6-9.6-16.85-13-18-10 6-10 6-8.82-13.33-11-13-15.13 2.89-19 0-15.12-11.46-18-12-8 5-8 5-12.29-17-16-17-16 11-16 11-9.62 8.48-12 7-13.06-11.48-16-12-17 14-17 14a19.08 19.08 0 0 0 -8 1c-4.15 1.49-14 8-14 8s-2.54-5.95-6-6-7.66 9.17-12 11-14 3-14 3-2.35-8.55-6-9-16 3-16 3-19.11-11.52-22-13-8 3-8 3-12.73-15.72-16-17-9 5-9 5-5.18-9.28-8-11c1.05-10.42-.87-17.65 5-30 15.88-36.75 57-37 57-37s33.86-17 42-20 6-6 6-6 29.33-2.25 40-4 38.25-20.25 48-12 49.17 13.78 55 3 29.08-33.19 42-37 30 2.82 52 3 22 15.81 30 17 29.88 1.78 39 5 33.8 29.72 47 33 16.78-12.26 18-9 13.73 23.69 25 26 56.62-2.31 65 1 5.57 19.64 22 26 48.49-6.36 56 0 24.43-15.37 34-2 49.32 29.59 60 33 28.5 14.53 40 20z"/></svg>