<svg viewBox="0 0 351.47 405.5" xmlns="http://www.w3.org/2000/svg"><path d="m103.41 12.5c12.37-2.29 29.56-15.17 42-12 15.75 4 16.91 17.5 31 20 16 2.83 23.8-12.32 41-10 13.17 1.77 13.56 11 26 13l15 21c-1.73 11.21-.64 22 6 28 8 7.18 22.66 6 41-1 10.14-3.84 17.43-8.75 26-6a23.32 23.32 0 0 1 15 17c1.73 9.09-4.56 12.89-3 22 1.35 7.91 7.18 9.21 8 17 .92 8.7-8.71 18.43-11 24-2.39 5.8-1.74 13.8-7 20-6.39 7.54-14.74 7.26-22 13-6.66 5.26-6.72 10.29-13 16-7.17 6.52-14.07 7.1-21 15-5.83 6.64-9.16 13.62-8 20 1.53 8.42 9.84 11.4 18 19 7.09 6.6 13.19 16.89 16 26-8.38 10.11-2.84 23.28-12 31-7.34 6.18-19.19 2.33-28 5s-17.38 12.05-29 23c-10.42 9.81-17.37 15.65-26 17-7.25 1.13-12.18-.73-18 3-6.35 4.07-5.07 9.29-11 13-8 5-16.12-1-25 3-6.82 3.05-9.5 9.06-13 15a96.59 96.59 0 0 1 -17 21c-13.58-2.93-23.08-8-26-16-3.46-9.46 4.62-16.87 2-28-2.25-9.54-9.18-10.92-13-20-4.66-11.06-.46-26-5-28-4.09-1.79-12 8.79-21 12-11.79 4.22-27.61 2.19-33-6-4.93-7.48 1.93-15.43-3-24-4-6.92-11.69-7.27-17-13-2.43-2.62-6.76-11.65-8-23a60.33 60.33 0 0 1 7-36c6.94-12.3 20.39-24.94 38-29 2.62-.61 19.64.22 27-6 8.9-7.53 4.77-17.81 13-27 4.58-5.11 14.61-7.47 16-14 1.49-7-6.73-11.32-7-19-.44-12.41 16.11-17 18-30 2-13.83-12.89-20.76-14-37-.78-11.45 5-17.37 6-30a72 72 0 0 0 -1-19z"/></svg>