<svg viewBox="0 0 606.19 409.45" xmlns="http://www.w3.org/2000/svg"><path d="m192 406c3.21.58 5.05-2.94 9-3 3.28-.05 3.81 1.94 7 2m0 0c4.77.09 8.35-5.18 11-4 2.5 1.12 1.18 6.45 4 8 2 1.1 5.48.09 7-2 1.18-1.62.52-3.82 2-5 1.28-1 2.61-.11 4-1 2-1.27 1.39-4.21 3-6s4.12-1.36 8-2 6.11-2 9-1c2.23.78 2.82 2.08 5 3 3.53 1.49 8.41 1.3 10-1s-1.09-5.07 0-8c1.58-4.26 7.92-3.76 11-8 2.68-3.7 1.21-7.65 3-12 1.67-4.08 5.49-7 7-9 2.16-2.9 5.3-8.69 8-14 1.17-2.31 3.75-7.47 8-8 2.55-.32 4 1.26 7 1a13.28 13.28 0 0 0 5-2 16.76 16.76 0 0 0 6-7 27.64 27.64 0 0 0 2-8c.67-5 .74-8 3-10s3.89-1 6-3c2.32-2.21 1.63-5.74 4-7s5.44 1.32 7 0-.73-5.52 1-8 6.17-1.44 9-3c4.78-2.64 4.85-8.3 8-15a34 34 0 0 1 8-11c7-6.27 17.48-6.25 22-14 2-3.46 2-6.66 5-8 2.44-1.1 5.65.49 7-1s-.3-4.68 0-7c.44-3.45 2.92-7.12 6-8s4.92 1.39 8 1c3.5-.44 5.49-3.29 8-6 2.23-2.41 4.51-3.76 7-6 4.84-4.36 7.9-7.86 11-8 6.28-.29 12.44 9.68 18 13 5.21 3.11 12.17 5.67 19 5 4.68-.46 14.23-5.49 17-3 1.89 1.71.09 4.83 2 7 3 3.42 10.08-.41 14 3 2.29 2 2.71 8.14 3 9 1.51 4.46 4.07 5.7 6 10 2 4.58 1.44 7.65 4 12 1.86 3.17 5.67 8 11 9 3.84.72 6.48-1.17 11-2 4.73-.87 9.33-.53 11 0 5.43 1.74 10.78 7.83 14 10 3.94 2.65 6.58 3.48 9 3 3.66-.73 6.37-4.09 8-8a1.48 1.48 0 0 1 1-1c1.83.2.26 14.38 3 15 2.23.5 6.13-8.13 7-15a11.07 11.07 0 0 0 -1-7 9.75 9.75 0 0 0 -7-5c-4.62-.56-6.69 3.7-11 3-3.31-.54-5.27-4.6-8-4-1.93.42-2.17 2.72-4 3-2.61.39-4.69-4.48-8-6-4.61-2.11-10.53 1.11-12-1s4.06-7.13 3-12c-1-4.52-7.33-6.41-7-10 .24-2.65 4.38-4.06 4-6s-4.54-1.93-5-4c-.41-1.79 2.35-3.13 2-5s-3.76-1.95-5-4c-2.26-3.74 3.14-9 1-13-1.39-2.59-5.47-2.51-6-5-.49-2.25 2.53-3.82 2-6-.62-2.49-5-2.35-6-5-.9-2.49 2.14-4.73 2-8s-2.44-3.78-3-7c-.5-2.85 1.35-5.56 0-8-.62-1.11-2.16-2.25-5-3-4.23-1.12-10.76.46-13-2-1.87-2.05-.22-5.86-2-7-2.27-1.45-7.14 3.36-9 2-1.61-1.18.56-6-1-7-1.1-.72-3 1.29-5 1-3.1-.45-4.47-5.29-6-5-1.34.25-1.69 5.36-3 8-1.94 3.89-5.92 7.59-9 7-2.86-.55-3.55-4.9-6-5-3.2-.13-5.27 7.28-8 7-2.32-.24-3.05-6-5-6s-3.51 6.19-5 6c-1.16-.15-1-4-3-5s-4.52 1.92-7 1c-2.08-.77-2.58-4-4-4s-2.09 3.11-3 3-1.78-5.34-2-6c-1.27-3.71-3.38-6.24-4-6s.77 4.69-1 6-4.41-1.17-6 0c-2 1.5.15 7.48-1 8s-3.5-4.68-7-5c-4.42-.41-8.5 6.78-10 6-1.22-.63.76-5.67-1-7s-5.78 2.36-8 1c-2.72-1.66-.63-9.57-2-10-.74-.23-1.63 2-3 2-2.43 0-3.73-6.06-6-6-2 .05-2.71 4.76-5 5-1.74.18-3.37-3-5-4-4.33-2.77-9.2.64-12-2-3.8-3.57 1.9-12.67-2-17-3.1-3.43-9.37-.55-12-4-3-3.88 2.37-12.07 0-14-1.87-1.52-6.32 2.58-9 1-3.31-2-.19-9.9-4-14-2.94-3.17-8.64-1.92-10-5s3.13-6.33 2-10c-1.08-3.5-5.83-3.41-8-7-2.43-4 .49-7.47-2-11-3.07-4.34-9.45-1.83-13-6s-.08-10-4-14c-2.62-2.68-5.35-1.19-8-4-3.29-3.49-.92-8-4-11-2.86-2.78-7.5-1.07-15-1-5.84.06-11.35-1.07-13-2-4.48-2.52-7.8-9.46-11-9-2.75.4-3.61 5.62-7 8-2.83 2-5.95 2.08-9 2-5.4-.14-9.91-1.08-15-1-6.18.09-9.92 2.19-14 0-3.89-2.09-5.27-7.6-9-8-3.52-.38-5.13 3.9-9 4-4.62.12-6.21-5.3-11-6-5.62-.82-9.57 5.57-14 4-4.22-1.5-3.53-8.23-8-10l-9 1s-7.38 11.18-9 16 4.38 36.6 4 44-12.25 25.34-17 32-4.4 16.46-6 24c4.12 4.73 2.13 14 5 15 2.13.73 4.64-3.74 7-3 1.85.58 2.44 5.79 3 7 3.4 7.33 12 6.14 15 13 2.49 5.7-.07 14.2-5 17-3.82 2.17-7.19-.51-11 2-3 2-3.14 6.28-6 7-3.27.82-5.79-3.94-10-4-3.79-.06-5.43 3.21-9 4-6.7 1.48-17-8-17-8s-6.22 6.12-12 7-13.54 5-20 9-27.86 10.24-41 13-23 16-23 16c7.15 5.09 12.79 11.38 14 14 1.52 3.29 2.16 14.24 7 17 2.31 1.32 6.54.93 7 1 8.09 1.18 13.44 9.3 15 12 3.15 5.48 2.16 13.39 7 17 4.26 3.18 9.38.5 13 4 3.13 3 2.36 7.94 2 15-.42 8.1.56 14.95 2 17 4.76 6.81 12.92 4.14 18 11 3.08 4.16 1.54 9 6 13 2.11 1.89 4.2 1.66 6 4 3.28 4.27.43 11.56 3 13 1.86 1 4.43-2.06 7-1 2 .82 2.13 3.65 4 4s2.94-2.08 5-2c2.66.11 4.48 3.76 5 5 .73 1.77.64 3.21 1 5 .59 3 2.26 5.05 5 8 3.09 3.33 6.23 6.05 8 9s1.91 5.23 4 8 5.6 6.07 10 7c3.73.79 5.27-.83 9 0 5.1 1.14 5.44 4.67 10 6 6.17 1.8 10.79-3.51 16-1 3.89 1.87 4.21 7.31 8 8"/></svg>