<svg viewBox="0 0 315.08 282.08" xmlns="http://www.w3.org/2000/svg"><path d="m314.64 147.08c-12.38 1.59-20.68 9.79-30 21-8.28 8.88-19.32 22.19-34 31-3.91 2.35-11.42 6.87-17 14-5.06 6.46-8.89 14.61-10 22-4.55-.35-8 3.45-12 2-3-1.11-3.2-4.39-6-5-4.21-.92-9.07 6.75-14 9-5.93 2.7-11.21.7-20 0-11-.88-20.86 1.29-24 3a33.27 33.27 0 0 0 -14 15c-2 4.47-1.69 11.85-6 16-5.59 5.39-12.22 1.69-18 7-.06-10.88-2.39-20.16-7-28-3.37-5.74-11.91-11.91-14-21-2.78-12.1 5.86-20.65 6-32 .2-16.89-12.06-30.34-17-35-11.89-11.21-27.26-9.88-36-23-6.27-9.41-5.54-30.49-6-33-1.91-10.31-5.94-17-9-27-3.57-11.69-3.6-20.6-8-32-3.91-10.08-22.29-32.94-18-42 3.05-6.44 14.08-9.63 35-9 15.89.47 25.92 5.83 41 7 17.72 1.38 40.88-10.45 55-1s11.06 32.64 25 38c10.12 3.89 18.62-6.13 31-5 16.42 1.49 21.79 17 37 23 14.89 5.89 33.28-1.36 43 9 9.26 9.88 2 26.08 12 34 7.94 6.28 17.6.19 26 6 8.18 5.66 10.52 18.65 9 36z"/></svg>