<svg viewBox="0 0 538.92 376.28" xmlns="http://www.w3.org/2000/svg"><path d="m538.92 113.06c-4.65-6.2-7.5-11.51-11-14s-17.42-10.42-24-14-12-2.62-20-8-18.12-16.58-23-17-6.39-8.12-13-5c-6.16 2.9-14.4-1.08-19-4-12.07-7.67-12.47-21.46-25-27-5.75-2.54-9.08-.88-15-3-9.61-3.44-21-19-21-19s-16.83-4.64-24 0a35.83 35.83 0 0 0 -11 12l-10 9s-12.11 2.19-15 4c-18.78 11.77-41.25 11-50 10-12.59-1.43-21.36-4.72-28-9-7.35-4.73-10.27-9.51-18-11-8.34-1.61-16.6 4.08-24 0-4.19-2.31-4.27-5.67-9-8-4.53-2.23-9.68-1.81-13-1-7.79 1.9-9.87 8.3-17 9-6.12.6-11.18-5.13-15-3-4.54 2.53-1.39 12.69-6 19-4.49 6.14-15.25 6.56-20 9-9.57 4.92-17.17 17.71-21 16 0 0-7.43 34.57-7 43s1.46 32.14-7 39-9 37-9 37l2 12s-2.47 22-10 26-11.34 17.67-11 23-17.32 14.48-18 27 6.34 21 1 55-27.92 52-27.92 52l342.71 4.22 1.06-1.79c2.34-3.82 5.13-7.59 8.15-12.43 5.3-8.5 10.41-18 12-23 4.06-12.71 2.52-21.58 10-30 5.28-5.95 12.52-6.34 16.74-13.87 4.72-8.41-.45-14.49 4.26-22.13 5.29-8.59 18.88-8.55 27-14 9.56-6.42 9.76-13.2 18.66-20.51 6.57-5.39 13.43-6.23 19.06-13.45 8.09-10.36 3.66-20.13 12.28-29 5.9-6.1 13.6-5.18 19-13 1.46-2.11 3.71-8 4-15 .36-8.72-3.66-14.31-2-22 .95-4.4 6.08-12.36 17.2-19.1 9-5.46 21.4-5.39 28.8-13.9"/></svg>