<svg viewBox="0 0 475.62 528.04" xmlns="http://www.w3.org/2000/svg"><path d="m466.46 490c7.32 11.49 1.8 22.31 8 35a17.28 17.28 0 0 1 1.16 3c-18.62-.45-167.62-8.63-167.62-8.63-129-72.79-269.54-148.22-269.54-148.22s-9.95-2.67-35.21-3.74c-4.68-22.7-6.1-48.11 8.21-68.41 17.47-24.78 47.41-24.1 75-52 12.5-12.63 19.92-24.69 24-35 4.82-12.14 5.4-24.8 8-34 5.32-18.81 17-36.06 35-52a47.08 47.08 0 0 0 18-12c4.86-5.29 6.45-9.78 10-16 3.26-5.7 7.27-8 12-13 1.7-4 2.74-11.54 7-14 3.91-2.26 7.17-.66 11-2 5.43-1.9 11.62-10.74 13-12 5.32-4.85 9.92-6.46 12-6 4 .88 6.3 6.53 9 6 2.24-.44 2.23-4.57 5-6 3.1-1.6 5.79 1.34 9 0 3.67-1.52 3.42-6.41 7-9 2.23-1.61 5.51-1.52 10-2 4.83-.52 8.12-1.32 10-3 2.64-2.35 2.23-5.06 5-7 4-2.76 7.92.44 12-2s3-7 7-10c3.76-2.86 7.94-1.39 12-3 5.8-2.3 7.19-6.83 12-10a31.49 31.49 0 0 1 17-5c7.31 0 12.27 2 15 4 3.47 2.61 4.64 5.71 8 9s6.76 4.93 8 5c4.88.27 7.56-4.43 13-5 2.88-.3 7.13.3 9 3 2 2.88-.23 6.15-1 12-.8 6.07 1.36 9 0 15s-4 10.08-6 12c-4.34 4.11-9.9 3.42-13 8-3.62 5.35.76 10.86-3 16-3.17 4.34-8.39 2.92-13 7-3.91 3.46-3.17 6.44-7 10-4.84 4.5-8.91 3.27-14 7-4.89 3.59-5.57 7.52-10 12s-9.71 7.35-12 8c-4.1 1.17-7.2.41-11 1-7.16 1.12-11.94 3.65-15 7-1.76 1.93-4.32 7.57-6 14-1.23 4.74-2 8.75-5 10-3.7 1.53-8.3-2.87-11-1-2.17 1.51-.7 5.51-3 7-2 1.32-4.5-1-7 0-3.51 1.41-2.75 6.69-6 8-3.58 1.45-7.48-3.88-12-3-3.51.68-5.61 4.26-7 7-3.51 6.94-6.82 14.63-8 19-1.83 6.84-2.9 11.71-6 15-3.85 4.09-9.37 4.27-12 9-3.56 6.43 2.65 13 1 21-1.32 6.45-7.29 9.68-7 17a17.66 17.66 0 0 0 4 10c2.45 3 8 5 9 9 .69 2.76-.83 4.67-2 8a23.77 23.77 0 0 0 -1 12c.66 3.39 2.92 6.47 3 11a23.68 23.68 0 0 1 -3 10c-3.1 5.83-8.69 8.95-10 15s2.72 9.52 3 16c.14 3.19-2.06 8.9 0 13 2.48 4.91 8.3 5 10 10 1.32 3.86-1.72 6.67 0 10 2.36 4.55 9.75 2.68 13 7 4.54 6-2.45 18.49 0 20 1.91 1.17 6.9-5.88 12-5 3.31.57 6.3 5.6 8 7 3 2.42 8.42 4.19 10 5 2.06 1 4.6 2.51 7 4 3.85 2.38 6.23 4.16 10 5 5.05 1.13 8.79-.35 13 0 3.06.25 7.35 2.15 12 4 4.48 1.77 8.88 3.27 11 5 2.44 2 5.47 7.73 10 9 2.92.81 7-.95 9 1 1.76 1.7.38 4.12 2 6 2.37 2.75 7.39.52 11 3 2.16 1.48 2.37 3.47 4 6s6.42 8.59 13 9c4.32.27 5.94-2.63 10-2 6.09.94 7.66 8.76 13 9 4.84.21 6.79-6 12-6 3.94 0 7.48 4.72 10 6 15.46 7.83 25-4 25-4 11.84 13.72 20.69 11.51 28 23z"/></svg>