<svg viewBox="0 0 432.14 517.09" xmlns="http://www.w3.org/2000/svg"><path d="m62.14 7a42 42 0 0 1 5 19c.27 17.73-11.35 33.53-27 43 0 0-21.22 24.28-36 46s14.78 23.72 15 38-5 19.2-15 38 31.52 7.51 34 22c.88 5.08 2 12 2.4 14.44 1.4 7.59 5.28 14.75 11.61 21.56a71.24 71.24 0 0 1 22 16c4.46 4.81 10.82 16 16 28 6.48 15 9.4 26.92 8 35-.76 4.33-2.6 8.14-3 13.18-.92 10.26 3.73 16.09 5 26.82 2.3 18.82 4.87 24.23-12 48s-4.64 31.24-2 65 11.79 19.46 10 27c-3.64 15.4 18.44 8.59 28-1s12-7.15 38-7 11.58-3.52 19-5 9.89-2.53 15-3c16.08-1.47 28.05 3.11 38.35 6.25 15.35 4.69 29.77 6.89 39.65 6.75 14.35-.2 23.64-4.06 38-4a103.44 103.44 0 0 1 34 6 34.64 34.64 0 0 1 11-7c7-2.75 12.89-2.41 18-2 8.9.71 17.43 1.68 26 3 3.39-6.52 7-12.82 11-19a248.52 248.52 0 0 1 20-27 106.31 106.31 0 0 1 -26-19c-6.34-6.32-12.4-13.61-14-17-2.91-6.14-4.23-12.68-9-14-5.49-1.52-11.37 6-15 4s-.47-11.67-5-15c-3.12-2.29-7.89.43-10-2-2.32-2.67 1.85-7.87 0-12-2.64-5.9-13-4.08-15-9-2.16-5.24 6.42-14.95 15-21 5.69-4 10.65-5.94 11-10 .54-6.39-11-9.85-11-17s10.84-9.63 11-17c.12-5.75-6.52-8.2-8-15-1.22-5.59.34-13.16 5-17 2.34-1.93 7.45-2.63 8-5 .62-2.7-4.14-4.74-4-8 .19-4.42 8.54-5.85 11-11 3.46-7.26-2.7-18.37-9-25-12.8-13.47-25.9-7.69-38-20-6.08-6.18-9.3-20.86-17-22-7-1-13.22 8.69-18.21 6.52-4.17-1.82-2.7-9.76-6.79-11.52-5.46-2.35-12.86 9.75-19 8-6.61-1.88-9.64-18.28-8-34 1-9.86 11.06-29.31 6-39-6.12-11.71-27.88-9.87-30-19-1.86-8 13.87-14.41 15-27 .7-7.84-6.39-16.35-3-21 3-4.06 10.26-1.28 15-5 7.75-6.09 8-24.49 0-31-10.83-8.79-35.6 9.42-59 7-13.95-1.44-26.94-7.43-39-17zm24 237c1.54 9.12-.3 16 1 24 2.31 14.35 14.34 21.29 20 33 3.81 7.88 5.79 18.34 9 29 3.49 11.6 7.36 22.74 13 23 6.53.3 11.71-15.08 16-14 3.1.78 2.89 9.75 5 10 2.9.34 6.35-16.36 9.66-16.14 3.5.23 4.38 19 7.34 19.14 3.65.17 7.68-28.15 12-28s2.91 27.67 18 37c10.37 6.41 24.4 3.3 32 0 7.2-3.13 16.12-14.17 24-13 8.65 1.28 11.51 14.64 17 14 5.15-.6 10.5-13.17 6.48-20.57-3.61-6.65-12.51-4.94-16.48-11.43-5.62-9.2 3-26.32 8-26 4.73.3 4.48 16 14 20 6.93 2.9 15.39-1.63 19-4 10.66-7 16.67-21.43 13-32-2.21-6.36-7.22-8.2-13-14-8.13-8.15-6.94-14.79-15-23-12.74-13-24.81-8.14-36-21-8.51-9.78-4.84-19-15-28-6.89-6.11-17-5.57-21-13-5.17-9.71 5.52-20.84 3-34-2-10.65-8.65-11.51-12-22-3.19-10 1-19.32-5-29-4.67-7.58-12.81-11.42-18-13-14.67-4.47-31.76 1.46-42 9-3.39 2.49-8.87 7.22-15 6-3.77-.75-5.6-4.21-9-4-5.82.35-10.73 14.39-16 20-3.22 3.42-6.1 4.31-9 8-8.16 10.37-5.36 24.53-8 33-3.56 11.41-9.84 16.89-7 24s10.69 6.29 14 13c5 10.19-7.18 22.83-5 39 .24 1.78.7 3.22 1 5z"/></svg>