<svg viewBox="0 0 673.11 349.04" xmlns="http://www.w3.org/2000/svg"><path d="m671.33 339.89s2.3-8.36 1.67-12.71c-.8-5.51-3.42-10.93-6-11-3.21-.09-5.46 8.4-8 8-2.2-.35-2-6.95-5-8-3.46-1.2-7.29 5.68-12 5-4.14-.6-4.71-5.9-9-7-5.47-1.41-11.43 5.72-14 4s1.36-9.36-2-13c-1.91-2.07-4.17-.9-6-3-3-3.42.84-9-2-13-1.84-2.6-4.55-1.86-7-4-4.43-3.87-2.55-10.06-7-13-3.21-2.12-5.61.12-9-2-4.23-2.64-3-7.67-7-10s-7.57 1.08-12-1c-4.12-1.93-7.15-7.32-6-11 1-3.31 5.25-3.73 6-7 .43-1.89-.44-4.09-3-7-5.24-6-16.07-9.51-16-13 0-2.68 5.85-3.69 8-8 1.35-2.72 1.81-6.89 0-10-3.34-5.75-11.88-3.32-16-9-2.9-4-.49-7.56-4-12-2.19-2.77-5-3.31-7-5-5.74-4.84-7.19-13.08-7-18 .17-4.68 1.76-7.45 0-11-1.56-3.14-4-3.13-6-6s-1.46-6.32-4-8c-3.12-2.05-6.47.8-10-1-3.37-1.72-2.8-5.18-6-7-3.66-2.09-7.34.91-14 2-5.12.84-8.44-.43-12 2-3.12 2.12-3.64 5.8-7 7-4.92 1.76-9.81-4.1-14-2-2.72 1.36-2.23 4.85-5 6-3.4 1.41-8.67-2-11-6-3.49-6.07-1.07-14.93 4-19 4.08-3.29 7.89-1.85 12-5 3.42-2.62 5.36-7 6-13-4.59-3.14-10.32-10.37-12-17-1.53-6 1-13.21-.53-21.38s-3-13.53-4.47-22.62c-.37-3.48-1-15-1-15-1.38-.29-.5-6-1.06-7.54s-3-3-4.94-3.46c-1.41-.44-5.93-.45-7-2-1.55-2.23 1.64-5.8 0-8-.73-1-2.26-1.48-3-1-1.39.89.72 4.79-1 7s-5 .84-7 3-.16 5.12-2 7c-2.76 2.82-9.95-1.68-16 0-4.66 1.29-5.37 4.2-10 6a26.47 26.47 0 0 1 -14 1c-2.87-.54-5.68-1.54-8 0s-2.89 4.59-3 7c-.27 5.74 3.54 8.07 3 13-.59 5.35-6 10.76-11 11-3.46.17-5.28-2.59-9-2a9.7 9.7 0 0 0 -6 4c-2.71 3.78-1.12 9.14-3 10s-7-3.44-10-9c-1.11-2-1.71-5.9-4-8-4.49-4.13-10.62-1.18-16-5-1.87-1.33-4.69-4.13-5-8-.47-5.78 5.63-10.45 8-12a21.38 21.38 0 0 1 15-3c-5-4.53-10.13-7.48-12-8s-7.86 1.56-10 1-10.5-3.66-10-3-4.21 3.16-5 8c-.94 5.72 3.8 8.35 3 13-1.3 7.53-16.05 13.88-30 14-9.89.08-16.05-3-22 1s-4.35 10.26-10 15c-6.95 5.83-13.78 1.52-21 7s-4.75 12.69-11 19c-8.28 8.36-19.3 5-30 12-6.26 4.11-11.7 10-14 17-2 6.22-.7 12.26 0 21 .72 9.11.14 15.9-2 19-5.28 7.65-14.51 5.44-21 12-8.27 8.37-3.57 18.9-11 29-5.79 7.87-13.77 8.23-21 14-10 8-9.93 15.77-21 22-5.53 3.11-16.11 3.48-21 10-5.81 7.75-.53 15.54-6 24-4.71 7.27-12.08 7-18 13-7.15 7.21-7 15.13-11 27-3.26 9.6-7.43 18.09-11 23-3 4.14-6.42 7.85-7 14v2.31h5.53c4.17 1 6.77.41 8.4-.39a35.84 35.84 0 0 1 3.37-1.78c2.11-.92 3.35-1.45 5-1.39a10.07 10.07 0 0 1 5 1.78 8.8 8.8 0 0 0 1.69 1.19 7 7 0 0 0 4 .3 19.87 19.87 0 0 0 3-.8c2.06-.63 2.25-.84 3-.79 1.14.09 1.21.67 2.77 1.19a13.09 13.09 0 0 0 3.75.4 10.82 10.82 0 0 0 3.49-.2 7.67 7.67 0 0 0 2.77-1.78c1.54-1.24 3.14-1.62 6.33-2.38 2.56-.6 5.1-.93 11.28-1.18 7.81-.33 7.7 0 11.07-.4 3.05-.39 2.39-.59 9.5-2 3.56-.69 5.78-1 9.69-2 4.86-1.16 6.13-1.73 7.32-2.77 1.51-1.33 1-1.74 3.56-4.75 2.25-2.65 2.62-2.3 4.55-4.75 1.74-2.2 1.89-3.06 3.16-3.56s2.12.13 4.36 0a11.92 11.92 0 0 0 4.74-1.38c3.43-1.69 3.3-3.51 6.14-5 .76-.39 1.26-.5 6.32-1 5.72-.54 8.58-.81 9.9-.79a45.42 45.42 0 0 1 9.09.79 14.6 14.6 0 0 0 5 .4 13.31 13.31 0 0 0 3.76-1c5.85-2.35 12.25 2.15 21.56-.2 1-.25 3.93-1.06 7.38-2.31a35.29 35.29 0 0 1 5.54-1.84c2.81-.58 3.46-.16 5.54-.79 1.55-.48 2.7-1.29 5-2.9 3.68-2.58 5.54-3.92 6.59-6.33a11 11 0 0 0 .79-4c.73-8.52 1.09-12.77 0-16.88-1.19-4.53-3.08-6.82-2.37-7.38s4.23 2 6.33 4.22c5 5.37 5.86 12.32 6.59 17.67 1.06 7.71 1.59 11.57 1.06 13.71a5.75 5.75 0 0 0 .26 4.22c.51.88 1 .83 2.38 2.11 2.11 1.91 2 2.88 3.43 3.69a6.35 6.35 0 0 0 4.21.53 124.66 124.66 0 0 1 21.37-.53c3.25.28 5 .75 7.38-.26 1.93-.82 2.19-1.75 5.54-4.22 2.83-2.09 2.89-1.62 5.8-3.69 4.11-2.93 4.11-3.95 7.12-5.54s3.14-.71 5.81-2.11c2.84-1.5 2.93-2.62 7.64-7.12 4.07-3.89 4.85-3.85 6.6-6.33 1.56-2.22 1.11-2.49 3.16-6.33 2.38-4.45 3.26-4.59 6.07-9.5 2.42-4.21 1.76-4.09 3.69-7.12 2.5-3.92 3.27-3.59 6.33-8.17 2.46-3.68 3.7-5.52 4-7.92.17-1.59-.08-2.74.79-4.22 1-1.69 2.31-1.91 2.64-3.42.19-.94-.19-1.43-.8-3.17a24.1 24.1 0 0 1 -1.31-6.06 13.91 13.91 0 0 1 1.05-5.81c.92-2.59 2-3.93 4.22-7.12 4.79-6.83 3.94-6.42 6.59-9.76 1.83-2.29 1.75-1.87 6.33-7.12 3.27-3.73 4.92-5.63 5.81-7.12 1.87-3.13 2.48-5.76 3.42-9.76a84.26 84.26 0 0 0 1.85-14c.48-6.23.4-9.48.79-9.5.66 0 1.78 9.23 1.85 9.76 1.11 9.33.38 11.62 2.64 14.24 2.12 2.47 3.95 1.81 5.27 4.48 1.42 2.89.16 5.39 2.11 7.13 1 .85 1.39.35 3.16 1.31 3 1.63 2.68 3.53 4.75 4.49 2.4 1.11 3.59-1.08 7.91-.79 2.73.18 2.55 1.06 6.33 1.84 4.93 1 5.65-.4 8.71.79 2 .78 3.52 2.28 6.59 5.28 2.51 2.45 2.69 3.17 4.48 4.22 2.77 1.62 4.26 1 5 2.37.88 1.56-.87 2.8-1.58 7.12a18.44 18.44 0 0 0 .27 7.39c.51 2.08.83 3.34 1.84 4.48 2.54 2.86 5.9 1 11.61 3.43 3.68 1.59 2.91 2.65 6.06 3.69 4.72 1.57 6.19-.9 11.34.27 4.77 1.07 5.35 3.59 8.71 3.16 3.09-.4 3.29-2.62 6.59-3.16 1.15-.19 2.6-.17 8.44 2.37 6.8 3 9.11 4.78 10 4s-1.5-3.47-1.32-8.44c.13-3.53 1.46-4 1.32-6.6-.2-3.87-3.26-5.17-6.33-9.49-2.63-3.71-3.42-7.22-5-14.24-1.22-5.43-2.72-15-1.05-15.56.93-.3 2 2.56 7.38 10.28 4.63 6.69 5.11 6.44 6.33 9.23 2.08 4.76.82 5.78 3.16 12.4 2 5.65 3 5.12 3.43 8.44.62 4.79-1.27 7.52.79 10.28.79 1.06 1.13.75 3.17 2.9s2.21 3 3.56 3.56c1.91.84 2.82-.31 4 .4 2 1.26-.34 5.17 1.18 10.29 1.34 4.48 4.13 4.77 4 7.91-.18 3.35-3.39 3.66-4 7.51-.53 3.66 2.13 4.9 1.19 7.92s-4.35 3.36-4.35 5.54 3 4 5.54 4.74c4.69 1.41 6.5-1.64 11.86-.39 3.12.72 3.22 1.92 5.94 2 3.38.08 4.34-1.74 7.12-1.18 1.88.37 1.94 1.3 5.14 3.16 3.71 2.16 4.4 1.37 6.33 2.77 4 2.86 2.13 6.94 5.54 9.89 2.32 2 4.29 1.11 10.29 2 5.65.82 9.6 2.45 14.24 4.35 7 2.88 7.61 4.65 15 8.71 12.7 6.93 19.39 9.09 19.39 9.09z"/></svg>