<svg viewBox="0 0 218 250.15" xmlns="http://www.w3.org/2000/svg"><path d="m0 125s3 5.42 6 8c2.54 2.2 5.5 1.57 7 4 2.44 4-2.61 10.1-2 16 .77 7.46 7.33 14.52 12 14 3-.33 4.15-4.17 7-4 3.14.18 4.28 5 8 6a8.3 8.3 0 0 0 6-1q-1 6-2 12l15 17c2.35-2.82 5-4.64 8-5 8.4-1 15.61 10 22 18 8.1 10.18 15.94 12.79 24 23 5 6.37 11.36 15.7 22 17 8.83 1.08 16.32-3.76 20-7 7.74-6.82 9.52-15.86 11-23 2.65-12.87 6.11-26.3 9-31 5-8.18 12.82-11.33 17-22 3.83-9.78 0-14.77 2-25 1.65-8.6 4.47-13.13 2-19s-8.57-9.63-17-12c-6.71-.18-14.64-.65-18-2a3 3 0 0 0 -2.17-.21c-2.67 1-2.74 7.31-3.83 12.21-1.33 6-5.39.74-14-2s-6-8.46-7-19-9.6-1.78-16-10-11-9.71-13-14-9.73-16.43-9-23-4.09-6.87-9-15 5.47-3.64 5-10-5.69-3.16-5-11-6-17-6-17-32.07 16.38-38 22-14 20-14 20-5 25.89-8 35-7.69 19.35-10 25-9 23-9 23zm203 24c-2.71 5.49-5.82 11.37-7 11s1.58-11.09 2-19c.31-6 .09-11.17 3-18 2.34-5.51 7.42-13.84 12-13 2.15.4 3.8 2.74 5 6 0 0-11.28 25.47-15 33z"/></svg>