<svg viewBox="0 0 435.4 434.99" xmlns="http://www.w3.org/2000/svg"><path d="m31.3 289.67c2 1.87-9.89 16-6 22 2.29 3.51 8.16 1.45 12 5 5.37 4.95 1.11 12.82 6 18 5.59 5.94 16.38 1 21 7 3.06 4-.18 8.65 2 14 2.84 7 10.49 7.46 12 14 1.53 6.7-5.51 10.46-5 18 .45 6.71 7.26 10.44 6 16-1.44 6.23-12.17 7.91-12 12 .09 2.6 6.48 4.72 9 7 4.65 4.2 4.58 10.5 9 12 7.12 2.42 14.17-9.94 24-9 6.26.6 10.76 7.61 15 6 5.31-2 3.09-14 9-17 4.49-2.29 9.46 2.39 18 5 7.13 2.18 13.32.39 21 1 7.45.6 12.25 1.82 18 0 5.27-1.67 15.12-6.64 19-17 1.47-3.93.54-9.7 4-14 3.82-4.75 9.23-3.41 12-8 3.72-6.17-3.13-14.09 1-20 1.85-2.67 4.81-2.33 6-5 3.35-7.56-14-23-14-23s13.93 15.94 21 13c6.15-2.56 4.7-18.95 6-19s4.11 14.93 7 27c2.05 8.6 3.91 14.19 8.67 16.31 8.72 3.91 22.18-6.1 29.33-15.31a53 53 0 0 0 8-16c3.82-12 3.14-22 1.51-25.23-2.4-4.77-9.87-8.87-9.51-13.77.22-3.16 4.18-4.76 8-9 2.65-3 3.78-5.19 7-7 2.93-1.65 5.16-1.5 8-3 1.95-1 6.2-5.4 9-12 5.13-12.06 5.08-20.56 3-27-2.35-7.29-8.18-12.08-15-20-6.13-7.14-8.54-11.51-8-12 .87-.81 9.11 9.38 18 8 6.62-1 11.13-9 13-8 1.35.71 0 10.91 0 12 0 4.1.62 6.59 2 8 3.49 3.55 10.95 2.35 15.92-.18 7.66-3.9 8.17-10.82 14.08-19.82 1.34-2 15.92-15.68 14-21-1.36-3.8-6.93-4-10-8-4.09-5.34-2.9-13.34-2-17 2.85-11.46 12.93-14.55 18-24 1.72-3.21 2.9-12.56 8-16 7.59-5.1 16 1 24-4 6.36-4 8.44-12.5 9-16 1-6.28-1.62-9.08 0-15 2-7.19 10-11 9-15s-10.23-7-18-5c-7.27 1.92-11.46 9.89-16 9-4.72-.93-6.39-10-9-22a176.93 176.93 0 0 0 -8-25c-4.4-11.16-8.17-16.89-14-18s-13 2.44-16 8c-2.87 5.38.4 10.8-3 15-3.91 4.85-11.27 1.51-16 6-5.9 5.6-.77 16.18-6 20s-18.2-.72-22-9c-2.73-6 1.55-13.45-2-17-2.82-2.83-11.83-.68-15-1-5.29-.54-13.16-2.48-17-8-4.88-7-.23-17.32-5-21-3.85-3-10.36.79-18 3a56.85 56.85 0 0 1 -26 1c-10.12-1.91-17.31-6.37-28-9-8.92-2.19-14.46-2.27-19 0-6.66 3.33-9.3 12.67-15 13-6.1.35-8.63-9.48-16-11-9-1.85-14.29 8.54-24 7-6.47-1-7.82-6.86-14-7-8.71-.2-12.29 11.11-22 12-5 .46-11.52-1.6-14-6-21.08 13.44-22.89 25-30 30-5.25 4.92-10.67 10-16 15-15.48 14.53-24.3 23.14-25.99 36-1.8 13.37 4.26 27.29 15 40 11.32 13.4 24.52 19.59 38 25 29 11.64 48.16 15.94 55 31 5 10.93 2.59 24.76-4 39a64.66 64.66 0 0 1 -29 30z"/></svg>