<svg viewBox="0 0 379.01 270.22" xmlns="http://www.w3.org/2000/svg"><path d="m7 135.22a52.58 52.58 0 0 1 -7 35l10 13c2.11 2.59 11.37 14.93 24 15 10.49.06 14.58-8.81 25-11 10.92-2.3 24.58 5.57 30 0 2.76-2.85 1.27-7.07 3-11 3.58-8.15 11.86-8.08 17-15 4.43-6 2.85-13.3 9-18 5-3.82 10.19-1.78 16-4 3.2-1.23 8.82-6.56 14-6 5.62.6 7.2 5.58 12 6 3.39 1.93 4.72 2.54 7 4s12.87 17 22 25c7.47 6.56 6.63 12.32 14 19 9.94 9 32.83 11.17 38 13 8.65 3.06 17.06 7.51 20 10 12.85 10.89 10.77 23.6 23 32 13.13 9 26.51 1.67 42 9 8.27 3.91 15.22 10.31 21 19 2.46-10.61 9.44-15.12 10-25s-5.81-14.39-7-23 2.42-22.43 16-39c7.12-8.69 13.22-12.63 13-20-.29-9.76-12.19-15-16-25-2.86-7.52-.89-16.61 2-30 1.84-8.56 3.91-17.37 4-23 .13-8.17-2.44-16.78-1-27 1-7.16 2.14-12.31 7-20-6.21-1-7.37-8.27-14-9-4.27-.47-9 3.1-11.46 3.83-5.62 1.64-13-.71-16.54-.83-6.51-.22-10.34.68-14-2-4.15-3-4.14-7.68-7-11-5.08-5.89-21.18-7.7-22-8-6.7-2.44-9.13-6.1-16-8-8.21-2.27-18.06-1.91-29 2s-16 9.81-24 8c-6.54-1.49-7.57-6.57-15-8-5.44-1-7.48 1.49-13 1-7.66-.69-10-5-18-6-6.16-.79-10.44.66-12 2-3.49 3-2.36 7-6 10-3.47 2.84-7.27 1.18-11 3-5.94 2.89-6.21 9.15-11 17-2 3.33-6.4 8.37-11 13a35 35 0 0 0 -7 10 32.39 32.39 0 0 0 -2 17c.78 6 5.57 12.67 4 19-.93 3.74-5.36 9.4-15 14-3.58 1.7-10.79 3.76-18 5a60.39 60.39 0 0 0 -14 4c-1.34.6-3 1.5-4 2-7 3.44-14.75 5.6-15 5a60.69 60.69 0 0 1 -8 3c-5.58 1.67-10.27 2-16 3a75 75 0 0 0 -12 3 54.63 54.63 0 0 0 -10 5z"/></svg>