<svg viewBox="0 0 263.68 307.97" xmlns="http://www.w3.org/2000/svg"><path d="m233 17.84c-.17 7.43 26.58 10.59 30 23 3.55 12.85-7.38 22.28-15 41-4.46 11-7.74 25-8.32 42.85-.37 11.67.86 24.92 3.32 39.15 2.8 16.17 6 26.11.35 36.45-7.55 13.85-23.34 13.11-33.75 25-11.7 13.31-10.43 32.42-16.6 46.6a89.87 89.87 0 0 1 -19 28c-2.47.52-1.94 7-5 8-2.35.74-6.09-1.84-7-5-1.67-5.77 7.19-12.4 6-14-.73-1-5 .16-9 3s-7.54 9.44-10 9-2.28-6.67-6-9-7.53.83-12-1-4.36-5.78-9-8c-3.75-1.79-6.5-.6-11-1-3.43-.31-7.9-1.7-13-5-1.73-1.11-7-7.21-12-8s-9.71 3.13-13 1c-2.69-1.74-2-6.06-4-9-3.18-4.62-10.34-7.13-16-6-3.82.76-6.28 4.08-11 4-2.73 0-4.7-.75-6-2-3-2.91-1.12-7.8-4-10-2.69-2.06-6.16.85-9-1-4.18-2.74-.76-11.25-5-15-3.84-3.39-9.65.16-14-3-3.44-2.51.92-9-4-15a35.65 35.65 0 0 0 4-18 74.11 74.11 0 0 1 8-16c6.15-9.24 12-13.33 12-21 0-8.69-9.31-16-12-22-2.32-5.18-4-17.76 0-33 4.07-15.42 14.08-22.38 20-34 6.06-11.89 7.59-20.05 17-26 4.59-2.9 14.59-7.45 25-4 8.62 2.86 14.61 12.59 19 16 6.82 5.3 17.83 11 30 10 7.19-.6 16.57-3.78 27-14 4.53-4.44 10.57-12.93 15-24 4.24-10.59 4.41-18.16 11-24 10-8.85 19.11 5.71 25 7 11.73 2.51 9.83 10.62 32 7.95z"/></svg>