<svg viewBox="0 0 263.07 340.41" xmlns="http://www.w3.org/2000/svg"><path d="m11.07 158.41a17.72 17.72 0 0 0 -1-7c-.35-1.26-2-10-2-10s-8.92-13.4-8-15 2-11.53 4-12 5.37 2.25 7 1 5.55-6.44 7-8 4.59-5.54 6-6 .08-6.84 0-11-1.5-12-1-13 4.26-4.7 6-4 7.1 2.45 9 2 4.48 1.76 5 3 2.16 8.24 4 9 2.88 4.93 3 7-2 4.9-2 7 1.79 7.25 1 10-2.65 9.88-3 11 2.4 13.12-1 15-8.72 3-10 5-5.9 6.85-7 9-1.16 15.83-4 19-6 7-6 7-2.55-2.77-3-5-4.36-11.07-4-14zm34-86c-1.46 1.25 1.45 8.55 2 10s3.57 3.09 5 5 .13 4.2 0 6 3 3.73 2 5-3 2.85-4 4 .29 5.24 0 7a2 2 0 0 0 1.55 2.29 2 2 0 0 0 1.45-.29c1.43-.93 6.52-1.77 9-1a32.83 32.83 0 0 0 6 1c2.23.35 3-1 3-1s.59-1.91 1-3 1.85-2.36-1-5 1.59-8.66 5-9 4.76 4.42 6 6 3.78 3.44 5 2 4.75-5.46 6-2 5 6 9-1 3.25-5.92 6-9-1.18-9.17-1-13-7.09-.25-11 1-2.37 4.72-7 5a34.52 34.52 0 0 1 -8 0c-5.1-.35-3.7-3.74-6-5s-4.29.64-8 1-1.95-1.62-4-2-7.37-1.82-8-2-1.57-3.92-2-6-1-5-1-5-5.55 7.75-7 9zm137-65c-.82 2.21-1.7-3.16-2-6s-3.15-.61-5 0-5.69 5-7 6 2 7 2 7-1.32 13.08 1 12 3.65 11.44-4 10-1.46-2.95-3-7-1.28-10.71-3-15-.17-2.93-2-1 0 5.29-1 9-1.57 1.31-6 0-2.16 6-1 9-.84 10.53-2 11-3.56-7.38-4-9-3-10-3-10a49 49 0 0 1 -2 8c-1 2.35-1.47 8-4 13s.65-7.81 0-10-3.74.3-6 7 .06 12.46-2 10-4.22 2.46-6 9-1.68 6-4 6-3.64 3.16-4 5 1 6.32-1 10 .1 5.11 2 12-1.27 8.19-5 11-2.87 7.24-3 10 .45 8.23-1 8-4.2-4.17-6-6-6.68 4-7 8-.63 10.79 2 11 .83 1-2 2a39.19 39.19 0 0 0 -5 2c-.93.44-1.91 4.27-5 5s-3.81-1.68-6-5-1-4.21-2-6 1-6.06 3-8 6.84-2.15 7-4-6.13-1.6-8-3-3.71-3.23-5-4-.55-1.79-4-1-5.07-.22-7-1a8.41 8.41 0 0 0 -8 2c-2.12 2.21-2 3.69-4 7s-1 13-1 17-6.46 4.61-10 6-6.34 5.69-7 8-3.85 16.81-4 19-8.66 10.05-9 13 2.49 13.37 2 16 3.07 12.62 5 16 5.16 23.9 5 26-1.56 9.93-1 12 12.11 1.15 16 6-3.46 19.85-4 23 3.55 6.08 7 8 14.59 7.75 17 12 8.22 16.24 11 20 11.66 1.71 14 3 7.61 6.15 13 6 14.41 1.46 16 3 8.91 3.38 12 5a29.65 29.65 0 0 1 8-5c7.22-3 12.23-1.54 19-4a31.48 31.48 0 0 0 11-7c-7.51-11.67-11.85-24-12-37-.14-12.09 4.62-18 6-30 .82-7.16-2.29-22.31 3-34 4.62-10.21 15.41-16.67 20-22 6.91-8 9.75-17.93 20-26 6.62-5.21 12.32-6.87 19-12 11.56-8.88 16.93-17.9 17-22 .2-12.59-2.3-11.63-9-26-5.23-11.22-5-19.75 4-27 6.12-5 4.35-12.42 10-17l16-12-13-14s-22-20.43-27-24-32.1-11.54-33-20c0 0 .94 6.12-3 6s-4.19-2.21-5 0z"/></svg>