<svg viewBox="0 0 253.54 203.65" xmlns="http://www.w3.org/2000/svg"><path d="m104.74 182.65c-6.82 2.41-12.67 2.67-17 0-2.86-1.76-5.62-6.5-7-6s-.16 4.31-2 6c-3.34 3.06-11.72-3-15 0-2.56 2.31.22 8.72-2 10-1.5.86-3.66-1.59-6-1s-2.8 3.18-5 6c-2.54 3.24-6.75 5.89-11 6-2.84.07-5.24-1.56-7-2-3.72-.94-8.66.48-12-2a26.46 26.46 0 0 1 -6-7s3.47-6.21 5-9 4-15 4-15c6.38-9.75 10.06-20.13 10-31-.09-16-9.72-24.08-12-40-1.86-12.92-5.5-19.63-15-32s-6.25-27.54-6-45a239.53 239.53 0 0 1 25-4c11.27-1 49.46-20.39 71-16s52.5 23.11 72 24 38.78 7.08 62 16 18 16 18 16c-5.38 12.7-3 27-3 27s10.77 14.47 7 16c-2.83 1.15-4.65 4.35-7 10-2.15 5.17-3.33 9.34-6 12-3.88 3.86-7.82 2.89-11 7-3.35 4.33-1.17 9.94-5 13-3.21 2.55-7.33.22-10 3-2.92 3-.26 9.17-3 11-1.93 1.29-4.53-.94-7 0-3.48 1.32-4.3 6.91-5 12-7.92-.37-14.66-1.16-20-1s-20.86 4.8-26 5-20.08-.77-24 0-30.82 13.41-24 11"/></svg>