<svg viewBox="0 0 391.5 297.11" xmlns="http://www.w3.org/2000/svg"><path d="m391.28 206.79c-1.13-.33-4 14.29-4 14.29a75.1 75.1 0 0 1 -4 24c-2.13 6.19-4.9 10.44-7 16.63-3.55 10.42-2.48 15.37-3 23.37-12.75 3.16-25.39 11.54-29 12s-18.16-5.38-20-8-11.1 5.11-19 5c-9.78-.14-18.69-7.79-23-8-7.8-.38-30.6-3.06-30-4s8.57-7.66-15-11-22.84-8.12-32-14-14.33 1.3-21 2-18.55-4.14-26-4 3.44 2.15-4 11c-6.88 1.4-35.53 4.33-47 5s-37.23 1.62-43 0-33.77.48-37-1-7.3-8.07-12-7c-2.06.47-3.33-6.62-7-7-4.7-.49-9.55.48-8-1 1.38-1.34 2-4.44 5-6s6.5-2.38 8.67-3.67 8.33-8.52 8.33-11.33c0-2.61 3.92-7.37 4-9s-3.53-9.4-3-11 3.75-5.85 5-8-7.87-8.61-8-10-.15-8.81 1-10 3.13-5.85 4-7 .92-4.5 2-5 6.09-1 9-1 2.47-2.5 4-4 7.16-1.05 8-3-5.67-8.33-5-10 3.75-6.47 4-9-4.2-6.16-4-8c.21-2 3.38-12.43 2-13.57-1.69-1.38-5.29-1-7-1.43s-.91-6-1-8-.74-7.7 1-10 1-5.43 4-7 11-4.77 13-6 8.29-7.87 10-9 1.75-2.87 4-4 7.95.16 10-1 9.53-7.53 11-10a73.37 73.37 0 0 1 8-10c2.15-2.13 3.12-8 5-9s16.77 0 18-1 3.12-6.74 4-8 8.1-4.86 9-6 3.64-5.08 6-6 8.1 1.32 10 1 8.37-3.93 11-5 11.09-5.74 12-8-.81-4.45-1-6 4.73-2.69 6-3 1.29-2.95 2-4 8.18-.83 10-1 1.93-2.79 3-3 4.76 4.56 6 4 4-3.1 5-4 1.44 6.13 3 7 3-1.26 5-3-1.74 9 0 10 9.64-1.05 10 0-3 8.51-2 10 6.57 1.18 8 1 2.32 4.23 4 6 4.05-.49 5 0 2.21 7.81 3 9 2.91 4 5 5 2.34-2.4 4-3 6.65 3.92 10 3 4.69-5.45 6-6 3.95 5.26 4 7 2.16 9.89 3 12 5 7.31 8 9 7.5 2.74 10 4 8.86 11.76 11 16 4.79 14.59 6 19-5 14-5 14 7.66-12 8-14c6.67.7 26.61 3.91 26.92 4.92a.2.2 0 0 0 .08.08c1.78.86 4.4 25.35 11 36 3.38 5.46 3.56 8.37 15 12 8.38 2.66 14.69 2.25 18 6a9.9 9.9 0 0 1 1.39 1.71 7.92 7.92 0 0 1 .64 6.4c-.56 2.44-1.39 5.76-2 7.89-3.37 11.17 4.54 21.29 6 23 1.22 1.46 5.15 3.06 3.97 2.71z"/></svg>