<svg viewBox="0 0 477.1 590.69" xmlns="http://www.w3.org/2000/svg"><path d="m460.23 246.09s-9.09-12.91-11-16c-8-12.86-16.55-18.63-15-27 1.09-5.92 7.68-9.22 7-15s-7.74-7-9-13c-1.45-6.93 6-10.92 5-18-.9-6.51-7.46-8.19-14-15-9.92-10.32-5.21-17.68-14-29-5.88-7.56-11.83-10.7-11-16 1-6.44 11.49-8.4 16-16 4.37-7.38 4.64-18.13 0-22-5.71-4.76-17.55 4-21.86-1.18-10-12.06 1.86-25.82 1.86-25.82l-33-31c-3.36 1.06-5.7-.72-9 1-2.67 1.39-3.83 5-6 5-2.87 0-3.9-5.73-7-6-3.34-.3-5.11 5.81-9 6s-5.48-5.4-10-6-6.31 3.68-11 3c-3.11-.45-3.88-2.93-7-3-3.89-.09-5.22 3.67-9 4-4.47.39-7.18-4.16-11-5-6.26-1.38-21 13-21 13a21.59 21.59 0 0 1 -9 4c-5.49 1.07-23.61-2.54-30-2s-23.94 5.58-25 6-17 0-17 0c-.85 6.05-5 8.94-11 15-5 5-8.15 9.86-13 15-9.87 10.45-16.56 15.36-21 14-6.67-2.05-6.06-14-14-19-7.58-4.75-16.93.68-25.31-.49-11.69-1.6-20.85-13.28-32.69-10.51a94 94 0 0 0 -9 3s-9.25 8-12 16-4.83 29-4 41 18.28 16.81 17 29-6.71 14.82-7 16-8-1.64-15 2c-6.08 3.15-8 8.47-12 15-1.43 2.33-6.37 8.39-10 13-4.53 5.75-9.67 12.22-11 22-1 7.55 1.74 11.72 2 19s-1 11.95 1 19c2.41 8.36 5.58 12.06 9 13 6.07 1.66 11.08-5.87 18-6 8.4-.16 13.16 8.47 24 21 8.33 9.63 15.44 14.75 17 23 1.48 7.89-3.61 17.91 1 25 4.25 6.54 11.46 4.21 16 11 4.1 6.13.56 11.8 5 18 1.25 1.75 5.66 5.16 12 7 5.53 1.6 11.52-.18 16 3 6 4.25 3.59 11.57 9 17 5.09 5.1 14 4 16 9 1.59 4-1.95 8.8-5 13-6.61 9.08-10.26 15-9 17 2.69 4.37 21.16-4.68 27 2 3.46 4-.38 9.83 3 15 3.62 5.55 13.79 5.75 18 8 10.14 5.42 12.76 16.25 18 30 3.32 8.71 10.69 23 12 26s3.47 4.7 0 9c-1.84 2.28-3.69 9.32-2 19 1.65 9.47 5.5 14.94 3 21-1.2 2.89-5.07 5.33-5 9 .08 4.44 5.15 6 5 10-.19 5.16-8.78 6.88-9 12-.2 4.47 6.16 6.35 6 11-.15 4.11-5.45 5.59-7 10a12 12 0 0 0 .27 7.6c11.06-.83 49.17-2.41 54.09-3.18a33.14 33.14 0 0 1 5.64-9.42c4.69-5.52 9.22-6 14-11 6.13-6.46 4.11-11.32 10-18 5.35-6.08 11.94-5.94 16-13 3.54-6.16 2-15 3-20 .88-4.55 4.3-18.42 12-20 5.69-1.17 9.32 5.41 16 5 6.41-.4 9.1-6.08 16-11 3.56-2.54 10.88-5.7 20-7 11.46-1.63 28.52 5.2 35-1 4.55-4.36 3.59-12.82 3-16-1.87-10-9.37-12.93-10.75-22.79-.82-5.86.57-13.78 5.75-17.21 5.88-3.89 14.8-.51 21 3 6.87 3.89 13.29 11.69 16 14 8.62 7.37 16.3 9.59 20 9 2.11-.34 8.32-1.82 11-7 2-3.89 0-9.34 3-12 1.44-1.27 2.88-.74 4-2 2.84-3.2-1.85-11.53-6-19-4-7.23-6.58-13.95-11.08-19.93-5.87-7.79-11.63-10.88-16.92-19.07-4-6.24-7-16-10-27-1.87-6.76-3.37-12.52-6-17-5.77-9.82-15.08-17-27-22 13.08-11.13 6.26-4.07 10-9s16.36-25.28 23-31 28-21 28-21z"/></svg>