<svg viewBox="0 0 221.3 241.94" xmlns="http://www.w3.org/2000/svg"><path d="m1.51 113.31a10.76 10.76 0 0 1 -1.21-3c-1-10.7.69-18.95 3-24 2.46-5.39 13.94-15.88 13-25-.39-3.77-2.26-5.21-3-9a26.37 26.37 0 0 1 1-14 27.75 27.75 0 0 1 8-11c3.66-3.35 6.36-6.63 10-10 5.72-5.3 9.62-8.86 11-15 7.06 2.25 20.08 5.08 30 5 19.35-.16 31.94-9.2 52.29-7 15.88 1.7 26.35 8.92 34.71 14 17.8 10.85 40.26 19.82 61 25-3.7 4.63-6.15 15.48-3 29a203.74 203.74 0 0 0 -12 43c-4.35 26.63.1 45 1 72 .82 24.76-1.78 42.65 3.15 56.19.3.82 1 2.4 1 2.4l-14.17-.19-132.39-53z"/></svg>