<svg viewBox="0 0 207 177.82" xmlns="http://www.w3.org/2000/svg"><path d="m150 35.82c3.53 11.93-4.3 22 1 33 5.52 11.45 17.54 10.55 22 22s-5.13 19.05-1 31c3.69 10.7 16.89 15.75 23 23s10 16.18 12 27c0 0-11.67-5.75-43-3-16.34 1.43-41 9-41 9-.25-3.65-1.36-17.22-3-20s-10.43-18.33-14-23-21.59-15.27-25-18-24.32-8.69-29-8-5.21 8.43-7 10-9.63-3.56-12-6 .8-12.14-4-16-16.33-2.2-18-4c-5.89-6.35-8.13-17.92-11-22a67.12 67.12 0 0 0 19-17c6.05-8.1 7.11-16.08 14.8-24 9.31-9.58 30-13.56 33.2-15l32.19-14.82s46.09 19.88 50.81 35.82z"/></svg>