<svg viewBox="0 0 331.1 307.08" xmlns="http://www.w3.org/2000/svg"><path d="m145.1 101c1.43-7.84 2.36-14 5-17 4.3-4.83 9-4.26 13-9 5.23-6.16 2.4-13.09 3-24 .8-14.72 8.47-21.17 8-37a63.05 63.05 0 0 0 -2-14 38.6 38.6 0 0 0 8 4c6.47 2.34 10.86 1.38 17 4a31 31 0 0 1 13 11c6.37 9.39 2.34 18 9 25s15.81 3.46 22 11c3 3.7 3.44 7.84 4 15 .72 9.32 1.35 16.88 4 22 4.63 9 10.66 8.61 16 17 3.15 5 4.3 15.51 9 17 7.44 2.36 15.61-13.12 24-11 7.34 1.85 6.73 15.18 16 21 3.47 2.18 8.62 1.93 12 6 4.09 4.93 2 12.65 5 14-5.29 19.94-7.43 34.57-7 43s1.46 32.14-7 39-9 33-9 33-21.14 0-30-1c-7-.77-17.77-2.34-26 4-5.67 4.37-6.18 9.82-11 15-3.94 4.23-13.5 12.22-24 10.56-4.74-.75-7.11-3.35-11-4.56-3.68-1.15-11.69-1-21 2-8 2.57-14.91 8.22-24 9-9.33.8-12.66-3.56-22-3-8.16.49-11.53 4.7-20 4-9.17-.76-13.73-6.9-20.72-9.28-12.28-4.17-17.86 1-30.28-2.72s-19.82-10.16-22-14c-2.34-4.12-2.86-8.13-7-11s-9.2-2.13-12-3c-10.46-3.26-15.6-15.13-17-19-3.36-9.27.32-13.72-3-23-2-5.49-6.3-8.41-7-15-.87-8.12 4.21-13.69 5-21a32 32 0 0 0 -2-15c12.64-.13 32.71-1.69 39-4s9.07-5.89 12-10c4.94-6.94 4.1-15.17 11-22a21.77 21.77 0 0 1 10-6c5.65-1.38 11.8 1.91 16-1 4.59-3.18 2.53-10.52 7-13 3.72-2.07 9.68 1.87 14 2 3.14.09 11.1-2.56 19-9a49.8 49.8 0 0 0 7-7c3.7-1.95 3.1-.83 7-3z"/></svg>