<svg viewBox="0 0 332.99 112.15" xmlns="http://www.w3.org/2000/svg"><path d="m25 112.15c-2.83-15.41-11-16-11-16l-14-11a68.42 68.42 0 0 1 25-11c14.61-3.07 24-2.63 32-13s9.73-13.45 18-18 18.18-12.19 32-17 21.78-13.1 31-12 10.45-15.9 21-14 3.24 3 14 6 20.75-1.9 32-3 27.35-2 33 3 1 15.76 14 17 15.65-7.15 27-6 2.17-9.92 23-12 17 5.72 25 14 .12 10.58 6 12l-8 6a58.29 58.29 0 0 1 -13 6c-7.06 2.25-14.05 2.63-20 4-10.77 2.48-12 9.93-14 13-3.52 5.3-2.22 10-5 15-4 7.27-19.09 8.38-32 10a140.4 140.4 0 0 0 -45-3c-13 1.27-23.2 4.37-36.17 5.88a214.68 214.68 0 0 1 -24.57 1.44l-20.71-9.39c-5.82-1.16-30.1 12.72-30.1 20.07-15.37 15.38-35.45 6.61-59.45 12z"/></svg>