<svg viewBox="0 0 239.86 297.01" xmlns="http://www.w3.org/2000/svg"><path d="m238.14 56c1.83 4.39 2.27 7.43 1 11-1.87 5.24-4.48 4.06-7 9-1 1.91 1.52 12 0 14s-7.84 9.14-9 11-11 10.31-12 12-4.31 12.31-6 13-4 6.31-4 8 4.22 10.78 6 11 5.81 1.77 6 4 3 5.59 3 7 0 12 0 12-2.6 4.88-2 8 2.46 8.35 1 9-5 5-5 5-.31 3-2 4-8.07 1.41-10 2-6.65-1.65-8-3-5.94 1-7 0-.47-4.24-2-5-4.7-5.12-7-4-7.35 5.64-8 7-6.23 1.41-9 2-9.46 2.64-10 4-2.93.7-5-1-6.1-3.77-7-3-7.4 2.93-6 6 5.31 5.7 3 8-7.51 1.63-8 4 3.37 5.87 1 8-5.92 1-6 3-3.27 5.22-3 8 3.49 3.69 4 5-1.74 6.21 0 8 6.37 1.62 6 4-4.51 4.74-2 7 7.72 5.38 6 7-2.39 5.5-4 7-.87 2.32-2 4-2.71 5.34-4 7-6.67 6.7-7 7-2-2-2-2-2.66-4-6-5-8.59-4.78-11-7-8.21-8.92-9-10-13.23-13.54-15-11-3.55 7.17-4 7-5.09-4.48-7-4-3.91 6.81-6 7-10.89-.07-13 1-4.54 6.34-5 8-.58 5.62-2 7-5.6 1-7 3a62.34 62.34 0 0 1 -5 6c-1 1-4.46.62-6 2a15 15 0 0 0 -4 6c-.63 2.1-3.2 3.1-5 3s-4-3-4-3a38.4 38.4 0 0 1 -2-6c-.38-2.11 2.49-2.91 2-6s-2.7-5.27-2-7 3.94-3.83 4-6-.09-5.27 2-6 2.4.23 6-2 8-1.48 7-4-4.07-3.71-4-6 2.72-5 2-7a18.14 18.14 0 0 0 -4-6c-1.83-1.91 3.4-6.58 3-7a11.22 11.22 0 0 1 -1-7c.73-2.68 4.57-4.22 4-6s-2.25-8.3-1-11-.12-4.9 3-7 4-6.3 4-9-2.05-10.21-2-14-.5-11.24 1-13 1.47-6.77 4-8 10.37-.92 13-1 8.24 4.23 11 2 9-4.28 9-6-1.21-8.72 1-12 6.91-13.13 7-14-3.32-6.94-2-10 4.46-8.55 4-15 .63-17.07 3-21 4.19-11.64 10-13 18.11 2.17 22-1 3.65-10.35 11-17 10.62-13.69 13-19 16-23 19-29a21.92 21.92 0 0 1 8 8c2.44 4.38 2 7.74 3 13 1.31 6.92 4.36 12.39 6 14 5.26 5.18 11.21 4.2 21 6 8.86 1.63 13.64 6.66 23 6a8.77 8.77 0 0 1 3.7.43c4.07 1.48 8.23 5 9.3 5.57 4.05 2.35 8.35 4.69 15 3z"/></svg>