<svg viewBox="0 0 323.8 320" xmlns="http://www.w3.org/2000/svg"><path d="m321 41c-2.91-4.88-8.11-8.2-14-10-7.55-2.31-15.52 1.77-21-3-3.95-3.44-7.45-11.68-10-12s-4.57 2.1-8 2-10.93-3.86-18-6-8.23-2.19-13-2-6 2.54-11 3-13.88-3.58-20-4-17.64 6.15-26 6-21.67-5.91-25-4-6.91 12.1-14 12-16.66-.77-22 4-16.18 14.53-17 17 9.14 13.6 0 14-19-5.15-23-10-.79-9.93-6-11-15.15-2.33-20-6c-3.94-3-8.15-16.38-11-19-7.78-7.14-26-12-26-12s-2.1 2.37-1 5 5.09 8.37 5 12a74.42 74.42 0 0 1 -3 16c-1.22 3.17-3.52 8.24-3 13s6.82 4.36 7 9-2.27 4.38-2 8 7.07 2.26 7 5-7.91 10.35-7 14 8.43 1.79 8 7-5 6.62-7 14-8.33 4.25-9 9 7 10.84 7 15-4.73 5.93-6 14-1.1 18.29-2 23-10.09 8.83-10 17 2.18 13.74 4 22 6.4 15.47 8 18-6.78 5.69-3 8 6.54 7.47 7 10-4.78 0-4 7 3.31 11.6 0 14-9.37 6.51-9 11 4.22 7.28 7 11 5.81 6.37 9 3 6.9-5.08 12-3 5 6.14 11 8 12.15 1.53 16 6c3.71 4.31 3.3 5.34 6.55 8.71 2.45 2.57 6.62 3.89 13.45 2.29 6.11-1.44 5.92 2.1 9.19 3.24 4.3 1.5 5 9.93 4.81 9.76 0 0 10.09-11 11-10s17.43-13.38 20-17 15-7.9 17-16 6.24-13.27 12-18 13.95-12.14 16-14 4.83-17.12 9-25 17.59-11.73 22-18 11.93-11.35 19-17 13.71-8.59 18-8 7.18 14.44 11 16 6.47 9.51 11 7 2.59-13.15 10-21c-7.6-1.33-13.29-4.16-16-9-3.47-6.2.52-14.66 0-21-.49-5.92-4.47-10.93-3-18 1.51-7.29 6.08-8.19 8-15 2.41-8.55-2.78-13 0-21 2.22-6.38 8.24-9 17-15 1.74-1.19 9.71-8.32 16-11 9.24-3.93 19.45-4.79 30-3 4.21-7.94 5.44-17.54 1-25z"/></svg>