<svg viewBox="0 0 1033.78 780.04" xmlns="http://www.w3.org/2000/svg"><path d="m204.27 27.8s38.87 10.67 44 26 23.35 30.33 16 41 30.08 2.16 28 15 46.7 5.33 58 12 11.32 49.44 25 54 16.18 16.78 26 24c12.08 3.16 2.73 19.13 12 26 16.17 12 19.8 27.76 38 37 16.15 8.2 25.63 1.56 42 11 4.17 2.4 6.44 4.69 7.58 7.23 4 9 1.35 18.74-.58 24.77-2.95 9.2 28.27 2.77 26 14 14.53 5.57-2.18 30 7 32 1.62.35 6 1.15 6.88 4.07 2 6.59-18.36 17.57-16.88 22.93 2.54 9.22 47.45 3.19 45 15-3 14.7 1.74 33.14 13 43 11.48 10.05 21.76 3.54 33 14 10.17 9.47 7.73 21.3 15 32 12.43 18.29 2.35 14.37 23 8 15.89-4.91 4.55 8.92 20 9 10.75.06 18.11 11.84 27 9 8.26-2.64 8.24-14.67 17-20 8.26-5 24.64-1 27.18-1.16 19.43-1 27.48-16 45.72-22.27 11.83-4.09 19.89-3.24 28.13-10.55 9.66-8.57 14.65-22.73 15-41 .34-19.57-12.5-37.52-6-53 8.25-19.67 41-31.07 56-21 15.15 10.18 4.56 37.24 21 49 11.34 8.11 30.72 5.76 43-2 7.14-4.52 10.67-12.12 20-16 7.76-3.23 16.58-2.94 26 0a46 46 0 0 0 10 8c4.27 2.51 8.13 3.84 10 8 1.78 3.94-.35 7.43 2 11 2.55 3.86 6.8 2.48 9 6 3.41 5.42-4.08 12.85-1 19 2.42 4.83 8.91 4 11 9 1.66 3.93-1 7.7-3 13-2.59 6.88-.84 11-3 18-3 9.83-9.33 18.1-18 25-.32 1.67-.66 3.33-1 5l-7 13a6.09 6.09 0 0 0 -3 0 8.7 8.7 0 0 0 -2 1l-1 .55c-2.56 1.46-9.51 1.13-16 .45-6.65-6.52-13.68-12.09-17-10.13a2.92 2.92 0 0 0 -1 1.13c-2.49 4.74-25.06 8.95-26 3s12.5-2.25-4-2 1.75-.44-21 2-18.14 8.1-18 14-19.69 19.4-22 13-5.82-12.07-10-4-11.72 3.67-9 16-8.24 17.64-8 8-7.35-18.93-6-8 .93 23.29-2 22 .62-24.84-5-19-21.4 12.92-17 23 3.29 22.14 0 21c-.53-.19-1.64-3.56-4.26-5.66-2.44-1.95-5.75-2.66-9.74-2.34-4.51 9.06-5 7.12-6 9s-13.28 11.52-2.21 12c2.84.11 1.35 7-.8 8-1.4.68-3.53-.84-5.45-.95-2.24-.14-5.07.51-5.55 1.95s1.56 3.52 5.55 6.79c4.25 3.48 7 5.3 6.87 7.71-.19 3.15-5.21 4-5.62 7.29-.45 3.68 5.35 6.12 6.46 11a11 11 0 0 1 -2.92 10c-1.59 1.51-4.54 3.19-6.34 2.18-2-1.12-1.14-6.34-2-9.06-1.44-4.59-6.4-7.12-6-11.45.26-3 3.06-4.26 2.91-7.49s-2.89-6.24-4.88-6c-1.22.15-2.72 2.87-4.27 7.66-1.23 3.77-1.7 6.16-2.72 6.25-2 .18-3.82-9.1-5-8.91-.77.12-1.7 4.48 0 8.49s6.76 5.77 7 9.51c.15 2.28-1.39 4.78-3 5-2.1.28-4.56-5-7-7-4.1-3.44-7.25-2.22-11-6-3.38-3.42-3.72.22-6 0 1.23 4.66-.35 10.32-2.74 10.86-1.48.33-10.14-1-11.17 2-.81 2.29-4.52 3.2-7.09 3.17-1.73 0-5-1.32-8.52-4a34.72 34.72 0 0 1 -5.48-5c-1.78-2.42-3.09-7.77-5-8s-4.33 2.67-4 5c.4 2.75 4.82 3.41 5 6 .17 2.29-3.32 3.61-3 5.62.38 2.32 5.33 2.38 6.25 5.09 1 2.87-3.32 5.89-2.25 8.29s6.48 1.25 8 4c1.26 2.25-1.33 4.94 0 7s5.07.84 7 3 1.62 6.42-.11 7.43c-2.21 1.31-7.55-2.35-10.89-6.43s-4.38-8.2-8-9c-1.68-.37-2.32.42-4 0-3.44-.87-1.47 2.82-1 5 .83 3.77-1.6 6.15-1.67 10-.06 3.42 2.35 7.81 1 8.91s-4.28-.36-6.38-1.88c-1.3-.94-3.39-4.06-5-4-2.69.1-3.88 6.11-6 6-1.74-.09-6.92-1.45-6 1 .8 2.15.13 4.36-1 8-1.35 4.34-2.09 7-1 9 1.85 3.47 8 3.24 8.45 5.76.23 1.27-2 3.39-2.29 4a13.51 13.51 0 0 0 -.87 7.46c.61 4.68 3.19 6.9 5.45 10.9 3.52 6.22 4.63 13.91 2.88 14.92-1.59.9-6.57-3-9.19-8-.75-1.46-1.69-5.4-2.58-5.45-1.66-.11-4.55 7.59-5.16 16.35-.22 3 2.4 18.19-1.15 20.65-1.7 1.18-4.27.56-5.74 0-4.21-1.59-6.65-6.43-6.8-10.57-.22-5.67 4.55-9.81 6-15 1.52-5.46 1-9.53 0-12-1.6-3.94-4.09-4.24-6-8-1.75-3.43-1-7.73-4-11a11 11 0 0 0 -5-3 46.15 46.15 0 0 0 1-13c-.46-6.63-2.69-12.27-4-14-2.89-3.81-6.64-4.84-11-8a47.18 47.18 0 0 1 -7-6c-2.49-2.75-4.72-6-8-6-2.48 0-3.39 1.86-6 2-3.28.17-6.58-2.28-8-5-1.71-3.25-.74-6.89 1-12 2.08-6.14 3.48-9.82 2.16-13.83s-5.21-7.72-8.16-7.17c-3.11.58-4.35 6.27-6 6-1-.17-1.27-2.74-2.48-4-1.84-1.87-5.22-2-9.52-1a11.58 11.58 0 0 0 -4 3c2.27 9.94-16.14 17.49-15 24-2 0-6-.7-8-2-5.74-1.75-11.44-3.71-17.35-6-3.3-1.26-5.87-2.37-7.67-5-4.85-7.15 2-18.06 0-27-1.82-8-8.24-14.61-18-20-18.3.36-31.59-3.08-37-12-7-11.56 4.19-25.13-3-36-7.92-12-33.71-7.66-49-15-6-2.88-20.41-16.66-32-34-8.2-12.26-10.87-23.25-21-35-9.28-10.76-22.7-20.85-43-30-7.94-3.58-16-6.44-24-15-8.95-9.63-7.3-17.15-16-27-10.24-11.58-21.83-9.73-31-23-5.2-7.52-2.92-12.55-9-19-11.18-11.84-27.21-4.88-40-16-7.83-6.8-5.74-12.6-13-20-13.11-13.37-32.76-9.41-48-17-9.3-4.63-15.62-13.75-29-17-10-2.42-18.81-1.08-32 1-16.09 2.53-28.85 4.15-33-2-3.44-5.09 1.89-16.08 1.93-22.8a42.78 42.78 0 0 0 -5.93-21.2c-18-7.61-16.85-25-12-29s7.27-9.59 6-11c-1.66-1.85-10 4.93-19 4-7.2-.74-15.33-5.35-17-12-1.09-4.4 1.35-8.72 6-16 2.32-3.61 7.22-10.68 8.59-12.71 4.08-6.08 6.32-10.5 10.41-12.29 6.78-3 12.75 1.39 19-2 3.78-2.05 4.85-6.68 8-13 4.24-8.5 8.09-12.92 7-19-.4-2.29-2.31-4.78-2-8 .66-6.67 8.34-8.1 9-14 .74-6.5-7.35-14.39-16-16a22.29 22.29 0 0 0 -18 5c-3.07 2.62-4.23 5.28-6 5-3.27-.52-4.8-10.21-5-18-.22-8.7 3.53-17.89 1-27 15.33-4.82 18-3.89 31-1s15-3 15-3c-1.34-14 1.75-28.75 12-37 16-12.86 40.72-4.1 48-1 6.48 2.76 11.65 6.11 20 7a44.7 44.7 0 0 0 21-3c4.94 6.25 31.21 23.86 35.01 17.93z"/></svg>