<svg viewBox="0 0 330.97 399.1" xmlns="http://www.w3.org/2000/svg"><path d="m327 95a111.85 111.85 0 0 1 3 44c-3.93 28.63-18.07 43.29-32 67-16.06 27.32-12.9 46.32-30 73-5.59 8.72-31.47 36.86-42 64a150.83 150.83 0 0 0 -10 54c-29.72 4.79-52.61 1.64-66-12-15.94-16.23-9.58-46.11-25-54-17.64-9-43.79 21.11-73 18-15.06-1.61-29-10-42-24 6.94-9.42 11-19.46 11-30 0-12.74-5.93-19.57-12-33-9.61-21.28-10.11-40.24-8-48 3.69-13.55 17.25-27.19 19-30 11.14-17.84 9.22-35.54 12-63 3.06-30.26 11.91-57.07 18-65 14.3-18.61 33-23.39 60-37a349.43 349.43 0 0 0 33-19c12.78 15.69 27.38 27.42 44 35 18.53 8.45 32.61 5.11 51 17 18.63 12 21.48 29 42 39 14 6.82 30.07 7.58 47 4z"/></svg>