<svg viewBox="0 0 441.03 457.05" xmlns="http://www.w3.org/2000/svg"><path d="m0 443c1.94 7.91 7.05-3.66 15 10m358-219a27.64 27.64 0 0 1 -2 8c-2.72 5.45-8.15 5.1-11 10-2.4 4.12-.25 8.21 0 15 .25 7.08-1.61 11.26 1 17 1.57 3.46 5.37 7.15 6 8 4.08 5.51 4.27 11 7 18 3.13 8.07 7.84 14.5 10 16 5.28 3.69 8.84 1.87 14 6 2.16 1.73 5.21 7.58 9 8s5.48-3.11 9-3c4.26.14 7 5.14 12 14 3.22 5.73 6 10.62 8 16 1.9 5.21 3.08 10.93 3 13-.34 8.5-5.15 12.07-6 20-.47 4.29.39 10.5 4 18 1.92 4 3.66 5.95 4 10s-2 10.38-8 18c-6.23 7.89-11.54 11.46-14 11-4.34-.82-5.63-7.32-10-10-1.39-6.79-4-19-4-19s-.09-6.92-8-14-16.86-12.59-22-22-19.62-21.72-32-24-16.79-15.39-24-21-27.16-14.07-37-12-6-1.24-24-9-22.17-3-36-6-16.53-11.24-30-18-28.26-7.24-40-7a138.92 138.92 0 0 1 -24-2s.4-11-4-16a17.22 17.22 0 0 0 -8-5c-5.25-1.54-7.74.48-13-1a14.78 14.78 0 0 1 -8-5c-2.84-3.67-4.08-9.54-2-14 .47-1 3.25-3.81 3-6s-3-3.38-4-5c-2.8-4.47 1.22-9.52 0-15-.59-2.61-3.87-6.3-3-10 .51-2.21 2.43-4 3-5 1.94-3.48 1.47-7 1-11-.9-7.59-.88-13 1-16s3.93-3.14 6-6c2.39-3.32 2.33-7.15 3-13 .37-3.23 1-5.78 1-9a39.16 39.16 0 0 0 -2-12l4-4-3-13-11-2a27.52 27.52 0 0 0 -3-8c-2.17-3.77-4.64-5.46-5-9-.44-4.18 3.3-8.86 4-11a22.51 22.51 0 0 0 -2-18c-1.81-3-4.89-5.07-9-8-6.55-4.66-10.11-7.52-11-12-.72-3.59 1-6.5 1-11 0-3.85-.6-6.17-2-8 0 0 4.63-7.22 7-9s41.42.29 46-1 11.66-15.46 17-17 16 4.14 33-2 20.77-3.92 27-3 15.17 8.6 31 4 21.13-12.28 37-12 13.8 13.41 26 17 21.64 1.75 32 8 14.89 9.22 23.17 23.86c-12.01 6.02-10.09 30.14-16.17 37.14-10.3 11.86-22 27-16 42s29.31 17.63 34 26-13.71 17.46-20 22-1.52 26.1 0 30 19.51 4.51 26 10 21 18 21 18z"/></svg>