<svg viewBox="0 0 195 138.44" xmlns="http://www.w3.org/2000/svg"><path d="m32 .42c16-1.28 28.57.14 32 7 1.72 3.44-.11 6.74 2 10 3.35 5.16 14 5.85 33 2 12.23-2.48 19.75-5.35 29-2 7.91 2.86 9.29 7.62 17 11 8.57 3.76 18.9 3.63 29 1a51.81 51.81 0 0 0 17-8c-4.38-7 4.08 4.39 4 7-.13 4.18-5.85 6.53-8 11-1.68 3.49-.5 5.43-2 9-2.51 6-7.49 6.69-9 12-.67 2.36.94 9.22 6 17a75.5 75.5 0 0 0 6 8 26.42 26.42 0 0 0 -12 3c-1.91 1-4.79 3-6 2-.93-.73-.11-2.63-1-4-1.45-2.22-6-2.79-8-1-1.52 1.35-.8 3.41-2 5-1.9 2.51-5.46 1.25-11 2-5.2.7-8.2 2.69-10 1s0-5.41-2-8c-.64-.81-3.47-2.16-7-3-1.69-.4-3.29-.7-4-2-1.06-1.92.92-4 0-6-1.2-2.61-6.29-3.69-8-2s1 5.84-1 8c-1.68 1.85-4.81.19-7 2-2.39 2-.84 5.15-3 7-3 2.58-8.79-1.57-14 0-4.32 1.3-4.55 4.3-9 6-2.88 1.1-7.32.84-13 0-5-.73-7.77-1.27-10.4.43-3.6 2.32-4.51 7.06-4.6 9.57-.18 4.76 3 7.68 2 12a11.16 11.16 0 0 1 -9 8c-3 .3-4.12-1.37-7.25-1.16a11.62 11.62 0 0 0 -7.75 4.16c-3.15 3.75-2.43 9.65-4 10-1.37.3-3.54-3.49-5-7-.81-1.94-1.69-7.91-4-10-4.32-3.89-10.74-.14-16-4-1.61-1.18-4.09-3.76-4-7 .05-1.85 2.47-5.53 8-9 3.65-2.29 6.75-5.79 12-5v-13s-8.43-3-9-6 2.85-14.43 1-18-9.94-12.8-7-22 13-15 13-15z"/></svg>