<svg viewBox="0 0 413.9 250.63" xmlns="http://www.w3.org/2000/svg"><path d="m1.83 44.49c-1.55 5.35-2.23 18.89-1.59 19.51l7.59 17.49s8.2 1.27 11-1c2.22-1.82 1-4.76 3-7 3-3.31 8.65-.92 13-3 5.78-2.77 5.85-9.83 11-11s14.26 7.62 17 9c6.13 3.08 10.39 2.08 17 4s12.39 6.21 21 7c1.66.14 7.6-.63 12 1s8.51 7 14 7c3.9 0 5.54-2.42 9-3 6.25-1.06 10.06 3.72 18.46 8 6.45 3.27 10.89 3.9 12.54 8 1.89 4.69-1.56 8.5 0 14 1.28 4.54 5.23 9 9 9 3.53 0 5.7-4.65 8-4 2.8.79 1.49 9 5 14 2.11 3 7.71 5.22 8 9 .21 2.86-2.42 4.12-2 7s4.69 5.29 6 7 2.23 5.52 3 10c1 5.89 1.37 9.69 4 13 1.9 2.38 3.79 2.88 6 5 2.56 2.44 3.33 4.65 6 7 4.58 4 8.56 5.52 12 5 3.2-.49 4.7-3.14 8-3 3.7.15 5.43 3.8 9 5 4.23 1.42 6.07-.85 10 0 7.53 1.6 10.13 11.5 16 16 4.58 3.52 12.7 4 16 10 1.6 2.91 1.44 9 4 10s5.06-2.79 8-2c4.25 1.13 3.8 9.69 8 11s7.76-5.66 13-5c4.81.6 6.45 7.07 11 7 3.52-.07 4.53-4 8-4 4 0 6.41 5.94 11 8a19.94 19.94 0 0 0 9 1 20.89 20.89 0 0 0 13-6c1.51-1.58 6.77-7.61 5-13-1.66-5-9.31-6.72-9-8s7.9.47 14-1c3.65-.88 10.55-5.66 13-4a31.07 31.07 0 0 1 -1-13c1.09-7.74 4.89-12.11 9-19 5.45-9.16 7.48-18.08 7-21-1.59-9.69-10.65-16.86-18-20-17.6-7.53-34 6.4-47-2-12.08-7.82-7-25.72-19-37-10-9.41-21.45-6.76-40-10-22.86-4-38.95-12.31-48-20-13.22-11.24-15.66-25-32-35-17.42-10.7-28.67-4.22-47-13-17.39-8.34-16.87-3.44-33-14-20.75-13.59-41.59 13.75-52 14-16.84.39-39.92-40.43-55-25-8 8.18-16.59 25.71-21 41z"/></svg>