<svg viewBox="0 0 304.99 244.41" xmlns="http://www.w3.org/2000/svg"><path d="m0 107a41.54 41.54 0 0 1 4-10 45.19 45.19 0 0 1 9-11c6.48-6.22 12.45-11.2 16-12 5.42-1.21 9.24 1.08 15-1 6.7-2.41 8.08-8.42 13-12 6.38-4.63 17.37-4.08 21-11 1.55-2.93.74-4.84 2-8 2.17-5.42 6.52-8.25 9-10 6.46-4.53 12.05-9.72 14.32-13 4.25-6.12 5.94-16.94 8.68-17s3.73 8.26 9 12c6.3 4.46 17 4 23-1 4.28-3.57 5.6-11 8-11s3 6.93 7 10c6.54 5.06 20.12 3.19 27-4 1.64-1.7 4.67-8.15 7-8 3 .19 3.6 7.65 8 9 3.19 1 5.43-2 9-2 5.62 0 7.75 5.48 13 5 4-.36 5.62-4.47 9-4 4.36.6 5 7.81 10 10s8.09-2 13 0c6.16 2.47 6.64 12.16 12 13 3.14.49 6.14-3.16 8-2s-.07 5.72 2 8c2.82 3.1 9.37-.64 14 2 5.07 2.89 6.43 10.8 6 16-.49 6.26-4.43 10.7-8 18-3.39 7-4.33 11.5-3 15 1.45 3.75 4.92 4.72 6 9 1.13 4.43-1.87 6-1 10 1.61 7.27 12.71 8 14 15-5.63.77-17.83 4.82-24 11-11.27 11.31-9.35 30.69-14 42-2.87 7-14.59 19-14 31-9.11 4.38-17.42 5.73-25 4-7.12-1.63-12.85-5.76-16.82-3.11-3 2-2.35 7.08-5.18 8.11-3.45 1.26-7.21-5.25-12-5-5.14.27-8.75 6.91-13 15-4.89 9.3-8.07 14.86-14 17-6.52 2.35-12.89-1.93-19-2-9.45-.11-13.72 6-22 4-10.81-2.65-12.46-15.32-22.69-17-7.54-1.24-19.39 8.08-21.15 8.8-18 7.37-38 .54-49.16-6.8-8.86-5.81-16.58-14.06-20-24-3.73-10.84.72-15.88-2.05-27-1.28-5.17-9.95-17.83-6.95-24 3.17-6.5 13.84-5.06 16-11 2-5.61-5.67-11.81-13-23a86.06 86.06 0 0 1 -7-13z"/></svg>