<svg viewBox="0 0 310.48 384.03" xmlns="http://www.w3.org/2000/svg"><path d="m42 256c9.85 2.92 10.77 9.89 16 17s-8 25.76 5 28 29.32-20.62 41-21 12.84 18.76 22 24 15.35 9.8 19 19-13.12 21.45-15 35 5.22 20.43 32 25 27.26-6.8 32-21-8.08-19.78-1-34 26.35-8.07 37-11 12.72 3.31 15 5c5.55-11.92 16.42-10.95 22-23 3.29-7.14 1.43-12.65 4-21 2.11-6.88 6.23-16.58 12-17 3.61-.27 5.73 3.62 9 3 4.53-.86 7.29-9.56 8-17 .56-6.06-3.49-19.77 1-25 2.63-3.07 7.27-2.39 9-6 1.81-3.81-2.12-8.14-2-13 .1-4.2 3.38-7.42 2-11-1.8-4.67-8.57-4.41-12-9-3.22-4.28-1.85-10.12-3-14-2.48-8.39-10.74-13.31-14-18-5-7.16-7.5-16.41-8-26-.28-5.49 1.51-10.5 0-17-1.07-4.59-5.48-10.38-5-17s4.42-7.46 5-14c.54-6.22-4.28-11.22-2-16 2.45-5.17 10.4-4.29 12-9 1.75-5.13-6.48-10-6-17 .43-6.41 8.33-10.76 7-14s-10.79-1.23-17-5c-6-3.65-9.33-10.49-10-16 0 0-37.71 20.72-54 28s-26.58 37.5-36 53-38.56-1.42-44-15 11.84-15.85 13-27-5-22.12-11-28-18.31 1.4-28 7-25.5 20-38 23-26.52-17.08-40-16a24.34 24.34 0 0 0 -19 11 10.31 10.31 0 0 1 5 4c2 3.3.55 8.25 3 10 1.65 1.19 4.14-.15 5 1 1.46 2-4.51 7.33-3 11 1.37 3.33 7.24 2.49 9 6 .81 1.64 0 4.62-2 9-1.51 3.23-3 5.67-4 9-1.31 4.17-2.08 9.77 0 11s6.8-3.1 8-2-2.65 5.87-1 9c.94 1.8 3.2 1.85 4 4a5 5 0 0 1 0 3c-.58 2.34-3.86 7.3-3 10s4 2.35 5 5-1.84 5.65-2 9c-.1 1.93.26 5.86 3 8 1.95 1.53 4.05 1 6 2 3 1.48 3.48 4.38 6 8 .83 1.21 3.84 3.85 5 7 1.4 3.83 1.57 9.15-1 11-1.71 1.22-3.72.13-6 1-2.6 1-4.82 3.5-5 6-.14 1.89.91 3.05 2 5 2.61 4.69 2.89 7.91 2 10-1.2 2.8-4.17 3.35-6 6a12.25 12.25 0 0 0 -2 6c-.51 5.29 2.95 7.57 2 12-.85 3.92-4.47 4.8-5 9-.32 2.46.6 4.57 2 7 3.82 6.62 8 10.25 7 13-.74 2.06-4 2.09-8 4 9 2.36 6.15 3.08 16 6z"/></svg>