<svg viewBox="0 0 651.55 459.15" xmlns="http://www.w3.org/2000/svg"><path d="m29.06 100.15c10.54 4.3 28 5 28 5l-5 5s23.83 10.22 26 10 25.84-2.39 29-3 14.79 8.39 23 8 11.54-3.32 21-5 42.59 1 49-3 30.15-9.72 34-10 14.29-7 26-7 22.81-9.85 24-12c5.11-9.28 12.49-13.07 14-15 18.24-23.29 0-45 0-45s39.1-15.74 43-17 39.95 7.45 47 5 19.51-14.27 28-16 14.08 12 27 27c23.63 16.84 25.86 37 32 40s33.93 13.43 36 14 2.52 15.6 11 18 31.15-2.27 44 2 41 16 47 21 7.3 17.82 11 24 31.52 19.14 27 20-14.91 4.69-18 8a83.8 83.8 0 0 0 -12 18c-2.88 6.32 2.33 14.77 4 20s-1.12 12-6 18-17.32 2.86-23 3-18.75-5.14-24-9-18.06-8.9-27-6-17.71 9.31-24 15-4.81 22.61-5 31 12.4 21 19 27 6.73 14 6 21 1.84 24.1-1 31-16.59 11.42-17 24 .41 28.49-1 35-.26 17.91-1 25-9 32-9 32-29.32-16.59-40-20-50.43-19.63-60-33-26.49 8.36-34 2-39.57 6.36-56 0-13.62-22.69-22-26-53.73 1.31-65-1-23.79-22.74-25-26-4.8 12.28-18 9-37.88-29.78-47-33-30.95-3.79-39-5-8-16.82-30-17-39.09-6.83-52-3c-9-22-25.14-76.22-24-87s16-40.09 17-50 9.2-72.33 12-69z"/></svg>