<svg viewBox="0 0 246.82 229.26" xmlns="http://www.w3.org/2000/svg"><path d="m243 30.26a29 29 0 0 1 -12 7c-3.08 1-14.13.54-17 5-2.31 3.57-.84 10-3 14s-7.26 3.88-10 10a216.77 216.77 0 0 1 -12 22c-2.71 4-8.28-.9-15 3s-14.22 8.66-17 13 6.45 8.22 4 15-8 6.82-9 14 6.21 2.77 5 12-12.92 11.18-17 18 3 9.4-4 15-9.19 8-15 12-15.64 19-23 22-11 3.84-18 4-7.61 6.64-13 8-7.18-7.12-10-7-4 8.26-9 9-15.39 2.92-21 3c1-9.32-.27-17.32-4-24-3.09-5.54-5.6-10.39-7.89-15.6-1.56-3.55-2.72-6.79-4.11-10.4a169 169 0 0 0 -11-23c11.11-15.84 24.64-27.36 41-33 16.59-5.73 27-2.11 44-7 20.81-6 34.06-15.84 42-27 3.07-4.31 7.77-15.07 11-26 2.92-9.91 3.62-16.39 9-24 7.66-10.84 17.91-15 27-19 10.9-4.77 20.19-10 31-15 21.83-10 18.75-3.38 25 1 8.51 5.97 24 12.79 13 24z"/></svg>