<svg viewBox="0 0 813 342.54" xmlns="http://www.w3.org/2000/svg"><path d="m174 213c15.2-.83 22.28-6.54 37.2-1.08 16.9 6.17 32.36 1.4 40.8 1.08s27.33-19.44 40-19 19.44 4.52 21-8c1.24-10 6-33.9 14-34 13-.16 3.39-38.05 10-41 4.18-1.86 26-11.19 30-19 6.41-9 .09-25.92 1.53-33.47 1.9-9.89 6.22-13.43 4.47-19.53-.59-2-10-18-10-18s27.66-14.8 42-21c3.92-.32 11.26 2.67 21 2 3.63-.25 14.9 1.77 37 1 2.78-.1 24.31 1.22 33 0 .68-.1 5.76 5.24-1 7-2.06.54-2.38 3.69-10 13-.63.77-6.27-4.3-13 4-3.07 3.79-.74 17-8 13-6.82-3.73-13.29-11.14-21-6-8.74 5.86-13-4.9-22 4-2.07 2-2 7.38-4 10-8.65 11.26-17.56 21.09-27 29-6.62 5.55-6.86 23.32-6 19 0 0-8.9 7.12-6 14 3.31 7.86 11.53 9.11 17 19 2.25 4.07 8.91 8.82 11 13 7.53 15 8.18 23.61 10 24 7.48 1.6 17.49 3.42 27 6 14.62 4 15 10.71 22 10 3.56-.36 10.32-4.63 17-6s10.37 3.14 14 1c2.35-1.39 1.86-6.82 4-8 4-2.22 13.24-2.87 15-4 5.55-3.59-.34-7.78 2-13 1.79-4-4.09-6.39-3-19 .4-4.68-2.94-3.08-3-7-.08-4.94-2.49-6.15-1-11 1.58-5.14 16.72-6.24 21-8 2.6-1.07 17.57 1.73 29 2s37.64 3 47 1-5.46-17.9-7-21c-2-4-11.73-8.14-16-9-10.24-2.06-16.87-2-21-8 10.54-1.37 10.77-10.89 15-11 9.27-.24 44.58-3.2 48-7s19.83-9.76 27-11 3.11-7.23 11-8c6.62-.65-3.89 6-10-5-.84-1.52-2.51-7.73-8-10-6.33-2.61-3.22-14.3 2-14 22.72 1.29 44 3 45 0 2.33-6.75 28-6 28-6s31.89 32.65 38 32 14.36 5.58 15 11 6.94 15.81 7 14 15.53 22.59 32 50c-18.16 15.32-36.7 23.76-41 48s-39.73 37.62-54 39c-7.16.69-13 13.94-26 19s-33 1.84-42 5c-7.48 2.63-10.37 14.68-17 19-9.35 6.09-21.49 5.32-24 15-1.33 5.11-17.25 7.83-27 16-10.59 8.87-15 23-15 23s-19.74-16.72-24-15c-6.12 2.48-12.94 8.63-20 8-6.77-.61-13.78-7.9-20-10-5.32-1.79-15.58 2.75-26 1-15.95-2.68-23.43-18.31-29-25-2.31-2.77-8.44 9.87-15 16-6.24 5.83-14.22 7.88-17 15-2.16 5.52 3.24 19.2 1 27-3.69 12.85-15 20.2-18 26-4.87 9.31-26.7 11-45 5-19.09-6.25-23.64 4-35 0-15.56-5.41-26.85-20.36-34-21-24.27-2.18-23.13 10.22-44 10-19.13-.2-39.58-16.59-47-13-15.52 7.5-21 14-21 14s-14.07-17.29-16-20-6.17-2.85-8-3a130.78 130.78 0 0 1 -15-2c-5.68-1.22-12.94-10.7-16-11s-7.73 1.92-10 3a5.47 5.47 0 0 1 -7-2c-1.85-2.62-6.31-11.51-10-12s-6.61 4.1-8 4-6-8-6-8-3.21-4.28-5-4-13.35.82-17 0-15.47-10.2-18-11-4.53-.7-10 2c-3.49.51-5.46.54-7-2s-20-16-20-16l49-17a75 75 0 0 0 32 11c5.26.52 16-.42 26-2 7.4-1.16 11.68-3.42 19-4 5.16-.41 14.53-.77 15-3 .08-.36 3.1-2.94 2-7-1.6-5.88 15.49-11.14 31-12z"/></svg>