<svg viewBox="0 0 520.74 413.87" xmlns="http://www.w3.org/2000/svg"><path d="m180.73 251.29c6.21 2 10.54-4.84 17-4s9 8.51 15 8c3.3-.28 5.08-3.62 8-3 4.35.92 4.5 8.85 9 10 3.62.92 5.92-3.52 10-3 5 .63 5.86 7.11 11 8 4 .69 7.76-3.47 10-2s0 7 2 11c2.13 4.29 5.76 3.73 8 8 2.48 4.73 1.16 11.07-1 15-.74 1.33-2.51 2.86-3 5-1.29 5.51 5.06 9.57 6 15 1.37 8-6.15 16.09-8 25-.83 4-1.57 10.69 1 12s6.29-3.4 9-2c1.59.83 1.72 3.2 2 5s4 9.08 7 15a32.8 32.8 0 0 1 2 5 27.24 27.24 0 0 1 1 10c-.19 1.95-1.14 5-1 8 .18 3.89 1.51 7.92 3 8 1.75.09 3.11-6.31 7-10 3.68-3.49 9-5.62 11-4 2.42 2-1.41 9.29 1 11 2 1.4 6.19-2.41 8-1s-1.23 6.86 1 10c1.63 2.31 5.63 3.32 8 2 3.25-1.82 1.78-7.13 5-9s7.06 1.91 10 0c2.72-1.77 1.32-6.45 4-8s5.94 2.16 9 1c4.48-1.71 3.66-12.1 8-18 3.44-4.69 10.13-9.24 17-8 4.13.74 10.23 4 11 10 .47 3.77.06 6.13-4 10 4.24-.37 12 1.39 20-4s6.68-11.32 11-23 9.29-10.65 9-18-9.23-21.45-5-31 16-23 16-23c-19.21-10.34-22.93-31.66-24-41a59.61 59.61 0 0 1 7-17c7.91-13.06 17.39-19.92 22-21 4.18-1 8.29-.66 12-4 2.88-2.6 3.1-5.63 4.87-7.95 4.77-6.24 12.67-5.11 24.13-8.05 12.64-3.25 20.82-9.55 23-13 2.72-4.33 2-8.45 6-13 3-3.43 9.68-5.53 10-9 .27-2.94-3.24-5-8-9-6.82-5.67-10.76-11.6-11-14-.65-6.29 5.87-11 4-16-1.66-4.44-7.94-4-11-9-2.24-3.64-.61-6.15-2-10-2.18-6-9.05-8.6-9-14 0-3.9 3.41-4.85 4-9 .76-5.51-4-8-3-13 1-5.34 7.36-6.07 8-11 .69-5.36-6.63-8.46-8-15-.73-3.48.67-9.38 2-16 .36-1.85 1.19-6.18-1-8s-5.88.64-9-1c-3.55-1.87-2.59-6.24-6-8-3.64-1.88-7.39 1.91-12 1-4.84-1-5.3-4.77-10-6-5.68-1.49-10.66 3.24-16 4-4 .56-9.74-1.68-14 1-3.54 2.21-4.22 7-8 8s-6.12-2.92-10-2c-4.5 1.06-6.09 8.24-9 8-2.3-.2-2.71-4.69-5-5-3.26-.45-6.15 9-12 13-6.3 4.29-9.84 1-16 5-7.53 4.93-9.09 17.59-15 18-2 .13-2.87-1.47-5-1-4.34.94-4.66 8.37-8 9s-7.31-5.6-11-13c-13.41-2.49-24.53-1.51-31 5-6.26 6.3-4.63 15.31-7.75 27.9-4.31 17.4-12 26.87-17.25 29.1-9.13 3.87-17.26-2.71-25.85 2.24-9.14 5.27-6.22 16.26-15.15 21.76-9.47 5.83-19-2.35-30 3-8.29 4-15.17 13.94-14 22.25.83 6.18 7.35 9.47 6.53 14.8-1.05 6.88-12.42 8-13.48 14.95-.86 5.61 6.11 8.61 5.21 13.79-1.16 6.62-17.13 8.11-25.21 14.21-1.58 1.18-9.68 12.18-17 13-6.81.75-10.08-4-17-4-7.36 0-10.88 5-19 9-8.35 4.08-13.79 2.64-22 7-7 3.71-10.12 8.07-17 12a58.37 58.37 0 0 1 -21 7c-2.45 6.19-.28 12.94-1 19-.68 5.64-2.44 11.72-5 12s-4-5.17-8-6c-3.68-.77-7.85 2-10 5-2.43 3.39-1.13 5.74-3 9-2.91 5-8.81 4.86-11 10a11.36 11.36 0 0 0 0 8c3.33-4.84 7-7.73 11-8 5.2-.35 7.55 4 13 4 4.93 0 8.6-4.34 13-6a82.19 82.19 0 0 1 10-3c1.69-.39 5.27-1.12 7-4 1-1.61.76-4.42 2-5 2.2-1 6.05 4.95 9 4 2.55-.83 2-5.92 5-8 3.22-2.24 8.7-.82 12 1 2.2 1.21 3.22 2.68 4.63 2.4 3.74-.75 3-11 8.37-13.4 2.81-1.29 6.19.8 8-1 2.49-2.5-1.3-9.13 1-11 1.63-1.34 4.6 1.21 7 0 3-1.56 2-7 5-10a10.56 10.56 0 0 1 11-2c4.43 2 5.23 8.9 8 9 3.2.11 5-8.82 9-9 2.84-.14 4.5 4.42 7 4s2.66-6 6-8c3.83-2.34 8 1.25 11-1 4.47-3.38 9.65.27 11.95 1z"/></svg>