<svg viewBox="0 0 213 141" xmlns="http://www.w3.org/2000/svg"><path d="m213 70a127.93 127.93 0 0 1 -32 15c-12.63 3.84-23.61 5.15-33.2 15-7.69 7.9-8.75 15.88-14.8 24-2.51 3.36-6.28 8.68-12.19 12.94a47.26 47.26 0 0 1 -6.81 4.06s-24.69-12.29-25-13-18.3-26-20-27-5.78 5.29-8 3-8.91-10.81-9-14-3.31-25.66-5-28-12.79 2.45-17 0-1-7.77-2-12a56.92 56.92 0 0 0 -10-19 58.25 58.25 0 0 0 -18-15 28.57 28.57 0 0 1 7-5c6-3 14.36-3.33 17-4a38.45 38.45 0 0 0 14-7c2.72 8.69 7 14.86 13 18 14.21 7.4 31.6-6.88 50-4 9.51 1.49 18 9 30 15 12.62 6.36 26.59 11.52 32 12 2 .18 15.33-1.1 24 2 11.16 4 19.67 13.6 26 27z"/></svg>