<svg viewBox="0 0 577.25 462" xmlns="http://www.w3.org/2000/svg"><path d="m377.59 443.11c14.31 1.44 19.41 18.89 19.41 18.89s1.31-3.14 2.17-4.78c4-7.71 10.82-15.87 18.83-16.22 6.87-.31 10.62 6.33 17 5 7-1.46 7.87-10.93 15-15 7.84-4.48 14-.09 23-4a32.54 32.54 0 0 0 13-11c3.94-5.45 3.94-9.63 8-15 3.86-5.1 9.33-8.68 16-11a64.38 64.38 0 0 0 -2-10c-3-10.51-9.58-17.43-13-25-4.51-9.95-4-17.69-10-21-7.86-4.33-18.77 1.38-26-3a1.6 1.6 0 0 1 -1-1c.21-1.92 16.22-4.57 28 3 5.44 3.5 9.47 10.3 14 21 .38.91 11 26 11 26 .27 1.56 1.11 6.86 5 9 4.27 2.35 11.41.4 15-4 5.29-6.49.57-19.05 2-27 .7-3.88 5.1-13.42 12-22 1.44-1.79 6.61-6.21 9-11 3.91-7.85 1.29-17 7-23 4.08-4.26 9.08-2.89 13-8s4.28-13.61 1-16c-3.62-2.63-9.84 3.38-14 1-4.79-2.73-3.86-14.08-1-27-4.78-1.59-9.37-3.23-14-5-9-3.44-15.88-6.87-24-8-10.24-1.42-16.71 1-27 0-11.39-1.1-20.1-5-24-8s-13-11.36-13-22c0-7.88 9.64-19.23 11-22 2.31-4.7 3-8.4 6-11 8.72-7.59 20.56-1.05 29-8 2.41-2 5.63-11.65 7-24 .57-5.16.57-10.17 0-13-1.88-9.25-7.32-11.18-9-20-1.49-7.84 3.81-17 0-21-3.18-3.3-13.11-.59-17-1-13.9-1.48-23.15-12-27-18a37.68 37.68 0 0 1 -5-12 28.34 28.34 0 0 1 -20 9c-4 .08-13.36-.57-19-7-3.13-3.57-3.94-10.36-7-11-3.89-.82-8.65 9-15 13-6.63 4.15-10.51 1.64-17 6-9.68 6.5-7.6 15.63-17 22a26.27 26.27 0 0 1 -25 2c-5.36-2.46-14-9-14-19a20 20 0 0 1 3-10c1.75-3-3.73-19.24-6-26s-2-19-5-24-8.49-5.63-12-14c-3.85 1.57-7.1.08-12 1-2.82.53-4.85 1.26-6 3-2.14 3.21.7 6.87-1 10-2.24 4.1-9.54 3.49-19 4a81.58 81.58 0 0 0 -15 2c-5.72 1.48-10.07 4.18-15 6s-8.83 2.32-13 5c-4.5 2.89-10.28 8-13 15-.43 1.1-1.37 9.89-5 13-3.83 3.28-9.77 1.51-12 5-2.06 3.23 1.3 7.49 0 12-.91 3.13-3.38 4.82-7 8-2.95 2.59-6.13 5.58-7 7-2.41 3.92-2.32 11-6 13-3 1.66-6.81-1-9 1s.08 6.15-2 9c-2.25 3.07-6.75 1.57-10 4-4.86 3.63-2.54 9.71-7 14s-10.49 1.6-14 6c-4.16 5.21 1.17 14.36-3 18-2.78 2.42-6.65-.33-10 2-4.72 3.28-2.64 12.77-6 14s-8.39-7.3-12-6c-2.11.76-1.86 4.63-4 7-3 3.31-6.46 1.82-9 5-3 3.78-.09 9.79-3 12-2.54 1.92-6.39-1.45-10 0-5 2-4 9.41-9 12s-9.59-2.51-14 0c-6.31 3.6-2.29 17.31-9 21-1.76 1-3 .35-5 1-5.1 1.62-6.63 5.86-10 8-5.38 3.42-11.12 1.2-16 6a28.59 28.59 0 0 0 -4 7c-.81 1.87-1 3.54-2 5 11.84 13.72 20.69 11.51 28 23s1.79 22.31 8 35a7.38 7.38 0 0 1 1.16 3c19.76.89 35.32 1.62 35.32 1.62s-36.66 45.67-39.43 51.16c-3.23 6.48-13.18 21.14-11.05 31.22.74 3.54 25.71 8.72 57.62 16.61 58.27 14.39 145.22 33.39 189.08 36.74 29.61 2.26 52.11 4.15 68.44 2.38 21.12-2.3 24.73-9.2 40.45-7.62z"/></svg>