<svg viewBox="0 0 328.87 230.92" xmlns="http://www.w3.org/2000/svg"><path d="m49.87 37.92c-6.48 1.4-10.44-2.09-18-5 0 0-5.91 11.32-8 20s3.71 26.23 4 31-24 22.15-23 29 10.67 21.28 11 30-.33 31.46 0 42-8.9 4.07-15 7c-5.76 2.76 19.22 9.1 16 8s7.68-1 11 0a9.31 9.31 0 0 1 5 4s2.37-3.51 5-2 7.81 7.46 11 9a13.75 13.75 0 0 0 7 1s3.37-4.9 5-5 8.78-1.13 10-4 6-7.18 8-7 16 16 16 16l10-5s12.58 11.38 15 11 18.7 1.56 21 2 12 11 12 11 5.37-5.36 7-5 6 3 6 3 5.42-1.39 8-3 7.86-10.8 11-11 9.27 8.28 11 7 13-11 13-11-9.94-2.21-13-4-2-6-2-6-26.81-2.9-31-4a64.38 64.38 0 0 0 15-8c2.53-1.85 7.34 1.51 11-2s7.06-7.77 11-11 5.86-4.46 8-3 8 6 8 6 7.8-6.39 10-8 7.11-.46 11-4 11.42-10.26 14-10 5.57 9.31 10 10 10 1 10 1 .88-4 4-5 8.42-2.85 10-5 3.39-6.46 7-6 7.91 8 9 9 5.88 7 8 6 4.7-3.35 9-5a86.77 86.77 0 0 1 11-3l-17-19s-7.68 2.88-9-3 8.55-14.74 7-18-7.53-12.58-9-15-15.91-7-17-9 4.32-11.2 3-12-12.53-2.27-12-4 9.47-5.2 7-9-18.14-24.66-22-31 2.48-13-5-18-33.14-29.2-42-18-1.45 20.8-7 24-22.6 3.73-29 3-26.67.88-31-3-17.52-11.81-24-12-8 15.42-14 19-28.75 11.34-34 11-4.29-10-8-11-5.02 1.62-16 4z"/></svg>