<svg viewBox="0 0 175 237.4" xmlns="http://www.w3.org/2000/svg"><path d="m175 198.37c-13.67-10.92-21.61-22.59-22-35-.38-11.8 6.28-18.23 6-32-.07-3.44-1.66-11.05-4-18-4.25-12.62-10.45-24.8-14-29-8-9.5-16.3-13.3-17.11-22.4-.72-8 5-13 11.11-21.6 8.6-12.13 7.35-24.21 18-32-7.53-5.3-15.65-8.45-24.21-8.37-16.94.15-31.38 17.67-41.3 22.42-15.29 7.31-36.09 3-47.8 16.52-9.27 10.74-5.63 22.69-16.53 33.64-5.78 5.81-13.6 9.3-23.16 10.79 13.42 7.13 21.69 15.46 23.16 25.21 1.18 7.79-3.48 13.24-1.18 21.83s13.49 16.16 14.76 17.71c12.67 15.44 1.4 34.64 8.85 53.11 8.61 21.35 32.11 38.12 51.34 36 13.07-1.44 17.83-11.93 32.07-20.85a138.54 138.54 0 0 1 46-18.01z"/></svg>