<svg viewBox="0 0 285.13 283.79" xmlns="http://www.w3.org/2000/svg"><path d="m236.13 144s13.92-15.51 27-26c12-9.65 22.18-15.49 22-24-.21-9.9-13-14.14-17-25-5.62-15.35 7.81-28.53 1-40-5.6-9.43-20.79-9.48-45-13-20.88-3-32.63-6.61-38-16a77.61 77.61 0 0 1 -18 23c-14.18 12.29-40.29 25.31-63 17-12.41-4.54-16.44-13.47-26-19-18.26-10.56-36.27-6.55-64.13-3.8-5.41.53-9.55.94-15 1.36 0 9.44 3 185.89 3 185.89s14.53 26.3 18.13 34.55 18 38 18 38l10.87 6.79 48.37-43.34s-2.24-6.45 5.74-9.45c9.48-3.55 24-13 24-13s14.83-13.48 17-11 14 7 14 7l16-3s10.57-2.05 13-5 9-9 9-9 8.11-5 11-3 8.59-2.34 11-6 .66-10 3-15 11.56-6.35 9-13-.8-9.31 3-15"/></svg>