<svg viewBox="0 0 428.1 344.35" xmlns="http://www.w3.org/2000/svg"><path d="m.1 123.9c5.35-2.41 5.36-2.4 10-6 12.53-9.74 24.29-28.05 30-35 5.84-7.12 10.74-10.78 13-18 2.7-8.65-1.38-19.11 4-26 6-7.64 16-3.46 22-11 6.43-8.15-1-20.89 5-26 5.39-4.61 18.18-.12 27 6 11.65 8.09 12.23 16.81 23 25a50.89 50.89 0 0 0 33 10c6.63-.36 16.81-3.77 19-5 1.55 8.44 7.06 12.92 11 16s5.32-3.95 9 0 11.53 16.71 17 23 23.81 9 26 14 4.08 16.76 11 22 13.54 1.26 17 5-1.14 11 4 15 20.44 11.1 20 8-2.11-11 2-11 22.11 1.91 26 6 17.45 11.81 24 18 12.28 17.53 14 23 1.7 13.31 3 19 13.15 21.84 14 26 1.47 12.68 4 20 11.74 19.65 15 22c2.49 1.8 5.5.31 8.4 1.72a8.73 8.73 0 0 1 2.6 2.28c3.88 4.52 11.08 18.92 14 25a76.55 76.55 0 0 0 -19 1c-10.2 1.81-19.65 5.65-23 8-8 5.56-13.65 19-24 21-5.79 1.1-12.76-3.31-17 0-3.64 2.84-2.18 8.64-5 13-4 6.17-13.11 9.77-20 8-7.56-1.94-8.1-9.4-15-11-9.64-2.23-26 10-26 10s-19.57-17.44-28-38c-8.69-21.18-13.57-35.46-25-43-14.87-9.81-31.34-4.36-48-10-11-3.73-31.44-13.33-39-32-3.81-9.4-2.06-16.27-3-27-1.6-18.28-9.25-43.51-22-46-11.45-2.24-23.39 18-41 25-14.18 5.61-26.26 5.69-36 3-11.22-3.1-23.68-10.72-31-24a49.82 49.82 0 0 1 -6-27z"/></svg>