<svg viewBox="0 0 142.41 120.6" xmlns="http://www.w3.org/2000/svg"><path d="m3.47 23c6.14 1.42 11.89 1.24 17-1 4.74-2.08 6.08-5.38 11-7 3.19-1.05 8.59-1.61 12-3s5.8-3.17 11-5 12.66 1.07 18 3 16-1.17 19 0 10.5-1.86 14-4a78 78 0 0 0 8-6s5 20.16 11 28c3.81 5 12.87 10.31 16 19 4.88 13.53-1 35-1 35-6 0-11.24 1.52-15 5-4.38 4-4.4 8.63-7 15-3.44 8.44-8.7 15.82-16 18s-13.09-1.87-24-6c-4.88-1.85-18.32-4.39-25-6-4.3-1-15.2-3.63-21 2-2.85 2.76-3.32 8.59-7 10-2.17.83-8-2-8-2s-8.81-13.62-9-21c-.26-9.87 5.16-12.64 5-22-.22-12.36-9.94-17.68-12-30-1.19-7.08-.11-14.42 3-22z"/></svg>