<svg viewBox="0 0 505.36 443.79" xmlns="http://www.w3.org/2000/svg"><path d="m41.55 286.17c-1.54-3.28-1.48-5.9-1-7 1.34-3.12 5.16-3 7-6 2.23-3.62 1.05-9.64-2-13-2.32-2.54-5.61-2.31-7-5-2.15-4.16 3.26-9.81 1-13-1-1.4-2.71-1.11-5-2-4.67-1.81-7.14-6.08-8-8-2.13-4.73 0-7.31-2-12-.75-1.77-3.67-5-7-8s-5.58-4.87-6-8c-.48-3.41 1.58-5.63 3-9 1.81-4.3.63-8.34 1-14 .55-8.51 2.88-13.75 0-18-2.51-3.69-7.77-5.23-12-9-1.86-1.65-3.3-3.32-3-5 .39-2.25 3.73-3.3 8-5 5.23-2.08 8.37-4 9-6 1.24-3.84-3.12-6.78-2-11 .89-3.37 4.61-3.88 5-7 .4-3.28-3.45-5.75-8-11-3.21-3.69-4.9-7.07-5-9-.21-4 2.25-5.87 2-10a12.36 12.36 0 0 0 -3-7 8.25 8.25 0 0 1 -6-4 11.46 11.46 0 0 1 0-7c1.25-4.52 3.29-7.49 6-9 3-1.68 4.91-.57 8-2 3.26-1.51 6.84-5.08 7-9 .2-5-5.75-7.69-5-12 .46-2.66 3.1-3.78 6-6 5.52-4.22 10.71-11.53 9-16-1.52-4-8.88-4.33-9-7-.11-2.17 5.35-3.34 8-7 1.35-1.87 1.53-3.49 3-4 3.29-1.15 8.76 3.84 12 9 1.1 1.75 2.78 8.06 6 10 4.84 2.93 9.69-1.57 15 1 4.55 2.21 4.56 7.87 9 9 4.72 1.2 9.3-4.83 13-3 2.16 1.07 1.58 3.62 4 5s4.77-.47 7 1c2.8 1.85 1.4 6.56 4 8 0 0-4.86 15.09 3 28s16.37 19.06 21 30c6.15 14.55 6.38 30 15 47 7.17 14.16 15.66 20.84 21 22 12.54 2.72 27.39-7.26 35-19 5.13-7.92 5.53-22.14 13-26 7.22-3.73 16.1 2.2 32 10 14.64 7.18 25.31 10.38 34 9 6.86-1.09 20-5.33 27.87-17.57 2.74-4.27 5.49-17.88 11.13-19.43 4.79-1.31 8.49 4.29 15 4 4.05-.18 9-2.21 11-6 1.87-3.52 0-6.59 1-10 1.78-6.09 8.27-7.12 15-12 10.43-7.56 7.5-15.34 18-22 11.28-7.17 29-7.34 39 1 7.23 6 7 14 14 22a44.37 44.37 0 0 0 11 9c-11 6.38-5.7 25.2-8 55-1.52 19.72-6.67 31.8 0 40 14.93 18.38 57.44-2 70 15 7.33 9.92-.73 25.8-12 54-5 12.47-14 38-14 38s-16.55 6.35-28 17-15.25 15-27 14-12.76-4.73-28 0-11.14 1.7-16 7-11.21 6.92-18 17-3.5-4.93-10-5-.58-7-4-10-8.16 4.92-13 3-5.45-1.94-11 7-15.53 5.79-16 2c-1.76-14-16.4 10.93-11 5s-11.83 9.79-14 16-4.26 12.45-7 20-9.49 8.53-12 8-.05-4.62 1-11-10.06-5.2-13-5-26.64 20.39-33 26-3.29 14.32-3 17 2.93 6.33-1 13-2.51 3.62-10 8-5.38 4.63-3-10 3.42-12.39 0-18-6.88 3-11 6-3.59 6.69-15 2-13.68-.46-19 9-.46 3.41-6 7a83.08 83.08 0 0 0 -7-16c-3.82-2.54-7.45-5.19-11-8-12.7-10.06-19.57-20-20-25-.49-5.65 3.86-13.49 1-17-4.7-5.76-20.86 4.1-28-2s-1.92-24 1-32c4.3-11.77 9.84-18.1 7-24-1.56-3.22-9.86-6.24-22-9a100.32 100.32 0 0 1 -17-7c-1.38-.72-7.89-4.36-11-11z"/></svg>