<svg viewBox="0 0 519 231.27" xmlns="http://www.w3.org/2000/svg"><path d="m0 21s4.7-18.6 9-17 13.34.24 16 3c3.67-1 10.45-5.2 14-4s4.08 6.15 6 7 8-6 8-6 9.36-4.34 12-4 9.38 6.5 13 8 6.15 10 9 10 5.55 6.19 8 8 7.94 1 9 2 7 6 7 6a26.62 26.62 0 0 1 7-3c.24 1.88 22 13 22 13a26.05 26.05 0 0 0 9 14c6.59 5.18 19 8 19 8s6.13-11.19 14-16c6.41-3.93 14.19-1.77 19-1 10.7 1.7 21.41 11.58 30 17s36.77 2.6 43 6 16.67 23.47 23 23 37.06-10.39 46-13 34-35.5 39-33 21.57 12.72 34 10 29.29-18.52 36-15 24.24 13.75 35 17 23.76 19.19 32 16c0 0-5.91 11.32-8 20s3.71 26.23 4 31-24 22.15-23 29 10.67 21.28 11 30-.33 31.46 0 42c0 .43.35 1.64-.24 2.12-2.29 1.88-14.76-16.62-31.76-25.12-19.61-9.76-35.81-4.7-61-7a155.3 155.3 0 0 1 -35-7c-19.66-6.52-48.64-26.69-82-29-8.62-.6-17.62-.7-23 0-7.47 1-12.55 2.55-19 0-7.52-3-12.11-7.47-20-14-5.88-4.87-20.23-9.26-24-11-6.92-3.19-12.46-6.19-18-7-6.3-.92-16.94 2.79-24-2-5.59-3.8-7.2-6.53-13-10-5.36-3.2-12.9-3.36-18-9-3.66-4-3.85-8-7-13-1.57-2.5-5-7.18-7-8-7.54-3.09-13.72-2.61-22-3-9.68-.46-14-10.73-17.43-15.6-17.67-24.63-58.78-37.94-59.57-38.4s-7.85-10-9-11c-3-2.64-12 0-12 0z"/></svg>