<svg viewBox="0 0 240.56 305.29" xmlns="http://www.w3.org/2000/svg"><path d="m191.32 291.26c.48-3.43 6.87-9.62 9-14s3.56-6.28 10-7 4.7-3.31 8-6 7.84-3 13-3 5.64-6.32 8-14c2.49-8.12.36-17.3 1-24s-9.65-16.53-13-20-5.9-10.28-8-16 2.34-17 2-21 3-8.38 5-11-1.82-14-3-18 1.42-2.15 5-4 2.58-5.5 5-6 4.22 1 6-3-2-6.22-3-10-4-8.31-2-14-2.94-13-6-17-4-8.84-5-12-4-5.61-7-7-7.23.68-11 0-5-1.46-6-5a20.26 20.26 0 0 0 -6-9c-2.26-1.87-2.48-7.12-3-12s-4.93-5.56-9-7-7.08-4.73-10-5-5.14 4.3-6 5a15.71 15.71 0 0 1 -8 3c-3.65.14-9.4-3-12-5s-1.9 4.87-4 7-.64 0-5 5-7.33 8.2-12 8-9-13-14-19-13.35-3.16-18-5-.94-12.9-5-17-6.61-6.06-14-8-4.81 7.53-9 4-6.48-4.6-9-1-15.77 8.6-20 10a13.57 13.57 0 0 1 -13-2c-4-3.13.39 35.91-1 24 5.29 10.14-1.36 25.45 0 36 2 15.49-27.84 23.12-20 34 3.58 5 10.86 7.88 13 15 3.17 10.56-6.27 18.71-5 31 .55 5.32 3.91 10.82 5 14 4.91 14.38 4.7 26.94 3 31-4.21 10-17.38 14.52-17 22 .4 7.79 19.52 15.42 28 24 6.42 6.5 9.1 11.66 10 17 1.49 8.85-1.7 19.57-9 26 13.3 4.13 17.5.48 25 6s24.69 13.58 35 14 25-5.3 41-8a82.22 82.22 0 0 1 34 1c7.36 1.63 26.52-3.58 27-7z"/></svg>