<svg viewBox="0 0 368.14 238.95" xmlns="http://www.w3.org/2000/svg"><path d="m118.07 140.56a8.34 8.34 0 0 0 .73-5.7c-1.67-6-11.82-9.5-27.73-12.3-15.09-2.66-12.84-13.71-24-21s-9.06-12-17-21-11.73 4.61-21 2-9.58-9.54-11-16-6.47-14.81-9-16-4.76-17.65-8-26 1.41-3.2 7 5-.12 3.35 19 4 4.58-2.47 10 2 10.38-1.43 15-8 7.54-8.63 11-13 5.05-4.74 7-7 11.41-11.11 11-6-4.44 9.47-8 13 4.16 6.8 10 12 4.5-1.55 9-2 2.18 6.53 10 3 8 .49 12-4c7.13.81 11.22 3.14 16 6s11 11.15 18 12c10.94 1.34 17.4-11.44 29-13 6.4-.86 19 3 33 16 10.59 9.85 11.31 18.69 22 28 15.57 13.56 34.28 9.86 60 17 17.27 4.79 30.61 11.1 41 18a130.73 130.73 0 0 1 27 24c-3.48 3.39-5.25 6.73-5 10 .58 7.73 12 10.06 13 18 .74 6-4.59 12-9 15-10.74 7.19-27.52.26-31 6-2.67 4.39 5.23 11.79 4 20-.92 6.1-5.56 8.61-11 15-5.58 6.56-6.17 13.11-13 18-10.56 7.57-23.68 5.36-33 4-17.61-2.58-37.58-4.32-57-7-13.56-1.87-31.34-4.11-33-12-1.25-5.91 7.47-10.68 6-18-.51-2.52-2.69-5.88-8-9-6.73-4-11.9-2.4-20-4-6.95-1.37-17.8-4.87-20.58-12.56s4.22-14 1.58-21.44c-2.53-7.13-12.3-11.1-26-13z"/></svg>