<svg viewBox="0 0 668.08 465.82" xmlns="http://www.w3.org/2000/svg"><path d="m512.8 460.48c12-3.66 20.35 7.39 27 5 5.56-2.52 11.37-20.49 23-21 11.39-.5 24.14 12.72 40 14s57-8 57-8c-2.73-7.7 10.32-15.69 8-26-1.78-7.89-10.14-8.76-13-17-3-8.63 3.79-16.68 4-25a49.37 49.37 0 0 0 -.6-8.59c-5.76-.38-13.91 1.64-17.41-2.41-5-5.83-2.07-19.56-7-31s-7.25-23.07-3-32-10.36-13.42-16-17c-10.26-6.53-5.21-18.53-11-28-8.09-13.24-32.69-15.51-36-22-22.56 1-39.07 6.8-47 19-2.6 4-5.68 17.89-11 19-7.51 1.56-14.07-15.91-23-15-11 1.11-12.85 27.66-25 30-7.61 1.45-19.9-14.81-26-19-9.54-6.56-17-9-19-17-2-7.71 3.52-14.85 4-22 .8-11.87-5.15-25.92-15-31-11.15-5.76-20.57 3.76-33 0-15-4.56-16.73-21.71-31-24-12.28-2-18.46 9.56-33 9-9.72-.38-18-5.55-23-10-6-5.36-12-14.23-14-30-2.49-19.29 9.35-33.53 3-47-7.46-15.84-37.58-15.12-54-25-13.3-8-29.11-33.53-45-32s-22.59 24.1-36 23c-11-.9-24.27-27-28-31-4.73-5.09-21.54-15.4-39-23-34-14.82-57.29-18.63-64-13-12.29 10.31-11.79 39.6 2 57 19.63 24.75 56.34 12.41 82 38 8.25 8.23 17 21 16 35-.47 6.72-5.74 19.62-20 32-11.93 10.35-23.39 14.16-23 21 .42 7.5 15.51 11 15 17-.56 6.5-18.84 8-19.38 14.2-.38 4.42 11.42 8.54 16.38 13.8 10.13 10.75 6.83 28.08 17 33 7.74 3.75 14.54-3.79 24-2 13.66 2.58 17.55 17.42 31 23 3.63 1.5 15 2.68 27 1 20.51-2.89 34.28-10.94 40-17 5.22-5.54 10.39-20.94 19-23 8.31-2 13.68 6.42 26 14 14.92 9.17 42 9 45 20 2.35 8.7-9.28 15.47-8 26 1.18 9.69 11.73 17.73 27 24 16 6.55 26.12 3.43 42 10a74 74 0 0 1 28 21c10.64 12.81 10.58 23 21 36 3.91 4.88 15.84 14.6 29 22 15.1 8.48 33.42 9.69 47 23 7.52 7.35 10.59 13.78 20.01 19z"/></svg>