<svg viewBox="0 0 414.08 468.1" xmlns="http://www.w3.org/2000/svg"><path d="m0 392a20.06 20.06 0 0 1 7 10c1 3.6.47 7.5 2 12 1.87 5.54 4.64 5.14 7 7s8.56 2.32 11 5a88.11 88.11 0 0 1 11 17c4.17 8.11 7.33 18 7 20 10.29.82 28.78 5.86 27 5a.16.16 0 0 1 -.08-.08c-.31-1 18.31-7.31 15.08-6.92s26.72-10.77 25-22-4.28-42.89-3-54-.32-33.68 14-44 24-18.7 27-33 4.4-18.6 20-17c23.76 2.44 34 6 34 6s18.84-6.14 32-7c-12.46-7.39-.74-10.89 0-16s13.46 2.07 22-1 11.77-12.16 21-12 17.16 3.9 24 1 5.34-7.25 4-14-12.87-19.64-14-28 7.22-14 11-20-2.76-16.31-6-26 15.42-20.76 15-29 13.61-17.14 22-19 19-12.35 27-17 17.4-11.59 25-15a121.79 121.79 0 0 0 24-14c8.25-6.24-2.16-16.09-7-21s-16.48-10.32-25-14-7.72-.38-23-6-8.07-2.5-14-10-15.39-5.7-18-16-12.61-10-23-10-27.17 1-31-3a181.82 181.82 0 0 0 -24.79 54.33c-8 30.5-1.93 38.84-21.49 54-11.72 9.15-27.46 25.46-40.72 27.67-22.59 3.76-18.77 41.36-32.61 51.77-11.28 8.49-36.29 10.77-44.39 22.23-26.61 37.63-21.74 45.38-44 82-12.87 21.17-27 28.9-40 50a201.43 201.43 0 0 0 -22 50z"/></svg>