<svg viewBox="0 0 608.07 223.43" xmlns="http://www.w3.org/2000/svg"><path d="m531.07 14.77s.66 8.13 9 25 47.7 35.58 57 46 5.4 5.8 11 11c-1.07.79-3.38 4.1-5 8-1.39 3.33-2.29 7.17-4 11s-3.05 5.6-5 6c-3.37.69-5.56-3.58-9-3-4 .67-4.48 6.88-9 8-2.3.57-3.82-1-6 0-2.87 1.32-3.14 5.81-5 8-1.23 1.45-6.56 3.79-14 4-6.7.19-11.05-1.46-15 1-4.1 2.55-4 7.62-8 9-4.91 1.69-9.6-4.41-16-4a16.23 16.23 0 0 0 -9 4c-.42.35-3.35 3.64-6 5-3.26 1.67-5.52 1.89-7 1-2.55-1.54-1.51-5.65-4-8-3.12-2.94-9.62-2.48-11 0-1.5 2.69 3.57 6.78 2 10-1.47 3-7 1.72-9 5-3.47 5.77 1 12 1 12l-25 9s-6.7 6.23-10 10c-4.79 5.47-8.38 10.13-15 12-5.56 1.57-9.22-.47-14 0-10.55 1-14.14 8.42-24 11-8.43 2.21-12.36-1.12-21 0-7.55 1-15.85 6.93-25 5-6.07-1.28-9.29-6.14-16-6-8.19.16-10.15 7-18 8-9 1.11-14.81-7.36-23.05-4.65-3.77 1.23-6.15 5.76-9.56 5.27-4.83-.7-6.1-10.39-11.39-14.62-8.69-7-22.77-3.34-27-2-8.51 2.68-12.83 7.34-18.3 5.41-5.14-1.81-5.14-7.5-9.7-10.41-8.25-5.28-19 2.57-30 0-8.19-1.92-8.86-6.9-17-9-11-2.85-23.34 4.89-31-1-3.55-2.73-2.29-5.35-6-8-7-5-17 1-26-2-3.64-1.22-7.69-3.77-12-9-4-4.84-6.72-11.18-10-19-.84-2-2.47-5.84-6-7-4.09-1.34-7.64 2.23-12 2-5.6-.29-8.93-6-13-8-7.44-3.72-17.28-.29-22-6-2.9-3.5-.82-6.42-4-10-3.54-4-9.46-2.68-12-7-1.36-2.31-1.48-5.67 0-7s3.84.13 6-1c2.38-1.25 1.84-3.62 4-5 3.21-2.06 7.72 1.11 10-1 1.71-1.59.23-4.58 2-6 2-1.63 6 .45 7 1 1.53.87 4.22 2.88 5 6 1 4-2.38 7-1 10 1.45 3.21 7.31 4.73 12 4 3.11-.48 4.81-1.86 7-1 2.61 1 3.93 5.63 5 7 2.81 3.62 8.2 6.61 13 6 2.47-.32 6-3.09 8-2s1.15 3.88 3 5c2.51 1.52 6.18-2.44 10-2 5.26.6 6.39 6.92 12 9 3.45 1.28 6.6-.27 10 2 4.39 2.93 4.53 9.08 5 9s1.19-7.18-3-11c-3.13-2.85-7.74-1.76-11-3-5.77-2.19-8.44-9.1-14-9-3 0-6.22 3.17-8 2-1.56-1-.46-3.85-2-5-2.13-1.58-6.9 2.22-11 2-3.82-.21-7.32-2.87-10-6s-3.15-6-6-7c-2.56-.87-5.71.86-8 1-1.9.11-7.38 0-9-3-1.3-2.44 1.06-6.09 1-9 0-1.91-1.08-5.37-4-9-2.46-3-8.4-6.06-8-8 .27-1.35 2.84-1.39 4-3 1.9-2.65-.37-6.4-1-11-.6-4.37.39-9 3-14 5.81-3.63 10.77-7.51 10-10-.51-1.63-3.15-1.45-4.33-3.36-2.13-3.41 2.26-7.93.33-11.64-1.41-2.68-5-2.22-6-5s1.7-4.89 1-8c-.6-2.64-4.9-5.88-5-6-3-3.55-4.76-9.13-3-12 2.24-3.67 11-4 23 1 31.2-.63 1.34-.42 16 13s2.14 9.68 15 19 29.15 7.49 38 5 3.75 4.59 30 18 7.35.24 12-7-5.69-7.46 3-18 5 8.44 20 14 2.81-5.56 25 1 .91 13.39 27 15 5.41.49 33 2 5-5.71 17-2 19.47-3.71 28-13 2-8.56 8-16 18.12-3.06 27-3 .57-1.11 11-8 3.22 5.83 11 9 9-5.27 15-14 5.58-10.17 12-7 8.28 21 21 19 16-5 16-5-.37 14.34 12 15 17-10.11 21-10 7.58 8.29 18 9 11.64-3.86 24-19 3.39-.62 23-6"/></svg>