<svg viewBox="0 0 795.4 600" xmlns="http://www.w3.org/2000/svg"><path d="m619.19 263s-4.52-3.07-3.83-5.72c.17-.66.64-.73.83-1.28 1-2.89-9.27-7.49-12.69-14.49a22.9 22.9 0 0 1 .69-20.51c3.57-6.1 8.82-6.25 11-12 3.85-10.17-9.89-23.47-6-28 .9-1.06 5.35 1.47 12-2s8.09-12 11-12 12 7 12 7a35.17 35.17 0 0 0 7-7c3-4.14 8.33-3.42 13-2 2.4.29 12.72-13.52 15-14s5.27 3.88 8 7 6.72 5.95 9 6 5-7 5-7l7 1s9.91-11.81 15-13 11.54 16.69 14 18 6.24-4.72 9-4 16 8 16 8 11.85-6.83 16-9c7-3.65 13.33-3.15 16-8 2.25-4.08 1.6-10.29-4-20-4.44-7.7-10.18-11.31-9-16 1.62-6.44 12.24-7 13-13 .92-7.24-5.55-16-17-19 0 0-3-12.51-18-20-10.3-5.14-27.15-6.24-31-9-4.17-3-3.91-12.63-10-18-8.9-7.85-17.54-11.52-20.36-15.37-6.55-8.93-8.52-4.28-17.64-8.63-7.18-3.42-13.56-7.62-19-11 0 0-2.8.64-9 2-1.9 1-6.44 0-7-1s-7 1.81-9 2-8.53 5.29-12 10-5.88 2.82-9 4-12.13-1.18-15-3-5.67 2.63-7 4-11.48 2.9-13 1-16-5.42-18-4 2.24 7.32 0 8-2.43 13.75-5 14-8-9-9-7-7.13 6.75-9 8-10.33-2.26-11-1-7.67 6.67-9 10-9.24-6.79-16-10-5-10.61-5-11-6.33-6.53-9-5-20.1 9.45-22 9-7.14.56-10 1-15-8.94-21-11-5.19.39-7 1-7.15.62-11 4-10 6.68-14 6-4.74-3.12-7-4-1.09 1.77-7 6-8.85.47-14 0-12.07.47-17 0-6.48.47-8-1-8.54-7-11-7-6.93 2.43-13 4-12-.9-15 0-5.54 2-8 3-6.49-2.11-9-5a5.86 5.86 0 0 0 -8.27-.72 5.52 5.52 0 0 0 -.73.72c-2.12 2.7-7.27 5.8-11 6a122.55 122.55 0 0 1 -13 0c-1.75-.25-1.61 5.61-3 9s-6.66 3.77-12 4-6.29-4.93-7-7a5.59 5.59 0 0 0 -4-4c-2-.48-7.81 4.73-9 8s-1.27 2.55-7 2-1.87-2.36-4-5-2.35-3.18-4-3-3.71 2.51-5 6-2.51 4.56-2 8-7.89 5.28-11 7-4.27-.16-4-4 6.66-4.65 4-10-.92-2.7-4-5 .17-3.74 1-6-6.64-6-10-5-3.57 6.14-5 8 4.78 9.1 6 12-3 3.58-4 7-7.28 6.65-13 7 .35-3.26-1-5 3.37-7.88 3-7-6.34-.65-8 1-2.59 3.27-2 7-.59 1.63-1 7-1.16 4.92-9 5-4.68.14-6-1-4.05-3.11-5-4 1.62-7.16 0-3-6.2 6.35-8 9-.22 4.51-1 8-8.38.09-11 0-5-2.6-7 1 0 5.35 0 7-4 3-5 8 2.32 6.23 0 9-5.91 6.62-8 10-2.16 4.67-2 9 2.3 1.71 1 6-1.61 4.2-3 7-5.32 3.47-10 3-.46-2.66-2-1-6.73 3.93-8 7-2.09 5.65-3 7-4.68 2.23-9 7-4-3-4-3-.86.34-6-1c-2.92-.76-12.07 3.47-15 3s-.65-3.77-3-2-5.25 9.18-7 11 0 6 2 10 .42 5.85 3 13 1.67 8.05 2 10-5.7 3-7 3-3.39 8.92-4 12 8.88 1.17 8 5-2.7 8-2 11-4.27 7.75-6 9-9.45 2.56-10 3-7.73 8.72-10 12-.51 2.41-1 4 1.71-.34 2 3 4.63 3.81 4 5-2.24 6.19-3 6-1.25 4.66 1 7 2.66 4.58 7 5 .79 2.93 1 6 2 6.53 3 7-5.44 3.77-7 6 2.23 4.91 1 5-2.56 5.49-3 8 3.34 1.51 3 6-3 4.44-3 6 4.68 1.56 5 4-2.56 4.48-4 7 1.22 4.4 4 7 17 14.6 19 18 5.27 14 13 20 26-5 26-5l27 11s8.62 12 11 16 5.87 21.27 10 28-11.58 5.23-16 7-8.21-1.15-7 4 10.62 8.05 12 13 3.14 15.25 4 18-5.11 2.84-1 20c.92-.12 1-1.47 5 0s8 9.72 13 10 5.43-4.76 8-5 7.5-2.74 12-5 4.3-6.64 9-6 9.21 15.25 13 16 7.46-5.05 11-4 5.4 7.89 19 12 15.54-1.8 19 0 8 11 8 11 5.75-3.53 8-4 4.37 3.45 8 9a26.1 26.1 0 0 0 8 8s5.26-6.26 9-5 7.21 8.37 19 12c16.47 5.07 18.31-1.68 22 0s8.89 13.22 11 15 4 10 4 10 7.47-2.84 10-5 2.27-7.75 10-7c4.58.44 14 16 14 16s6.57-5.18 10-4 7.83 7.09 19 11 16.64 1.39 20 2 8 12 8 12 6.85-6.32 9-6 7 10 7 10 3.76-3.7 5-6 6-.68 10 0 7-6.31 10-9 7.91-12.08 11-12c4.73.12 7.93 10.71 6 11a91.18 91.18 0 0 1 9 8c3.93-.46 8-10 8-10l9-15-8-14 1-11s7-4.3 12-8 9.22-3.91 16-7 5.14-7.84 8-8 7.74 7.45 9 10 7.34 2.08 9 2 4.3-4.22 6-6 3.93.45 9-4a34.43 34.43 0 0 1 9-6s.5-8.75 0-11 2.82-7.68 7-14 .84-9.25 2-13 8-25 8-25a109.63 109.63 0 0 0 -11-3c-3.77-.64-5.83 4.28-8 4s-11.08.28-15 0-14.61-.89-19-2-15.37-1.56-19-3-15.87 2.78-22 3-10.69-1-13-3-10.24-2.56-17-4 7-5 7-5c-4.26-6.82-5.9-12.95-4-18 2.43-6.5 11.92-9.49 11-12s-9.41-2.26-14-4c-7-2.65-13-7.71-16-13a133.45 133.45 0 0 1 -14-35l5-6c-3.39-5.1-5-10.19-4-15 1.31-6.35 9.82-11.75 11-14 4.89-9.33 6.78-19.84 10-28s6-12.38 10-13c3.2-.5 11 7 11 7s8.48-5.37 11-8 10.33-2.28 14-5 4-4.25 4-2a8.21 8.21 0 0 0 2 6c1.67 2 5.95 1 7 1s4.93 1.51 6 2 4.91-4.38 7-5 5.08 1.52 7 1 3.31-4.71 11-6 11.74.69 13 3-1.41 6.21 0 8 7.86.45 11 0 10.26-1.89 15-2 9.49 5.23 11 6 5 2.64 8 3 7.55.5 8 0-.73-5.19 0-8 9.8-7.43 12-9c2.97-6.1 5-10 5-10z"/></svg>