<svg viewBox="0 0 229.98 440.22" xmlns="http://www.w3.org/2000/svg"><path d="m165.9 42.16c-2.29-.29-.31-8.2-2.93-10.11-1.48-1.09-2.94 0-5.22.2-6.84.64-9.59-6-15.78-5.2-5.37.72-7.81 7.62-12.17 7-3.46-.5-4-5.22-7.83-7-4.21-1.92-9.33 1.17-11.81-1.35-1.52-1.55-1.15-6.46-1.19-6.65-.76-4.25-4.5-6.3-9-11-4.28-4.48-6.09-7.62-10-8-2.09-.21-6 .21-8 3-4.97 6.85 7.86 20.48 2.63 28.01-1.75 2.51-5.75 2.73-6.63 6-.81 3 2.2 5.71 1 8-1.32 2.5-6 1.25-8 4-1.46 2-.28 4.5-1 7-1 3.49-3.53 3.85-4 7-.72 4.86 5.28 8.47 4 12-1.12 3.11-6.54 2.45-8 6-.94 2.31.87 3.65 0 6-1.28 3.51-6.47 3.66-9 7-1 1.28-1.82 4.2-2 8a57.33 57.33 0 0 0 1 13c-5.54 1.58-9.25 3.83-10 7-1.11 4.7 5.47 9 4 13-1.58 4.24-11 3.33-12 7s8 8.11 7 12c-1 4.18-12.37 3.24-14 8-1.46 4.31 6.62 8.9 7 16 .3 5.34-3.26 8.18-4 13.58-.36 2.59.52 7.92 2 13.42 2.06 7.46 4.32 12.32 3 17-1.51 5.35-7 7.76-7 13 0 5.43 5.61 7.4 6 13 .18 2.55-2.26 7.39-7 13s-8.1 8.46-8 13c.09 4.06 3.06 5.51 3 10-.06 3.26-1.74 4.74-3 8-1.74 4.48-.64 8.42-1 14-.53 8-3 13.9-5 16a18.26 18.26 0 0 1 -9 5c-.8-.8-1.47-1.17-2-1-2.62.81-3.55 15 3 26 4.36 7.35 16 12.77 16 20 0 7-9.86 12.68-9 14s8.44-3.93 15-2c7.87 2.3 13.76 13.24 11 19-1.71 3.57-6.89 3.75-13 7-7.75 4.11-11 8-11 11 0 3.51 4.29 7.66 14 12 16.52 7.36 32 9.2 45.46 4.85 11.27-3.66 24.57-16.86 29.57-13.86 0 0 28.9-10.2 41-37 8.58-19-.26-29.38 8-48 11.44-25.82 35.94-22.78 46-47s-8.48-42.94-1-72c2.38-9.27 11.22-35.82 33-41-2.92-8.35-6.83-13.82-12-15-5.76-1.33-9.63 3.53-16 3-8.24-.7-14.45-8.38-17-14-2-4.34-3.27-11.75 0-22 2.63-8.24 11.86-16.63 10.66-24.68-.66-4.39-6.33-10-16.66-16.32-11.8-7.2-19.89-10.13-22.11-17.6-1.53-5.16 1.29-11.12 5.11-20.4 1.34-3.3 2.66-6.62 3.9-9.89z"/></svg>