<svg viewBox="0 0 274.73 474.08" xmlns="http://www.w3.org/2000/svg"><path d="m63.53 376.08c3.21-3.1 8-15.63 0-16s-10.75 1.86-16-1-17.39-2.06-19-7-11.11 5.64-13 0-11.63 0-12-7a39 39 0 0 1 3-18c2.24-5.09-4.45-2.72-6-6s.19-3 7-7 3.89-2.67 5-11 7.61-13.79 11-17 2.43-4.73 5-12 2.76-9.36 10-16 10-13.39 9-17-8-12-8-12-7.26-21.66-4-22 9.56.31 12-7-10.37-6.53-12-16-5.89-5.45-9-12-2-6.78 2-14 .41-16-2-20-9.71 9.76-12-2 2.09-8.07 2-19-1-11.49-3-14c8.66-2.14 16.18-6 22-12 7.34-7.56 6-13.9 13-21 13.91-14.11 35.76-4.78 54-16 11-6.78 14.29-17.2 23-26 15.06-15.22 31.39-24 48-27 15.89-2.84 26.67.45 31 4 6.75 5.54 10.24 21.38 8 47-1.27 14.49-5.17 25.6-3 37 4.35 22.83 21.32 28.8 25 52 1.64 10.37-1.58 19.13-4 32-5.88 31.29-2.86 56.69 2 64 8.76 13.18 26.09 15.06 31 30 5.13 15.63-9 26.05-6 44 2.5 15.08 12.48 18.19 16 33 4.5 18.94-4.79 35.45-10 46-10 20.14-14.36 57-23 70a32.72 32.72 0 0 1 -23 14 56 56 0 0 1 -8-9c-5.23-7.22-11.67-17.5-20-21-15.53-6.52-33.06 4.42-42-4-10.51-9.9 3.4-33.25-7-48-6.71-9.52-19.12-11.29-38-13-13.21-1.19-26.1-2.19-39-3"/></svg>