<svg viewBox="0 0 543.03 406.62" xmlns="http://www.w3.org/2000/svg"><path d="m20 326.18c5.95-3.83 14.15 3.62 18 1 2.93-2 2.12-6.93 5-8 3.29-1.22 7.06 4.25 10 3s1.37-8.28 5-11c3.36-2.52 7.66.72 12-1 6.08-2.41 5.21-9.47 11-12 6.39-2.79 11.57 3.74 18 1 5.89-2.51 5.91-11 11-12 5.43-1.11 10 8.14 18 10a22 22 0 0 0 18-4c4.56-3.69 6.43-11.85 10-12s5 6.64 10 8c4.36 1.18 6.64-2.32 11-1 4.56 1.39 4.55 6.05 9 8 4.79 2.11 10.86-1.49 13 1s-1.76 8.62 0 10c1.42 1.12 4.85-2.17 7-1 2.5 1.37.46 6.86 3 9 3.94 3.33 13.24-4.45 19-1 3.43 2.06 2.37 6 6 8 4.73 2.61 9.85-2.5 14 0s2.27 10.44 6 16c2.85 4.26 5.84 4 9 8 2.68 3.44 3.11 8.6 7 11 4.76 2.94 8.82-.58 14 2 4.33 2.17 4.84 7.19 9 8 5.31 1 8.68-6 14-5 4.83.88 6.65 8.34 10 8 3.51-.35 3.85-8.74 9-11 3.57-1.56 6.83 1.12 10-1s2.36-7 5-8c3.38-1.23 7.3 5.92 13 6 3.46.05 6.11-3.14 9-2 3.49 1.37 3.47 7.62 6 8 2.22.33 4.64-4.94 8-7a16.73 16.73 0 0 1 10-2c6.79.66 11.49 6.81 16 9 2.31 1.12 7.57 1.78 11 5 1.29 1.2 3.12 4.64 6 6 4.1 1.93 8.27-.46 12 0 6 .74 12.48 5.31 15 11 .4.89 1.21 6.35 3 7 2.85 1 6.52-5.77 12-7 6.67-1.5 14.59 3.07 19 8 3.13 3.49 4.13 6.7 7 7 4.69.48 7.8-7.68 12-7s4.5 9 9 10c4 .87 7.47-5.17 11-4 3.09 1 2.61 6.35 6 8 3.66 1.78 8-2.53 10-1 0 0 6.43-6.06 7-12s-7.69-9.54-9-15 1.09-17.4 0-22-8.68-16.62-13-20-7.78-4.67-10-2c-4.15 1.87-8.11 3.85-12 6-8 4.4-13.17 8-18 6-5.43-2.25-4.75-9.39-10-13-7.79-5.35-16.87 2.19-24-3-6.49-4.72-3.54-14.45-10-21-1.64-1.67-8.11-4.73-16-6-4.52-.73-11.89.66-16-2-10.18-6.57-4.13-26.15-13-31-7.75-4.24-18.65 8-32 6-4.76-.7-13.51-3.38-19-11-3.4-4.72-3.2-11.88-8-15-6.66-4.32-15.3 2.65-24 0-4.05-1.23-11.41-7.27-17-19-4.16-8.72-4.64-17.12-4-20a27.11 27.11 0 0 1 17-19c9.78-3.4 19.57 3.19 27-2 4.93-3.44 5.73-12 8-16 3-5.37 10.36-14.81 22-18 3.78-1 9.35-.06 14-3 8.29-5.24 6.81-17.11 14-20 7.7-3.09 15.37 7.95 23 5s5.86-17.32 14-25c7.73-7.29 18.45-5.21 28-10 9.85-4.94 23.46-16.06 22-28-.76-6.21-5.64-12.92-12-15-4.82-1.57-7.63 1-12-1-6.61-3-5.5-11.21-12-15-5.22-3-9.31.3-14-3-5.26-3.7-4.91-11.25-7-23-1.74-9.77-4.11-15-8-17-5.1-2.63-11.45-.22-14 1-6.22 3-7.54 8.83-13 10-8.42 1.81-13.84-9.57-22-8-8 1.54-8.54 13.49-18 17-4.95 1.83-8.14-.77-13 2-6.1 3.48-5.22 10.28-11 13-6.1 2.86-12.47-3.13-17 0-5.8 4-.64 17.73-6 21-4.65 2.84-12-5.38-17.82-2.74-5.56 2.56-5.47 15.14-9.18 21.74-2.56 4.55-10.13 15.25-21 16-11.37.78-18.31-12-28-9.9-6.73 1.47-7.81 9.59-14.86 18.57-3.2 4.08-19.53 14.9-19.15 23.33.34 7.67 8.68 10.17 9 18 .29 7-7.17 10.6-15 20-6.1 7.31-8.17 12.93-14 14-6.89 1.26-16.9-7.67-20-9-7.7-3.3-21.76-1.87-25-8-3.81-7.2 6.55-15.84 3-23-3.92-7.89-22.48-10-35.82-3.15-9.85 5.07-16.75 18.56-22.17 24.15a136.38 136.38 0 0 1 -15 13c-3.26 2.48-6.57 4.79-10 7a140.14 140.14 0 0 1 13 32c4.75 17.79 3.07 30.93 0 35-6.51 8.6-18.81 7.4-28 14-7.66 5.5-11.24 14.07-18 25-3.15 5.09-6.44 10-10 15z"/></svg>