<svg viewBox="0 0 358.28 265.37" xmlns="http://www.w3.org/2000/svg"><path d="m41 164.19c1.87-.6 7 .93 13 6 5.18 4.38 7.83 9.11 8 11 .44 5.12-3.49 7.62-3 13 .11 1.24 1.73 4.74 4 8 3.2 4.6 7.38 8.2 9 9 4 2 7.25 2.45 10 2 2-.34 5.91-2.83 9-2a7.46 7.46 0 0 1 4 3c2.67-3.33 8.25-10.22 19-11 13.48-1 27.5 19 40 16s28.31-17.4 38-23 22-12.88 28-7 12.16 16.85 11 28-18.45 13.42-13 27 34.57 30.5 44 15 19.71-45.72 36-53 47.92-24.32 54-28c-1.31-10.55 8-21.06 6-23-1.73-1.65-8.74 5.1-13 3-4.71-2.31-4.22-13.4-2-21 1-3.59 4.51-13.67 10-14-10.23-18.76-11.52-15.4-20-25s-25.92-7.33-36-21-1.92-36.2-6-43c-3.73-6.19-6.18-21.42-16-33.58l-.5-.61s-34.1 5-130.18 21.31c-95.07 16.11-144.32 25.69-144.32 25.69s4.26 11.57 8 15.19c10.54 10.18-1.26 17.8 5 28s-3.22 16.08 10 36a142 142 0 0 1 18 38z"/></svg>