<svg viewBox="0 0 534.8 365.54" xmlns="http://www.w3.org/2000/svg"><path d="m168.62 3.85c2.92.38 3.51 4.12 13 0s5.95 1.55 12 2 1 4.05 4 7-1 6.7 2 5 10 1 10 1 13.33-4.44 13-1 1 9.42 2 12 12 6 12 6 8.85 8.79 11 2 8.77-10.58 14-12 8 8 8 8-1 8.21-6 10-4 8.51-3 16 1.57 7.94 6 6 7.78-12.21 10-13 4.22 5.94 4 12 0 13 0 13 3.44 1.52 5-4 13 7 13 7 11.15-1.48 12-5-2.77-8.06-6-14-10.28-4.35-13-14-10.14-7.71-11-12 .22-11.8-4-16a48.22 48.22 0 0 0 -7-6 30.7 30.7 0 0 1 15-13c10.23-3.91 7 7 7 7s-1.13 12.35 4 21 8.38 15.14 9 23 9.65 12.73 19 20-.34 8.16 0 17 15.1 13.68 20 14 13.76 6.75 14 11-1.53 10.55 2 14 11.27 12 14 20 17.2 10.64 20 11 8.78.28 12-6 5.79-4.65 14-5 4.65-8 7-18 1.51-8 11-13 2.74 8.83 1 17 8.18 8.56 14 9 11.54-7.52 8-11 5.47-12.6 7-21 26.12.68 31 1 5.43 6.76 6 13 5.86 4.05 10 1 6.14-2.74 13-1 5.37-3.67 7 5-7.42 5.48-10 7-8.36 1.7-6 14 1.5 6.35 0 13-7.51 6.21-8 13 4.36 4.79 7 8-2.64 9-3 19-11.23 4.16-16 5-16.45 3.67-19 2-13.53 1.67-20 11-13 3-13 3-6.21-9.76-16-13-14-6.41-24-13-8.68 6-12 9-4.39 9.81-6 18-7.4 6.61-13 13-3.4 12.26-9 11-2.77 5.76 0 8-8 12-8 12-5.07 12.13-5 10-2.63-8.8-12-12-4.14 2.56-21 1-10.15 8-24 9-13.17 14.43-15 18-5.25 15.72-5 23 1.54 7.44-11 9-9.82 4.31-16 13-6.68 8.67-13 14-14.91-.83-21 1-1.64-.54-5 7-16.51-3-20-4-5.57-10-9-20-8.81-4.77-20-3-13.25-6.91-13-12 6.18-5.2 16-10 2.41-11.93 0-18-6-13.22-6-25 9-8.81 3-14 2.18-14.1 4-22-14-11.4-17-15-8-15.69-16-21-7.41 2.73-19 3-1.27 12-13 11-7.58-7.41-11-14a25 25 0 0 0 -11-11c-2.86-1.51-9.37-4.92-13-10s-13.74-9.72-21-8-12.68 4.72-15 10-7.31 3.72-18 2-7.32-8.57-11-20 10.11-7.22 17-16 6.62-2.8 14-5 13.2-16.45 14-23 12.7-15.32 16-18a41.27 41.27 0 0 1 20-8c9.14-1 8.86-5.4 14-12s3.51-9.34 18-17 9 8.16 14 14 9.17-.69 10-7-3.41-14.92 4-22 2.89 9.65 5 11 11.4-3.28 7-12 6.32-12.5 8-27c.14-2.26.53-4.81-1.68-7.16 2.06-4.42 6.57-6.63 8.68-8.84z"/></svg>