<svg viewBox="0 0 557 294" xmlns="http://www.w3.org/2000/svg"><path d="m34 111 6 8s3.2 12.38 3 15-3 25.65-2 27 21.88 7.9 24 10 11.44 7.77 13 12-1.56 5 0 11 19.91.61 26 3 31.05 10.3 32 12 8.57 17.05 9 18 1 16 1 16-6.95 12.81-5 26c1.49 10.09 12 20.52 12 25l31-22s15-3.14 21-1-8-46-8-46 5-21.69 11-24 13.24-15.5 24-15 27.1 24.09 37 21 22.38-20.3 32-22 38.57-6.39 46-11 25.45-22.88 30-28 29.38-8 34-9 29.74-15.1 37-15 20.05 1.29 30 0 32.24 6.68 43 2 27.17 3.55 36 5c0 0-4.66-24.59-8-30s-25.55-22.77-36-28-9.55-19.66-11-31-21.52-7.84-35-20-20-20-20-20-6.22 8.67-9 9-20.91 8.3-26 8-19 1.35-20 2-2 6.63-3 6-25.64 3.32-31 4-19.93 2.73-24 2-12.3-1.63-16 0-17.82 2.9-23 3-16.34-3.68-23-4-23.22 1.44-26 1-11.13 1-13 1-17.19-7.19-20-8 3.27-2.54 2-3-22.55-5.47-24-4 1 8 1 8l7 6 11 3s-19.12 4-22 5-21 8.21-27 8-17.75 2.15-21 2-4.3 5.66-11 6-25.91 5.24-34 5-22.68-.88-26-1-3.83 2.38-6 3-23.26 1.38-26 1-21.56-5.48-23-5 3.68 4.11 1 4 6.59 4 5 4 0 8.41-7 8a50.64 50.64 0 0 0 -13 1s5.49 4.83 10 5 17.15 2.12 19 2 3.92 5.64 8 8 5.24 4.63 6 8 2.89 9.07 0 10-11.71 4.1-9 3z"/></svg>