<svg viewBox="0 0 572.74 448.69" xmlns="http://www.w3.org/2000/svg"><path d="m570.71 366.59c4.19-3.42.9-27-1-34s-20.43-6.23-27-5-12.73-16.45-19-24-.83-35.09-1-44-9-14.43-11-22 2-14.77 6-22-3-10-5-13-4-13.27-2-23-6-25-6-25-12.28-9.93-17-13-16.6-6.07-22-13-4.75-14.38-11-16-25.22.6-31-1 4.77-19.72-1-27-20.63-3.88-26-11-6-21-6-21 2.23-15.53-5-20-8-13.81-16-23c-2.13-2.44-6.41-7.59-6.41-7.59l-325.7-2s-11.53 27.58-12.88 46.59c-1.7 23.87.64 30-15 58s-10.23 14.76 1 52c6.71-5.63 30-1.81 64 13 17.46 7.6 34.27 17.92 39 23 3.73 4 17.05 30.11 28 31 13.41 1.1 20.09-21.47 36-23s31.7 24 45 32c16.42 9.88 46.54 9.17 54 25 6.35 13.48-5.49 27.72-3 47 2 15.77 8 24.65 14 30 5 4.45 13.28 9.63 23 10 14.54.57 20.72-11 33-9 14.27 2.29 16 19.45 31 24 12.43 3.77 21.85-5.75 33 0 9.85 5.08 15.8 19.14 15 31-.48 7.16-6 14.3-4 22 2 8 9.46 10.45 19 17 6.1 4.19 18.39 20.46 26 19 12.15-2.33 14-28.88 25-30 8.93-.9 15.49 16.56 23 15 5.32-1.1 8.4-15 11-19 7.93-12.2 24.44-18 47-19-6.38-9.85-3.19-25.59.99-29z"/></svg>