<svg viewBox="0 0 288.94 504.03" xmlns="http://www.w3.org/2000/svg"><path d="m128.73 25.7c-6.75 19.29 3.11 40 14 54 12.08 15.55 26.25 15.2 38 33 7.49 11.35 6.23 23.08 16 33 16.52 16.78 56 8 56 8s10 12.74 9 21c-.71 5.7-4.39 8.18-8 14a42.88 42.88 0 0 0 -6 18c.76 6.33 3 11.53 7 15s8.58 3.09 15 5 10.28 4.55 17 5c3.19.21 2 0 2 0l-.71.67c-1.92.86-4 3.65-5.29 4.33-1.72.9-5.5 6.3-10 8s-11 6.05-13 7-3 5.14-5 9 .07 8.88 0 11 .07 5.92 1 8 6.27.41 7 3-2.67 8.49-2 12 3.77 4 4 8-2.83 3.87-4 7 3.78 7.3 4 9-2.17.91-6 2-1.22 3-4 4a20.89 20.89 0 0 1 -8 1c-2.3-.1-2.92 5.32-4 7a67.25 67.25 0 0 0 -4 7c-1 2.16-.13 8.92-1 12s7.22 6.86 7 9-4.67 5.19-5 7 2.78 9.92 3 12-4 4.77-4 8-3.88 7.52-5 8-6 0-6 0-6.19-5.16-8-6c-1.32-.61-6.88 4-10 4-5.82 0-14-4.12-15-3-1.48 1.72-10.81-.67-14 5-1.34 2.37 6.32 1.28 4 5s-21.53 7.2-23 8 9.35.56 8 2-10.44 4.83-12 7-1.16-3.76-4-1a11.42 11.42 0 0 0 -3 7s-3.3 8.09-5 9-.73-.69-4 0-5.15 3.94-6 7 3.49 3.58 4 6-1 4.22 0 6 4.58-.89 5 1a26.11 26.11 0 0 0 3 7c1.68 2.93 1.92 3.73-1 4s-10.16 3.06-10 2 1.83-3.36 2-5a11.29 11.29 0 0 0 -2-6c-1-1.22-.82-5.86-1-7s-3.58-5.07-4-4-.44 4-3 4a14 14 0 0 1 -7-2c-1.79-1.15-6.61-3.53-8-1s-1 4.78-2 7-6.12-2-7 1-.88 6.95-3 9-1.88 9.69-3 11-1.5-2.88-5 0-6 3.58-7 2 1.41-7.26-1-10-4.45-4.17-6-1-2.9 9.45-2 11 .22 5.53 0 7 7.08 4.05 6 7-6.44 1.92-7 4 .8 6.55-2 9-4.06 2.67-7 2-3.94-.86-5-4 2.39-7.49 1-10-4.57-.14-7-3-.22-7.33-2-8-2.64-1.56-6-1-1.28 4.09-5 5-4.47-1.33-7-3-3-5.65-5-5-.88 3.78-4 3-1.73-5.41-7-6-3.15 1.9-6 3a101.1 101.1 0 0 1 -5-25c-.71-10.23 1.14-25.34 4-41 2.15-11.76 4.47-23.46-1-36-2.44-5.59-5.54-8.42-8-14-2.84-6.42-7.88-21.43-2-34 4.79-10.24 18.44-16.54 23-21 4.74-4.64 11.39-14.39 16-27 5.73-15.68 6.36-29.76 5-37-1.52-8.07-4.42-13.51-2-21 3.41-10.58 14-13.36 19-22 7-12.13 2.56-26.15 0-36-4.79-18.43-1.89-30.66-7-49-6.38-22.9-14.6-35.27-13-57 .8-10.81 5.44-45 30-53 17.38-5.64 40.12 2.84 55 24z"/></svg>