<svg viewBox="0 0 739.19 372.92" xmlns="http://www.w3.org/2000/svg"><path d="m0 6.27c19.28 22.73 31.36 46.63 36 72 1.75 9.57-3.24 65.81 13 77 13.89 9.57 33.65-4.52 53 2 24.85 6.63 38 45 38 45s37.46-27.4 46-21c13.33 10 48.72-30.75 61-20 9.22 8.07 15.63 28.77 19 36 4.81 10.34 8.58 16.84 21 28 11.57 10.4 44 13.43 57 19 14.44 6.17 31.87 27.14 38 39 5.83 11.29 29.53 8.58 37 19 5.59 7.79 7.3 16.9 14 24 6 6.36 23 18 23 18a20.89 20.89 0 0 1 2-6c6.53-12.27-4-27.84 1-37s14-15 14-15 10.05-4.09 20 1c10.67 5.45 13.19 14.65 23 14 8.08-.53 8.43-9.47 21-9s24.4 16.42 27 22 7.93 17.89 13 23 11.84 2.49 17 5 10.36 5.13 13 9c3.42 5 10 17 10 17s14.85-1.67 19 2c5.12 4.53 12.16 1.83 19 2 6 .15 18-1 18-1s-2.31-3.95 12-19c2.87-3 5.16-7.55 9-12 4.67-5.41 16.46-12.41 21-19s23.12-21.07 24-24c2-6.56-12-11-12-11a65.44 65.44 0 0 1 -30-3c-8.75-3.11-13-8.07-21-12-7.22-3.57-22.16-4.83-29-13s-5.26-22.45-12-25c-6.12-2.31-11.88 6.92-20 6-10.17-1.15-12.91-14.81-24-19-7.9-3-14.52.54-25 1-14.21.63-30.8-2.52-33-10-1.43-4.85 4.13-8.39 3-14-1.49-7.4-12.78-13.19-23-14-7.7-.61-16.69 4.56-23 1s-5.71-12.85-11-19c-6.28-7.3-17.09-11.11-26-10-9.22 1.15-11.39 7.11-20 8-7.89.81-16.43-4.37-29-15-12.07-10.21-18.43-16.86-27-16s-12.53 9.89-20 9c-7.91-.94-15.35-12.27-16-23-.75-12.2 10.53-22.24 7-29-2.9-5.55-13.29-5.31-30-6-15.13-.63-24.94-1.9-28-8s3.55-15.75 4-23c.51-8.32-2.43-18.36-13-31-9.32-11.14-27-23.27-46-21-10.86 1.29-15 8.17-27 8-11-.16-15.64-7.73-25-6-15.47 2.86-16.94 25.3-33 30-11.37 3.32-19.32-5.76-33-6-12.22-.21-16.84 5.29-29 4-14.31-1.52-21-9.53-33-16-15.11-8.13-33.37-10.76-55-8z"/></svg>