<svg viewBox="0 0 318.73 356.67" xmlns="http://www.w3.org/2000/svg"><path d="m143.4 0c5.82 3.34 8.9 5.83 18 8s19.75-2.12 42 8c10.06 4.57 21.74 13.24 32 17s15 10.64 25 13 28 1 28 1a41.46 41.46 0 0 0 14 25c6.66 5.66 12.92 6.76 14 12 1.79 8.7-13.39 17-11 24 1.54 4.53 9 4 12 9 2.37 3.87 1.88 11.08-4 22-4.42 8.19-11.78 15.39-15 20-5.06 7.25-6.87 14.69-10 25-5.18 17.07-12.68 30.48-12 42 .48 8.17 9.33 26.21 4 37-4.67 9.44-18.72 12-25 17-13 10.25-14.74 26.41-25 46-8.89 17-17.71 26.06-26 29-7.25 2.57-19.09 2.83-35-4-8.77-3.76-13.17-8-20-7-.33-11.84-3.46-21.09-10-27-8.39-7.58-16.94-4.16-25-12-8.42-8.2-5.07-18-13-28-6.29-7.95-17.45-14.88-25-12-8.18 3.12-6.6 15.7-15 20-9.74 5-25.89-3.33-35-14-8.16-9.55-8-20.6-12-29-1-2.18-14.35-18-14-29 .32-10.18 6.79-13.05 7-24 .16-8.57-4.57-14.51-6-21-1.62-7.34-3.29-22.26 4-33 6.65-9.79 17.22-9.15 22-19 6.12-12.61-6-23.93-1-37 4.66-12.26 20.81-18.83 37-22 11.27-2.21 21.82.86 34-4s18.88-13.91 28-27c6.05-8.69 12.6-18.13 18-26z"/></svg>