<svg viewBox="0 0 428.96 379.87" xmlns="http://www.w3.org/2000/svg"><path d="m4.49 372.05c5.75-13.42 3.18-24.55 1-36-2.46-12.89-7-19.7-5-32 1.52-9.53 6.75-16.19 10-26 3.38-10.22 3.82-17.77 2-22-2.84-6.59-10.67-9.28-12-17a15.9 15.9 0 0 1 3-12c4.39-5.74 11.85-5.86 15-9s4.05-12.57 6-19 9-7.71 14-15c4.8-7.06 5.39-13 10-14a21.84 21.84 0 0 0 -1-5 75.88 75.88 0 0 0 1-22c-1.42-14-5.71-25.38-12-34-6.92-9.49-16.92-12.51-22-24-4.85-11-1.54-20.73 0-37 1.75-18.51-1.26-31.46-5-35a53 53 0 0 1 22-9c13.16-2.07 18.87 3.28 32 1 6.28-1.1 12.3-5.55 21-5 11.63.72 19.75 8.18 24 12 9.64 8.65 20.63 18.24 26 21 7.37 3.79 26.81 5.21 33 15 5.1 8.06 0 14.38 5 22 6.93 10.55 22.55 7.3 44 13 6.44 1.71 15.94 5.63 25 10 13.13 6.33 24.1 13.24 37 10 9.7-2.44 12.29-9.93 22-11 15.09-1.68 23.87 15.87 36 13 13.36-3.17 13.46-26.9 27-31 8.93-2.7 20 3.88 32 16l19 32c-7.87 3.91-16.41 11.75-22.57 28.76-5.34 14.76-4.51 26.88-2.43 32.24 4.59 11.82 19.83 18.16 19 27-.95 10.08-21 13.43-21 22 0 8.76 21.3 11.64 26 25 4.17 11.87-7.27 21.54-2 33 4.11 8.94 14.46 8 17 16 4.14 13.11-20.54 26.93-21 48a34.54 34.54 0 0 0 5 19c-14.33 5.81-29.12 8.24-44 6-20.73-3.14-25.17-14.62-46-17-3.1-.36-29.64 3.92-37-4-5.95-6.4-1.79-15.36-8-21-6.79-6.16-17.86-1.07-34 0-13.07.86-35.22.1-42-12-4.78-8.52 1.94-18.6-4-26-5.73-7.13-20.36-8.4-30-3-8 4.46-9.21 13.91-17 16-8.09 2.16-17.39-7-26-9-5.79-1.33-19.91-3.13-29 5-6.12 5.46-5.55 12.59-10 19-5.83 8.39-12 8.68-19 16-5.9 6.2-7.25 11.65-13 18-9.92 10.93-21.17 15.38-26 16a36.9 36.9 0 0 1 -23-5z"/></svg>