<svg viewBox="0 0 310.3 336" xmlns="http://www.w3.org/2000/svg"><path d="m7.22 279c8.1-4.24 22.76-4.24 44 6 12.16 5.86 20.14 13.53 24 19 7.21 10.23 7 18.31 10 32 19.5-16.72 20.06-27.48 29-42s5.64-23.75 12-42 28.27-20.63 39-32 23.89-17.19 43-24 20.38-16.27 29-26 35.12-10.93 44-15 18.7-6.63 24-21c-5 .21-4.49-8.8-3-14s9-12.91 8-18-6.63 5.09-10-1 2.42-6.31 2-10-8.17-10.62-12-13 3.83-12.87 2-17-8.65-12.08-11-21-2.42-11.11-10-19 6.16-13.49 6-15-1.5-6-3-6-13 5-15 7-14.37 6.07-17 9-16.85 3.19-18 4-3 5.59-4 8-9.87 2.59-13 4-8.06-2.52-11-3-1 5.21-3 6-8.8 1.71-13 3-14.43 3.72-19 5-6.29-4.06-8-4-3.56 2.72-7 4-9.09 2.89-13 4-9.16-6.67-11-7-12.9 2-16 3-8.57 1.22-14 0-14.33-1-18-2-9.13-3.17-15-3a16.71 16.71 0 0 0 -12 5c-2.85 2.67-10.77 2.06-15 4 0 0-11.29 6.76-8 26s30.25 19.32 35 29 5.81 17.48 15 23 29.62 9.4 27 19-18.07 15-31 22-7.8 11.92-21 11-31.54 1.3-33 9 8.07 10.93 3 16-10.6-.18-13 7 16.24 8.88 13 22-21.39 11.08-19 20 7 28 7 28z"/></svg>