<svg viewBox="0 0 253.18 227.5" xmlns="http://www.w3.org/2000/svg"><path d="m154.18 48.5c3.78.26 4.26-3.47 7-6s6.23-.8 7-7 3.43-13.4 1-12-3.61 5.43-6 2-3.49-5.47-2-9 .59-4.62-1-8-4.49-10.42-1-8 1.29 6.47 6 9 7.67-3.58 12-1a15.28 15.28 0 0 1 7 8 9.21 9.21 0 0 0 3 4l-3 9s.46 5.69 0 7 1 3.15 4 5 9.39 3.25 8 5-5 6.29-5 7-2.07 5.92-2 8-1.86 5.74-1 7-.94 6.86-1 8-4.91 4.6-6 5-4.23 4.57-5 6-4 9-4 9-13.21-7.37-15-8-13.21-3.19-14-5 1.59-9.4 2-17 0-15 0-15 5.22-3.27 9-3zm34-19a9.7 9.7 0 0 0 -1 8c.7 2.46 10.16 5 12 8s-2.48 6.16-5 9-.88 9.72-3 11-.44 11.93-1 13-4.76 4.47-7 4-3.94 7.5-6 9-1.14 8.29-1 10 2 13.42 2 15a60.47 60.47 0 0 0 2 11c.73 1.72.76 13.83 1 15s4.24 4.79 7 5 7.46.65 9 0 5.28 5.54 6 8 1.62 13.09 4 15 14 10 14 10l-3-11s.68-10.28 1-12-4.37-10.21-5-11-3-11.77-3-13-1.91-7.72-1-9-2.82-10.22-3-11-7.71-14.56-8-16 2.64-11.76 5-15 8.5.89 9 0 5.89-5.28 5-8 4.51-4.74 6-6-.64-7.47-1-10-.06-8.12-1-11 8-7.77 9-7 5.57 1.15 7 1 5.91.6 7 0 4.31-5.51 5-7 3-5 3-5a41.73 41.73 0 0 0 -1-6c-.58-1.7-1-1.43-2-4s2-10.61 0-12-2.42 6.1-4 9-8-3-8-3-.15 7-4 8-3.37-3.82-5-1-4.34 3.77-7 5-8.33-.6-9-4 0-4.76-2-4-2 3.63-3 7-.93 7.31-2 9-4.26 2.39-7 0-1.66-1.69-1-3-.74-3.89-1-5-3.57-1.19-5-2-2.29 3.02-4 6zm-59 18c3.64-.42 6.76.16 9 2s6 8 3 17c-1.42 4.15-4.33 16.37-2 19s12.63 4.56 16 6 15.08 7 16 11 4 16.8 4 20 1.22 16.95 3 21 7.11 10 11 9 10.86-1.28 10 3 1.25 13.55 5 17c6.48 6 10.47 9.09 15 15 4.76 6.21 7 14.23 7 24a23.68 23.68 0 0 1 -9 2c-8.82.12-14.72-5.15-22-10-9-6-17.91-9.19-21-9-10.61.66-23.11 15-28 18a84.94 84.94 0 0 1 -16 7c-19.51 6.5-36.95 6.18-44 4-4.41-1.37-19.51-12.18-30-10-5.9 1.23-25.87 8.24-30 14-12.73-1.83-9.36-10.9-17-21-2.79-3.68-8.12-17.33-9-33-1.13-20.05 3.21-32.5 8-36 5.45-4 12.4-1.7 17-7 5.08-5.85.73-13.71 6-19 4.19-4.21 11.74-2.75 17-5 5.07-2.17 4.38-15.15 8-21 13.37-6.67 30.17-6.33 42.36-15 5.49-3.89 9-8.46 14.28-12.72 4.79-3.78 11.18-6.17 16.36-10.28z"/></svg>