<svg viewBox="0 0 600.9 284.61" xmlns="http://www.w3.org/2000/svg"><path d="m598.9 121.45c.32 2.35-.43 4.87-.25 7.44.25 3.69 2.3 13 2.25 16.56-.07 5-1 5.93-1 12a72.85 72.85 0 0 1 0 12c-13.37-5.56-31.12 4.77-41 16-15.5 17.6-13.71 44.52-22 63s-23.13 38.11-34 36c-10.12-2-13.82-27.13-24-40-9.51-12-26.06-17.31-46-28-16.36-8.77-25.76-15.13-34-12-11-11.87-22.1-16.85-33-16-12.32 1-19.16 11.57-32 11-4.57-.2-13.5-4.8-23-13-11.41-9.84-17.18-18.79-28-22-5.9-1.75-17.76-1.94-32 4-14.74 6.14-21.85 14-23 19-2 8.54 5.54 17.05 7 26 1.42 8.7.39 16.06-2 22-4.77 11.83-15.63 19.23-25 23-10.68 4.3-18.77 3.78-22 2-6.71-3.69-5.83-10.77-12-14-9.48-5-27.41 3.45-38 16-7.79 9.23-9.08 17.79-17 20-7 2-14.84-2.69-20-7-8.68-7.24-15.76-20.72-11.81-30.92s17.08-9.86 19.81-19.08c3.53-11.93-13.7-28.24-27.26-35.94-12.52-7.11-30.42-8.66-41.74-8.06-8.34-4.77-14.34-2.94-16-8-.9-2.76 2.43-5 5-10 3.77-7.29.24-10.85 4-18 4.6-8.72 16.41-10.3 17-17s-13.57-15.07-15-24c-1-6.47 7.81-8 5-12-2.9-4.12-11.22-.88-14-5-2.91-4.33 3.89-11.46 1-16s-12-1.34-15-6c-2.51-3.93 2.28-8.94 0-14-2-4.54-6.77-3.77-9-8-3.65-7 5.27-17.31 2-21a93.64 93.64 0 0 1 28 14c7.55 5.6 13.86 12 19 10 9-3.55 3.84-28.8 14-33 4.66-1.93 8.59 2.59 15 2 8.12-.75 10.39-7.35 17-7 11.62.62 15 21.24 26 22 10.33.71 15.42-16.77 28-17 6.43-.12 9.84 5.47 16 4 8.62-2.07 8.75-14.28 17-17 9.44-3.11 18.84 10.66 31 13 14.13 2.72 29.53-9.1 39-2 4.54 3.41 4.8 10.94 9.39 12 5.79 1.29 11.13-9.32 19.07-11.32 9-2.28 18.44 3.8 30.54 14.36s20.14 20.66 32 26.75c8.38 4.3 30.57 13.13 44 3.25 6.09-4.49 6.55-12.66 13-15 10.25-3.72 30.65 16.55 39.56 20.69 12.83 6 28.34 5.16 48.86 6 10.09.4 27.3 2.28 41.58 3.35 21.57 1.62 47.17 4 59 22 5.42 8.18 7.99 20.59 9 27.92z"/></svg>