<svg viewBox="0 0 419.38 541.13" xmlns="http://www.w3.org/2000/svg"><path d="m348.38 12.48c-9.9 4.22-21.31 8.08-28 9-4.4.6-7.42.1-9.66-1-3.61-1.85-3.35-5.47-20.34-7-24.89-2.19-9.35-4.1-13-3s-8.92 3.79-17 0-7.29-.4-16-7-4.56-3.18-8 5-5.64.9-16 2-10.6-3.2-16 6-5.08 8.27-12 10-26.61-.34-34-5-7.28-1.62-11 6-7.46 7.05-15 5-8.52 7.63-10 18-2 11.29-5 18 5.78 9.35 6 19-7.9-2.66-14-4-4.38-.76-6 6-10.25 6.51-13 7-11.22 6.5-11 12a49 49 0 0 1 -1 11s-6.21 8.64 1 14 6.76-4.66 10-7 4.44.25 6 3 4 4.93 5 15 22.08 5.3 19 13 .29 6.27 0 15 14.26-5.24 15-8 2.75-5.62 6-1 3.74 8.65 12 12 7.81 2.24 13 8-17.07 6.11-26 2-7.14-2.17-13-4-2.52.43-6 12-8.4 7.29-17 1-.48-4.89-13-7-7-10.46-13-18-4.52.55-18 4-8.17-3.45-12-7-3.15 1.46-7 6-12.22-3.84-19-5-8.59-.24-16 5-5.86 5.24-2 18-.37 9.59-3 24 8.92 15.63 16 19 6.89 10.6 12 6 18.64 1.1 22 1 14.11-.6 20 6 7.37 11.57 8 21-4.12 15-5 20 21.14 1.3 23 8 8.62 17.75 9 29 3.11 20.88 11 31 13.77 3.85 17 14 13.53 19.19 8 35 4.13 26.09-4 34-.95 14.45 3 14 10-3.05 16-7 14-1 14-1 5.87 15.43 2 19 2.72 18.57 8 42 6.67 29.19 23 22c10.62-4.68 1.87-10.05 2-18 .07-4.27-8.42-14.74 15-14 26.49.84 27 14 27 20 .05 9.12-10.72 13.07-8 22 4.49 14.77 22-20 22-20 10.67-3.9 17.35-8 28-4 4.15 1.55 5.19 4.67 10 8.48s12.65 7.55 17 12.52l103-7c-19.25-9.58-31.71-21.44-35-36-5-22.25 14.61-36.57 10-61-2.61-13.83-13.92-23.15-19-33-13.54-26.25-16-46.47-10-62 7.82-20.12 27.63-23.53 35-47 3-9.56.33-15.12 2-25 2-12.05 14.42-30.93 10-44-3.12-9.2-12.36-16.69-28-22-27.75-9.43-57.13 7.59-67-3-10.18-10.93 3.48-44.27 21-69 15.92-22.48 32-32.31 35-53 2.86-19.82-7.12-40.21-25-60z"/></svg>