<svg viewBox="0 0 157 206.85" xmlns="http://www.w3.org/2000/svg"><path d="m0 101c3.15-1.31 5-4.22 7.26-6.67 1.61-1.72 3.84-2.51 4.74-4.33a38.4 38.4 0 0 0 2-6s-1-8.14 2-10 10.26-10.3 14-16 23-27 23-27 15.59-12.57 20-15c3.81-2.1 3-7.53 7-11a22.14 22.14 0 0 1 10.07-4.69c.64-.13 1.28-.24 1.93-.31a41.69 41.69 0 0 0 5.55 9.09 44.15 44.15 0 0 0 11.45 9.91c7.08 4.43 13 5.05 19 9 5.21 3.45 12.34 17.29 14 39 .7 9.16-.68 23.2 2 36a83 83 0 0 0 13 30c-3.85 5.07-8.19 8.31-13.09 9.64-4.43 1.2-11.94-.79-14.91 2.36-3.92 4.15 1.65 12.2-2 17-3.38 4.44-12 3.39-24 2-9.86-1.14-17.67-1.69-23 3-4.5 4-5 9.66-6 16-1.93 11.86-5.35 20.33-8 22-10.14 6.39-34.52-4.51-40-21-4.28-12.87 5.88-21.47 1-35-3.13-8.69-12.19-14-16-19-6-7.84-9.61-17.49-11-29z"/></svg>