<svg viewBox="0 0 204.39 327" xmlns="http://www.w3.org/2000/svg"><path d="m130.26 8c4.63 10.63 7.34 13.07 9 20 2.42 10.07-.76 21.62 5 33 3.81 7.54 9.28 10.45 14 17 4.08 5.66 5.89 10.6 9 17 5 10.27 11.45 15.46 14 25 1.35 5 2.63 12.93 8 15 2.57 1 4.49-.17 7 1 4.26 2 4.76 8.13 6 16 1.38 8.76 3.45 14.35 1 18-4.08 6.07-12.66 3.67-17 10-3.58 5.21.12 10-3 16-3.37 6.52-9.71 6.43-14 12-5.54 7.19-3.29 17.79-5 24-3.71 13.49-11.92 14.62-16 28-5.57 18.24 3 35 3 35s-2.44 5.26-5 11c-2.69 6-2.69 9.94-6 14s-12 7-12 7-11.69-10.44-20-11c-7.77-.52-13.62 5.45-21 3-6-2-6.8-7.23-13-10-2.21-1-7.69-2-14-1-7.86 1.23-10.36 5.32-18 7-5.78 1.27-12.33-1.43-17 2 0 0-10.64-21-18-30 13.08-4.63 16.14-8.67 18-17 .73-3.3.16-10.69-5-19a63.57 63.57 0 0 0 -10-12c-2.91-2.76-6-5.3-6-9 0-5.06 6.93-8.4 6-12-.8-3.1-6.58-2.95-9-7a9.71 9.71 0 0 1 -1-7c1-4.44 4.92-5.62 9-10 3.08-3.31 2.67-5.94 6-9 6.16-5.66 14.27-3.49 18-9 4-5.89-2-12.74 2-20 2.13-3.85 5.22-4.47 8-8a26.64 26.64 0 0 0 5-12c1.06-6-1.76-11.46 1-17 1.55-3.11 5.64-5 6-9 .26-2.85-2.11-5.46-1-8 .59-1.36 5-4 9-5-3.33-8.26-6.11-15.46-7-22a49.84 49.84 0 0 1 1-19c2.06-8.19 6-14.44 8-16 5.1-4 14.09-3.52 16-8 1.76-4.14-3.75-9.41-4-15s4.91-14.82 9-17c17.17 7.36 34.46 5.82 44 8z"/></svg>