<svg viewBox="0 0 396.33 372.5" xmlns="http://www.w3.org/2000/svg"><path d="m185 1.82c-6.17 4.94-31.25 6.46-38 6s-23.79-4.16-35-3-12.71 4.1-22 7c3.2 4.37 5.19 11.81 2 17-4.47 7.27-17.49 5.06-19 10-1.68 5.49 17.57 19 25 29 8.19 11.06 9.7 19.42 8 24-1.91 5.14-7.37 10-13 10-6.68 0-11.53-8.22-14-7-3 1.46 1.37 17.66 0 29-.57 4.66-2.65 17.06-8 18-3.64.63-7.34-4.26-10-8-6.17 5.83-15.85 11.83-23 17s-16.44 19.69-19 22-7.91 12.8-19 22c14.47 3.6 25.33 10 31 20 3.16 5.57 3.25 11.44 5 19 2.65 11.49 7.29 22.43 10 26 5.89 7.75 11.76 9.53 18 17 6.07 7.27 6.83 14.37 11 22 4.59 8.39 10.08 16.45 7 21-1.51 2.22-4.85 2.29-6 5s.58 5.64 2 8c2.86 4.76 5.6 8.56 7 9 5.09 1.6 11.31-5.36 17-7 6.67-1.92 10.3.37 17-2a30.09 30.09 0 0 0 11-7c-1.83 4.16 9.1-.94 20 3s13.75 26.07 20 29 17.63 6.62 30 12 33 1 33 1 5.2-10.36 7-18c1.85-7.88.75-13.53 4-15 4.05-1.83 9.23 5.45 15 4 2.13-.54 4.57-2.47 6.82-6.58.4-.74 1.18-2.42 1.18-2.42l-52.66-96.22s-4.81-42.18-7.19-68.9-4.28-56.72-1.31-58.55c2.43-1.5 13.24 34.94 34.84 65.73s38.13 45.79 53.69 55.55 21.44 11.91 30.94 28 12.77 41.25 12.77 41.25a14.81 14.81 0 0 0 2.92.15c4.53-.59 7.47-5.95 11-5s3.59 7.23 7 8c2.27.51 5.3-2.21 10-7 2.6-2.65 4.85-4.95 8-5 4.25-.07 6.11 4.32 10 4 4.57-.38 8.06-6.94 9-12 .83-4.51-.07-7.72-1-9-2.9-4-13.36-4.11-16-5-6.76-2.28-11-6.07-12-8-3.73-7 2.18-14.4-2-21-2.86-4.52-7.5-3.29-10-8-3.2-6 2.61-12.59-1-18-2-2.94-5.84-2.74-7-6-1.4-3.91 3-6.91 2-11-1.22-4.87-8-4.87-10-10-1.76-4.5 2.06-7.76 0-12-2.16-4.43-7.58-3.49-10-8-2.17-4 .89-6.92-1-11-2.7-5.8-10.74-4.72-13-10-2.47-5.77 4-13.75 6-16 .91-1 8.95-6.25 10-11 .86-3.94-1.58-5.83-1-10 .62-4.48 3.58-6 6-10 5.1-8.36 2.3-19.9 1-24-1.77-5.57-4.7-8.28-4-13 1-6.53 8.77-10 8-15-.37-2.34-2.48-4.31-6-6-3 3.5-5.77 5.63-8 5-2.46-.7-2.64-4.48-5-5-2.61-.58-7.31 5.76-9 7-5.07 3.72-8.32 1.81-13 6-3.66 3.27-3.76 7.64-8 10-5.76 3.2-15.22 1.06-18-4-1.5-2.73-.09-5.63-2-8-2.45-3-8.17-2.52-11-2-7.22 1.33-13.37 8.6-17 7s-1.84-9.92-6-12c-3.09-1.55-6.26 1.94-10 1-6.09-1.52-11.21-12.06-9-20 .86-3.09 4.83-6.88 4-10-.7-2.62-3.79-3.48-7-5-6.81-3.22-7.58-7.94-15-10-5.08-1.41-10.48-.95-16 1"/></svg>