<svg viewBox="0 0 221.12 250.02" xmlns="http://www.w3.org/2000/svg"><path d="m.12 26a73.35 73.35 0 0 0 1 17c2 9.32 6.25 10.46 9 18 3.3 9.06 1.5 17.06 7 27 3.9 7 9 11.4 12 13 5.84 3.1 11.22 2.41 16 4a35.45 35.45 0 0 1 18 14c5.39 8.35 2.56 16.31 9 23s14.31 3.81 21 11c3.42 3.68 4.54 8.94 6 17s2.54 15.12 5 20c4.31 8.56 9.86 9.35 14 18 2.69 5.62 2.73 9.8 6 11 6.53 2.39 13.91-10.79 22-9s8 16.14 18 22c3.74 2.19 9.13 1.74 13 6s3.65 11.6 6 12c2.95.5 5.61-10.46 13-15 5.74-3.53 10.12-.93 15-5 6.75-5.63 3.34-15.11 10-20l-18-30s13.85-10.25 14.94-18.43c.39-3-.21-9-3.94-15.57-2.27-4-5.71-7.68-10-12s-7-7.06-7-11c0-4.72 5.3-8.52 4-12-.72-1.91-3.6-2.7-5-4-2.15-2-4.2-5.47-4-9 .26-4.71 6.07-9.59 9-12a81.62 81.62 0 0 1 -15-15c-6.45-8.4-11-17.82-12-22-2.71-11.4 2.95-23.42-3-33s-20.37-10.43-28-16a82.5 82.5 0 0 1 -24 9c-13.73 2.76-25.73-2.17-39 4-8.72 4.05-14.42 14.55-26 16-8.11 1-12.72-2.61-21-5-10.22-2.95-20.51-1.6-33 2z"/></svg>