<svg viewBox="0 0 255 196.34" xmlns="http://www.w3.org/2000/svg"><path d="m255 120.34c-11.17 5.82-9.83 18.2-18 26s-22 12-22 12c-18.56 10.39-17.5 17.57-24 25s-12.72 9.86-21 13c-2.65-4-8-3-12-6-5.67-4.31-5-10.48-10-16-3.16-3.48-6.09-4.39-10-7a47.18 47.18 0 0 1 -15-16c-3.71-6.7-4.29-12-10-16-5-3.51-9.33-2.24-14-6s-6.89-10.34-7.1-18.74c0-1.16.21-5.25.1-5.26s-4.23 18.75 5 27c4.89 4.37 9.56 2.26 15 7 4.67 4.07 7.2 13.53 8 15a41.15 41.15 0 0 0 10 12 11.71 11.71 0 0 1 -5 5 12 12 0 0 1 -7 1c-3.79-.42-6.41-1.67-10-2-5.55-.51-11 3.4-15 1-3.49-2.09-3.4-7.46-6-11-2.85-3.87-5.71-3.63-9-7-6.13-6.29-4-12.31-10-18-4.51-4.24-9.25-4.24-16-6a62.65 62.65 0 0 1 -18-8c-1.2-6-5.51-9.37-13-22-7.15-12.06-21-21-21-21s25.05-21.47 32-23c12.19-2.68 27.82-12.11 47-24 18.6-11.54 34.67-6.61 42-10 15.75-7.3 24.94-1.29 28-5s6.72-11.8 22.91-16.34c6.09 9.37 13.45 17.16 24.09 21.34 15.77 6.2 36.82-1.73 49 10 9 8.64 10.66 24 7 44-2.18 10.59-9.65 32.43 3 45z"/></svg>