<svg viewBox="0 0 363.46 275.31" xmlns="http://www.w3.org/2000/svg"><path d="m7.46 33c4.13-5.76 24.1-12.77 30-14 10.49-2.18 25.59 8.63 30 10 7.05 2.18 24.49 2.5 44-4a84.3 84.3 0 0 0 16-7c4.89-3 17.39-17.34 28-18 3.09-.19 12 3 21 9 6.59 4.39 14.11 7.39 22 10 0 0 .32 1.17 9-2-3.4 5.52-2.47 13.19 1 17s9.86-.18 13 4-2.77 13.54-2 20 3.94 12.8 10 14 12.76 4.32 14 8a53.76 53.76 0 0 0 13 20c7.89 7.71 12.3 3.6 16 5s9.26 8.23 15 7 8.21-2 12 1 6.92 2.87 13 6 12.19 9.14 17 14 6.82 9 8 17-.54 12.43 6 15 15.23-3.56 17 3 1.6 16.47 3 22a49.52 49.52 0 0 1 -19 5 50.81 50.81 0 0 1 -33-10c-10.77-8.19-11.35-16.91-23-25-8.82-6.12-21.61-10.61-27-6-6 5.11 1.43 17.85-5 26-6 7.54-16 3.36-22 11-5.38 6.89-1.3 17.35-4 26s-5.39 10.6-10 15c-7.89 7.52-13.89 18.82-24.26 29.93-9.34 10-16.5 14.64-18.74 13.07s1.11-7.81-2-11c-1.59-1.63-3.76-.81-6.37-1.92s-4.6-2.56-9.63-5.08c-8.27-4.14-18 .89-25.73 0-15-1.79-23.69-15-30.27-21-29.55-26.91-62.07-53.25-81-63-5.09-2.62-18.46-9.14-22-22-2-7.16 2.17-24.19 18-44 12.18-15.24 22.77-22.35 22-33s-11.83-19.51-28-27z"/></svg>