<svg viewBox="0 0 418.13 373.87" xmlns="http://www.w3.org/2000/svg"><path d="m404 353.09s-.23-9.74 2.63-14.09c.16-.41 4.17-6 4-10s-4-6.9-3-10c1.22-3.83 8.12-3.54 9-7 1-3.83-6.69-7.42-6-12 .53-3.54 5.41-4.15 7-8 1.82-4.43-1.53-8.19-3-15-.49-2.27-.35-7.91 0-13 .27-3.95 1-7 1-11-.06-8.43-2.6-14.47-5-20-2.68-6.16-5.57-12.12-8-18-2.62-6.35-5.51-14-12-21-3.78-4.05-8.13-6.51-10-7-4.95-1.29-11.43 1.59-14-1-3.35-3.38 2.22-11.79-1-15-2.07-2.06-6.3-.52-13 1-8.27 1.87-13.44 1.85-15 0s-1.08-6.14 2-13a69.59 69.59 0 0 1 9-15c3.32-4.16 5.78-6.57 5-9-1.2-3.7-9.29-2.92-14-7-5.2-4.5-3.49-10.14-9-14-4.7-3.29-11.05-1.64-16-3-6.09-1.68-12.08-4.83-15-10-3.71-6.55-.11-11.67-4-18-4.07-6.62-10.48-5-15-11-5.8-7.71-1.87-19.79-4-28-1.13-4.37-7.34-12.67-14-21-9-11.28-14.47-17.16-20.9-16.63-6.05.5-8.94 6.94-15.1 6.63s-11-7.12-14-13c-14.74 4-27 11-35 22-8.68 11.85-11.49 31.94-13 36-2.62 7.06-14.72 23.56-28 38-20.3 22.06-37.4 32.38-41 52-1.84 10 3.86 25.3-3 34-11.63 14.74-41.17.75-59 16-11.37 9.72-14.69 26.11-14 37 .92 14.55 14.43 27.74 10 39-3.8 9.65-16.9 10-24 19-5.46 6.93-6.46 20.27-5 40 .92 12.43 2.38 22.63 2 35-.08 2.59-.4 5.87-.4 5.87z"/></svg>