<svg viewBox="0 0 220.01 318" xmlns="http://www.w3.org/2000/svg"><path d="m160 53c6.88 1.72 7.15 9 14 11 3.58 1 8-1 14-2 4.32-.75 7.34-.9 10 0 5.13 1.73 7.24 6.42 11 9 2.19 1.51 5.38 2.42 8 5 2.15 2.12 3 27 3 27-6.61 7.85-11.06 5.62-14 4-2.19-1.2-2-8-2-8s3.13-20.19-1-14-4.27 5-14 7-15 .49-16 6-1.71 13.12-5 18-.3 12.32 1 17 6 3 6 3 7.25 6.88 8 11-4.59 9.63-5 15 12.09 11.51 12 16-4.87 12.62-5 22-11.07 22.62-7 30 11.45 15 10 21 6 11.21 2 24 3 21 3 21-34 17.6-38 22c-3.7-2.64-6.37-5.47-7-9s1.18-5 1-8c-.52-8.49-13.87-12.78-13-19 .38-2.7 3.36-3.48 5-7 1.37-2.94 1.75-5.69 1-8-1.9-5.79-9.75-7.61-13-8-4.36-.52-7.75 1.6-12 0-3.94-1.49-4.79-5.23-9-6-2.56-.47-5.18 1.27-7 0-2.89-2-.56-8.65-3-10s-7.08 4.37-10 3c-1.92-.9-1.57-4.38-3-9-1.13-3.64-3.1-6.37-4-7-3.25-2.28-6.56-.72-12-1-2.19-.11-7-1.23-11-2-2.88-.56-8.15-1.52-10 1-1.67 2.27.81 6.3-1 8-1.47 1.37-4-.38-6 1s-1.16 3.67-3 5c-.81.59-3 .82-6 0-5-1.35-7.53-3.45-8-5-.6-2 .41-3.83 1-5 1.94-3.9 3.81-9.34 3-14-.77-4.41-3.58-5.95-5-10-1.62-4.58-.3-7.49-1-12-.4-2.53-2.74-7.08-2-11 .56-3 4.1-7.05 3-10-.82-2.21-3-2-4-4-2.1-4.33 5.61-10.24 6-17 .45-7.84-6.2-10-6-18 .19-7.47 6.27-9.53 6-17-.25-6.79-5.56-8.73-7-16-.87-4.37.86-7.3-1-12-1.56-3.94-4.84-6.89-10-11-3.75-3-6.78-5.4-7-9-.2-3.21 1.9-5.71 3-7 2.55-3 5.72-6.94 7-8 6.2-5.14 17-7.7 21-15 1.89-3.5 2.07-6.82 5-8s6.53 1.41 8 0-1.34-6.12 0-10c.73-2.13 2.61-4.56 5-5 2.72-.51 4.35 2 7 2 3.53.06 5.9-3.25 10-8a64.26 64.26 0 0 1 7-7c3.75-3.2 7.38-5 9-5 5.88-.12 14 9.66 16 11 6.67 4.46 14.1 7.2 21 6 4.48-.78 12-5.77 14-4 1.57 1.37-.65 4.86 1 7 2.59 3.38 10.49-.56 14 3 2.17 2.21.7 5.72 2 9 1.81 4.58 5.44 5.18 7 10a10.55 10.55 0 0 1 0 8s-.13 2.21 3 3z"/></svg>