<svg viewBox="0 0 438.09 514.05" xmlns="http://www.w3.org/2000/svg"><path d="m401.85 371c-3.69-8.13-4.55-15.21-2-21 2.11-4.8 6.31-6.24 8-12s-1-8.68 0-14c1.32-7 6.52-10.88 11-15 10.42-9.59 15.91-19.1 18-28 1.05-4.42 3.25-17-3-22-4.44-3.58-11.43-.52-14-4-2.25-3.07.61-10.38 7-22 2.8-5.07 5.57-9.93 4-15-1.95-6.33-10.19-7.8-11-14-.51-4 3.07-6.15 2-10-1.29-4.71-7.43-4.56-9-9-2.08-5.91 6.41-11.25 5-18-1.25-6.06-8.6-7-11-13-3.28-8.25 3.84-18.92 7-23-10.34-10.9-24-35-24-35a33.56 33.56 0 0 0 -1-13c-1.32-4.61-6-12.7-15-20-8.06-6.57-15.44-8.35-18-15-3.61-9.37 4.55-16.31 2-26-3.25-12.35-20-21.22-35-21-8.26.12-17.59 8.45-23 8s-12-9-12-9c-2.23 6.31-2.82 13-1 19 1.35 4.47 3.75 7.28 5 8 2.59 1.47 4.74.4 7 2 4 2.8 4.4 10.92 2 17-1.29 3.3-5.12 8.52-6 10-1.63 2.75-3.07 5.61-2 7 1.22 1.58 4.7-.28 7 1 5.65 3.13 6.92 21-1 34-2.47 4-6.25 8.35-5 13 .91 3.35 3.8 4.26 5 7 2.55 5.75-3.55 11.39-10 23-3.49 6.29-6.46 13-11 13-1.73 0-2.23-1.11-4-1-4.92.32-6.17 9.37-12 11-1.73.49-4.23-.45-6 1-2.1 1.73-1.08 4.67-3 6-3 2-8.89-2.87-11-1-1.16 1 .1 3.19-1 5-1.45 2.43-5 1.78-6 4s2 4.63 1 7c-.9 2.15-4.19 1.87-6 4-2.26 2.69-1.72 6.83-1 9 1 3 3 3.48 4 6 2.23 5.48-4.83 14.53-6 19-1.07 4.12.37 10.25-3 15-3.22 4.56-7.33 4.77-11 9a22.65 22.65 0 0 0 -5 11c-.44 2.88-.22 5.27-2 8-1.63 2.52-3.65 2.86-5 5-2.62 4.16-.12 11 5 19 .52 4.2-.13 7.56-2 10-5.66 7.39-22.51 6.31-33-1-7.28-5.07-9-14.43-17-17-8.23-2.64-15.35 4.65-25 5-8.12.29-11.88-2.91-20-3-9.91-.12-17.51 2.71-21 5-8.26 5.43-11.16 13.61-14 21-3.73 9.7-8.25 19.84-11 23-12.59 14.42-34 16.22-43.65 16-6.51-.17-13.71-1.32-17.35 3s-1.13 10.58 0 19a68.65 68.65 0 0 1 0 18v12c12.43 4.88 17 22.78 18 35 1.45 17.6-11.38 29.46-7 45 5.3 18.83 31.81 31 54 32 26.44 1.14 46.84-17.65 67-23 23.62-6.27 35.05 2.4 58-6 3.5-1.28 32.93-21.13 54-20 10.77.58 20.8 4.6 30 11a55.25 55.25 0 0 1 13-25c5.56-6.1 13.75-10.38 20-13 5.08-2.13 14.22-2.94 26-3 7.93 0 14.52-.65 21-5 5.72-3.84 8-8.15 11-15 3.2-7.45 6.76-15.94 11-23a45.29 45.29 0 0 1 13-14c3.38-2.51 7.07-5.51 11-7z"/></svg>