<svg viewBox="0 0 510.19 443.57" xmlns="http://www.w3.org/2000/svg"><path d="m200.44 391.89c2.59-2.58 10.63 5.07 16.68 6.84 7 2.06 13.1 2 18 0 6.74-2.76 10.65-10.8 14-10 4.45 1.06 6.58 15.66 5 30-.84 7.55-2.45 13.21 1 18 4.58 6.38 16.42 8.85 25 5 7.75-3.48 9.92-13.17 17-14s10.87 8 18 7c6.35-.93 7.64-8.75 14-11 8.48-3 17.13 4.66 27 10s24.25 10.23 39 9c13.57-1.13 23.09-10.61 38-8 6 1 10.23 3.35 15 1 6.72-3.32 10.28-19 12-22 3.28-5.8 7.15-7.56 11-13 6.08-8.58 8.16-14.85 15-17 8.3-2.61 14.44 1.13 17 4 2.09-2.52 5.72-3.81 7-16s-16.17-17-17-29c-1.9-27.46 5-42 5-42l-27-26q-4-8.5-8-17a16.31 16.31 0 0 1 -9.3 4.53c-5.84.61-10-2.82-15.7-6.53-4.78-3.13-10.05-6-13-7-6.91-2.33-11.07-.73-18-3-7.26-2.38-14.06-8.69-18-11a86.36 86.36 0 0 0 -10-5s-8.32-22.58-10-32-3.13-28 5-34 5.63-28.65 6-29a31.83 31.83 0 0 1 -11-13c-1.54-3.47-2.87-11.72-2-21 .82-8.83 3.33-16.24 5-18 6.65-7 16.07-3.18 25-9 4.2-2.74 5.69-5.47 10-6 6.1-.75 10.31 4.54 15 3 4.38-1.44 4.3-8.42 8-18 1.74-4.52 4.15-9.73 2-12-1.49-1.56-4-.51-6-2-3.65-2.76-3.64-11.37 0-14 3.27-2.37 7.85 1.43 11-1 3.52-2.72 1.81-10.37 1-13a21.23 21.23 0 0 0 -3-6 20.27 20.27 0 0 1 -7-1c-2.69-.9-4.22-2.22-7-3-3.6-1-8.68-1.23-10 1s2.57 5.86 2 10c-.52 3.75-4.87 7.16-6 9a21.5 21.5 0 0 0 -3 11 39.43 39.43 0 0 1 -15-6c-4.58-3.1-7.83-8.07-14-11-5.48-2.6-12.7-1.35-17-2s-5.47-3.89-13 3c-5.83 5.33-11.73 10.2-19 13-12.51 4.82-23 2.8-37 1-18-2.32-30.12-2.19-42 2-6.19 2.18-22.55 9.08-23 19-.39 8.41 11.23 12.59 13 23 .5 2.93-1 11.31-6 20s-11.64 14.41-15 16c-5.25 2.47-19.42 2.85-37-5-14.33-6.4-21.63-13-34-12a38.34 38.34 0 0 0 -17 6c-7.62 4.77-8.67 10.14-16 15-10.07 6.68-29.53 6.23-33 7a76 76 0 0 0 -21 8c-14.09 8-18.14 20-33 25-2.79.93-17.29 1.07-22 7-5 6.3-3.21 16.6 0 23 5.75 11.46 18.07 15.78 25 17 2.85.5 15.35-1 19 3 4.33 4.8-1 13.79 1 22 1.8 7.29 6.44 11.54 9 19.88v.12c1.29 4.31 2.44 7.92 2 13s2.21 4.86-2 10c-5.8 7.08-2.8 16.16-9 21-7.44 5.8-18.37-1.82-26.14 4.47-2.47 2-3.05 4.74-4.86 8.53-2.55 5.34-10.87 13.1-11 21-.14 8.52 5.92 15.23 9 18 5.47 4.93 12.14 7 23 8 9.83.9 17.23-.32 27 1 9.19 1.24 13.93 5.06 23 7 10.3 2.2 16.6 1.9 20 7 5.56 8.35-3.58 23.61 0 26 2.38 1.59 7.29-4.49 11-3 5.29 2.12 7 17.9 0 25a74 74 0 0 1 18-4c9.32-.71 14 2.91 24 3s38-6 38-6-1.04-11.47 1.32-13.84z"/></svg>