<svg viewBox="0 0 249 185.18" xmlns="http://www.w3.org/2000/svg"><path d="m249 31.42c-11.68 10-18.35 20.65-20 32-1.37 9.39 3.94 20.77-1 31-4.73 9.79-14.53 10.75-26 19-10.79 7.76-12.63 15.68-23 24-9.22 7.39-22.46 14.33-41.49 18.68-12.22 2.79-20.39 2.72-31.51 9.32-8 4.76-13.64 10.29-20 19-7.61-2-11.27 2.47-19 0-7.41-2.37-7.63-8-15-10-7.76-2.1-11.33 3.12-19 1-6.71-1.86-11.75-10.36-15-13-6.69-5.44-11.6-4.23-18-10a58.87 58.87 0 0 1 14-13c6.54-4.32 13.47-6.07 19-9 14.1-7.48 22-16.53 25-23 3.59-7.63 3.19-13.24 9-19 6.07-6 12-5.25 18-10 8-6.35 9.84-15.57 12-25 3.12-13.65 7.32-26.66 11-32 5.81-8.43 16.93-18.74 32-21 12.42-1.87 21.28 2.89 32 7 14.19 5.44 27.15 8.45 37 9 7.45.41 18.47.14 30 7a47.08 47.08 0 0 1 10 8z"/></svg>