<svg viewBox="0 0 227.79 383.03" xmlns="http://www.w3.org/2000/svg"><path d="m225 380c-3.43-.29-7.28-.64-10-1-2.56-.34-6.44-1.52-8 1-.61 1-1.67 3.33-3 3s-6.92-4.57-9-6-14.2-2.28-15-3-8.29-5.82-12-7-12.92-2.28-18-6-17.4-11.82-19-13-22.65-11-27-13-26.3-3.85-29-7-5.07-8.24-6-10-7.7-21.37-8-22-15.31-14-21-19-17-13-17-13 3.11-20.76 1-31c-4.69-22.92-23-32-24-54-.74-17.18 10.4-24.81 13-45 1.1-8.54.36-15.41 1-24 1-12.93 3.29-25 6-30 4.81-8.79 13.39-14 18-26a41.78 41.78 0 0 0 3-15.15c13.79-1.77 17.44-10.98 31-20.85 17.71-12.82 47-18 47-18s21.37 19.44 32 30c12.56 12.48 29 24 29 24-2.56 3.85-6.65 15.32-10 20-6.64 9.25-12.65 14.84-14.95 25.58a38.68 38.68 0 0 0 -.05 15.42c2.15 11.54 10.24 20.92 9 34-.73 7.6-8.47 18.86-5 27 1.2 2.82 6.63 7.76 16 11 15.08 5.21 31.43 6.9 43-1 2 7.22 1.85 13.33-1 18-4.13 6.76-13.28 6.86-16 14-2 5.36 1.92 8.23 0 14-2 6.12-7.82 7.14-11 13-3.41 6.27-3.74 15.13 0 18 4.57 3.51 12.86-3.76 18 0 3.73 2.73 3.27 9.05 3 11-.67 4.87-4 8.32-5 11-2.19 5.67-.76 10.54 1 18 1.26 5.34 1.85 15.27 5 22 3.69 7.88 8.39 11.22 12 19 4.83 10.32 4.9 22.46 1 36z"/></svg>