<svg viewBox="0 0 270 207.74" xmlns="http://www.w3.org/2000/svg"><path d="m55 28.74c5.55-3.2-55 26-55 26s14.21 9.9 21 15c7.17 5.38 1.14 11.66 5 18s19.52 27.2 22 31-6.48 7.27-7 9 10.68 3.2 12 4-4.09 10-3 12 15.52 6.58 17 9 7.45 11.73 9 15-8.32 12.12-7 18 9 3 9 3l17 19s6-2.94 8-6 5.66-6.5 8-7 10 5 10 5l13-10s-9.59-3.43-13-4-4.85-.35-5-2 3.19-3.26 2-4-5.82-2.49-9-2-8 1.06-11 0a34 34 0 0 1 -6-3 12.05 12.05 0 0 0 6-2c2.41-1.85 7.94-4.75 10-6s7.33-1.54 10-4 10.33-11.24 12-11 10 5 10 5 8.64-5.16 11-7 6.26-.07 9-2 11-9 11-9 5.08-4.12 7-2 4.89 7.77 9 9a26.38 26.38 0 0 0 8 1s3.47-4.24 5-5 2.95-.23 6-3 7.23-8.4 9-8 .86-3.1 3-4 6.72-5.56 10-7 7.47.18 10-2 10-6.73 11-9 5-5 5-5-8.42-4.17-10-5-8.77-3.91-11-4 2.06-4-3-4-13.63 3.17-15 2-8-4-8-4 8.4-4.55 10-6 8-4.44 9-5 4.78-.69 7-2 11.27-11.39 13-12 11 5 11 5 5.91-6 8-7a49.73 49.73 0 0 0 5-3s-9.66-3.29-12-5-6.13-1.67-5-3-.19-4.06-4-4-21-3-21-3-10.43-5.53-11-10 2.57-18 1-21-20.07-8.09-22-11-27.83-2.12-32 2-32 11.4-34 8-14.18-.88-20 0-18.5 16.67-25 19-35.56 1.2-30-2z"/></svg>