<svg viewBox="0 0 274.9 515.39" xmlns="http://www.w3.org/2000/svg"><path d="m192.79 515c-1.57-11.36 4.24-18.19 10-32 7.63-18.25 8.08-31.22 16.59-33.31s14.62 8.42 25.42 7.31c8.22-.84 15.68-7.28 19-14 3.65-7.41 1.21-11.92 4-19-5.52-11.2-7.58-21.84-6-32 2.12-13.7 12-20.35 12-34 0-14.47-11.68-21.8-22-39-11-18.24-14.22-36-14-44.77.19-7.25 5.07-25.2 15-42.23 9.08-15.58 18.2-23.64 21-39 1.56-8.58 2.8-26-6-40-5.41-8.6-18.65-14.62-20-25-1.68-13 15.52-23.71 12-32-3.23-7.61-20-3.55-28-13-6-7.12-2.25-16.72-9-22-7.43-5.8-17.56 1.71-27-2-13.83-5.43-17.2-28.74-27-40a60.36 60.36 0 0 0 -30-19c-4.31 11.38-18.26 20.48-30 19-6.29-.79-8.47-5.15-15-5-8.69.19-12.21 8.74-20 8-7.31-.7-8.52-8.59-16-10-8.57-1.61-17.09 8.12-22 5-3.1-2-1.52-7-5-9-3.07-1.78-6.2 1.1-10 0-4.15-1.2-6.11-6.42-9-6-2.1.3-3.26 3.15-4 5-2.8 7-5.32 11.31-4 13 3 3.89 15.48-2.62 18 1 2.34 3.37-7.14 11.82-6 21a18.81 18.81 0 0 0 7 12c7.63 6.07 19.93 2.56 22 7 2.16 4.69-9.66 11.92-9 21 .52 7.29 9.27 11.38 8 17-1.45 6.36-13.82 6.67-15 13-.87 4.62 5.22 7.34 5 13-.21 5-4.78 6.93-6 12-1.28 5.27 1.29 8.55 3 15 1.52 5.77.54 11.38 1 17 .7 9 2.43 18.19 4 21 4.7 8.5 14.56 11.36 17 21 .93 3.73-.94 9.3 2 13 3.78 4.79 11.86 2.75 14 7s-4.46 9.42-4 16c.4 5.88 6.24 9.31 5 14-1.46 5.5-10.27 5.19-13 11-2.88 6.12 3.34 13.33 3 21-.49 10.72-8.7 21.77-16 22-3.37.11-5.95-2.94-9-2-4.39 1.34-5.57 9.17-6 12-1.57 10.06-3.86 20.26-6 24-5.92 10.27-16.53 10.17-21 21-3.49 8.42-1.2 17.25 1 22 3.83 8.34 12.26 10.59 14 19 1.68 8.17-5.85 17.05-3 20 2.13 2.22 7.51-1.59 12 0 7.22 2.55 12.11 22.61 14 26a56.46 56.46 0 0 0 8 11c10.06 5.39 17.7 9.95 27 9s22.8 2.73 33 7 21.74 13.24 32 17 15 10.64 25 13 27.99 1 27.99 1z"/></svg>