<svg viewBox="0 0 122 118.71" xmlns="http://www.w3.org/2000/svg"><path d="m0 41.13a4.14 4.14 0 0 1 1 1.27c.47.91.35 1.9 1 2.87a3 3 0 0 0 1 .86c2.2 1.28 4.06.95 7 4s7.52 5.2 8 8-.42 4.71-2 8 5.31 3 5 7-2.95 10.88-2 13 6.93 3 8 7 2 10.75 3 14 3.23 5.8 6 6 8.89 3.88 11 5 10.09.58 12-1 6.64-4.15 10-6 7.52-.83 13-3 6.35-5.55 12-7 13.37.28 18 2 10 0 10 0c-4.26-2.47-3.35-8.13-6-16-3-8.82-8.14-10.83-10-20-1.76-8.68.72-14.4 2-22 2-11.62.13-21.77-2.55-30.59l-.45-1.41c1.41-3.61 1.85-7.41 0-10-2.52-3.53-8.13-3.23-12-3-11.19.64-20.58 0-27 3-10.81 5-12.61 12.78-21.23 18.64-11.57 7.88-21.35 6.41-34.77 13.36a88.8 88.8 0 0 0 -10 6z"/></svg>