<svg viewBox="0 0 474.77 555.55" xmlns="http://www.w3.org/2000/svg"><path d="m76 530.48a5.68 5.68 0 0 1 1.77 2.29 5.89 5.89 0 0 1 .22 3.71c-.26 1.18-2.19 4.84-1 6s2.39 4 7 5 2.53-1.47 7 0 3.35 5.67 7 7 6.39-.21 7-1 5-4.79 7-5 5.78 1.1 10 1 6.72-5.7 9-7 7.55.4 11 1 7.26-2.83 9-4-3.08-2.18-2-3a46.28 46.28 0 0 1 11-5c4.28-1.14 3.55 6.72 8 4s2-3.53 2-6 2.25-5.57 4-5 10-2 10-2-2.15 5.45-2 9 1.41 4.48 4 3 3.66-6.11 8-9 4.59 4.9 7 4 3.17-4.9 7-7 3.76 5.45 6 5 8-1.56 10-1 1.15 5.91 2 7 8.76.92 9 3-1.14 4.4 0 7-.24 6.32 2 8 2.22-1.45 3-4 4.13-2.59 5-1 2.7 5.56 5 8 4.17.24 6-2-2-4.91-1-8 2.53-3.16 7-5 4.68 2.73 7 3 3.71-4.51 6-6 2.62 3.06 4 6-2.28 5.09 0 7 7.09.1 10 2a15.86 15.86 0 0 0 10 3c4-.24 6.74 1.13 5-2s-6.74-1.56-9-4 .92-1.58 0-4-4.21-3.16-6-6 1.79-4.08 5-5 2.59 3.15 6 5 5.29 4.18 8 4 4.66-2.27 7-3 2.57-2.62 6-2 1.26 6.3 2 8 3.95-1.7 6 2-1.38 4.11 2 6 1.3 2.8 5 1 3.45-6.24 5-8 .9 5.33 2 5 4.93-4.8 6-8 2.5-6 7-7 8.9 2.16 14 1 1.37-7.32 5-7 4.85 3.92 8 3 8.23-1.09 10-2-1.54-5.11-1-6 6.83-.68 10-2 9.35 3.11 11 4 9-4 9-4a101.1 101.1 0 0 1 -5-25c-.71-10.23 1.14-25.34 4-41 2.15-11.76 4.47-23.46-1-36-2.44-5.59-5.54-8.42-8-14-2.84-6.42-7.88-21.43-2-34 4.79-10.24 18.44-16.54 23-21 4.74-4.64 11.39-14.39 16-27 5.73-15.68 6.36-29.76 5-37-1.52-8.07-4.42-13.51-2-21 3.41-10.58 14-13.36 19-22 7-12.13 2.56-26.15 0-36-4.79-18.43-1.89-30.66-7-49-6.38-22.9-13.29-30.37-13-57 0 0-5.82-8-19-18s-28.17-11.39-35-21-28-6.35-31-19-12.34-37.15-4-44c-11.82-2.55-22.78-2-32 3-15.61 8.42-21.9 31.3-29 40-15.16 18.56-40.54 29.4-62 30-16 .44-42.08-13.53-57-4-8.94 5.71-9.83 18.38-19.3 21.12-10.3 3-21.43-7.79-28.7-14.12a174.15 174.15 0 0 0 -43-27l-33-12c-2.66 4.5-3.77 8.86-3 13 .81 4.39 3.27 5.52 4 10 .84 5.17-2.64 12.2-3 14a31.46 31.46 0 0 0 0 12 20.27 20.27 0 0 1 -4-10c-.61-6.4 3.23-9.74 2-16-.84-4.22-3.69-5.33-4-10s2.71-6.16 2-10c-9.55 1.37-17.84 4.82-24 11-11.27 11.31-9.35 30.69-14 42-2.87 7-14.59 19-14 31 .69 14.14 12.45 28.87 27 35 17 7.14 31.3-2.81 46 6 11.12 6.66 11.27 19 20 34s18.56 18.37 26 34c8.91 18.73 5.19 33.49 6 58 1 31.33 9.81 50.49-1 70-9.14 16.5-21.66 18.06-31 36-7.67 14.72-5 27.48-7 47-1.92 18.21-7.23 30.77-9 49a259.08 259.08 0 0 0 -.99 36z"/></svg>