<svg viewBox="0 0 388.49 176.82" xmlns="http://www.w3.org/2000/svg"><path d="m343.36 0c-103.25-.2-192.75 13.49-214.42 15.13s-128.94 17.93-128.94 17.93c1.59-.82 14.7 26.83 16.09 33.74 1.57 7.78-4.08 29.33 6 43s27.52 11.4 36 21 11.9 9.37 20 25c5.26-.31 7.65 8.54 14 9 6 .44 10.9-7.48 14-6s.27 10.54 4 13c3.54 2.34 9.62-3.65 16-3 7.46.77 8.94 7.69 16 8 7.86.35 10.69-8 19-8 6.06 0 7.76 4.36 14 5 8.69.89 17.7-5.07 22-12 3.2-5.13 2-9.05 4-14 4.43-10.85 16-13.12 18-24 1.06-5.75-1.74-10-2-15-.19-3.69 1.83-13.49 7-23 7.21-13.24 14.75-19.71 19-20 10.32-.69 15.83 14.14 27 13 4.84-.49 5.82-4 11-4 7.87 0 11.53 8.9 18 8s8.09-10.8 14-11c4.35-.15 7.35 5.91 12 8 6.77 3.06 14.52 1.28 19-1 7.52-3.82 9.18-12.91 16-14 6.61-1 10.72 6.68 18 5 2.78-.64 3.25-2.24 6-3l4.39-.86z"/></svg>