<svg viewBox="0 0 582.64 329.97" xmlns="http://www.w3.org/2000/svg"><path d="m582.64 166.05a83.63 83.63 0 0 0 -7-16c-3.81-2.54-7.45-5.19-11-8-12.7-10.06-19.57-20-20-25-.49-5.65 3.86-13.49 1-17-4.7-5.76-20.86 4.1-28-2s-1.92-24 1-32c4.3-11.77 9.85-18.1 7-24-1.56-3.22-9.86-6.24-22-9a99.51 99.51 0 0 1 -17-7c-1.38-.72-9.69-6.18-11-11-.85.57-6.44-7.08-9-6-2 .82-.81 6-3 7-1.86.86-4.94-2.41-8-3-3.4-.65-7.75.32-10 3-2.56 3-1.42 8.52-3 9-1.39.42-3.15-3.35-5-3s-2 4.15-4 6c-2.84 2.57-7.77 2.43-11 1-4.11-1.82-5.23-5.59-8-10-2.9-4.62-6.08-5.39-9-10-1.59-2.51-3.46-6.08-6-6s-3.38 3.79-6 4c-3.63.29-5.53-6.37-10-7-3.57-.51-5.8 2.76-10 5-5 2.68-11.36 3-19 1v10l-7-5q-1 5.5-2 11l-6 7-14 1a27.73 27.73 0 0 0 0 9c.89 5.29 5.56 12.19 4 14-1 1.23-4 .32-8-1-6.44-2.14-10.5-3.5-13-2-3.42 2.05-2.5 7.31-4 14-1.65 7.3-5.76 8.86-8 16-1.47 4.64-2.37 10.09-7 13-1.48.92-2.6 1-4 2-4 2.89-3.56 7-6 12-3.06 6.19-7.67 7-12 13-3.09 4.28-7.62 11.93-5 16 3 4.69 14.42 1.76 15 4 .21.89-1.34 2.28-3 3-4.39 1.88-8.79-2.06-12 0-2 1.25-3 4.34-2 6 1.91 3.38 11.43-.09 13 3 .69 1.39-.36 3.81-2 5-3.23 2.34-7.42-1-11 1-3.31 1.86-2.19 5.71-5 8-5.74 4.66-15.92-3.44-23 1-3.7 2.32-3.52 6.29-7 10-2.16 2.3-7.56 7.1-14 7s-8-4.86-14-5c-8-.19-10.39 8.08-19 9-1.34.14-7.73-1.31-11 1-2.14 1.51-2.15 3.26-4 5-2.65 2.49-7.65 3.38-9 4-2.41 1.12-4.78 3.21-6 4-2.56 1.66-8.79 4.29-15 6-6.72 1.85-11.74 1.93-18 5-3.22 1.58-5.41 3.44-8.53 5.22a89.87 89.87 0 0 1 -12.48 5.78c-13.94 5.3-13.49 1.77-24 0s-15.33-1.37-20 1-19.75-.58-27-2-20.72-3.45-23 4 2 9.41 5 11 7.82-4.31 17-2 19.25 2.2 20 0 7.32 7.68 5 14-21.25 1.81-24 15-2.95 24.73 1 27 8-4 14-6 7.58-11.62 20-2 14.14 13.79 21 22 6.63 11.36 18 13 15.77-7.92 20-7 9.77 1.15 16 2 12.4-4.63 18-8 10 12 21 4 6.94-15.62 17-16 11.28 2.09 20 6 16.41 2.93 19 15 1.4 15.29 11 14 15.55 7 10-10 .76-34.19 5-33 10.18 15 13 20 2.95-5.84 9-3c4.36 2.05 12.66-2.75 16.32-.16 2.06-4.42 11.6-8.46 8.68-8.84a28.8 28.8 0 0 1 -12-5c-4.44-3.1-10.78-5.19-15-8s-7.71-6.39-5-12 7.79-3.54 12-2 10.28.1 14 5 7.92.1 10 7 3.63 12.44 11 11c7.82-1.52 2.34-5.19 7-4s4.41 5.16 10 8 6.76 2.31 11 0 9.76-6.19 7-11-5.4-21.19 3-13 11.75 3.52 12 11-1 6.44-2 15-4.54 15.72 4 16 18.38 2.58 17 4 9-11 9-11-6-5.69-4-14-1.05-23.9 4-19 8.45 4.74 9 9 .64-.19 8 3 10-1 9-5-2.42-6.46-3-12 3-9.89 7-9 8.42 4.12 12-2 4-7.8 8-15 7.18-25.45 12-16 3.53 15 9 19 16.11 4.13 14-4 1.3-21.86 7-24 7.58-13.85 15-17 17.79-10.2 20-16 4.92-4.41 10-8 6.42-8.48 17-7 14.47-1.7 18 6 7.7 6.08 4 13-4.66 11.86 0 11 6.2-3.13 8-11-1-12-1-12c-.01-.64 1.9-8.91 5.01-9z"/></svg>