<svg viewBox="0 0 229.06 151.03" xmlns="http://www.w3.org/2000/svg"><path d="m.06 2c8.5-2.62 16.24-2.78 23 0 9.61 4 11.94 9 20 15 6.63 5 17.31-1.77 28 0s11 12 20 16 29-2.76 37-1 12.8 6.54 19 8 14.27-7.3 20-4 4 9.45 11 14 5.2 2.08 10 4a2.58 2.58 0 0 1 1.51 1.2c.9 1.82-.86 4.07-.33 6.28a6.06 6.06 0 0 0 2.82 3.52 31.52 31.52 0 0 1 9 12c2.79 6.62 4.31 14.07 1 19-3.5 5.21-11.7 4.6-13 9-1.1 3.73 3.18 9.16 8 12 8.2 4.84 15.24.44 23 5 4.07 2.39 7 6.48 9 12l-48 17c-7.72-.46-13.4-2.19-15-6-1.47-3.5 1.58-6.29 0-10-1.9-4.48-7.74-3.69-10-8s1.67-9.57 1-15c-.82-6.65-5.88-13.2-12-15-3.86-1.14-8.78-.13-16 4-8.4 4.8-20 14.58-22 16a27.92 27.92 0 0 1 -7 4c-11.36 4-23.54-1.59-29-5-2.48-1.55-5.86-4-10.69-4a17 17 0 0 0 -10.31 4 50.09 50.09 0 0 1 -16-15c-9.36-14-5.68-26.89-11-40-5.69-14-14-17.72-19-32a72.91 72.91 0 0 1 -4-27z"/></svg>