<svg viewBox="0 0 554.08 611.45" xmlns="http://www.w3.org/2000/svg"><path d="m28 574.4c12.35 11.84 32 13.06 45.82 11.6 20.33-2.22 36.31-14.77 61.18-35.55 10.42-8.71 27-22.17 39-17 9.83 4.23 9.13 18.49 19 22 10.22 3.64 20.36-8.29 36-16 14.38-7.09 26.22-8.64 62-6 .84 5.77 7.84 12.26 20 21 8.45 6.08 16.57 12.46 20 19 5.32 10.2 1.08 23.45-4 33 9.69 2.45 36.86 10.56 67-1 2.54-9.81 14.54-12.14 21-20 8.11-9.87 5.45-18.84 15-27 10.46-8.94 20.29-4.38 31-12 14.39-10.24 17.86-29.82 18-40 .1-6.94-5.74-25.24-1-29 3.81-3 10.09 2.26 16 0 9.11-3.49 10-20.57 17-29 6.13-7.39 17.64-13 27-14 1.6-6.33 14.67-6.07 16-12 1.07-4.7-7.3-9-9.66-16-1.88-5.59.57-13.2-2.34-15-3.24-2-8.77 4-17 8-4.59 2.24-19.26 4.54-35 3-11.83-1.16-20.76-4.71-25-8s-12.22-10.85-11-19c.3-2 2.67-6.87 8-11 5.11-4 15.45-6.2 16-10 .38-2.59-2.62-6-6-7-6.18-1.91-11 5-17 3-3-1-5.79-4-6-7-.47-6.52 11.25-9.66 11-16-.23-5.71-11.15-8.73-16-16-2.26-3.39-5.62-10.14-5-18 .11-1.55 1.68-6.75 1-11-.76-4.65-3.22-7.23-6-12-4-6.82-4.93-12.1-4-14 2.18-4.47 9.63-3.85 11-8 1.13-3.49-3.93-8.17-5-12-1.14-4.05.69-11 5-20s7.43-13.85 6.08-20.13c-1-4.46-4.37-7.4-6.08-10.87-3.9-7.87-4-14.34-3-17 1.63-4.27 5.89-6 7-11 .3-1.36-.3-5.64-2-10-2.15-5.47-5.45-9.84-7-11-3.7-2.77-10.15-3.68-11-4-9.3-3.43-16.65-12.65-15-17s11.89-3.27 12-5c.06-1-3.6-2.72-8-3-6.24-.39-10.16 3.29-16 2a17.06 17.06 0 0 1 -8-5c-3.42-3.52-6.86-9.65-5-12 2.52-3.21 12.76 3.36 18-1 2.18-1.82 2.92-5.05 3-8 .11-5-3.48-10.33-4-12-.77-2.46-1-9 1-16 2.1-7.34 5.68-11.07 4-16-1.31-3.79-4.39-4.28-6-8-2.49-5.7.26-12.13 2-15-10.74 5.32-20.54 8.63-24 5-3.94-4.13 3.21-14.24-1-19-3.67-4.15-14.27-2.56-22 2-15.19 8.94-19.87 35.2-28 47-8.91 12.92-20 23.76-30.51 22.28-9.49-1.4-12.27-12.39-22.49-13.33-8.95-.82-19 6.47-23 15-3.42 7.3-.35 11.59-4 19-3.32 6.72-10.78 13.16-19 14-10.84 1.11-17-9.39-25.42-7.31s-9 15.06-16.58 33.31c-5.77 13.81-11.57 20.64-10 32a41.46 41.46 0 0 0 14 25c6.66 5.66 12.92 6.76 14 12 1.79 8.7-13.39 17-11 24 1.54 4.53 8.95 4 12 9 2.37 3.87 1.88 11.08-4 22-4.42 8.19-11.78 15.39-15 20-5.06 7.25-6.87 14.69-10 25-5.18 17.07-12.68 30.48-12 42 .48 8.17 9.33 26.21 4 37-4.66 9.44-18.72 12-25 17-13 10.25-14.74 26.41-25 46-8.89 17-17.71 26.06-26 29-7.25 2.57-19.09 2.83-35-4-8.77-3.76-13.16-8-20-7-5.9.86-15.53 9.84-24 28a149 149 0 0 0 -13 46c-.47 4-.8 8.94-1 13 19.5 2.82 15.65 12.15 28 24z"/></svg>