<svg viewBox="0 0 269 196.31" xmlns="http://www.w3.org/2000/svg"><path d="m266 0s3 23.75 3 30-14.53 27.24-15 34 5.33 23.83 4 33-19.06 10.73-21 24 1 32 1 32c-8-.29-18.58-5.24-25-4-4.31.83-6.66 12.09-12 12s-17.85-.66-25 6-13.29 13.53-18 17 7 10.91 1 12-10.93-.61-16-7 .52-10-8-14-11.86-.77-18-5-5-10.66-13-19-18.48-12.85-25-13-13.53 2-11 6 4.31 11.33 5 15-1 11.39-2 15a54.79 54.79 0 0 0 -2 14c-6.8.55-12.06-.58-15-4-4.21-4.9-1.33-12.62-4-19-2.61-6.22-7.35-7.68-13-13-9.4-8.85-7.56-16.2-17-25-5.87-5.47-10.82-7.16-15-14a35.67 35.67 0 0 1 -5-17 66.64 66.64 0 0 0 18-3c8.83-2.77 14.81-6.61 21-11 9.44-6.69 16.7-13.65 25-17 12.25-5 20.67-3.17 33-4a102.71 102.71 0 0 0 39-11 76.85 76.85 0 0 1 31-10c13.47-1.21 21.65 2.92 34 1 17.79-2.76 40.73-33 46-37s19-4 19-4z"/></svg>