<svg viewBox="0 0 421.02 271.68" xmlns="http://www.w3.org/2000/svg"><path d="m178 268.86c2.39-5.75 3.82-12.06 9-14 4.76-1.78 8.15 1.94 13 0 4.32-1.73 7.14-8.86 9-11 4.6-5.28 12.22-10.05 17-8 2.64 1.13 3.68 5 6 5s3.16-3.83 6-5c3.44-1.41 5.92 1.49 9 0 3.4-1.64 2.71-6.4 6-9 2.38-1.87 6-1.48 11-2 3.56-.37 6.58-1.08 8-2 3.35-2.16 3.54-5.29 7-7 3.88-1.92 6.23.67 10-1 4.75-2.09 4.68-7.68 9-11 4-3.08 7.61-1.91 12-4 6-2.87 6.14-6.79 12-10 2.56-1.4 8.6-2.13 12-6 1.1-1.24 1.93-3.51 4-5 3.29-2.37 7.43-2 13-1 6.39 1.16 10.56 2.3 15 1a18.62 18.62 0 0 0 9-6c4.95-6.05 2.63-13.93 8-18 3-2.24 8.22-1.64 9-4 .93-2.8-4.84-6-4-9 .8-2.89 8.2-3.45 12-6 3.5-2.35 4.93-5.8 7-8 5.25-5.55 14.38-8.42 14-11s-8.06-3.62-13-4c-8-.62-13.46 1.09-18-2-5.65-3.85-4.22-10.71-10-14-5.44-3.1-10 1.24-16-1-7.1-2.63-9-10.86-16-16-5.48-4-9.71-4.78-12-4-.31.11-2.35-3.11-8-15-2.46-5.19-.16-9.89-4-16s-8.26-11.07-9-19 1.65-9.64 2-16c-7.25-7.76-7.85 4.58-15 7s-27.93 13.59-29 4 .23-16.41-5-13-17 11-17 11l-26-5s12.1-24.86-6-8-20.19 23.43-18 19-6-14-6-14c-13.74 14.89-17.81-2.15-26 6s-19 21-19 21-21.27-3.52-27 9-30.47 6.6-37 13-11.74 11-12 19 .62-12.6-13 0-39.45 15.61-42 29l-6 12-12 9a29.52 29.52 0 0 1 0 9c-.14.92-1.14 3.78-1 6 .42 6.6 6.67 8.31 8 14 1.81 7.72-6.87 14.53-4 20 2.14 4.07 8.2 2.57 12 7 2.94 3.42 1.71 7.56 5 10 3.69 2.72 8.64.31 17-1 9-1.42 15.13.11 17 2 2.76 2.78 1.88 6.73 5 9 4.25 3.09 12.83 1 17-4 3.33-4 3.09-10 4-10s1.31 6 3 10c1.93 4.61 6.89 8 7 13 .13 5.76-5.4 8.06-7 14-1.08 4 .69 11.32-2 13-2.23 1.39-5.06-1.27-8 0s-5 5.82-4 9c1.28 4 7.54 4.38 11 8s2.44 7.9 6 10c7.43 4.38 19-8.34 28-4 3.78 1.83 3.7 5.21 8 7 5.34 2.22 11.15-.55 16-3 5.88-3 11.78-6.06 17-9 6.8 2.56 15.26 6.92 22 10z"/></svg>