<svg viewBox="0 0 702.29 374.92" xmlns="http://www.w3.org/2000/svg"><path d="m288.29 374.92c0-16.57-18.68-28.46-15-38 3.28-8.5 20.59-5.6 44.1-11.92 6.43-1.72 21.81-8.21 33.9-13.08 13.56-5.45 21.89-8.83 33-8 17.64 1.32 33.6 17.93 47 13 8.12-3 9.14-13.62 17-26 9.12-14.37 18.09-20.46 17.13-31.81-.67-7.93-8.06-14-6.13-21.19 2.57-9.64 18.06-9.6 25-20 6-9 1.11-18.4 8-25 8.5-8.14 28.53-.12 41-2 15.12-2.27 21.83-12.7 39-12 6.33.26 22.16 2.28 32 14 11.91 14.2 3.92 30.19 16 44 2.92 3.34 13.55 9.66 27 13 11 2.74 19.78 3 25 10 1.27-3.32 8.05-4.7 10-6 8-5.26 11.79-17.9 8-24-1.67-2.7-4.84-3-6-6-1.4-3.57 1.4-7.47 6-14 4.77-6.74 7.29-10.83 12-13-4.74-6.16-7.65-12.84-8-20-.42-8.62 3.4-14.6 4-21 1.06-11.37-4.48-20.71-14-34-9.86-13.76-21.21-28.82-26-32-18.19-12-45.23-7.56-57-24 0 0-26 14.89-37 17s-30-5.58-45-6-24.59-15.55-40-23-28.34 1.9-40 0-23.75-29.35-34-38-30-11.49-47-10-27-1-27-1l-19.55-4.92c.59 1.84-7.32 8.4-17 8.72-4.27.14-9.53-2.71-13.47-.8-6.57 3.2-4.45 14.61-11 21-5.32 5.19-11.33 3.33-18 7-6.39 3.52-9.79 11-17 12-7.93 1.06-13.67-5.82-21-7-3.33-.53-14.13 1.8-25 8a93.82 93.82 0 0 0 -24 19 129.43 129.43 0 0 0 -16 23c-3.07 5.46-7 13.23-16 19-5.3 3.4-9.35 3.24-15 6-8.54 4.18-12.79 8.84-17 7-4.45-1.94-3.52-8.75-8.3-11.83-5.28-3.42-13.68-.87-18.7 2.83s-6.86 8.75-9 15c-1.4 4.06-2.84 8.79-4 11-5.48 10.38-19.29 16.62-24 21-8.85 8.22-13.49 17.4-14 21-.93 6.53 3.24 13.92 0 20-4.09 7.67-14.52 5.68-20 13-5.95 7.93-2 22-2 22s6.16-4.13 22 4c8.92 4.58 12 11.32 22 15 17 6.28 28.31-5.28 52-11 20.6-5 52.08 5.7 69-10 9-8.33 10.65-25.07 22-29 4.64-1.6 16.59 1.08 31 11 11.67 8 20 16.83 25 24 8.39 12 7 20.62 17 31 7.86 8.12 15.49 10.58 17 19 1.29 7.2-4.05 15.05-5 20-1.37 7.17-.36 14.8 3 23a11.22 11.22 0 0 0 -3 6c-.73 5.19 3 9.53 5 12 5.52 7 9.59 14.72 10 22"/></svg>