<svg viewBox="0 0 162.01 123.21" xmlns="http://www.w3.org/2000/svg"><path d="m159 113.31c-4.38-7-6.3-13-4-17 1.85-3.21 7.06-4.13 7-6-.08-2.11-7.23-2.52-11-6-7.12-6.55-4.15-20.93-8-22-2.7-.75-5.45 5.89-10 6-4.85.12-9.54-6.3-11-12-.57-2.25-2.89-12.79-7-17s-10.82.48-13-1-3.69-13.54-5-15-9.27-1.42-13-6-14.37-19.63-14-17c1.08 7.61-13.56 16-25 21a22.24 22.24 0 0 1 5 14c0 3.69-1 9.69-5.17 14.1-6.91 7.3-17 3.54-22.82 10.9-3.66 4.65-.93 8.22-5 13-4.27 5-9.93 3.75-14 9a16 16 0 0 0 -3 10c16-1.28 28.57.14 32 7 1.72 3.44-.11 6.74 2 10 3.35 5.16 14 5.85 33 2 12.23-2.48 19.75-5.35 29-2 7.91 2.86 9.29 7.62 17 11 8.57 3.76 18.9 3.63 29 1a51.81 51.81 0 0 0 16.99-8z"/></svg>