<svg viewBox="0 0 313.45 304.13" xmlns="http://www.w3.org/2000/svg"><path d="m.45 9.12c1.87 2.34 12.72-.92 14-1 5.77-.38 10 .76 12-2 1.43-1.92.48-5.25 2-6a2.72 2.72 0 0 1 3 1c1.34 1.85-1.08 4.72 0 6 1.3 1.55 6.28-.91 12-3a66.93 66.93 0 0 1 14-3c3.34-.37 5.74-.29 8 1 4.77 2.73 4.88 9.93 9 11 2.55.66 4.29-1.59 8-3 3.89-1.49 7.45-.46 13 0 6.25.52 10.64-.42 16.11 1.5a45 45 0 0 1 10.89 6.5c6.64 5.27 9.48 9.92 14.72 9.84 4.05-.05 5.08-3 9.28-2.84 4.59.18 6.13 4 11 4 2.38 0 5.7-.87 6.79-3.11s-.85-4.8-.48-7.56c.47-3.63 3.5-7.09 6.58-7.56 2.45-.37 3.87 1.58 7.11 3.23 1.74.89 7.91 2 10.94 5.31a8 8 0 0 1 1.71 2.68c1 2.62.05 5.05-.73 7.81-.9 3.14-1.09 5.34-.49 6.09 1 1.27 3.54 1.41 8.05.25 4.73-1.22 10.41-5.09 16.1-5.12 3.45 0 5.84 1.11 9.26 2.68 3.09 1.41 6 2.45 9 3.9 4.78 2.26 8.56 2.77 13.17 5.37 5.66 3.18 9 6.44 13.83 5.64 4.23-.71 6.19-4.89 10.13-4.61 4.94.35 6.23 7 11.3 7.46 4 .36 5.51-3.49 9.7-3.46 4.52 0 6.8 4.15 12 8 5.62 2.67 9.28 6 10 10 .83 4.68-3 7-2 12 .7 3.63 3.91 5 4 9 .07 3.43-2.12 7-4 7s-2.83-4-5-4c-2.44 0-3.59 5-6 5-2.06 0-2.71-3.71-5-4-2.62-.33-6.28 3.62-6 7 .18 2.13 2.24 3.16 2 5-.37 2.88-6 3.83-6 6s4.94 2.92 5 5c.06 2.32-6 3.54-6 6s6.46 3.62 7 7c.57 3.57-5.57 6.12-5 10 .34 2.29 3.36 3.48 3 5-.47 2-6.16 1.2-9 4-3.82 3.76-.66 9.52-4 14-3.46 4.65-9 2.71-13 7-4.95 5.28-5.18 16-1 23 2.73 4.59 9.66 7.21 10 12s-5.24 6.67-6 12c-.82 5.76 4.52 9.12 3 14-1.46 4.67-10.39 7.07-14 10s-4.4 5.88-8 9c-4 3.44-7.63 4.47-9 8-2.7 6.93 5.09 12.61 3 20-1.75 6.16-9.07 7.45-10 14a12 12 0 0 0 2 8 6.5 6.5 0 0 0 -5 1c-2.25 1.79-2 5.88-3 6-1.18.14-1.84-5.83-5-7-4-1.47-8.11 5.08-13 4-3.84-.85-4-5.11-8-6-4.52-1-9.41 4.28-11 3s2.16-7 0-10c-1.45-2-4.08-1.15-6-3-2.84-2.73-1-7.32-3-11-2.11-3.89-6-3.95-9-7-3.62-3.65-3.45-8.14-8-11-3.56-2.24-5.54-.64-9-3-4.22-2.88-3.67-7.81-7.89-9.76-3.23-1.48-6.09.76-9.11-1.24-2.49-1.65-4-5.4-3-8s4.07-2.56 5-5c1.31-3.46-2.95-8.73-7-12-3.78-3.05-12-5.67-12-8 0-2.05 5.08-2.75 7-6 2.59-4.39.49-11.49-3-16-4.42-5.7-10.39-5-14-11-2-3.4-1-6.71-4-10-2.86-3.09-6.2-2.81-9-5-2.42-1.88-5.34-6.8-6-15-.55-6.87 1.55-11.21-1.39-15.35-1.79-2.54-3.6-2.28-5.61-4.65-2.26-2.67-2.2-6.32-5-8-3-1.8-5.64.42-9-1-3.7-1.56-3.81-5.05-7-7-4-2.42-8.36-.18-16 1-5.68.88-9.41.48-13 3-2.44 1.71-3.74 4.91-7 6-5.08 1.7-10.18-3.33-14-1-2.16 1.32-2.07 4.6-4 5-2.12.44-5-2.78-6-6-1.38-4.44.57-9.79 4-13 3.78-3.55 7.69-2.58 11-6 2.93-3 3.78-7.86 3-14-5.06-3-12.73-13.67-13-20s2-16 0-21a77.58 77.58 0 0 1 -3.48-16.12c-1.04-6.1-1.35-16.33-1.49-18.88z"/></svg>