<svg viewBox="0 0 332.8 382.07" xmlns="http://www.w3.org/2000/svg"><path d="m24.27 214.07c-3.29-6.22-12.59-2.44-16-9-2.86-5.5.14-10.38 1-19 1-10-.6-17.21-3-22-3-6.06-7.4-9.85-6-13 2.28-5 16.18-.95 20-7 4-6.31-6.63-16.49-3-25 2.4-5.62 9.83-8.61 18-10 6.23-1 10.44 1.16 16-1 9-3.5 14-17.52 18-22 2.83-3.13 13.31-9.21 24-14 6.82-3 13.14-5.07 20-8 10-4.26 19.54-9.6 23-13 11-10.74 11.49-24.52 17-34 8.25 1.37 15 6.17 24 4s23-12.36 32-16 28.27-5.48 33-5 18 3 18 3c5.25 19 13.49 30.89 24 37 16.13 9.39 37.81.43 46 11 6.35 8.21-1.34 27-1 36-8.4 14.43-18 32-18 32a275.64 275.64 0 0 0 -25 25c-13.14 15-22.64 31.4-24 38-3.58 17.38 5.71 30.14-1 47s-20.67 16-27 33c-5.81 15.61 2.49 33.32 2 48a94.39 94.39 0 0 1 -5 27c-17.66-3.76-37.37 21.51-52 28-19.47 8.64-39.1 1.75-58 17a95.17 95.17 0 0 0 -1-41c-3.85-15.18-11.58-20.72-15-36-2.22-9.9 2-31.93-7-41s-22.59-3.06-31-13c-6.72-7.94-1.46-15.77-8-24-5.73-7.21-17.27-9.59-35-13z"/></svg>