<svg viewBox="0 0 573.96 311.16" xmlns="http://www.w3.org/2000/svg"><path d="m568.92 132c-9.74 5-25.88-3.33-35-14-8.16-9.55-8-20.6-12-29-1-2.18-14.34-18-14-29 .32-10.18 6.8-13 7-24 .16-8.57-4.57-14.51-6-21a103.74 103.74 0 0 1 -2-15c-2-.06-2.78 3-5 3s-3.27-3.22-5-3c-2.69.34-2.55 8.59-7 11-3 1.64-5.5-.69-8 1-5 3.4.25 15.91-5 20-3.35 2.61-8.77-.66-11 2-2 2.39-.41 8.27 3 12 4.61 5.05 10.17 3.47 15 8a17.36 17.36 0 0 1 5 16c-.52 2.18-3.26 7.06-9 11-4.14 2.84-11.66 6.61-19 5-7.56-1.66-10.27-9.06-17-9-7 .07-10.55 8.88-17 8-5.06-.69-7.9-7.74-10-7s-.6 10.29-2 16c-2.74 11.2-11.25 18.07-17 21-7 3.58-17.9 2.53-21 3-11 1.68-17.32 5.56-22 2-6-4.53-2-14.74-8-19-6.33-4.51-15.38 3.84-24 0-6.62-3-8-12.06-15-13-2.49-.33-5.26 1.42-8 0s-2.63-4.42-5-6c-4.84-3.24-13.7 1.8-17 4-8.82 5.88-9.05 12.91-17 17-10 5.14-17.34-2.21-29 1-7.53 2.07-11.18 6-16 4-5.31-2.19-6.13-10-10-14-6.21-6.42-14.77-4.61-28-7-7.2-1.3-13.9-5.43-23-5-5.26.25-13.41 4.26-21 2-4-1.18-6.73-3.27-10-2-3.75 1.46-3.68 5.77-7 8-5.6 3.77-11.66-1.55-17 2-5.17 3.43-4.09 13-8 14-3 .73-5.31-4.38-9-4-4.24.44-5.23 7.23-10 9-5.37 2-11.93-2.18-15-5-5-4.62-4.69-9.13-9-14-3.75-4.24-7.06-3.91-11-8-1.9-2-5.13-8.93-10-11-4.49-1.91-8.93-.55-11 0-2.28.61-6.51 1.15-6.51 1.15l-10.41 121.52 58.36 32s17-2.26 21.57-2.67c11.68-1 25.62-5.6 37-2s7.53 18.37 20 19 33 .91 43 15 9.43 26.27 23 35 8.4 9.18 21.18 19.15c4-9.1 11-9.57 15.82-16.15 5.78-7.93 6.1-21.1 8-27 3.19-9.91 8.43-18.56 11-21 10.63-10.1 21-6.13 32-14 10.18-7.31 12.4-21.83 24-25 5.13-1.4 12.63.65 23 6 15.85 8.17 24.77 16.65 35 15 10.57-1.7 17.08-14.94 25-13 6.53 1.59 6.94 11.28 14 13 4.71 1.15 9.19-1.95 12-4 9.47-6.92 16.6-14.53 24-17 13-4.34 21.62 5.4 34 0 8.25-3.6 13.09-14.14 17-18 5.21-5.13 17.33-14.83 33-16 4.91-.37 16.38 2.84 25-1 9.19-4.1 17.62-14.88 17-27a26.73 26.73 0 0 0 -5-14"/></svg>