<svg viewBox="0 0 860 380.51" xmlns="http://www.w3.org/2000/svg"><path d="m765 340-22 5s-2 11.06-7 12-15.3-2.08-23-2 3.79 5.15-1 5-28 7-28 7l-9-6s-4 6.94-15 11-6.36-7.57-12-7-15.47.66-22 3-5.82 1.39-20-1-18.94-5.61-28-4-4.72 6.66-15 7-16.08 2.25-27-3-2.37-16.26-20-16-31 10-41 8-16.93 3.06-23 1-20.55-10.5-30-12-17.18 6.15-30 9-22.47-1.4-31-5-16.13 1.5-19-2-4.36-9.42-6-16-7.11-9.42-12-8-6.79-7.89-13-8-21.63 1.51-25-4-9.34-8.12-14-2-9.41 11.34-15 11-8.09 2.61-9 5a28 28 0 0 1 -6 9c-3.05 3.07-2.74 4.92 0 8s4.36 6.48 10 7 5.89-1.63 10-1 5.89-1.09 7 4 5.79 7.58-3 7-6.09 3.24-11 4-13.52 4.13-19 4-6.28 3.23-11 4-9.49-8.54-16-6-6.14 3.9-13 4-12-3.88-17-1-1.45 5.11-9 8-6-1.77-11 1-8.16-6.57-12-8c0 0-4.66-24.59-8-30s-25.55-22.77-36-28-9.55-19.66-11-31-21.52-7.84-35-20-20-20-20-20-3.22-10.33-6-10-3.56-9.45-6-9-20.57-2.11-25-5c6.68-1.3 28-3 28-3s11.66-4.92 18-3 19.82 8.11 24 7 19.18-3.3 22-3 3.21-3.53 5-3a78.14 78.14 0 0 1 11 4c20.12 9.42 73.54-59.35 74-59a.51.51 0 0 0 0 .24c.38 1.42 40-14.24 40-14.24 32.12 1.06 42.22 13.86 59 8a57.34 57.34 0 0 1 14-3c2.69-.19 12.28 3.79 19 2 5.37-1.43 18.95-19.76 21-26s6.23-16.14 10-25 3-13.84 8-26 3.35-18.73 5-28 2.44-10.87 10-13 17-17 17-17l8-14 19-3s-3.84 12.5-8 18-9.51 13.43-6 17 16.91 6 19 14 6.05 19.23 7 27-.57 12.66 11 16c21.93 6.33 38.32 20.44 76 14 11.23-1.92 24.22-6.9 30-23 3.37-9.4-2-23-2-23l-9-33 90 15 41 9s25.61.64 34 2 37.37 19.28 42 20 22.26 13 27 17 7.55 5.59 18 7c19.64 2.65 19 13 19 13l-11 56 70 63-8 28s-3.47-3.36-16-2-47.16 1-48 7-9 17.08-10 20-12.41 23.55-13 28-6 20-6 20z"/></svg>