<svg viewBox="0 0 663.25 401.11" xmlns="http://www.w3.org/2000/svg"><path d="m68 223c-4.46.15-11.48 2.37-14 5s-11 8-11 8-7.8-7.5-11-7c-4 .62-6.77 4.79-10 13s-5.11 18.67-10 28c-1.18 2.25-9.69 7.65-11 14-1 4.81.61 9.9 4 15l-5 6a133.25 133.25 0 0 0 14 35c4.43 6.3 9.72 10.76 16 13 3.9 1.39 13.3 1.83 14 4 .88 2.77-8.57 5.5-11 12-1.9 5.05-.26 11.18 4 18 0 0-13.76 3.56-7 5s14.69 2 17 4 6.86 3.22 13 3 18.37-4.44 22-3 14.61 1.88 19 3 15.07 1.72 19 2 12.83-.28 15 0 4.23-4.64 8-4a77.79 77.79 0 0 1 11 3s21.62-4.63 29-6 20.2-1.58 24-2 3.49-7.3 6-7 23.55-1.16 29-2 23.41-5.4 27-6 9.65-6.83 4-10c-2.89-1.62-18.34-11.32-18-18 .27-5.31 15.77-5.32 24-13 9.31-8.69 12.25-24.63 13-34 .32-4 .48-10.63 5-14 4.35-3.25 10.19-.89 14.61-5.41.75-.76 1.19-1.36 1.39-1.59 0 0 7.24-8.23 9-12s-5.83-2.95 3-12 45.47-33.26 51-35c23.22-7.32 23.13-17.91 36-28 3.8-3 13.22-5.09 20.15-9.23 5.29-3.17 8.21-4.42 11.91-6.59 4.85-2.84 16.38 3.06 27.33-.2 7.27-2.15 13.86-7.15 23.33-14.45 2.72-2.1 12.3-9 19.65-10.47 4.19-.81 4.42-.8 8.63-.06a56 56 0 0 0 16.1 8.31c5.79 1.86 12.82 4.77 18.9 4.69 6.94-17.49 17.54-26.42 30.85-32.54 8.73-4 23.57-5.92 26.15-6.46 9.34-2 22.59-12.84 42-20 8.14-3 6-6 6-6a141.79 141.79 0 0 0 -14-21c-20.29-25.21-42.77-38.27-53-40-9.35-1.58-16.29-.26-24-6-5.54-4.12-10.76-13.28-17-16-3.77-1.64-8 3-8 3-8.2-3.36-16.48-6.34-25-9-15.65-4.89-30-8-30-8a138.58 138.58 0 0 0 -36-4 133.86 133.86 0 0 0 -14 1 66.72 66.72 0 0 0 -20 2c-10.67 2.76-25 12-25 12s-7.48-10.36-13-5-5.88 10.36-10 11c-8.05 1.25-21 9-21 9 10.57 6.62 18.18 13.41 17 19-1.26 6-12.47 6.5-13 13-.45 5.52 4.83 8.78 9 16 5.6 9.71 6.25 15.92 4 20-2.57 4.66-8.39 4-16 8-4.15 2.17-16 9-16 9s-13.24-7.29-16-8-6.55 5.31-9 4-8.92-19.19-14-18-15 13-15 13l-7-1s-2.73 7-5 7-6.28-2.88-9-6-5.72-7.48-8-7-12.6 14.29-15 14c-4.67-1.42-10-2.14-13 2a35.44 35.44 0 0 1 -7 7s-9.1-7-12-7-4.36 8.53-11 12c-4.88 2.55-6.24.42-8.69.58a5.14 5.14 0 0 0 -3.31 1.42c-3.89 4.53 9.85 17.83 6 28-2.18 5.75-7.43 5.9-11 12a22.87 22.87 0 0 0 -.69 20.51c3.42 7 13.68 11.6 12.69 14.49-.19.55-.66.62-.83 1.28-.69 2.72 3.83 5.72 3.83 5.72l2 3-3 5s1.19 1.58-3 4a50.61 50.61 0 0 0 -11 8c-3 3 2.39 7.78 0 9s-7 1.63-12 1-4.38-3.64-7-4-8.19-3.62-12-5-8.43.81-13 1-11.64 2.65-14 0-.49-5.88-1-9-4.61-2-9-1-7.55 2.41-10 5-5.52-2-9 0-3.07 3.67-5 5-5.17-1.61-7-2-5.29-.18-8-1-4.49-3-5-7z"/></svg>