<svg viewBox="0 0 312.45 239.1" xmlns="http://www.w3.org/2000/svg"><path d="m268.58 239.1s.31-2.23.46-3.37c.53-4.1 1-8.43 1.41-12.73 1.39-14.58.66-27.36 1-42 .42-18.27 5.36-29.77 4-48-.52-7-2-18.85 5.19-28.65 6-8.17 13.2-8.14 19.81-15.35 8.5-9.27 6.4-18 12-27a310.16 310.16 0 0 0 -28-19c-11.62-7-25.15-15.16-31-17-3-.93-11.6-3.87-18-10a40.34 40.34 0 0 1 -9-13 88.26 88.26 0 0 1 -14 9c-8 4.12-15.43 5.93-20 6-7.62.12-13.45-1.29-16-3a29.14 29.14 0 0 1 -11-15c-9 12.28-19.25 21.22-31 27-14.14 7-37.68 5.23-48 18-11.69 14.46 0 32.76-10 51-8.63 15.79-25.25 18.14-36 29-19.13 19.34-17.37 41.29-27 75a244.87 244.87 0 0 1 -12.13 33c-.43 1-1.32 2.88-1.32 2.88z"/></svg>