<svg viewBox="0 0 354.1 302.19" xmlns="http://www.w3.org/2000/svg"><path d="m354.1 188.19c-1-2.43-2.08-4.79-3.26-7.16s-2.51-4.78-3.74-6.84c-2.79-4.68-6.21-9.44-8-11-7.15-6.21-15-4.93-21-12-2.47-2.91-2.93-7.45-7-10-5.21-3.26-10.26-.19-16-2s-7.64-6.95-13-7c-6.49-.06-10.76 7.61-17 10-2.32.89-9.62.94-17 0-10.56-1.35-19.4-4.31-23-7a34.44 34.44 0 0 1 -10-12c-5.93 3.22-12 4.7-18 4-12.47-1.46-20-11.72-26-19-8.61-10.42-16.65-12.66-24-24-3.52-5.42-9-15.28-16-15-4.62.18-6.16 4.6-11 5-8.12.67-18.69-10-18-19 .13-1.68 2.37-6.48 1-8-.87-1-2.7-.49-4-1-2.75-1.08-2.76-3.65-5-5-3.62-2.18-7.85.86-12 0-5.77-1.2-11.19-7.12-12-13-.86-6.25 5.34-12.54 3-16-1.31-1.94-3.86-1-6-3-2.35-2.22-1.54-4.77-4-7a11.15 11.15 0 0 0 -5-2c-4.06-.65-7 .48-12 2-3.27 1-5.92 1.54-8 3-3.65 2.55-3.72 5.29-7 8s-9.52 3.35-10 6 4.32 4.35 5 8c1 5.4-6.25 9.42-7 16-.47 4 1.35 6.38 3 11 2.66 7.46 5.36 19.54 0 27-1.21 1.68-6 4.71-7 9-1 4.08 1.39 6.18 1 10-.53 5.09-4.64 8-10 14-4.57 5.09-6.59 8.88-6 11 1.3 4.71 9.49 4.42 12 10 1.71 3.81-1 6.4 1 10 2.7 4.88 9.42 3.31 12 8 2.32 4.24-1.82 8.09 0 13 2 5.43 9.15 6 10 11 .71 4.2-4.41 7.69-3 11 1 2.39 4.29 1.83 6 4 3.72 4.73-3.35 13.16 0 19 2.52 4.4 7.81 2.78 11 7 4.64 6.16-1.23 14.64 3 22 .92 1.61 4.15 4.82 9 7 6.2 2.78 14.09.87 18 5 2.64 2.8 3.08 7.38 2 13a90.9 90.9 0 0 0 30 5c19.35-.16 31.94-9.2 52.29-7 15.88 1.7 26.35 8.92 34.71 14 17.8 10.85 38.38 19 61 25 16.88-13.37 28.26-28.29 34-45 4.46-13 4.73-24.36 15-33 10.93-9.2 21.52-5.47 33-15 6.12-5.09 10.38-12.19 13-21z"/></svg>