<svg viewBox="0 0 121.98 158.6" xmlns="http://www.w3.org/2000/svg"><path d="m122 114.8a49.87 49.87 0 0 1 -16-15c-9.36-14-5.68-26.89-11-40-5.69-14-14-17.72-19-32a72.91 72.91 0 0 1 -4-27c-3.76-.8-7.52-.31-11.29-.5-6.25-.3-12.57-.58-15.3.26-7.19 2.21-9.1 4.76-15.77 9.75-5.38 4-6.8 5.39-17.66 9.49a35.26 35.26 0 0 1 13 19c1.56 6 1.78 14.19-3 25-5.92 13.37-15.11 14.73-19.98 27-4.82 12.09.19 23.72 4 43 1.24 6.26 2.22 12.53 3 19 6.88 4.83 12.91 7.14 17 5 3.19-1.67 4.21-6.81 7-7 3.26-.23 5.62 6.48 8 6s1.76-8.66 6-12c3.26-2.57 7.4-1.55 13-1a56.52 56.52 0 0 0 13 0c7.34-1.05 14.88-3.81 20-9 4.12-4.18 5-10.34 11-14 3.85-2.35 8.91-2.58 13-4 1.66-.58 3.32-1.25 5-2z"/></svg>