<svg viewBox="0 0 458.1 176.32" xmlns="http://www.w3.org/2000/svg"><path d="m13.88 0c6.49 16.61 23.41 25.21 38 29 28.63 7.44 45-14.26 73-9 29.67 5.58 38.08 33.92 67 46 12.15 5.07 41.79 9.13 76.42 1.29 20.08-4.55 50.38-23.41 82.58-46.29 12.32 12.18 51 51 51 51 17.76 14.27 36.52 22.41 56 22 .93 12.11-.95 21.44-7 26-8.36 6.3-27.39-.38-35 0-18.51.92-26.16 11.58-45 22-23.47 13-65.67 16.17-73 18-16.54 4.14-29.71 9.94-44.57 15.4l-2.52.92-243.79-2.73s-.18-.37-.58-1.37c-5.42-13.66-2.69-31.83-3.54-57.22-.9-27-5.35-45.37-1-72a203.74 203.74 0 0 1 12-43z"/></svg>