<svg viewBox="0 0 347.32 191.43" xmlns="http://www.w3.org/2000/svg"><path d="m0 164.31a37.21 37.21 0 0 0 13 10c13.4 6.07 30.6.38 39 1 17.19 1.27 23.07 10.34 39 14s32.8 2.44 50-3c0 0 20.12-6.18 31-5s20 2 20 2c9.75-7 25.79.63 32-7 .75-.92 1.64-4.77 2-9 .71-8.3-.85-14 2-16 3.19-2.28 8.9 2.09 15 1 4.26-.76 6.6-2.29 8-4 3.65-4.47.92-9.95 4-15 2.93-4.8 8.77-6.92 13-7 6.33-.12 10.85 4.2 17 10 6.82 6.42 12.2 11 18 13 3.7 1.3 13.45 2.22 24 0a65.93 65.93 0 0 0 17-6c.52-3.43 2.28-4.82 3-8 1-4.33-.44-7.77-2-12-3.25-8.78-4.17-14.72-8-16-4.06-1.36-8.21 2.73-11 1-3.35-2.07-2.3-10.79 0-18 1.68-5.28 9.23-15 8-22-1.14-6.51-8.2-8.81-8-15 .19-6 7.68-8.79 7-14s-8.52-6-10-12c-.83-3.38 1.61-7.6 0-9-1.82-1.57-6.1 2.17-10 1-4.14-1.24-4-5.69-8-7-4.78-1.57-8.82 3.81-13 2-3.84-1.66-3.33-7.87-7-9-3-.92-5.41 2.8-9 3-5.86.32-8.84-6.52-15-8s-9.81 2.66-16 3c-6 .34-12.51-3.81-18-1-4.4 2.25-5.27 8.09-10 9-3.24.62-4.81-1.87-8-1-4.1 1.13-4.88 6.83-8 7-3.45.19-5.57-6.9-11-9-1.39-.53-5-1.64-7 0-3 2.42-.19 9.16-3 11-2.06 1.35-5.13-1.39-7 0-2.33 1.73.5 7.37-2 10-2.18 2.3-6 .14-9 2-4.72 2.91-2.94 11.27-7 13-1.83.78-5.16-1-10-3-2.81-1.17-5-2-7-1-3.47 1.73-2.68 7.7-6 9-2.55 1-4.8-1.82-8-1-2 .51-3 2-4 3-3.62 3.88-12.26 4.84-15 6-1.6.67-8.8 6.17-14 6-5.72-.19-8.41-4.37-14-4-4.56.3-7.38 4.12-13 9-4.58 4-8.76 6-11 10-2.6 4.66-2.74 14-6 15-2.44.75-4.7-2.88-7-2-2.74 1-1.84 7.43-5 11-2.46 2.77-5.79 2.65-8 4-8.63 5.26-6.8 19.12-13 28-3.35 4.8-8.7 6.41-11 13-2 5.69.63 14-3 17"/></svg>