<svg viewBox="0 0 366.43 214.85" xmlns="http://www.w3.org/2000/svg"><path d="m337.52 10.17a194 194 0 0 1 -42 0c-23.68-2.64-42.15-9.09-64-1-5 1.84-8.84 3.74-14 5a73.7 73.7 0 0 1 -34 0 87 87 0 0 0 -15-3c-10.7-1.18-21.07-.36-26 1-9.5 2.62-16.86 7.46-22 4-3.4-2.28-3.3-6.8-6-10a16.09 16.09 0 0 0 -15-6s-6.88 15.91-13 21c-11.48 9.53-22.07 5.8-33 15-10.27 8.64-10.54 20-15 33-5.74 16.71-17.12 31.63-34 45-4.49 9.58-5.92 19.71-3 29 6.22 19.77 29.43 27 38 29 30.91 7.14 45-14.26 73-9 29.67 5.58 38.08 33.92 67 46 12.15 5.07 41.79 9.13 76.42 1.29 20.08-4.55 50.38-23.41 82.58-46.29 10.55-7.5 23.36-17 27-33 4.53-19.93-8.83-35-18-57-8.01-19.17-11.28-40.5-10-64z"/></svg>