<svg viewBox="0 0 433.28 276.78" xmlns="http://www.w3.org/2000/svg"><path d="m91.28 254.67c8.85-4.71 17.4-6.52 25-4 8.43 2.79 14.61 12.59 19 16 6.82 5.3 17.83 11 30 10 7.19-.6 16.57-3.78 27-14 4.53-4.44 10.57-12.93 15-24 4.23-10.59 4.4-18.16 11-24 10-8.85 17.45 4.83 25 7s9.88 6.5 16 8a36 36 0 0 0 16 0c-1.72-8.78 15.5-18.1 44.11-35.53a319.62 319.62 0 0 1 39.89-19.47c23.33-9.27 28.18-8 36-8 .2-4.06.52-9 1-13a148.4 148.4 0 0 1 13-46c8.46-18.16 17.29-25 24-28-.34-11.84-3.46-21.1-10-27-8.4-7.59-16.95-4.16-25-12-8.42-8.2-5.08-18-13-28-6.29-7.95-17.46-14.88-25-12-8.19 3.12-6.6 15.7-15 20a26.78 26.78 0 0 1 5 14c.61 12.11-7.82 22.9-17 27-8.62 3.84-20.09.63-25 1-15.67 1.17-27.79 10.87-33 16-3.92 3.86-8.76 14.4-17 18-12.39 5.4-21-4.34-34 0-7.4 2.47-14.53 10.08-24 17-2.81 2-7.29 5.15-12 4-7.06-1.72-7.48-11.41-14-13-7.92-1.94-14.44 11.3-25 13-10.24 1.65-19.15-6.83-35-15-10.37-5.35-17.88-7.4-23-6-11.6 3.17-13.83 17.69-24 25-11 7.87-21.37 3.9-32 14-2.58 2.44-7.81 11.09-11 21-1.9 5.9-2.22 19.07-8 27-4.8 6.58-13.79 8.74-15.83 16.15-2.56 9.33 6.16 20.51 16.83 29.85s21.62 13.06 26 13c12.62-.16 20.65-12.28 31-10 7.37 1.62 12.89 9.71 17 22z"/></svg>