<svg viewBox="0 0 538.48 473.53" xmlns="http://www.w3.org/2000/svg"><path d="m537.84 17.51c-5 3.35-9.18 5.61-10 10-.69 3.76 1.82 6.4 2 10 .27 5.1-4 10.12-5 13-1.62 4.66-.42 10.3-4 15-3.44 4.53-7.66 4.67-11 8-5.19 5.22-4.7 12.12-5 24-.39 16.37-2.14 25.86 4 31 1.62 1.35 7.08 2.92 8 6 1.44 4.79-6.38 9.73-7 17-.29 3.59.63 8.85 4 11 4 2.56 10-1.25 12 1 1.47 1.63-.35 5-3 11-2.92 6.6-4.27 11-8 13-4.23 2.29-8.66.17-12 3-4.62 3.93-1.19 13.28-4 20-3.09 7.42-11.84 11.56-15 15-2.83 3.1-8.46 15.74-11 30-1.65 9.32-2.4 21.92-3 27-1.45 12.46-3.66 25.85-7 26-4.14.19-6.9-20.27-11-20-2 .14-3.74 5.28-4 10-.35 6.8 3.48 14.63 4 17a36.24 36.24 0 0 1 0 14c-1.34 7.75-4.84 11.38-6 19-1.07 7.1.59 14.8 4 22 3.61 7.58 8 10.83 8 18 0 4.73-2.27 6.28-2 11 .35 5.84 5.06 9.13 4 14s-8.59 7.25-12 11c-4 4.39-3.67 9.11-9 13-5 3.64-11.16 4.22-15 4-2.74-.16-6-1.93-9-1-7.27 2.28-7.21 14.3-14 16-4.25 1.07-7.34-3.47-11-2-6 2.44-4.54 18.38-8 19-2.54.46-4.77-8.07-10-9-4.88-.87-8.34 5.27-13 4-3.45-.94-3.44-4.85-7-6s-7 2.11-13 4c-6.31 2-10.28 1.52-12 0-2.77-2.46-1.28-7.33-4-9-3.36-2.06-8.74 3.63-14 2-3-.92-3.48-3.41-6-5-5.64-3.56-12.16-.1-16-4-3.24-3.28-1.29-9.79-4-11s-6.06 4.51-10 4c-6.86-.88-7.76-17-16-19-4.1-1-7 2.73-11 1-4.31-1.85-3.87-7.38-8-9-3.83-1.5-11.59 3.58-13 4-8.72 2.58-12-2.37-21-1-3.35.51-12.82 5.42-16 3-3.64-2.77-.3-10.18-4-13-3.52-2.67-10.22 2-16 1-2.86-.5-9.36-4.77-15-13-4.9-7.14-6.1-12.75-11-14s-9.6 3.91-13 2c-4.81-2.7-1-16.2-5-18-2.71-1.21-6.38 4.22-11 4-5.3-.24-8.09-6.3-13-12-3.41-4-15-16-27-14-6.47 1.09-7.89 5.5-15 7s-9.88-1.57-17-1c-4.57.37-7.75 2.55-13 2-5.93-.62-11.27-3.9-16-9 2.11-4.39 4.13-8.76 6-13 2.73-6.21 4.48-10.36 9-13-5.12-6.29-4.34-2.42-8-8-4.27 2.8-10-27.63-11-34s1-28.5-6-41 7.71-53.23 16-63 30.61 3.73 48 8 46.33 8.47 53-4 24.18-13 29-24 2.47-19.7 3-34c6.15 2.91 15.27-7.69 25-10 8.61-2.05 14.16-.15 19-5 3.56-3.57 2.83-8.2 7-11 5.21-3.5 11.47.77 16-3 3.56-3 2.94-9.68 5-10 2.46-.38 4.72 8.72 9 9 4.08.28 6.36-7.33 10-7 5.34.49 6.22 17.49 11 18 3.57.39 7.86-8.6 10-15 1.78-5.35 2.7-10.74 5-11 2.78-.31 4.92 7.29 8 7 3.47-.32 3.84-10.33 9-12 3.85-1.25 6.54 3 11 2 4.23-.94 5.17-5.75 9-6 4.58-.3 6.82 6.41 11 6s5.21-7.75 10-11c4.15-2.8 8.64-1.31 12-5s2.08-9.92 3-13c3.53-11.72 19.37-13.8 20-23 19.19-.34 29.91-1.6 44-7s39.54-16.47 47-9 32.19 24 40 20 52.46-9.32 46-5z"/></svg>