<svg viewBox="0 0 500.44 437.27" xmlns="http://www.w3.org/2000/svg"><path d="m0 363.93a24.66 24.66 0 0 1 8 10c1.2 2.87 1.05 5.78 3 9 3 4.94 7.78 5.26 14 9 5.07 3 7.22 6.47 12 7 3.34.37 7.84-1.85 11 0 3.68 2.14 2.73 7.38 6 11s6.24 2.52 10 6c3.06 2.82 2.88 5.26 6 8 4.31 3.78 8.77 2.85 13 5 3.94 2 8.28 8.4 13 8 3.69-.31 5.51-3.76 9-5 1.57-.55 6.62-.62 12 1 6.88 2.07 10.68 5.42 15 4 3.47-1.14 6.09-4.67 7-8 1.66-6.06-3.61-12.2-1-16 1.85-2.69 5.46-1.22 8-4 2.78-3 1-7.91 4-10 1.79-1.26 3.86-.29 6-1 4.13-1.38 7.71-6.29 7-10-.84-4.39-7.76-5.24-8-9-.2-2.95 5.68-5.94 8-9 1.74-2.3 2.16-4.27 4-5 4.77-1.89 12.46 4.32 17 10 2.78 3.48 3.66 6.21 7 8 5 2.68 9.7-.18 14 3 3.24 2.4 2.75 6.72 6 8 4.5 1.76 9.06-4.76 14-3a3.08 3.08 0 0 0 1-1c8.35-12.76 10-20.26 6-29-2.3-5-6.2-6.7-9-11-6.9-10.6-6.82-27.64 1-37s19.28-5.63 29-13c12.73-9.65 12-26.08 21-38 10.17-13.46 25.4-20.24 35-23 7.53-2.17 23.24-.71 33-8 11.68-8.73 11.39-22.42 17-41 5.1-16.89 13.48-32.07 18-37 13.79-15 43-20.42 47-37 2.94-12.07-9.54-21.78-5-32 3.22-7.25 14.95-11.51 37-13 18.74-1.27 44.21 2 40 1 5.08-9.55 6.32-22.8 1-33-3.43-6.54-9.55-9.92-18-16-12.16-8.74-19.16-16.23-20-22-19.72-2.43-36.62-.09-51 7-15.64 7.71-25.78 19.64-36 16-9.87-3.51-9.18-17.77-19-22-12-5.17-28.57 8.29-39 17-24.32 20.32-40.39 32.93-61.18 35.55-8.23 1-31.2 2.27-45.82-11.55-6.83-6.45-8.33-15.63-17-21-9.89-6.13-23.66-4.27-47 5a321 321 0 0 0 -39.9 19.47c-28.6 17.43-45.82 26.75-44.1 35.53 1.88 9.61 23.65 9 29 22 4.73 11.51-6.19 22.82-14 42-4.46 10.95-7.74 25-8.32 42.85-.37 11.67.85 24.92 3.32 39.15 2.8 16.17 6 26.11.35 36.45-7.55 13.85-23.35 13.11-33.76 24.95-11.7 13.31-10.28 32.48-16.59 46.6a99.65 99.65 0 0 1 -19 28z"/></svg>