<svg viewBox="0 0 697.71 333.44" xmlns="http://www.w3.org/2000/svg"><path d="m163.68 306.77a27.06 27.06 0 0 1 6 4c3.93 3.5 5.85 7.5 9 13 2.53 4.36 4.42 7.27 8.07 8.73 2.7 1.08 7.27 1.67 10.93-.73 4.39-2.88 3.37-7.72 7-11 5.31-4.8 12.61-.86 19-4 9-4.42 13.14-21.66 16-26 2.64-4 13.76-12.89 26-20 12.67-7.37 24-10 28-9 6.06 1.56 12.46 9.43 19 8 4.44-1 7.05-5 8-7 2.75-5.71-.8-10 2-15s9.11-4.78 13-8c7.38-6.11 5.76-16.32 10.37-24.1 10.19 2.72 25.63 8.1 25.63 8.1a27.6 27.6 0 0 0 9 1c5.05-.27 8.21-.38 9 0a2 2 0 0 1 1 1l19 5s10 2.49 27 1 36.75 1.35 47 10 22.33 36.11 34 38 24.59-7.45 40 0 25 22.58 40 23 34 8.11 45 6 21.55-8.68 37-17c-6.63-9.25-7.66-22.86-4-33 4.64-12.85 18.87-16.92 20-29 1.05-11.29-10.74-16.51-9-28 1.38-9.15 11.76-12.71 11-20-1.12-10.67-23.85-12.08-28-25-4.22-13.12 13.74-26.23 9-36-5.82-12-37.65-1.76-49.82-16.83-7.65-9.48-7.14-26.61-.18-37.17 5.73-8.7 17.13-9.81 20-19 3-9.5-6.27-16.73-3-26-7.89-.27-10.32-5.52-18-5-8.16.55-14.92 9.21-19 7-2.74-1.49-2.11-7.43-4-11-3.67-6.94-12.91-11.44-20-10-6.19 1.26-13.81 12-15 13a41.8 41.8 0 0 1 -20.2 9.84c-8 1.35-13.73-.28-15.8-1.84-6.33-4.81-3.82-13.29-10-19-5.55-5.14-14.29-5.49-20-4-6.38 1.67-8.26 5.62-14 8-6.62 2.74-10.26.62-17 3-9.62 3.39-10.63 9.78-19 14-9.41 4.74-20.25.91-27 8-1.81-4.84-1.36-5.76-5-10-3.58-9.47-33.71-7.22-47-11s-32.19 14.82-53 14-28.57-16.72-38-17-34.73 2.29-48 6c-11 3.08-31.44-6.28-33-7-11.28-6.4-18-5.07-25-2s-7.88 7.87-15 11c-6 2.61-12.68 1.66-23 0-8.43-1.36-14.2-2.17-21 0-7.23 2.3-11.68 6.6-15 10-9.05 9.24-15.13 17.76-24 23-8.44 5-16.38 6.91-21 7-5.64.1-15.07-4-23-1-5.85 2.19-10.82 9.21-13 11-8.29 6.78-15.58 9.23-22 9a75.19 75.19 0 0 0 2 30c5.25 19 13.49 30.88 24 37 16.13 9.38 37.81.42 46 11 6.35 8.21-1.34 27-1 36 1 25.54 20.53 44.68 28 51 16.65 14.07 37.68 13.11 52 31 7.42 9.23 11.16 20.86 12 34z"/></svg>