<svg viewBox="0 0 469.19 321.01" xmlns="http://www.w3.org/2000/svg"><path d="m264.64 0s-24 20.61-33 27-22.26-1-34 2c-5.56 1.41-19 4.88-24 14-5.58 10.15-2.68 26.14-8 30-10.1 7.33-27.76-11.92-41-11s-44.43 7.27-53 10-25.81 18.85-37.83 24.86-10.09 30.14-16.17 37.14c-10.3 11.86-22 27-16 42s29.31 17.63 34 26-13.71 17.46-20 22-1.52 26.1 0 30 19.51 4.51 26 10 19.48 21.14 21 18c2.84-5.89 10.4-9.94 14-8 3.84 2.08 1.22 10 6 14 3.12 2.59 7.33 2.27 9 2 1.92-.31 6.24-2.39 10-7 2.59-3.2 3.79-6 6-6 2.63 0 4.37 4.43 6 4s.91-4.85 3-7c3-3.09 8.19-.39 16 0 4.52.22 15-2.91 17 0 2.37 3.36-3.52 10.69-2 12s8-3.65 11-6c3.88-3 7.25-6 10-5 3.27 1.24 3.58 8 5 8s1.63-7.73 5-9c2.75-1 6.83 2.2 11 7 5.1 5.86 6.89 11.12 10 11 3.61-.14 4.72-7.33 9-8 2.19-.34 5.74 1.72 10 7 2.44 3 3.34 5.19 6 6 3.82 1.16 6.22-2 10-1 4.19 1.11 4.37 5.89 8 8 7.26 4.24 17.05-4.36 23 0 3.55 2.6 2.77 9.15 6 10 2.65.7 4.7-3.22 8-3 4.43.3 7.28 7.58 9 7 1.14-.39.39-3.95 2-6 2.2-2.81 7.38-2.92 11-2 7.9 2 10.75 11.3 16 11 4.69-.27 7.9-12 12-17s8.12-7.86 8-13c-.08-3.35-3.19-6.65-2-10 1-2.88 4.24-3 5-6 .68-2.68-1.5-4.19-1-7s2.73-3.42 5-6c4.07-4.64 3.31-12.51 6-13s5.71 6.66 8 6c1.53-.44 1.08-3.93 3-5 2.82-1.57 6.95 3.35 10 2 3.75-1.67 2.14-11.09 5-12s7.07 8.86 14 10c5.62.92 11.72-3.11 15-7 1.51-1.8 3.65-8 7-9 3.93-1.18 6.73 3.2 11 2 2.87-.81 3.11-3.34 6-4 3.72-.85 8.52 2.19 11 6 3.2 4.92 1.12 12.18 5 15 1.24.9 2.47 1 4.38 1.09 2.72.19 5.65.5 8.62.91 0 0 4.8-18 9-26s-1.09-11-4-14-7.17 4.08-23 5-14.42-7.08-26-17-10.83-15.85-13-24-1.75-10.33-5-14-10.19-.82-15-7 4.81-9.5-8-15-6.8-1.22-14-3-14.64-7.18-20-9-7-14.43-8-28 5-7.71 6-16 5 1 5 1 9.64-16.8 12-22-8-13.28-3-22 6.8-9.2 12-19-14.3 3.59-26-1-26.64-17.38-36-20-37-4-37-4z"/></svg>