<svg viewBox="0 0 516.74 466.55" xmlns="http://www.w3.org/2000/svg"><path d="m481.27 0s4.94 12.89 9.88 17.09c6.06 5.16 11.46 5.78 14 12 2.87 7-1.86 11.48 1 19 2 5.37 5.45 5.78 8 11 3 6.18 3.86 15.25 0 22-2.85 5-6.73 4.91-9 10-3 6.63 1.36 12.54 0 20-.68 3.67-2.73 10.31-8 14-6.81 4.74-13 .63-20 4-9.71 4.67-11.54 19.6-19 20-4.14.22-5.81-4.22-11-5a16.82 16.82 0 0 0 -14 5c-4.15 4.38-4 12.32-7 13-3.38.76-6.46-7.7-12-8-4-.22-8.1 3.42-10 7-2.72 5.11.15 10-3 14s-8.67 2.18-11 6c-3 4.87 3.75 12.76 1 16-2.09 2.44-8.28-.42-13 1-7.17 2.14-13 10.56-13 18 0 6 4.11 8 4 14-.14 7.1-6 14.91-13 17-7.34 2.18-15-4.14-19-1-4.38 3.45 1.32 13.77-3 21s-12.4 5-18 12c-4.92 6.13-2.11 12.68-8 18-3.88 3.5-9.1 2.61-12 7-3 4.6.3 8.84-2 14-2.66 5.9-9.37 6.13-11 12-1.32 4.77 2.62 8.56 3 13 .89 10.23-9.14 16-11 26-1.1 6 .51 16.46 9 29 8.81 13 21.46 21.41 28 20a75.56 75.56 0 0 0 2 30c-2.22-1.4-13.27-2.52-18-3s-24 1.36-33 5-22.95 13.83-32 16-24-4-24-4 19.41-17.32 18-29c-1.71-14.2-22-24.23-32-24-7.4-5-12.8-10.92-16-18-5.84-12.9.53-23.44-6-33-11.51-16.85-46.8-5.28-54-19-5.2-9.92 12.9-28.9 17-47 3.29-14.54-1.65-21.84 3-36s12.49-21.93 9.1-31c-1.43-3.85-8.31-10.1-21.1-14-10.35-3.16-33.33-2.12-37-9-4.42-8.28 11.6-21.14 7.16-31-4.26-9.5-24-7.27-26.16-15-2-7.26 14.47-14.23 15-25 .69-14-21.77-29-42-36-15-5.14-25-4.45-33.29-13.56-10.31-11.35-9.63-29.8-7.72-40.91a64.46 64.46 0 0 1 13-29.53 80.44 80.44 0 0 1 8-8.06z"/></svg>