<svg viewBox="0 0 190 285.15" xmlns="http://www.w3.org/2000/svg"><path d="m97 244.4c13.26-3.26 11.6-16.34 17-25.41 1.4-2.37 6.07-16.22 14-22 6.12-4.46 11.86-4.79 14-10.22 1.86-4.7-1.29-7.4.64-12.49 1.82-4.8 5.29-4.41 7.15-9 2.14-5.23-1.6-11.8 1.39-14.55 1.69-1.54 3.65-.31 5.82-1.73 3.12-2.05 2.4-6 5-8.66s5.53-2 10-3.34c5.21-1.54 8.72-3.85 11.05-6.58 4.42-5.2 6.95-14.42 6.95-14.42-.84-13.14-4.58-24.73-12-34-14.26-17.82-37.87-17.4-52-31-21.32-20.51-23.25-28.49-28-51l-18 32a275.64 275.64 0 0 0 -25 25c-13.14 15-22.64 31.4-24 38-3.58 17.37 5.71 30.14-1 47s-20.67 16-27 33c-5.81 15.61 2.49 33.32 2 48a94.45 94.45 0 0 1 -5 27 151.43 151.43 0 0 1 22 16c10.63 9.33 16.52 17.64 28 19 12.89 1.53 25-9.34 35-12l8-1s1-22 4-27.6z"/></svg>