<svg viewBox="0 0 694.87 410" xmlns="http://www.w3.org/2000/svg"><path d="m190 410c-3.57-5.54-16.1 1.46-18-2-2.22-4 4.64-9.84 3-16-1.83-6.88-12.58-8-18-14-6.72-7.37-4.3-17-12-22s-14.69 1-23-3c-10.84-5.25-9.11-19.22-19-23-11.58-4.42-25.92 12-34 7-5.81-3.62-2.33-15-8-18-5.84-3.12-17 7.42-26 9-11.69 2.05-22.16-5.22-35-16 2-5.57 3-7.91 7-11 5-3.84 14.63-4.6 17-10 2-4.52-1.94-8.75-1-15 .7-4.58 2.25-7.27 4-9 4.71-4.63 10.57-2.29 16-6 4.13-2.82 4.34-7.32 9-9 5.77-2.08 9.41 2.89 15 1 5.3-1.8 6.52-8.15 12-12 4.64-3.26 7.94-3.81 10-3 4.68 1.84 3.48 9.28 8 12 7.19 4.32 18.19-8 30-6 6.31 1.06 11.71 7.84 17 6 6.81-2.38 5.78-14.41 13-17 3.41-1.23 6 .79 11 2 7.35 1.78 10.54-1.3 18 0 5.37.94 13.38 6.71 21 5 3.7-.83 5.48-2.66 9-5 3.75-2.5 16.76-10.35 23-6 4.89 3.41 3.54 13.85 5 14 1.77.18 3.63-15.14 9-16 4.67-.75 8.84 9.88 13 9 5.2-1.11 4.88-19.45 9-20 2.69-.36 4.54 7.36 9 8 4.82.69 10.86-6.33 13.63-13.36 2.29-5.76 1.06-10.44 4.37-16.64 2.37-4.45 5.78-8.47 10-9s6.54 2.89 11 3c4.21.1 7.45-2.56 13-6 3.67-2.27 6.16-3.51 7-3 4.06 2.45-6.82 22.48-2 26 3.07 2.23 12.32-2.06 15-9 2.9-7.45-4.18-14.08-4-23 .08-3.47 3.32-10.28 1-15-3-6.12-11.61-5.84-13-11-1.42-5.34 5.49-14 13-15 6.7-.9 12 6 16 4s5.05-11.52 1-16c-4.92-5.47-16.85-.88-19-5-1.89-3.64 7-9.84 8-18 .78-6.08-3.65-11.42-1-17 2.07-4.31 7.37-7.43 12-7 6.41.59 10.78 8.68 12 8s-3.51-10.23-3-19c.26-4.45 2.52-9.09 5-15 3.23-7.7 5.17-13.37 9-16 8.61-5.89 21.88-2.3 22-3s-9.54-2-13-8.13a6.87 6.87 0 0 1 -1-3.87c.17-2.5 2.71-5.83 9-9 4.5-2.27 8.76-3.57 16-7-4.84 4-6 21.39 12 29a42.68 42.68 0 0 1 5.93 21.2c0 6.72-5.37 17.71-1.93 22.8 4.15 6.15 16.91 4.53 33 2 13.19-2.08 22.05-3.42 32-1 13.38 3.25 19.7 12.37 29 17 15.24 7.59 34.89 3.63 48 17 7.26 7.4 5.17 13.2 13 20 12.79 11.12 28.82 4.16 40 16 6.08 6.45 3.8 11.48 9 19 9.17 13.27 20.76 11.42 31 23 8.7 9.85 23 23.5 16 27a168.56 168.56 0 0 0 -24 15c-7.9 5.93-24.24 25.33-33 30s-24.4 11.68-33 21a279.24 279.24 0 0 0 -17.62 22.07c-.87 1.22-1.38 1.93-1.38 1.93-11.11 6.18-20.94 8.22-29 5-9.33-3.73-10.32-12.66-20-16-9.18-3.17-20.77 3.31-28.55 3.92-8.83.71-25.3.31-32.63-9.32-3.4-4.46-3.25-12.39-7.82-14.6-6.9-3.34-17.14 9.45-29 11-12.59 1.64-18-6-32-6-11.21 0-19.94 2.81-26 8-7.63 6.53-6.08 12.58-13 19-11 10.19-25.08 5.12-38 13-3.83 2.34-12.38 11.75-19 23-5.87 10-7.29 17.74-14.12 21.2-12.4 6.27-25.66-5.79-40.88-1.2-7.28 2.19-12.47 9-17 12-10.79 7.2-26.07 8.91-37 21a50 50 0 0 0 -10 17z"/></svg>