<svg viewBox="0 0 364.37 540" xmlns="http://www.w3.org/2000/svg"><path d="m31 426c-3.46 4.1-6.78 8.24-9.74 12.19-1.07 1.43-2.1 2.84-3.13 4.28-2.49 3.47-4.83 6.93-7.13 10.53-4 6.18-7.61 12.48-11 19 9.22 1.65 5.92 2.83 21 4 17.72 1.38 40.88-10.45 55-1s11.06 32.64 25 38c10.12 3.89 18.62-6.13 31-5 16.42 1.49 21.79 17 37 23 14.89 5.89 33.28-1.36 43 9a83.93 83.93 0 0 1 -23-32c-5.74-14.39-5.15-25.78-3-30 4.94-9.69 16.47-9.75 24-17 10.43-10.05 8.7-25.87 21-32 4.9-2.44 13.72-1.13 17-6 3.13-4.66-.88-10.15 1-16 2.75-8.57 12.3-8.61 14-16 2.19-9.55-13.07-17.93-16-31-2.65-11.8 4-16.1 3-28-1.54-18.3-17.09-24.29-16-40 1.23-17.84 22-22.15 23-40 .89-15.32-15.36-22.5-13-36 2.78-15.91 31.19-19.16 45-35 12.55-14.4 11.18-35.49 29-47 7.85-5.07 17.06-7.15 27-7l19-3c.8-4.93.37-8.88-2-11-1.77-1.58-3.92-.88-6.37-1.92-2.72-1.15-4.6-2.56-9.63-5.08-8.27-4.14-18 .89-25.73 0-15-1.79-23.69-15-30.27-21-29.55-26.91-62.07-53.25-81-63-5.09-2.62-18.46-9.14-22-22-8.23 12.53-13 25.91-13 40 0 11.2 3.67 17.88 5 29 1.13 9.52.09 16.59 2 26 1.73 8.53 4.8 14.58 7 23 4.61 17.62 3.56 31.89 1 36-7.62 12.23-23.42 10.5-34 22-7.41 8.05-7.12 18.61-12 32-2.23 6.13-9.05 17.45-11 29-2.26 13.4 1.42 22.66 1 35-.47 13.8-5.15 21.24-4 35 1 11.7 8.44 31.9 9 34 2.12 8 3.72 15.88 3 26-.9 12.59-5.46 29.34-14 31-6.08 1.18-9.92-6.21-17-6-7.88.23-12.8 8.4-21 19-9.4 12.15-17.4 18.93-25 21-6.66 1.81-14.35 1.32-22-1a45.89 45.89 0 0 1 -11-5z"/></svg>