<svg viewBox="0 0 569.15 309.36" xmlns="http://www.w3.org/2000/svg"><path d="m562 133c-1.08-4.78-.77-8.78 1-12 1.63-3 5.19-4.44 6-8 1-4.42-3.32-6.22-2-11-4.78-4.45-30.63-19.14-35-27s-9.08-35.76-13-44-21.85-25.8-27-31c-2.61 2.6-3 5.46-4 9a33.77 33.77 0 0 1 -4 9 23.81 23.81 0 0 1 -8 7c-3-1.95-5.68-2.74-8-2-3.82 1.22-4.07 5.9-8 7-2.56.71-4.81-1.29-7 0-2 1.16-2.29 4.76-3 6-1.36 2.35-6.85 5.21-16 6-6.13.53-10.14-.44-14 2s-4.1 6.62-8 8c-5.55 2-10.32-4.33-17-3-1.2.24-4.25 1.9-7 4a54.74 54.74 0 0 1 -5 4c-3.59 2.21-9.36 4.24-12 2-2.26-1.92-.56-5.57-3-8-2.07-2.07-6-2.35-7-1-1.5 2 3.67 6.76 2 10s-8.21 1.68-10 5c-.75 1.38 2 8 2 8a29.78 29.78 0 0 1 -6 3c-2.87.93-12 4-12 4s-10.55 3.58-10 4-3.29 6.17-7 11c-6.35 8.26-12.6 12.84-17 14-5.56 1.46-8.89-.55-14 0-10.6 1.15-14.39 8.37-24 11-8.86 2.43-12.89-1.19-22 0-7 .91-17.49 7.52-27 5-4.5-1.19-7.37-4.85-13-5-8-.22-10.47 6.28-18 7-8.75.84-14.06-7.38-22-5-4.94 1.48-7 7.38-11 7 0 0-1.15 6.19-2 13s3.54 16.18 3 23-6.13 12.43-6 13-11.06 6.23-25 5c-11.26-1-17.29-5.85-29-7a31.56 31.56 0 0 0 -16 2 36.65 36.65 0 0 0 -10 7c-2.44 2.35-8.49 13.05-14 14-6 1-9.12-5.24-15-4s-7.2 9.4-13 10c-4.65.48-6.7-4.67-11-4-6.11.95-6.61 12.19-14 15 3.51 8.37 9 9 12 14s2.73 17.24 5 24 7 23.17 6 26a20.82 20.82 0 0 0 -1 9 22.82 22.82 0 0 0 12 18c9.09 4.66 18.71 1.57 24-2 8.66-5.84 7.78-14.22 16-21 6.24-5.15 10.71-3.55 17.54-7.9 6.33-4 13.79-15.28 18-14 3.52 1.07 3.33 8.5 7.42 12.9 5.55 6 13.95 6.34 18 6s11.42-2 16-8c4.23-5.57 1.89-10.29 6-15 5.47-6.28 19.48-4.35 25-6 13.44-4 19.6-16.58 31-24 7.9-5.14 16.43-8.9 21-10 9.48-2.29 21.18.74 32-5 7.71-4.09 9.63-9.61 17-15 7.58-5.54 15.88-8.69 19-9 12.45-1.22 20.37 6.9 36 14 15.87 7.2 28.5 7.28 34 5 6.3-2.61 11.43-7.95 15-14 4.84-8.21 5.69-15.24 5-19-2-10.79-14-14.28-14-23 0-10.45 16.76-18.48 23-21 10.27-4.16 26.26-5.94 47-3 12.55 1.78 22.86 4.29 36 0a50.27 50.27 0 0 0 19-11c7.53-6.89 8.69-3.65 13-3s11.52-.6 17 2c6.17 2.93 9.42 7.9 14 11a39.59 39.59 0 0 0 15 6"/></svg>