<svg viewBox="0 0 244.06 301.16" xmlns="http://www.w3.org/2000/svg"><path d="m188.06 301.16c7.8-6.39 12.53-13.4 13-21 .73-11.91-11.6-22.75-15-32-5.49-14.94-4.19-34.36 5-47 8.13-11.19 19.72-12.29 29-21 4.14-3.89 12.34-17.82 18-33a171.61 171.61 0 0 0 6-20c-7.42-8.79-20.17-22.66-24-27s-15.52-15.69-23-17-10-5.64-18-12c-5.9-4.68-11.24-6.9-16-12-5.63-6-8-11.13-15-14-6.86-2.8-11-.27-18-2s-9-5.43-16-7c-7.8-1.75-11.35 1.32-19-1s-15.64-12-17.18-13.16c-7.25-5.51-12.74-5-18.82-11.83-4.34-4.89-5.56-9.07-10-10-7.38-1.54-12.28 8.29-20 7a55.29 55.29 0 0 0 -7 20c-1.44 10.22 1.13 18.83 1 27-.09 5.63-2.16 14.44-4 23-2.89 13.39-4.86 22.48-2 30 3.81 10 15.71 15.24 16 25 .22 7.37-5.88 11.31-13 20-13.58 16.57-17.17 30.5-16 39s7.55 13.21 7 23-7.54 14.39-10 25c-1.76 7.56-1 14.05 0 16 6.38 12.06 47.63 11.15 55 13 22.82 5.72 29.85 17.79 53 22 18.3 3.33 30.63.08 49 3a152.48 152.48 0 0 1 30 7.99z"/></svg>