<svg viewBox="0 0 398.01 208" xmlns="http://www.w3.org/2000/svg"><path d="m387.13 108c-.85-7.75 5.88-13.54 10-18s-7.48-11.22-10-16c-1.21-2.28 0-9.91 4-18 .91-1.85.87-11.75-1-16-2.1-4.74-1.08-6.53-4-12-2-3.8 1.29-9 1-14-.41-6.88-4.33-13.82-8-14-2.7-.13-3.71 3.52-7 4-4 .59-6.16-3.65-10-3-3.07.52-4.1 3.62-7 7-1.91 2.22-8 8.51-15 8-6.07-.44-11.29-7.46-14-6-2.25 1.2-.56 6.62-3 8s-6.49-3.26-10-2c-3.28 1.17-3.51 6.71-6 7-2.79.33-5.56-6.47-7-6-1.16.38.18 5.13-2 8-1.51 2-4.28 1.95-5 4-1 2.7 2.75 5.07 2 8s-4.86 3-6 6 1.74 6.34 2 9c.57 5.94-4.75 9.58-10 16-2.84 3.47-8.63 17.83-14 18-4.2.13-8.94-6.28-14-9-4.86-2.61-8.22-2.94-10-2-3.92 2.06-3.64 9.65-6 10-2.76.41-5.22-9.56-10-10-4.49-.41-8.17 7.88-11 7s-.82-10-5-13c-5.42-3.9-15.09 5-22 1-3.94-2.26-3.73-7.68-8-9s-6.85 3-11 2c-6.23-1.45-7.41-12.74-12-13-4.18-.24-6.33 8.9-11 9-3.58.07-6.49-5.17-12-13-2.88-4.08-5.64-7.54-8-7-3.43.79-3.89 10-6 10-1.91 0-2.74-7.42-6-8-1.74-.31-3.35 1.36-4 2-5.75 5.62-17.56 9.61-20 7-2.17-2.32 3.41-9.41 1-12-1.66-1.78-8 .9-11 1-4.61.16-10.86-3.36-14-1-3.56 2.67-1.86 10.38-4 11-1.79.51-3.7-4.66-7-5-4.59-.48-7.68 7.9-14 10-4.91 1.63-11.36.54-15-3-4-3.86-3-11.15-6-12-2-.57-4.64 1.82-6 4-2.06 3.28-1 6.2-2 9-1.92 5.3-7.08 6.41-10 11-1 1.57-2.53 6.64-3 12-.6 6.88.94 13 2 15 1.7 3.17 4.4 4.94 6 7 5 6.48 3.87 13.29 7 20s7.8 11.66 10 13c3.93 2.38 9 1.95 13 6 2.15 2.15 2.59 4.18 5 5 4 1.35 7.1-2.45 11-2 5.54.64 7.48 7.48 13 16 3.39 5.24 8.8 9.65 12 17a50.65 50.65 0 0 1 4 16c7.2 2.09 13.12 2.05 17-1s4.36-9.24 6-12c5.61-9.43 18.44-7.44 38-12 11.1-2.59 17.22-5.66 27-4 8.21 1.39 14.67 6.1 20 8 10.59 3.78 20.88 2.63 29.16 4a134.21 134.21 0 0 1 22.84 6 140.6 140.6 0 0 1 22 10l34 21c-9.09-15.08 5.61-27.51 3-35-2.16-6.18 21.5-20.09 42-31l21-1c10.5-.5 10.89-4.13 16-6-1.37-14.58 6.87-19.25 6-27z"/></svg>