<svg viewBox="0 0 712.77 253.08" xmlns="http://www.w3.org/2000/svg"><path d="m554.77 253.08a194 194 0 0 1 25-54c1.52-1.29 1.19-.67 3-2 2.73 3.87 22.84.84 25 1a54.08 54.08 0 0 0 10-1c4.38.86 11.55 2.69 12 4a20.22 20.22 0 0 0 5 6c1.36.83 4 1.28 8 0s7.94 3.11 9 2 3.32-4.1 6-6 4.76 2 7 2 4.11 1.73 6 3 3.17-1.55 5-4 1.69-2.62 4-4 3.19.54 4-1a40.17 40.17 0 0 0 3-8c.17-1.52 3.07-5.67 5-6s5.53-3.89 7-5 4.3-5.36 7-4 5.05 0 7-2c-6.41-13-13.5-24.08-19-23-5.77 1.13-5.37 14.92-14 19-6.6 3.12-16.6.63-20-5s1.46-11.34-1-18c-2.6-7.1-11.14-13-19-13-6.41 0-12.85 6.32-17.37 3.94-2.61-1.39-2.12-4.13-4.63-5.94-4.75-3.42-11.18 1.7-17 0-9.18-2.69-8.91-16-18-23-5.25-4.07-9.87-4.69-12-10-1.5-3.78-.29-6.71-1-10-2.18-10.17-14.85-18.65-21-16-3.66 1.57-3.91 7.46-7 11-6.5 7.46-19.73 9.5-24 5-3.39-3.58.4-10.55-2-17-2-5.33-5.75-7.56-11-12a89.93 89.93 0 0 1 -10-10c-6.27-7.37-9.31-15.25-14-22-5.54-8-12.72-14.87-16-17-6.33-4.11-15.43-7.72-29-8-8.41-.18-33.37.82-43 16-8.64 13.64 2.21 32-6 39s-30.91-.86-46-15c-8.68-8.13-13.23-23.49-24-27-17.75-5.8-34.47 19-58 18-5-.2-20.49-7.46-35-16-13.62-8-23.31-14.47-39-17-12.87-2.08-24.41-.83-30 1-6.45 2.1-11.72 7.38-20 8-14.16 1.05-22.14-11.85-35-9-8.47 1.88-8.56 8.26-17 11-13.16 4.27-23.62-7.39-35-2-7.7 3.64-6.66 10.91-14 16-11 7.62-26.56.56-32 8-4.35 6 3.48 16.76 3 27-.39 8.32-7 16.37-4 25 2.86 8.24 11.23 9.11 13 17 2.32 10.31-10.73 18.3-8 26 2.42 6.83 15.69 9.1 33 9s27.55-5.44 44-4c11.17 1 25.46 10.14 39 6 14.59-4.46 16.27-17.73 30-21 13.9-3.31 26.8 7.31 50 23 11.69 7.89 22.38 14.13 29 15 25 3.29 40.63-20.7 61-15 20.8 5.81 20.05 34.84 42 41 15.92 4.46 25.17-8.37 43-5 15.57 2.94 20.32 13.87 35 25 8.59 6.5 39.86 15.58 71 22 12.42 2.56 22 4.58 34 9a190.35 190.35 0 0 1 38 19z"/></svg>