<svg viewBox="0 0 339 523.35" xmlns="http://www.w3.org/2000/svg"><path d="m199 522.35s11.43-1 16-3a61.69 61.69 0 0 0 7-11c1.54-3.14 4.58-15.82 11-23 4.07-4.55 8.78-7.32 11-8 5.61-1.72 11.19 1.08 16-2s3.92-9.56 9-12c4-1.91 10.46.9 13 1 3.18.12 11.11-2.08 19-8 6.74-5.07 11-11.27 12-14 .64-1.8 1-8.26 4-12 3.47-4.28 7.61-3.7 11-7 5.69-5.54 4-14.33 4-23 0-15 6.54-21 7-36a123.78 123.78 0 0 0 -3-28c-2.15-10.18-5.14-19.91-8-26-4.06-8.65-7.74-13.29-8-22-.18-5.88 1.28-9.27-1-14-3.34-6.91-10-6.71-14-13s-1.21-11.57-4-19c-2.35-6.24-6-7.63-8-14-2.85-9.19 1.19-18 1-25-.25-9-4.58-12-5-21-.39-8.25 6-22.4 1-29-3.74-5-11.85-3.73-14-9-1.87-4.57 3.08-8.79 1-13-2.17-4.4-9.55-2.9-14-7-5-4.64-2.93-10.32-8-16-1.58-1.76-6.45-6.55-12-6s-7.14 6-13 7c-4.53.81-6.53-1.86-11-2-6.54-.21-11.42 5.06-16 3-4.81-2.17-4.1-10-9-15-3.2-3.29-5.82-2.68-9-6-6-6.3-3.07-14-9-19-4.47-3.73-11.67-2.56-16-4-6.06-2-11.37-6.34-16-13-4.12-10.1-7.19-14.42-18-29s-32.72-22-41-24-34 5-39 7-29.63.8-34 2-9 2.86-12 12c16.79 9.13 26.84 19.72 30 32 2.18 8.49.74 16.3 7 23 2.61 2.79 6.37 3.76 9 8 3.48 5.6 1.13 10.45 3 16 2.3 6.83 7.55 8.28 9 16 .79 4.23-.39 6.71 0 11a42.53 42.53 0 0 0 3 11 136.76 136.76 0 0 0 18 31c5.83 7.38 16 16 22 27 3.58 6.48 5.65 12 10 18a100.76 100.76 0 0 0 13 14c4.95 4.51 9.42 7.11 14 12 7.94 8.48 12.11 16.6 14 24 2.61 10.24.24 16.44 0 27-.3 12.93 1.87 22.81 5 30 3.77 8.67 8.19 13.64 10 23 1.56 8.1 1 15.48 0 19-.72 2.48-6.05 10.46-5 16 1.4 7.39 10.29 9.89 14 17 2.93 5.62 2 10.11 2 18 0 9.8 1.42 19.51 3 24 .24.7 5.7 10.16 6 17 .46 10.66-6.39 13.73-7 24-.26 4.39 2.89 11.61 0 17s-9.74 5.92-11 11c-1.22 4.88 5.77 12.92 7 16 14.33-.57 23-1 23-1z"/></svg>