<svg viewBox="0 0 489.53 440.93" xmlns="http://www.w3.org/2000/svg"><path d="m218.52 0c-5.71 2.69-8.55 6.08-9 8-1 3.95 2.76 7.88 1 11-1 1.68-3.69 2.11-5 3-3.1 2.08-3.06 4.75-6 6-4.56 1.93-10.49-2.67-12-1-1.17 1.29 1.89 4.78 1 8-1 3.58-5 3.57-6 7-1.21 4 3.6 7.89 2 11-1.23 2.38-5.52 2-6 4-.54 2.22 4.38 4.36 4 7-.3 2.09-4.37 3.28-6 5-1.12 1.17-2.86 5.43-3 11-.17 6.42 1.68 11.34 3 13 1.9 2.4 6.33 3.88 7 7 .81 3.78-3.7 6-3 10 .6 3.46 5.11 4.72 5 8-.06 1.73-1.49 2.46-2 4-1.34 4 2.46 8.37 1 10-1.66 1.86-7.94-2.11-10 0-1.17 1.19 0 3.26-1 5-1.4 2.31-5.87 2-8 3-4.7 2.27-5.76 8.62-10 9-2.82.25-4.94-2.88-7-2-2.3 1-1.55 6-4 9a12.05 12.05 0 0 1 -8 4c-2.07.2-5.56-.81-6 0-.25.46.4 1.08.89 2.12a8.22 8.22 0 0 1 .11 5.88c-1.05 3.1-4.08 4.73-7 6-7 3.06-12.09 3.92-13 7s2.8 5 2 8c-1.32 5-12.76 4.35-14 9-1.1 4.14 7.29 9.31 6 12-1 2.05-6.54.38-9 3-2 2.1-1.68 6.05 0 11l-3 9q1 7 2 14-2 7-4 14 2 4 4 8c7.18 1.79 11.53 6.36 12 11 .17 1.67-1.21 6.14-5.22 10.66-3.35 3.74-7.22 6-8.78 6.34-4.55 1.08-10.23-2-12 0s1.81 7.22 0 9c-1.43 1.41-5-.92-8 0-4.86 1.5-6.61 8.31-7 11-1 6.91 2.32 13.28 6 17 3.84 3.89 11 5 12 9 .67 2.57-3 8-11 15-5.19 4.53-10.67 7.62-13 8-5.33.86-11.34-2.68-16 0-4.32 2.49-3.61 8.22-8 10-4.2 1.7-7.3-2.5-12-1-3.36 1.07-5.19 5.37-8 5-2.5-.33-3.88-4.32-5-4-1.51.42.15 7.85-3 10-1.94 1.32-4-.29-6 1-2.9 1.86-3.38 8.09-1 12 3.12 5.11 10.75 5.65 17 6 16.31.92 27.83 1.93 33 9 2.62 3.59 2.11 10 6 12 3.55 1.84 7-1.24 13-3 10.62-3.12 16.85 3.57 26-1 8-4 8-11.45 16-17 6.63-4.64 17.22-8 23-4 2.56 1.79 3.51 6.14 7 7 2.44.6 3.9-1 6-1 6.55 0 9.2 10.1 16 13 8.74 3.73 17.76-4.53 24 0s1.9 16 8 20c3.67 2.44 8.12-.51 16-2 5.78-1.09 13.91.8 21-3 6.58-3.54 11.24-10.15 14-17 3.27-8.15 2.3-21.82 6-23 3.54-1.14 7.58 7.95 14 8 6.87.06 9.28-9 16-9 7.06 0 9.66 10 18 11 2.05.24 6.91-.68 12-4 4.45-2.9 6.68-6.5 7-8 .94-4.35-1.56-8.26-3-10-4.7-5.71-11.09-4.16-16-9-6-6-7.1-17.36-3-21 3.94-3.48 11.38 1.56 15-2 4.24-4.18-2.27-15.17 2-19 2.92-2.62 7.94.79 11-2 3.3-3 .3-10.4 3-12s8.24 4.77 12 3c2.26-1.06 2.32-4.79 4-5 2.68-.33 2 0 2 0s1.41-5.52 4-9c6.64-9.79 17.22-9.15 22-19 6.11-12.61-6-23.93-1-37 4.66-12.26 20.81-18.83 37-22 11.26-2.21 21.82.86 34-4s18.88-13.91 28-27c6-8.69 13.28-19 18-26-6.12-2.25-10.82-5.55-14-10-4.39-6.13-4-16.67-10-20.14-4.86-2.77-10.55 1.26-14-1.86-4.33-3.92 1.44-14.5-1-23-2.6-9-9.28-10-13-19-2.39-5.76-4.57-16.24 0-26 0 0-4.35-7.93-15-5s-29.93-3.22-37 11 5.73 19.8 1 34-5.23 25.57-32 21-33.88-11.45-32-25 18.65-25.8 15-35-9.84-13.76-19-19-10.33-24.38-22-24-28 23.24-41 21 .23-20.89-5-28-6.16-14.08-16-17a107.45 107.45 0 0 1 -16-6z"/></svg>