<svg viewBox="0 0 403 387" xmlns="http://www.w3.org/2000/svg"><path d="m251 387c10.29-29.26 3.65-49.22 27-75 11.39-12.59 27.05-12.62 36-29 10-18.24-1.69-36.54 10-51 10.32-12.77 33.86-11.05 48-18 11.75-5.78 22-14.72 31-27-2.93-7.49-4.82-7.71-8-27-.82-5.15-.64-21.67-5-33-6-15.57-17.27-23.47-32.6-38.4-19.68-19.16-15.75-16.49-20.4-23.6s-6.61-11.49-6-19a135.73 135.73 0 0 0 -29-8c-18.37-2.92-30.7.33-49-3-23.15-4.21-30.18-16.28-53-22-7.37-1.85-44.88 0-55-13-3.38 4.82-5.33 7.53-8 11-8.54 11.08-20.63 20.6-35 25-41.3 12.63-64.52-11.71-60-8-5.42 14.24-14.34 24-19 38-6.69 20.09-10.52 32.73-23 44a121.31 121.31 0 0 1 30 35c12.69 22.07 13.93 39.84 11 46 8.91 6.55 16.7 9.25 23 7 10.52-3.76 9.9-18.91 20-24 13.79-6.95 36.91 7.39 51 21 10.08 9.74 20.23 34.55 37 40 13.08 4.25 27.45-5 35.49 1.93 7.88 6.8 2.66 21.7.51 41.07-.95 8.58 2.38 38.49 5 62 .29 2.6 2.4 13.57 7 22 7 12.9 22.17 24.25 31 25z"/></svg>