<svg viewBox="0 0 192.15 344.01" xmlns="http://www.w3.org/2000/svg"><path d="m23 302c.23-.38-7.15-17.62 0-35 5.09-12.39 13.86-13.21 18-26 2.51-7.75-.86-17.7 5-25 4.3-5.36 10.59-4.77 14-11 3.23-5.9-.61-10.91 3-16 4.24-6 12.5-3.33 17-9 1.84-2.32 2.78-10.24 0-21a82.24 82.24 0 0 0 -6-16c2.53-1.77-5-2-11-5-4.2-2.09-5.17-7.6-6-11-2.44-10-9.08-15.22-14-26-3.4-7.44-5.15-12.66-10-19-4.28-5.59-9.29-8.17-13-15-6.11-11.23-2.71-21.52-6-32a52.49 52.49 0 0 0 -12-20c12.31 2.45 18 .34 23-3s16.4-6.83 21-8a35.75 35.75 0 0 0 9-4s11.45 5.09 14 7c7.86 5.89 7.5 11.65 15 18 11.21 9.5 25.53 12.07 35 12 5.37 0 14.17-2.68 23-1a41.15 41.15 0 0 1 19 9c4.43 3.79 7.48 8.26 8 10 2.92 9.81-6.39 18-6 29 .25 7.14 4.19 11.19 6 18 3.12 11.72 2.36 22.43 1 26-4.33 11.34-18.84 17.2-18 25 .91 8.47 21.32 13.64 32 25 4.43 4.72 7.27 9.38 8 15a26.65 26.65 0 0 1 -8 22c-6.86 6.47-16.18 4.74-21 12-3.61 5.43-.94 13.5-5 16-5.06 3.11-13.93-5.86-18-3-4.54 3.19 3.5 17.41-1 28s-17.86 11.5-20 21c-1.53 6.79 17 27 17 27s-11.43-3.6-21-1c-4.29 1.17-7.77 4.7-10 7s-8.43 9.93-8.43 9.93-2.57-3.13-4.57-3.93c-6.64-2.65-13.32 3.19-23 8a74.47 74.47 0 0 1 -35 8c-11.13-.37-23.78-3.28-34-10 0 0 10.3-2.67 14-9s2.51-12.3 9-23z"/></svg>