<svg viewBox="0 0 380.14 258" xmlns="http://www.w3.org/2000/svg"><path d="m90.14 258a66.77 66.77 0 0 0 18-3c8.83-2.77 14.81-6.61 21-11 9.43-6.69 16.7-13.65 25-17 12.25-4.95 20.66-3.17 33-4 10.56-.71 26.16-5.26 39-11s11.1-7.21 31-10c9.81-1.38 28.43 3.79 38 0 7.87-3.13 13.89-8.49 20-14 11-9.9 19.35-20.89 23-23s17-3 17-3 5.93-10.33 18-22c6.62-6.42 5.54-15.06 7-22-9.57-7-17-11.64-23-18-6.71-7.1-8.42-16.21-14-24-7.48-10.42-31.17-7.71-37-19-6.13-11.86-23.57-32.83-38-39-13-5.57-46-6.92-57-18-10.88 12.94-82.5 107.06-97 116-12.23 7.54-22.9 11.11-36 17-15.5 7-22.92 15.51-39 21-14 4.78-29.29 7.29-36 20a29.14 29.14 0 0 0 -3 16c8.89.08 17.12 2.17 24 7 9.43 6.63 10.68 15 18 22 9.5 9.14 18 8.75 28 16a70.85 70.85 0 0 1 20 23z"/></svg>