<svg viewBox="0 0 393.69 476" xmlns="http://www.w3.org/2000/svg"><path d="m287 0s17 14.6 19 18 5.27 14 13 20 26-5 26-5l27 11s8.62 12 11 16 5.87 21.27 10 28-11.58 5.23-16 7-8.21-1.15-7 4 10.62 8 12 13 3.14 15.25 4 18-5.11 2.84-1 20c.92-.12-5.19 8-9 10s-4.93 1.44-12 4-14 6-14 6-2.15-4.53-6-5c-14.67-1.81-4 30-4 30s-4.64 10.18-15 13c-16.87 4.58 2 40 2 40l-12 69s-23.73 4.68-27 10-8.05 19.39-11 21 0 15-3 21-19.75 11.69-19 17-14.48 9.44-15 15-9 25-9 25-9.15 9.29-13 12c-4.46 3.14-5.44 3.33-8 4s-8 6-8 6a15.47 15.47 0 0 0 -8-3c-4.67-.3-5-7.56-9-8s-10.31 6.27-13 8a57.7 57.7 0 0 1 -11 5c-4.92 1.82-14 9-14 9s-2.75-8.31-7-8-7.1 9-10 10-8.83 4.91-14 6-17 9-17 9-10.78-17.41-16-18-10 7-10 7-2-11.8-6-13-16.68 2.22-21 0-13.38-14.12-18-13-13 6-13 6-3.56-4.95-7-10-4.94-8.89-8-9c0 0 1.37-18.22 5-29s19.08-33.12 20-40-6.24-16.24-8-23 14.91-20.8 17-27 20.46-16.41 25-23 23.12-21.07 24-24-12-11-12-11 20.88-13.53 24-19-5.53-15.27-4-18 16.68-4.63 18-8 16.81-.53 20-5 10-9.9 15-11 19.64 3.58 24 2-1.34-16.63 1-18 8.44-9.95 12-11 10.17-.37 15-3 4.15-6.73 5-9 11.86-13 15-14 17.47 2.07 22-2 1.54-10.74 1-13-15.22-1.13-15-5-1-15-1-15-9.73-6.18-4-11 14.54-4.07 17-8 1-15.86 4-16 23.91.24 30-3-13.34-12.52-11-15 6.2-12.06 3-21-11.27-16.35-8-19 12.53-3.35 14-3 5.83 1.37 9 1 10-5 10-5z"/></svg>