<svg viewBox="0 0 437.27 355" xmlns="http://www.w3.org/2000/svg"><path d="m215.28 12c-14 9.52-27.73 35.49-40 42s-58.93-11.42-69-14-38.63 1.76-56 0-13.9-1.55-34-16c.48 2.93-1.55 11.84-7 21-4.11 6.9-7.91 11.26-9 19a31 31 0 0 0 1 13c2.49 1.86-.67 11.45 3 14 2.14 1.49 4.91-.88 8 0 4.77 1.35 5 6.88 10 9 3.24 1.39 4.66-.17 8 1 5.72 2 5.67 7 11 9 4.63 1.77 7.86-.86 13 0 3.64.61 10.23 2.87 13 9 2 4.48 1.66 10.69-1 12-3.33 1.64-8.48-5.5-11-4s-1.87 10.09 3 15c3.84 3.87 9 2.75 12 7 2.78 3.89.15 7 3 11 2.58 3.6 7.75 3.38 9 7 1.13 3.27-2.43 6.34-1 9s6.31 1.3 9 4c3.37 3.39.85 10.1 4 12 2.26 1.37 5-1.33 7 0 3.58 2.43-1.85 14 2 17 2.82 2.21 7.89-2.15 11 0 4.72 3.28-1.14 16.95 3.54 20.15 3.15 2.15 9.16-2.47 11.46-.15 1.21 1.23.44 3.84 1 4 1.14.33 5-10.41 7-10 1.73.35.76 8.72 4 10 2.05.81 4.41-1.93 6-1 2.31 1.35-.4 8.43 2 10s7.42-3.32 9-2c1.28 1.07-.85 5.51 0 6s3.86-4.32 7-4c2.7.28 4.35 4.27 5 4 1-.42-2.45-10.26-1-11 1.25-.64 5.55 5.76 7 5 .76-.4 0-2.57 1-4 1.5-2.21 6-2.8 8-1 2.41 2.21.08 8 2 9 1.38.74 3.49-1.79 5-1s.8 4.58 2 5c1.42.5 3.81-4.4 6-4 2 .37 2.33 4.86 4 5 1.83.15 3.26-5.16 5-5s2 5.68 4 6c2.37.38 4.55-7 8-7 2.87 0 4.06 4.91 7 5 1.84.06 3.8-1.77 6-6 2.57-5 3.53-12.86 5-13 1.74-.16 3.11 8.4 7 9 2.36.36 4.55-2.74 6-2 1.85.94-.08 6.69 2 8s6.82-3.42 9-2c1.74 1.13.06 5.08 2 7s6.21.37 9 1c3.27.74 7.55 3.17 9 7 1.22 3.22-.66 5.5 1 9 .91 1.94 2.18 2 3 4 1.65 4-2 8.23 0 11 1.3 1.84 4.31 1.26 5 3 1 2.43-4 5.78-3 8 .49 1.11 2.94 1.39 4 2s3.46 2.31 4 5c.8 4-4.2 8-3 10 1 1.67 5.1.33 6 2s-2.76 4.52-2 7c.87 2.86 6.81 3 7 5 .17 1.76-4.56 2.71-5.21 5.5-.79 3.33 4.47 6 5.21 10.5.78 4.68-3.41 9.63-2 11s5.52-2.31 9-1c3.21 1.21 4.08 6.09 6 6 2.28-.11 3.45-7.11 5-7 1 .07 1.21 3.37 3 5 3.31 3 10.7 2 12-1 .91-2.09-1.71-4.43-4-9a34.56 34.56 0 0 1 -3-9c.29-4.5 3.09-14 5-21s11.53-10.35 14-15-8.08-12.71-8-15 4.41-7.24 3-10-3-16-3-16-.08-10.36-1-20-1.87-10 3-13-1-4.81 1-14 3.09-3.13 13-5 6.89-9.33 9-18 4.62 3.06 11-3 11-.1 10-10 4.9-6.9 5-6 15 7.5 19 9 5 2.42 11 3 6 11 6 11l2 12s6.15-7.33 6-16-3.21-13.74-3-20-8.06-11.1-15-13-7.62-2-19-5-9.34-11-19-12-8.26 10.49-14 11-14.43-7.23-19-10-1 .53-12-1-11.44-8.55-9-20 2-16.56-1-19-13.2-6.52-17-15-5.72-8.32-5-12-9.69-1.92-9-10-13-17.69-15-22-6.41-8.57-10-15-9-17-7-24c-18.42 1.23-33.99 2.48-48 12z"/></svg>