<svg viewBox="0 0 337.31 222.66" xmlns="http://www.w3.org/2000/svg"><path d="m18.14 222.66a60.75 60.75 0 0 0 -17.62-2.89c-1.66 0 1-3.14 2.51-4.41 2.68-2.31 5.05-1.09 8-3 4.75-3.07 4.44-9 8-13 3.8-4.3 9.63-5 13-7 8.1-4.93 8.56-11.11 15-17 4.55-4.16 11.16-6.26 16-13 2.89-4 2.9-7.12 6-11 5.5-6.91 12-6.17 16-13 3.26-5.54.53-11.62 5-16 3.39-3.32 8.3-2 11-6 2.19-3.22.14-5.7 2-9 3-5.33 11.34-4.31 13-9 1.33-3.78-3.25-6.74-2-11 1.17-4 7.23-5.42 7-8-.22-2.38-5.49-2.69-7-6-1.59-3.48 1.74-6.88 1-11-1-5.49-6.92-9.1-7-9s6.75 7.58 11 6c3.22-1.2 3-7.3 6-8 2.66-.63 4.67 3.84 8 4 4.86.23 11-7.22 13-15 .78-3 .89-5.79 3-7 2.59-1.49 5.45 1 11 3 2.76 1 8.84 1 12 4 4.35 4.11 3.25 11.44 7 13 4.47 1.87 10.09-7.16 18-8 6.25-.66 12.93 4.82 17 2 3.17-2.2 2.14-7.94 5-9s6.12 4.47 10 4c6.14-.74 12.26-14.52 8-22-2.76-4.84-8.58-4.52-13-10-1.24-1.53-5.72-8.85 0-10s7.43.72 11 2 3.32 5.34 8 5 7.34-2.1 12-2 6.19.5 8 2c4.46 3.71 3.93 10.2 8 12 4.45 2 10.55-4 13-2s-1.76 8.84 1 12 9.85-.42 13 3c2.43 2.64-.18 6.54 2 10 2.6 4.11 7.91 2.84 11 7 1.87 2.52 1.48 6.93 2 9 .75 3 3.14 6.06 3 10-.17 4.54-2.74 5.84-3 10-.46 7.14-2.65 24.78-7 25s-16.51 12.91-12 24 27.59 15.89 32 21 8.58 14 11 21-11.95 14.84-11 22c.61 4.6-6.85 23-6.85 23z"/></svg>