<svg viewBox="0 0 383 346.01" xmlns="http://www.w3.org/2000/svg"><path d="m231 346a130.68 130.68 0 0 0 26-18c11.24-10 19.92-22.53 25-30 11.92-17.54 26.39-33.62 42-46a182.81 182.81 0 0 1 59-31c-9.12-23.83-21.58-39.46-38-45-19.35-6.52-39.11 7.57-53-2-15.64-10.78-11.33-67.7-13-77-6.84-38-23.14-61.15-36-72-9-7.59-35.6-20.47-69-24a190.42 190.42 0 0 0 -63 4 111.87 111.87 0 0 1 3 44c-3.93 28.63-18.07 43.29-32 67-16.06 27.32-12.9 46.32-30 73-5.59 8.72-31.47 36.86-42 64a150.83 150.83 0 0 0 -10 54c28.74-7.18 55.32-7.56 80-1 25 6.65 43 27.09 73 27 12 0 37.1-11 57-3a52 52 0 0 1 21 16z"/></svg>