<svg viewBox="0 0 326.76 346.89" xmlns="http://www.w3.org/2000/svg"><path d="m44.28 302.89c5.34-4.56 11.38-3.12 15-8 3.85-5.2 0-10.36 4-16 2.69-3.81 6.83-4.27 10-7 2.74-2.36 6-6.93 8-14 1.63-5.71.13-9.12 1-15 .71-4.83 1.87-8.16 0-12-1.49-3.07-4.54-4.12-8-7-2.67-2.22-4-4-6-4-4.43 0-6.35 6.72-11 7-2.35.14-4.69-1.33-7-4a22.07 22.07 0 0 0 -6-9c-6.7-5.91-16-5.86-16-6s9.06.59 17 0c10.91-.82 18.19-4.54 20-7 3.93-5.36 1.08-12.21 6-17 3.09-3 9.12-2.88 10-6s-4-6-3-9c.82-2.56 6.54-3.34 9-5 3.74-2.52 6-7.73 7-9 3.63-4.54 8.94-7.86 16-10a39.38 39.38 0 0 0 .39-6.32c-2-1.92-8.47-3.75-16.39-4.68-9.18-1.08-14.73-.92-19-5-3.93-3.76-3.46-9.49-8-12-5.48-3-10.83 2.36-17 0-5.94-2.27-7.44-9.76-12.51-14.17-4.42-3.85-11.13-8.11-18.49-5.83-2.81-5.44-3.54-6.81-6-12s-.17-9.89-4-16-8.28-11.07-9-19 0 .61 2-16c7.26 7.76 36.28-3.18 42-5s14-10 14-10 20.37-26 22-17 21.29 3.62 29 1-2 19.8-5 24 7.6 17.57 19 26-1.09 21.35 7 24 26.28-2.65 37 10 19.07-6.92 28-16 4.82-7 20-18c12.61-10.19 7-2 7-2a103.16 103.16 0 0 1 11 10c4.54 5 16.08 9.92 10 24s-14.54 11.12 8 29 11.82 7.33 20 16c2.52 2.68 5.24 8.61 9 12.47 5.7 5.91 15.2 10.5 20 7.53 5.16-3.18 1.77-13.07 8-18 1.32-1 4.06-2.69 7-2s5.57 3.87 6 7c.53 4-3.32 7.37-2 10 1.24 2.46 5.45 1.46 7 4 1.44 2.38-.71 5.39-2 10-1 3.51 0 5.49-1 9-1.58 5.61-8.17 11.56-7 17 .38 1.79 2.59 3.89 2 6-.7 2.46-3.85 2.53-5 5s.85 7.22 1 9c.2 2.45.19 6.88-2 8-1.93 1-4.24-1.39-7-1-3 .43-4.4 3.55-7 5-2.33 1.3-4.94.9-7 3a9.71 9.71 0 0 0 -2 10c1.76 4.12 7.93 5 8 8a3.87 3.87 0 0 1 -2 3c-2.13 1.28-4.87.21-8-1-4.35-1.68-7.25-2.6-10-2-3.13.68-4.76 2.85-8 6a39.31 39.31 0 0 1 -6 5c-4.87 2.71-9.83 2.57-16 2-7.92-.74-12.79-1.57-16 1-4.07 3.25-2.26 8.11-6 12-4.57 4.75-11.17 2.06-15 7-2.85 3.67-1 8-3 13-2 4.83-4.41 7.51-7 9-4.41 2.54-9.66.66-13 4-3.08 3.09-1.08 7-4 11-2.35 3.23-5.24 2.72-7 6-2.58 4.81 1.58 9.73 0 15-.69 2.31-4.21 6.68-11 10-5.39 2.63-9.65 2.42-12 6-4.07-3.76-11.83-11-29-13-19.7-2.28-40.47-11.86-50-8s-30.55-7.9-37-14c2.72-3.89 3.37-5.89 7-9z"/></svg>