<svg viewBox="0 0 311.76 510.12" xmlns="http://www.w3.org/2000/svg"><path d="m18.47 27.1c.54-.1.84-4.09-.28-10.19-1.09-5.82-2.65-9.42-.72-11.81 1.76-2.19 5.1-1.19 10-2 4.44-.74 6.51-2.66 11-3 6.75-.52 11 1.18 13 3 3.42 3.17 2.38 7.63 6 10 4 2.66 8.47-.78 13 2a10.75 10.75 0 0 1 4 5c1.27 3.11 0 7.24 2 9 1.82 1.61 4.6 0 7 1 5.4 2.3 5.87 13.06 7 13s.3-9.28 4-11c2.48-1.16 6.66 1 9 4 2.19 2.81 2.4 7.69 4 8 1.85.34 3.44-5.1 7-6 3.12-.79 6.75 1.59 10 5 7.2 7.55 8 20 10 20s3.4-11.91 6-12c2.42-.09 3.43 10.22 9 12 3.77 1.21 6.84-2.51 10-1 4.85 2.33 2.05 13.23 7 16 4.55 2.55 10.54-4.32 16-2 5.74 2.43 5.72 13.47 10 14 2.1.26 4.26-2.58 5-2s-.88 3 0 4 3.2-.51 5 0c4.2 1.18 3.62 8.76 8 11 3.39 1.73 8.82-.95 12-1 1.85 0 6.6 1.28 11 3s9.33 3.75 11 5c4.32 3.21 6.61 6.86 11 7 3.12.1 4.68-1.65 8-3 1.72-.69 7-1.13 12-1 6.92.18 11.83 1.51 13 3 2.74 3.43.23 7.36 3 11s9 2.86 10 6c.75 2.35-2.42 5.11-3 8-1 5.18 2.58 10.27 4 12 2.25 2.74 8.12 5.39 8 8-.12 2.43-4.14 3.06-5 6-1.18 4.06 4.38 8.16 3 11-.35.69-2.11 1.62-5 2-1.53.19-6.51-.56-9 1a8.15 8.15 0 0 0 -3 4c-1.77 4.42-.45 10.35 3 14 3.86 4.06 9.3 2.93 12 7 2.38 3.6.15 7.71-1 15-.89 5.59.76 8.62-1 14-1.62 4.94-4.17 8-3 12 1.09 3.71 5.17 5.5 7 8 3.74 5.12 3.55 12.19 3 16-.75 5.17-3.57 7.66-5 12-1.14 3.43-.72 13.77-5 17-2.75 2.06-5.83.93-9 2-4.43 1.49-8.52 7-12 6-2.93-.83-2.91-4.72-6-6-3.84-1.6-7.69 2.84-12 3-8.82.33-15.06-11.94-21-10-3 1-2.61 4.44-6 6-4.4 2-8.17-2-12 0-4.5 2.37-2.9 10.1-7 12-3 1.39-7.46-1.09-12-5-1.79-1.56-6.85-9.19-10-9-2.87.17-5.85 4.18-6 8-.13 3.43 3 6.18 2 8-1.14 2.14-7.15 2.36-12 0-4-1.94-7.56-7.66-10-7-2 .55-2.07 4.68-4 5s-3.42-3.36-5-3c-2.07.46-1.46 7.06-4 8s-5.92-4.84-8-4-2.82 8.85 1 14c.81 1.1 3.32 2.74 4 5 1.21 4.12-3.07 9-2 10 .84.83 3.85-1.92 6-1 2.58 1.11 3.65 6.78 2 11-.6 1.53-1.57 2.28-2 4-.77 3 .9 7.14 1 8a21.91 21.91 0 0 1 -2 9c-2.54 5.85-7.12 8-10 12s-3.39 6.76-7 9c-3.85 2.38-9 2.51-9 3s6.36 0 7.75 2.71c1.18 2.31-2.08 4.93-4.75 10.29-1.89 3.78-3.13 13.56-6 14-2.24.34-3.64-3.32-6-3-2.71.37-3.69 7.56-6 11-1.72 2.55-3.64 4.28-3 6 .84 2.29 5.48 2 6 4 .43 1.72-3 3.56-4 6-2.08 5 2.64 11.76 1 13-.79.59-2.25-.65-3 0-1.08.93 1.18 4.18 0 6-1.09 1.66-4.45 1.84-7 1-4.1-1.35-6.33-6.47-8-6s-.68 5.27-3 8c-2.85 3.33-7.56 1.62-10 5-1.9 2.64-.08 5.09-2 8-2.29 3.46-7.25 3.94-9 4-3.3.1-5.23-1.06-8-2-5.89-2-10.87-1.78-13-1-6.91 2.52-7.28 10.15-14 12-4.63 1.27-10.39-2.57-13 0-1.4 1.38-.62 3.18-2 5-1.63 2.13-6.38 2.73-7 3-3.27 1.43-5.24 5.35-8 5-3.16-.4-6.09-5.21-5-8 .92-2.32 4-1.84 5-4 1.71-3.87-6.58-9-6-15 .55-5.71 8.43-8 8-13-.34-4-5.71-5-7-10-.69-2.69.34-4.14 0-7s-1.46-4.32-2-7-1.3-9.07 2-13c3.75-4.47 11.6-3.27 17-6 6.08-3.07 11.88-9.19 11-14-.34-1.92-2.61-4-2-5 .79-1.28 4.81.72 7-1s1-6 3-7c1.82-.94 4.18 1.92 6 1 2.09-1.07.83-5.72 3-7s5.86 2 7 1c1.56-1.41-3.85-9.12-2-11 1.36-1.39 5.58 1.43 7 0 1.6-1.63-2.57-6.54-1-10 1.82-4 9.52-3.13 14-7a16.42 16.42 0 0 0 5-16c-1.5-5.37-6.48-9.42-11-11-2.5-.87-4.9-1-6-3-1.53-2.74 1.38-5.53 0-8-2.08-3.69-10.53-.81-14-5a8.21 8.21 0 0 1 -1-8c1.75-4 6.63-3.47 8-7 1.54-4-4.62-14.73-5-16-.5-1.64-.84-3.42 0-5 1.25-2.38 3.91-1.89 5-4 1.51-3-2.25-7.67-2-12a4.52 4.52 0 0 1 1-3c1.41-1.59 3.56-.89 5-2 3.84-3 1.33-14.48-2-15-1.62-.26-3 2.43-4 2s-.47-4.22 0-7c1.08-6.49 1.3-11.48 0-14s-4.79-4.09-5-7c-.25-3.44 3.94-5.29 5-9 1.41-5-2.56-7.57-1-12 2-5.57 9.51-5.33 12-11 .66-1.52.94-5.86-1-11-2.62-6.92-8-12.12-10-14-5.72-5.36-10-11-12-15-1.63-3.25-3.3-14.37-9-19-1.71-1.39-3.62-2.38-5-5a13.16 13.16 0 0 1 -1-9c1.1-4.5 4.5-5.79 5-10s-2.29-8.69-5-11c-3.13-2.69-7.35-2.46-10-6-1-1.29-1.47-3.34-2-6-1.07-5.44-1.6-8.94-4-10 .8-7.32-.59-9.78 1-17s8.27-15.12 9-19-.76-14.86 0-15z"/></svg>