<svg viewBox="0 0 308.05 294.03" xmlns="http://www.w3.org/2000/svg"><path d="m56.92 294a9.48 9.48 0 0 1 1.21-.65c3.54-1.09 3.88-1.67 6.92-4.21 11.32-9.5 8.38-26.52 20-33 10.93-6.11 31.5 5.14 44 6 17 1.16 28.66-2.37 37-7 8.58-4.78 18.09-14.65 27-31 8.31-15.27 10.6-27.79 19-43 7.12-12.9 16.3-25.07 21-29 4.5-3.78 25.41-12.43 31-25 4.06-9.15-.13-18.22 6-27 4.06-5.83 11-9.35 20-11 6.36-3.19 12.16-2 18-4 0 0-2.71-3.83-4-6-13.23-19.92-3.74-25.8-10-36s5.53-17.83-5-28c-3.15-3.05-5.65-7.91-7.56-13.75-.15-.39-.49-1.39-.49-1.39s-56 11.71-123.75 24.64-157.25 32.95-157.25 32.95z"/></svg>