<svg viewBox="0 0 469.22 387.59" xmlns="http://www.w3.org/2000/svg"><path d="m44.76 380.67c2.77 0-7.37 3.2-17.4 4.75-7.92.39-11 .55-20.61-.91-1.33-4.54-.57-7.49-2-12-1.09-3.44-3.08-6.76-4-11-1.25-5.75-.72-11 0-13 2.44-6.68 8.55-7.69 10-14s-3.95-10.33-2-17c.85-2.92 2.56-4.51 5-7 3.14-3.21 4.58-6.08 8-9 7.29-6.22 14.15-7.71 15-13s-5.33-8-5-14c.34-6.18 7.61-8.81 7-14s-9-6.76-12-13c-2.76-5.66-2.12-13.85 2-18s9.36-1.76 13-6 .51-8.62 4-13c3.22-4 10.35-3.82 11-7 .54-2.69-4-4.53-4-8 0-4.28 6.56-6.71 6-10-.52-3-7-3.82-7-6 0-2.43 8.14-4 8-6-.12-1.62-5.77-2-6-4-.21-1.8 4.39-3 5-6 .56-2.76-2.38-5.67-2-6s1.94 1.81 4 2c2.85.27 4.14-2.77 7-3 3.5-.29 4.88 3.38 8 3 4-.49 7.9-7.29 7-13-.69-4.36-3.9-5.95-5-10-.82-3 .18-6.71 2-12 2.16-6.31 4.17-11.07 7-14a23.59 23.59 0 0 1 9-6c6.81-2.43 15.86.72 18-2.46 2-3-4.84-9.51 0-13.54 4.58 1.43 10-2 10-2a149.67 149.67 0 0 1 19 7c5.83 2.79 33.51 4.64 41 2s13.92 9.63 20 9 19.2-7.89 19-11c-.19-2.86 2.82-5.11 2-7-1.22-2.78-8.72-.67-11-4-2-2.89 1.74-7.4 1-12-.83-5.08-5.06-7.25-6.93-11.83a22.17 22.17 0 0 1 -1.07-12.17 8.43 8.43 0 0 0 2-6c-.35-2.91-3.52-4.81-3-7 .42-1.78 2.95-2.93 5-3 2.47-.08 4.14 1.44 7 4 3.12 2.79 6.09 5 7 7 1.11 2.5 1.07 4.68 3 6 2.21 1.52 4.53.06 7 1 3.92 1.5 3.43 5.53 7 7 4.4 1.81 8.66-2.88 14-2 1.38.23 4.88 1.92 8 5 .69.68 4.9 7.23 7 7s2.39-4.12 5-5c3.22-1.1 6.17 3.13 9 2s1.93-6.35 5-9 6.45-.55 10-3 3.28-7.64 7-9c2.82-1 5.65 1.55 8 0 1.85-1.22 1.12-3.48 3-5s4.6-.34 6-2c1.62-1.92-.61-5 1-7 1.31-1.62 4-.79 6-2 2.39-1.44 3.58-4.56 4-8a18.74 18.74 0 0 0 -1-8c-1.15-4.07-1.65-7.1-1-8 2.15-3 9.72-1 14 1 3.63 1.66 5.66 3.93 6 5 1.1 3.5-2.6 7-1 10 .8 1.48 2.47 1.41 3 3 .77 2.32-2.19 4.31-2 7 .2 2.85 3.15 3.73 6 7 3.24 3.72 2.24 7.32 6 10 4 2.86 8.43.65 12 4 2.58 2.41 1.38 4.57 4 7 3.61 3.34 7.65.88 11 4s1.63 9.22 5 11c2.18 1.15 4.33-.7 7 0 4 1 6.22 5.88 7 8 1.42 3.88-.06 7 2 10 2.83 4.17 8.34 2.65 11 7 1.59 2.59.14 4.29 2 7s4.65 2.33 6 5c1.45 2.87-.72 5.72 0 9 .66 3 2.88 4.07 5 7 2.32 3.22 2.61 8 6 10 4.06 2.35 8.75-.75 12 2 2.63 2.23 1.35 6.45 4 8 3.12 1.83 8.16-2.61 10-1 1.44 1.26-.86 7.72-1 10-.17 2.65 1.27 5.92 1 8s-.85 6.74-2 8-6 13-6 13l-2 8c-7.34-2.82-11.23-5.92-14-4-2.43 1.68-2.67 9.83-3 11-1.4 5-4.79 11.7-9 12-3.57.25-5.62-4.55-9-4-3.87.63-4.84 7.86-8 8s-4.46-6.74-8-7-8.45 6.34-7 10c1.34 3.41 7.3 2.37 9 6 1.93 4.14-4.07 9.83-2 13 1.49 2.29 6.25 1.09 7 3 .63 1.62-2.95 4.18-4 7-1.38 3.69.71 5.86-1 9-2.23 4.1-7.18 3.06-10 7-2.58 3.6-.39 6.36-3 10-2.9 4-7.48 2.93-11 6-5.93 5.18-2.62 12.68-8 19-4.35 5.1-8.48 3.6-13 9-3.56 4.25-2.91 7.54-6 12-4.17 6-11.64 8.34-15 11-7.54 6-7.08 11.57-15 17-4.08 2.79-10.88 3.66-15 9-1.61 2.08-3.15 8.11-7 10-3 1.49-6.53-.23-9 2-1.95 1.75-1.19 4-3 6-2.06 2.32-4.86 2.1-8 3-7 2-16.74 4.17-15.7 7.35 1.11 3.42-131 3.16-197.8 5.73-11.08-4.59-29.07-6.91-28.49-6.92z"/></svg>