<svg viewBox="0 0 311.7 539.47" xmlns="http://www.w3.org/2000/svg"><path d="m289 0c.09 2.73 6 4.49 6 7 0 3.06-3.33 4.57-4 8a10.75 10.75 0 0 0 4 10c2.88 2.17 5.07.88 8 3s2.35 5 5 8c1.2 1.37 2.25 2.12 3 4 .45 1.15 1.28 3.9 0 6-1.08 1.74-2.81 1.75-5 3-3.25 1.83-6 5.53-6 9 0 2.44 2.53 5.87 3 7 1.4 3.37 1.41 6.17 1 7-1.33 2.62-4.94 2.57-7 5-1.95 2.27-2.2 5.65-2 8 .34 4.26 3.54 6.37 3 10-.6 3.9-4.71 5-6 9-.87 2.66-.49 5.67 1 9 .61 1.6-2.7 1.73 2 5 1.32.93 4.54 3.59 4 6-.43 1.86-2.85 2.27-6 4-5.09 2.78-7.57 6.11-8 8-.94 4 2.75 7.91 1 11-.89 1.56-4.31 2.57-5 3-2.33 1.42-2.71 3.12-5 4-5.37 2-11.87-3.9-14-2-1.83 1.61 1.88 6.89 0 11-1.63 3.56-6 3.51-7 7-1.08 3.71 3.23 6.63 2 10s-7.87 3.78-8 6 6 3.5 6 6c0 2.29-5.62 3.78-8 7-1 1.3-2.2 6.22-2 12 .2 6.3 1.86 11.62 3 13 1.74 2.12 6.51 4 7 7s-3.08 4.65-3 8c.07 3.7 4.41 5.94 6 10 1.13 2.91 1.61 6.82 0 8-2.16 1.58-6.75-2.66-9-1s.31 7.33-2 9c-1.59 1.14-3.8-.84-6 0-3.47 1.32-2.82 6.74-6 8-3.65 1.44-8-4.45-11-3-3.28 1.58-.89 9.93-5 13-1.61 1.2-3.68 1-7 1-5.84 0-9.34.6-10 2-1.2 2.55 3.94 6.21 3 10-.45 1.82-2.2 3.38-6 5s-14.44 2.58-16 6c-.39.84-.27 3.15 1 6 .54 1.2 2.15 2.8 2 4-.51 4.05-12.87 4.14-14 9-.91 3.87 6.16 7.88 5 11-1.1 2.93-8.14 1.55-10 5-1.73 3.19 2.65 7.22 2 12s-4.46 5.3-5 10c-.67 5.56 4.32 7.6 4 13-.37 6.12-6.92 8-7 14-.09 4.82 4.4 9 7 11 4.4 3.33 12 3.69 13 7 1 3.51-4.62 8-6 9a17.91 17.91 0 0 1 -6 3c-6 1.56-13.05-2.27-15 0-1.8 2.07 1.89 6.79 0 9-1.47 1.7-5.35.14-8 1-6 1.93-8.85 10.85-9 17-.18 6.63 2.7 14.58 9 19 4 2.81 11.08 3 12 6 1 3.24-4.32 7.78-9 11-4.32 3-9.05 4.74-11 5-6.27.82-12.37-3.61-17-1-4.44 2.5-3.52 9.32-8 11-3.49 1.3-5.9-2.1-10-1-3.12.83-4.14 4-7 4-4.07 0-6.78-6.63-9-6-2.55.73-.72 10.1-5 13-3.5 2.37-8.51-1.3-11 1-3.64 3.36 4 14 0 20-2.87 4.29-10.48 5.25-16 4s-9.28-6.75-14-6c-5.68.91-6.85 9-13 11-3.75 1.21-8.13.06-13-3a64.27 64.27 0 0 1 -9-19c-3.52-12.46-2-22.3 0-26 3.12-5.71 7.73-7.7 15-12 10.66-6.3 18.83-14 21-18 4.52-8.32 4.72-18.43 3-27s-5-14.53-8-18c-7.78-9-16.53-8.3-25-16-4.84-4.44-11.45-12.5-12-22-.64-11.89 8.12-18.53 15-31 2.83-5.12 6.38-20.72 9-35 1.91-10.38 2.84-30.67 8-46 3.32-9.86 15.08-30.81 31-49 17.45-19.93 31.4-28.29 34-47 1.46-10.5-5.51-25.88 1-35 7.55-10.56 36-9.53 44-12 7.49-2.31 23.06-14.63 38-26 17.49-13.3 26.83-21.08 28-33 .88-8.86-5.38-17.64-2-27 2.57-7.11 9.57-12.33 20-16a47.32 47.32 0 0 1 45-20z"/></svg>