<svg viewBox="0 0 367 177.06" xmlns="http://www.w3.org/2000/svg"><path d="m359 93.06c-3.36-.61-8.83 1.91-20-2s-15.57-9.82-19-11-10 4-10 4-9.42-15.56-14-16c-7.73-.75-7.47 4.84-10 7s-10 5-10 5-1.89-8.22-4-10-7.31-13.33-11-15-5.53 5.07-22 0c-11.79-3.63-15.26-10.74-19-12s-9 5-9 5a26 26 0 0 1 -8-8c-3.63-5.55-5.75-9.48-8-9s-8 4-8 4-4.54-9.21-8-11-5.4 4.11-19 0-15.47-10.95-19-12-7.21 4.75-11 4-8.3-15.36-13-16-4.5 3.74-9 6-9.43 4.76-12 5-3 5.28-8 5-9-8.53-13-10-4-1-4-1l-1 1s-5.19 8-9 10-4.93 1.44-12 4-14 6-14 6-2.15-4.53-6-5c-14.67-1.81-4 30-4 30s-2.93 9.72-15 13c-16.87 4.58 2 40 2 40l-12 69s13.68 2.41 26 4l9-5a47 47 0 0 0 7-3 20.83 20.83 0 0 1 5-2s4.77 4.67 7 4 3.34 4.37 6 3 7.7-5.64 10-5 8.39 9.06 12 6 6.91-9.2 11-9 9.87 4 11 2 8.48-15.44 11-17 5.6 1.82 9 3 8.87 1.38 9 3 3.83 9.85 6 7 9-13 9-13 11.25-1.13 13-1 7.46 5.21 10 6 10.67.3 12 1 6.64 5 8 4 8.4-11 12-10 9.09 10.93 13 11 12.25-3.08 16-3 9.42 2.05 16-1 19.71-1.14 26-6 15.81-6.52 20-5 9.9 2.35 16-3 17.9-12.09 19-14 9.81-10.68 12-11 9-7.28 11-10 7.86 1.11 11 0 4-6 4-6-4.64-9.39-8-10z"/></svg>