<svg viewBox="0 0 461 391.78" xmlns="http://www.w3.org/2000/svg"><path d="m420 347a79.48 79.48 0 0 0 -9 0c-3 .22-5-.41-8 0a27 27 0 0 0 -11 4c-3.64 2.37-5 4.84-8 8-4.11 4.36-7.76 4.77-12 9-2.51 2.5-5.17 5.72-7 5s-1-5.1-3-6c-2.65-1.21-8.58 7-14 10-4.58 2.51-9.72 1.75-14 6-2 2-3.44 6.45-7 8-4.07 1.78-10 .38-12-3-1.65-2.84.54-5.31-1-8-2.19-3.81-9.88-4.65-16-3s-12.18 8.42-15 7-.46-9.05-4-12c-2.59-2.16-7.26-1.44-13 1-3.5-5.46-4.84-10.44-4-15 .33-1.81 2.46-5.55 2-9-.6-4.47-4.33-7.22-8-10-6.18-4.69-10.28-9.08-15-10-6.18-1.21-11.83-.94-18 4s-31.25 6.46-38 6-23.79-4.16-35-3-7.38 3.35-22 7c-6-8.25-19-9.13-27-5-7.55 3.9-10.08 14.38-14 14-3.69-.36-6.42-9.45-7-18-.69-10.16 2.86-21.22 3.76-23.47 5.24-13.07 8.82-23.92 9.24-33.53.4-9-.61-22.14-8-26-6.29-3.28-15.45 3.51-23 4-11.57.75-22.09-8.49-29-4-7.3-8.22-25.56-21.3-33-31 4.83-1.53 6.15-6.34 10-9 4.46-3.09 7.46-2 12-5 4.23-2.76 7.76-6.52 9-11 .76-2.78 0-4.31 1-7 2-5.15 6.44-5.2 8-10 1-3.15-.93-7.32 1-9s4.73.45 7-1c2.58-1.65 2-7.4 3-10 1.82-4.74 7.54-7.33 7-11-.65-4.4-4.74-4.36-5-8-.2-2.76.2-6.53 6-9a13.47 13.47 0 0 0 3-6c.4-2-.63-6.13 1-8 1.42-1.64 4-1 6-2 2.89-1.44 3.16-4.23 6-5s8 2.69 9 3c5.53 1.79 7.58-1.11 13 1 5 2 5.19 5.64 10 7 5.8 1.64 10.14-3.3 15-1 4.22 2 3.86 7.67 8 9 3.38 1.08 10.6-3.55 12-4 6.64-2.15 11-1.53 13 0 2.27 1.71 2.48 4.93 5 6 2.91 1.23 6-2 12-5 2.91-1.44 5-2 7-4 1.79-1.8 2.48-4.17 5-6a11.42 11.42 0 0 1 9-2c3.76.89 4.62 3.75 8 5 5.11 1.89 12.18-.14 14-4 1.51-3.2-1.47-5.78 0-9 1.87-4.1 8.09-3 11-7s.13-9 2-14 6.25-6.38 9-10c3.43-4.51 4.52-13.67 10-16 3.61-1.53 5.92.41 10-1 1.58-.55 5.14-3 8-7a27 27 0 0 0 5-12c.45-3.42 0-6 2-8 2.38-2.5 6-1.33 8-4 1.54-2 .3-4.52 2-6 2.37-2.07 6.73 1 9-1 2.1-1.86-.12-5.86 2-8s6.34.07 9-2c2-1.55 2.5-4.76 2-9a63.49 63.49 0 0 0 6 7c4.15 4.18 7.26 6.23 9 11 1.55 4.26.21 7 1 11 1.44 7.32 6.7 9.23 7 16 .32 7.4-5.64 9.57-6 17-.42 8.46 6.2 10.52 6 19-.17 7.14-7.45 14.85-5 18 .85 1.1 2.26.72 3 2 1.3 2.25-2.41 7.2-3 10-.81 3.88 1 7 2 12 .76 3.83.19 7.75 2 12 .61 1.43 3.73 5.36 4 9 .38 5.14-3.31 8-4 13-.23 1.64.38 6.07 1 10s1.06 6.34 0 9c-1.74 4.35-5.54 4.91-8 9-1.21 2-1.16 4-3 6-3.4 3.72-9.9 5.39-13 3-2.68-2.07-1.25-6-4-9a10.17 10.17 0 0 0 -8-3c-4.23.35-6.71 4.71-10 4-2.92-.63-3.41-4.78-6-5-2.85-.24-5.12 5.11-9 7-3.13 1.52-7.74 2.09-10 0s-.77-5.56-3-8c-1.12-1.22-3.69-2.3-8-2-5.07.35-8.12 3.05-12 4-6.25 1.53-10 .73-12-1-3.08-2.62-2.12-7.5-5-9-3.93-2-11 4.1-14 7-6.26 6.09-9.34 12.79-9 13s4.9-6 11-12c3.34-3.27 8.08-7.36 11-6s1.73 7.17 5 10c2.65 2.29 7.34 2.58 15 0 3.11-1.05 6.16-2.45 10-3 3.66-.53 5.8-.11 7 1 2.6 2.41.52 6.63 3 9s8.82 1.71 13-1c1.56-1 4.51-5.12 7-5s3.26 3.43 6 4c3.71.77 6.32-3.89 11-4a8.78 8.78 0 0 1 6 2c3.23 3 1.14 7.42 4 10 3.64 3.28 12.85 1.33 17-4 1.93-2.49 1.41-4.28 3-7 2.54-4.36 5.85-4.7 8-9a15.44 15.44 0 0 0 1-10 19.31 19.31 0 0 0 6 3c4 1.19 6.91.76 8 0 1.73-1.22 1.32-2.72 3-4 2.34-1.78 5.44-.21 7-2s-.47-4.82 1-7c1.08-1.61 3.61-2.36 8-2 4.21.34 6.17 2.36 10 3 3.07.52 8.18-1.24 11 1 1.83 1.46 2 3.58 3 7 1.51 5.4 3.65 8.58 5 9 3.55 1.11 7.89-4.3 10-3 1.81 1.12-.21 5.89 2 8 1.79 1.7 5.44.34 8 1 4.36 1.12 4.6 4.3 8.69 5.83 4.61 1.73 8.48-.46 13.31.17 2.46.32 9.75 1.69 11 6 .4 1.39-.57 4.31-3 8-.57.86-3.81 4.31-4 6-.77 6.8 13.55 11.14 14 20 .15 2.92-1.74 4.63-1 8 .82 3.74 3.24 6.36 9 9-4.15 4.37-10.21 12-13 18s-5.34 27.28-8 36-20 49-20 49z"/></svg>