<svg viewBox="0 0 278.74 307.02" xmlns="http://www.w3.org/2000/svg"><path d="m29.66 101a85.12 85.12 0 0 1 16-21c10.39-9.85 3.46-15.73 10-28s-4-27.84 1-37 4.59-14.52 15-15c13.08-.58 28 14 28 14 3 4.3 15 10.83 25 3 9.49-7.42 18.23-.35 21 3s10.4 11.42 13 17 5.93 12.89 11 18 11.84 2.49 17 5 10.36 5.13 13 9c3.42 5 9 16 9 16s20.85-4.67 25-1 15.54 2 19 2 8.51-.55 18-1c1.76 6.76 8.92 16.12 8 23s-16.37 29.22-20 40-5 29-5 29c3.06.11 14 17 14 17s-2.4 10.85-2 14-17 8-17 8l-20 21-1 13-16 8-8 7-8 10-4 10-12 6-12 1-11 9s-5.58 2.86-13 6c6.69-10.21 1-24 1-24s-7.14-9.8-13-12-16.09.69-20-3-7.44-13-11-14-6.28 4.07-9 2-11.66-2.47-18-5a43.06 43.06 0 0 0 -15-3c-3.94-.23-8.17 3.26-11 3s-10.79-1.26-16-3-22 6.28-30 6c0 0-2.94-18.74-1-32s19.67-14.83 21-24-4.48-26.25-4-33 15-27.75 15-34-3-30-3-30z"/></svg>