<svg viewBox="0 0 320.54 477.28" xmlns="http://www.w3.org/2000/svg"><path d="m295.52 70c-.29.63 24.12 8.65 25 23 .6 9.56-14.3 19.43-19 27-5.58 9-5.59 21.64-16 31-6.17 5.56-12.6 6.94-21 11-6.53 3.16-10.47 6.84-17 10-12.51 6.07-22.26 6.73-29 15-4.94 6.08-5.57 17.43-13 21-5.94 2.86-12.14-.95-19 0-7.16 1-17.25 5.3-20 13-3.23 9.09 6.92 18.85 3 25-4.07 6.4-19.23 1.49-22 7-1.93 3.87 6.81 15.16 8 18a43.21 43.21 0 0 1 3 21c-.85 8.42-3.91 13.46-1 19 3.85 7.3 13.13 6.06 17 13 2.48 4.44-.49 11.73-4 23-2.74 8.79-4.16 13.82-9 17-5.2 3.43-13.78 1.93-16 6s3.57 9.81 3 16c-.24 2.76-3.65 9.15-11 15-10.16 8.1-18.73 10-23 9-10.4-2.49-11.39-14.89-22-18-9.8-2.87-22.66 3.17-24 10-1.56 7.84 12.62 13.78 11 22-1.53 7.73-15.23 7.77-19 17-3 7.32 2.74 12.68-1 21-1 2.27-3.71 7.05-8 8-5.35 1.19-9.46-4.62-14-3s-3.76 8.43-8 10c-4.54 1.68-9.76-4.44-18-10a68.1 68.1 0 0 0 -11-6c-.92-3.9-.69-7 1-9 2-2.36 4.85-1.86 7-4s2.49-5.38 2-11c-.67-7.45-2.18-12.13 0-14 2.51-2.17 7.49 1.33 10-1 2-1.89 0-5.43 2-8 2.21-2.91 6.3-1.34 9-4 3.11-3.08 3-9.53 1-14-1.41-3.07-5.14-5.18-5-8 .22-4.9 9.88-6.27 11-12 1-5-5.45-8.76-4-13 1.35-4 8.06-3.48 11-8s1.91-11.53-1-13c-2.43-1.22-6.25 1.88-7 1-1-1.18 5.75-7 5-13-.49-3.88-3.78-7.87-7-8-2.46-.1-3.92 2.48-6 2-2.39-.55-3.8-4.63-4-8-.33-5.32 2.66-7.26 3-12 .17-2.53-1.48-6.05 0-9 1.58-3.17 4.77-3 6-6 1.47-3.59-2-7.61-2-12 0-5 2.74-9.95 5-10 2 0 2.59 3.63 5 4 3.62.56 9.33-5.91 9-12-.22-3.91-4-7.68-3-9s5.88 1.73 9 0c4.1-2.28 1.85-9.94 6-14s11.54-1.77 13-5c1.59-3.54-6.77-8.74-8-16-1.06-6.22 3.68-11.2 1-17-1.39-3-3.8-3.47-5-7-1.46-4.25-.26-9.88 3-12 3-1.94 6.57-.24 12 1 9.3 2.12 15.8.84 18-1 4.41-3.7 5.93-11.79 3-17-2.23-3.95-8.15-5.55-8-8 .19-3.27 10.07-3.72 12-9 1.31-3.6-2.45-9.26-3-12-1.25-6.21.66-12.55 3-17a27.82 27.82 0 0 1 12-12c6.08-3 10.21-1.58 16-4 7.86-3.3 12.83-10.76 15-15 2.29-4.47 2.45-7.47 6-11 1.65-1.64 3.16-2.27 4.15-4.13 4.41-8.24-7.81-22.09-8.15-21.87s7.14-11.77 14-13 13.07-4.86 26-9 11.62-15.71 18-20a50.1 50.1 0 0 1 12-6c7.2 13.73 42.49 2.15 54 19 6.53 9.56.16 20.1 6 33 3.2 7.08 8.6 13 16 18"/></svg>