<svg viewBox="0 0 505.94 657.06" xmlns="http://www.w3.org/2000/svg"><path d="m209 627.06c9.87 3 7.46 1.22 15 6s11 17.73 17 19 22.35 3.64 33 5c-.56-5.67 4.91-8.06 5-14 .05-4-2.88-6-2-10 .94-4.36 5.13-5.18 7-9 2.84-5.85-1.22-10.32 1-17 .74-2.23 3-7.56 8-10 2.88-1.42 7.5-.76 9-3 2.62-3.95-5.11-12.67-3-15s10.54 3.49 13 1c2-2-2-7.36 0-11 2.55-4.57 12.27-3.13 13-6 .61-2.46-6.47-4.9-8-10-1.79-5.95 4-10 2-16-1.33-4-4.48-4-6-8-2.46-6.46 1.61-16.06 8-19 3.67-1.7 8.69-.31 16 1 6.16 1.11 10.86 1.6 13-1s.68-7.29 0-9c-2.75-6.84-11.58-10-11-13 .64-3.4 12.14-2.39 15-8 1.48-2.92-.1-5.63-1-10a30.85 30.85 0 0 1 2-19 30.23 30.23 0 0 1 16-15c5.78-2.28 10-.93 16-4 4-2.05 7.77-5.59 11-11 1.86-3.13 2.82-9.17 7-13 1.5-1.38 4.61-2.52 6-5 4.1-7.27-4.66-19.22-5-19s7.14-11.77 14-13 13.07-4.86 26-9 11.62-15.71 18-20a49.92 49.92 0 0 1 12-6c-1.8-16.05 12.9-28.9 17-47 3.29-14.54-1.65-21.84 3-36s12.49-21.93 9.1-31c-1.43-3.85-8.31-10.1-21.1-14-10.35-3.16-33.33-2.12-37-9-4.42-8.28 11.6-21.14 7.16-31-4.26-9.5-24.05-7.27-26.16-15-2-7.26 14.47-14.23 15-25 .69-14-21.77-29-42-36-15-5.14-25-4.45-33.29-13.56-10.31-11.35-9.63-29.8-7.72-40.91a64.52 64.52 0 0 1 13.01-29.53 90.77 90.77 0 0 1 8-8.06l-189.23.85s.06 2.09.24 3.21c1.6 10.06 13.64 18.86 17 24 2.23 3.42 6 15.51 9 26 3.11 10.81-20.14 5.42-26 0-6.83-6.31-8.17-18.15-11-18-2.4.12-2.46 8.06-7 11-6.69 4.32-20.74-.6-28-10-6-7.75-6-21.34-10-22-3.23-.54-5.6 7-10 7-6.22 0-8.86-13.9-15-14-3.76-.07-7.72 5-9 10-2.61 10.16 7.08 16.27 5 26-1.85 8.69-10.62 9.42-14 18-4 10.32 3.6 23.63 4 34s-2.2 19.37-4 22c-5.52 8.07-19.28 10.91-20 18-.45 4.55 5.09 7.33 4 11-1.46 4.92-13.34 6.65-23 5a41.8 41.8 0 0 1 -18-8c-7.71-5.78-15-18.07-18-17-2.46.86-1.33 9.77-4 16-1.63 3.83-6.24 12.32-14 13 0 0 26.54 28.73 37 43s2 48 2 48 6.39 47.59 7 41a38.31 38.31 0 0 1 -2 19c-2.64 6.8-6.41 9.95-6 16 .46 6.64 5.45 9 10 16 6.91 10.53 2 16.3 8.06 27.31 4.31 7.73 9.12 10.74 8.94 17.69-.15 6.67-4.89 9.15-6.26 15.92-1.31 6.53 1.25 9.49.26 16.08-.78 5.23-3 7.79-4 13-1 5.55.59 8.58-1 14-2.54 8.72-8.29 8.8-11 17-.92 2.8-.43 11.76-4 14-2.48 1.55-5.53-.13-8 2a8.17 8.17 0 0 0 -2 4c-.67 3-.26 7.78 3 10 3.45 2.34 8.31.72 11-1 5.85-3.75 6.37-13.13 11-14 2.84-.54 5.83 2.93 7 2s-1.28-4.51 0-7c1.72-3.34 8.37-2.58 9-5 .55-2.1-4.07-4.05-4-7 .11-3.54 6.33-4.69 8-9 1.42 0 2.23.41 4.07.29 8.31.94 14.78-1.84 20.94-2.29s21 5 32 4 11.28-9.08 22-12 16-2 16-2c-.35 6.78 10.34-8.5 10-2-.4 7.25 8.51 10.21 8 17-.6 7.94-13.25 10-14 18-.62 6.51 7.87 10.79 10 18 2.62 8.91-2.32 16.45-7 27-8.36 18.83-8.84 33.44-6 39 4 7.88 12.53 9.88 19 17 7.23 8 10.7 16.58 11 20 .69 7.91-4.37 14.73-2 23 1.47 5.18 5.86 10.94 10.98 13z"/></svg>