<svg viewBox="0 0 360.8 290.57" xmlns="http://www.w3.org/2000/svg"><path d="m47.33 290.57c11.15-2.89 16.37 1.81 21-1 5.13-3.11 4.16-10 8.43-10.91 1.36-.3 3.12.44 5.57 2.91 4.07 4.1 16.92-1 17-4 .53-21.58 13.56-6.53 20-4 7.84 3.07 7.65 3.12 14-3 0 0 6.69-3.66 19 1s18.72 20.33 29 17c12.41-4 13.52-17.07 26.24-20.63 12.48-3.49 20.77 6.85 35.76 5.63a45.82 45.82 0 0 0 23-9c7.1-5.16 14-12.78 17-22 1.16-3.5 1.07-14.09 6-20 4.37-5.22 16.52-8.75 17-9 6.71-3.55 8.11-7.85 15-11 5.53-2.53 15.76-2.34 21-8 4.76-5.14 4.43-16.92 5-19 3-10.94 16.09-21.53 13-29-1.77-4.27-6.34-3.77-9-8-5.15-8.16 3.43-21-1-25-3.58-3.22-11.44 3.15-17 0-7-4-4.25-18.95-10-21-4.06-1.45-8.95 5.31-12 3.68s-1.2-11.58-2.93-17.58c-.86-3-4.06-12.1-10-13.1-5.48-.92-9.08 6.14-14 5-6.53-1.52-5.53-15.39-13-19-9.13-4.43-20.23 9.28-30 5-7.84-3.44-6-14.36-14-18-9.57-4.38-22.57 8.26-28 4-4.45-3.5 1.16-16.45-2-27-2.07-7-5.57-13.13-11-15-11.74-4-27.31 14.86-33 11a90.87 90.87 0 0 1 -20 26 86.78 86.78 0 0 1 -25 16c-12 5-19.34 2.26-31 8-16 7.9-18.9 24.08-35 28-12.24 3-22.15-6.14-31-1-11 6.38-5.7 25.2-8 55-1.52 19.72-6.67 31.8 0 40 14.93 18.38 57.44-2 70 15 7.33 9.92-.73 25.8-12 54-5.06 12.43-9.65 24.95-14.07 38z"/></svg>