<svg viewBox="0 0 371.43 314.63" xmlns="http://www.w3.org/2000/svg"><path d="m371.43 29.57c-8.34 13.91-3.83 35.75-7 51-3.62 17.38-7.28 27.33-9 45-1.17 12-1 36-1 36s-9.91-5.38-9 0c.53 3 .79 2.49 0 7s2.57 4.8 1 7-4.39 2.9-7 4-4.27-.4-4-4-.24-2.62-4-3-1.79-4.49-4-4-10.22 3-8 5-.63 7.33-2 8 .75-2.87-6-3-3.91 1.88-6 4-10.31 3.64-11 5-8.17-3.82-8 0 10.49-.51 7 4-5.16 4.82-7 6-9 2.57-9 4 14.61 3.44 12 5-13.36 5.53-11 6 5 6 5 6-7.11.37-8 3-5.31 4.67-6 7-1.07-4.54-3-2-2.72 7.41-4 10-6 4-6 4-.24-5.93-2-3-4.66 12.37-5 12-9 1-9 1-1.27 5.1-3 7 1.32-3.66-4-3-12.43 1.09-12 4-11.28 11.25-10 14 8-2.75 7 0-8.27 9.65-8 11-6 4-6 3-1.8-6.82 0-2 3.51 3.83 5 6 6.69.72 8 2 0 5.13-1 7-.06 2.33-2 5-1.15 3.54-4 4-1.35-4.65-4-6-2.2-4.66-7-2-5.86 4.42-6 7-1.61 7.63-3 7-.16-3.79-2-5 .32-3.87-4-6c-3.14-1.56-.58-4.45-.56-4.43a16.2 16.2 0 0 0 -1.44 1.43c-2.38 3-6.24 5.64-11 8a65.43 65.43 0 0 1 -19-17 51.5 51.5 0 0 1 -8-15c-4.32-14.29-1.77-33.16 8-38 5.47-2.71 16.08.91 18 1 5.35.24 19.23-4 33-15 17.51-14 24-27.2 25-37 1.08-10.46-3.64-14.54-2-25 .79-5 5.83-12.79 4-19-3-10.22-19.15-17.83-33-16-10.43 1.38-15.07 9.13-26 9-9.25-.11-13.21-6.14-21-8-16.87-4-25 8.37-42 7-8.66-.7-18.93-8.53-29-5-8 2.79-11 11.86-18 12-9.75.19-13.8-16.67-26-21-12.51-4.45-25.32 6.67-32 1s-2.79-23.84 5-37c4.6-7.77 9.83-10.6 15-18 7.67-11 6.32-18.85 15-29 8.39-9.82 18.32-11.09 32-18 7.6-3.84 20.76-16.36 34-18 20-2.47 26.56 10.46 46 8 12.49-1.58 22.42-13.27 34-10 11.39 3.21 16.72 20.13 24 27 18.29 17.26 45.22 16.19 55 15 20.59-2.5 27.38-13.3 48-18a99.12 99.12 0 0 1 45 0 92.63 92.63 0 0 1 15 5z"/></svg>