<svg viewBox="0 0 443.35 342.58" xmlns="http://www.w3.org/2000/svg"><path d="m383.28 338.91c-1-5.83-2.86-9.89-6-11-5-1.76-9.67 5.26-16 4-4.1-.81-6.1-5.36-10-5-3.26.3-5 3.62-7 6-9.42 11.37-33.07 12.29-38 5-5.11-7.54 10.62-24.1 5-31-3.28-4-11.22-.79-14-5-3.22-4.86 5-12.89 2-19s-13.06-3.74-17-10c-4.33-6.86 3.45-16.75-1-22-4.12-4.85-14.89-.25-18-5-2.4-3.64 2.42-8.7 0-13-2.2-3.9-8.11-2.81-12-6-5.48-4.5-4.36-13.42-9-15-3.46-1.17-6.66 2.71-12 6-8.71 5.37-14.71 3.23-24 7-8.53 3.47-12.58 7.56-20 13a141.26 141.26 0 0 1 -26 15c-2.79-8-6.7-13.26-12-15-4.55-1.49-7.61 1-12-1-6.61-3-5.5-11.21-12-15-5.22-3-9.32.3-14-3-5.26-3.7-4.91-11.25-7-23-1.74-9.77-4.11-15-8-17 0 0 6.3-3 12-12s-13.15-8.68-22-15-8.83-18.8-21-25-15.75 2.47-29 9-15.6-5.6-28-17 .3-27.68-6-38 12.82-21.31 11-27c-1.36-4.26.58-53.91.58-53.91l357.3 2.32s-11.44 26.31-12.88 46.59c-1.7 23.87.64 30-15 58s-10.91 11.55 1 52c-14.69 15.67-8.25 44.08 2 57 19.63 24.76 56.34 12.42 82 38 8.25 8.23 17 21 16 35-.86 12.4-8.67 21.12-20 32-7.6 7.3-15.15 14.2-23 21"/></svg>