<svg viewBox="0 0 271.88 160.19" xmlns="http://www.w3.org/2000/svg"><path d="m183.41 67.45c2.17.12 5.6 3.31 7 0s1.73-7.81 5-9 12.58-.19 13-2a77.43 77.43 0 0 1 3-11c1.5-3.73 5.62-8.28 7-11s1.11-7.83 1-11-.8-9 2-11 9.15-1.56 9-3-.27-4.34 2-6 7.06.52 9 0 4.69-4.83 7-3 7.8 5.7 8 9 .16 11.86 1 12a20.07 20.07 0 0 0 6-1c2-.66 4.35 2.61 7 4a17.39 17.39 0 0 1 1 11c-1.43 5.26-5.72 7-8 11-2.16 3.75-2 10.7-6 13-3.35 1.94-6.23-.36-10 2-2 1.24-2.13 2.61-4 4-3.2 2.37-6.9 2.13-11 2-4.81-.15-9.27.16-11 1-5 2.44-5 6.92-9 10-4.81 3.67-12.73 2.45-15 7-1.3 2.59.44 4.21-1 7-1.64 3.15-7.69 5.09-9 6a21.19 21.19 0 0 0 -5 5c-2.45 3.32-2.35 5.84-5 9-3 3.57-6.53 4.14-10 7a25.5 25.5 0 0 0 -6 7 19.42 19.42 0 0 0 -1 14 19.64 19.64 0 0 0 3 6 52.53 52.53 0 0 0 -13-1 51.46 51.46 0 0 0 -22 6c-3.07 1.66-4.86 3.49-8 5a41.32 41.32 0 0 1 -32 1l-3-9-2-9c.06-3.29 1-8.92-6-20-3.78-5.73-3.19-6.85-4-10s-2.73-8.74-6-10-5.35-2.23-10-2-5.2 2.36-7 0-6.27-6-8-9 .32-6.55-2-11-2.19-9.78-7-11-8.83-2-12-4-7.34-4-10-2-5 5.66-7 6a8 8 0 0 0 -3 1s-.71-4-1-7-.75-9.08 0-10 2.62 2.4 6 1 7-1.94 7-4 0-5.18 3-5 3.51-1 5-3 2.64-2.82 5-5 5.08-1.93 7-3 4-5.78 4-8 .66-7.29 3-7 7.48-1.95 10-1a3.67 3.67 0 0 0 4.89-1.75c0-.08.07-.16.11-.25.4-1.52-.46-6 3-5s6 5.53 8 5 1.58-8.72 4-7 7 7 11 9 5.92 6.46 8 9 9 7.41 12 8 6.41 3.84 7 5 1.68 6.68 4 4 5-5.14 7-8 3.92-7.87 6-7 2.36 1.41 5 4 3.83 7.88 7 9 7.3 1.64 9 4a44 44 0 0 0 6 7c1.59 1.25 5.53-1.7 7 1s.48 8.1 4 9c2.77.71 5.74.11 6.7 1.44a2.3 2.3 0 0 1 .3 1.56c-.19 2.44 1.37 5.31 2 9l7 1 3-3z"/></svg>