<svg viewBox="0 0 537.12 284.86" xmlns="http://www.w3.org/2000/svg"><path d="m0 240.82a112.44 112.44 0 0 0 13-15c6.17-8.58 9.45-15.6 18-19 3.87-1.54 8.32-1.1 13-4 5-3.09 5.64-6.78 10-10 5.75-4.27 10.81-3.31 19-5 13.83-2.86 23.07-8.2 27-16 2.22-4.43 1.22-7.56 4-12 3.93-6.3 12.74-8.33 13-13 .17-3.17-4.37-6.67-12-12-5.25-3.66-9.19-6.41-10-11-1.17-6.55 6.06-11.86 4-17-1.89-4.7-9.21-3.66-12-9-1.92-3.67.38-6-1-10-2-5.62-9-7.39-9-12 0-3.72 4.34-4.89 5-9 .85-5.3-4.64-7.8-4-13 .68-5.63 7.43-6.63 8-12 .58-5.55-6.57-8.48-8-15-1.23-5.55 1.79-10.35 2-17 11.1-7.62 26.43-11.66 39-9 10.38 2.19 19.1 9.43 25 12 8.51 3.71 20.12 5 35 5 28.34 0 49-5.6 69 2 13.05 4.95 16.75 13.14 31 16 25.33 5.08 37.47-13.35 63-10 13.67 1.79 25.19 10.91 39 16 6.18 2.27 12.49 4.27 19 6 5 .8 3.94 8.12 6 6 2.61-2.69 7.19-.22 10-3 2.17-2.14.81-5 3-7 2.36-2.1 6.26-.82 11 0 5.35.91 9.82.77 11 0 6-3.9 1.78-15.6 8-20 3.53-2.49 6.65 0 11-2 5.91-2.74 6.7-9.08 12-13 2.55-1.89 6.13-2.46 10-4 6.07-2.42 9.45-4.31 13-3 4.09 1.5 5 6.32 9 7s5.92-3.34 10-3c5 .41 10.17 6.55 10 12-.13 4.5-4.76 7-4 11 .73 3.76 5.65 4.44 6 8 .41 4-5.64 6.47-5 10 .61 3.3 6.36 3.59 7 7 .52 2.7-3.11 4.82-4 8-1.38 5 2.57 7.65 1 12-1.91 5.34-9.79 5.17-11 10-1.07 4.34 4.79 7.42 5 13s-4.84 7.87-4 13c.9 5.41 8 7.05 8 12 0 3.69-4 5.06-5 9-1.4 5.55 3.43 10.84 4 16 .47 4.07-.46 8.92-4 15-1.34 2.31-6.87 7.35-8 13-.76 3.84.17 6.65 1 10 1.27 5 .21 8.11 2 13 3.68 10 14.44 14.47 15 24 .24 3.91-2.5 6.84-1 11 2 5.5 8.91 6 10 11 1.19 5.35-6.27 11.3-5 13-5.5 4.05-10.91 6-16 5-8.33-1.65-14.61-13.5-19-17-10.43-8.32-25.12-8.57-32-8-8.51.7-19.33 7.43-32 5-4.53-.87-6.5-3-11-4-21.43-4.84-34.33 18.41-55 15-12.44-2.06-12.83-11.23-26-13-17.2-2.32-25 12.83-41 10-14.77-2.62-16-17-31-20-14.52-2.95-28.83 9.62-42 12-5.63 1-20.83-.37-35-3-24.5-4.56-38.56-10.65-50-3-10 6.68-10.27 19.31-17 27.43-11.74 14.1-31.53 11.95-62 17.57-18.1 3.33-27.91 6.62-39 1-13.94-7.07-21.42-23.28-24-41z"/></svg>