<svg viewBox="0 0 368.52 446.67" xmlns="http://www.w3.org/2000/svg"><path d="m126.07 0c1.34 5 3.63 8.71 7 11 8.16 5.53 17.07-1.32 26 3s8.31 14.58 18 18a20.4 20.4 0 0 0 15-1c7.07-3.32 7.3-8.91 14-12 5.94-2.73 14.34.1 18 0 8.1-.22 15-5.63 23-3 7.67 2.51 11.26 10.72 17 15 5.56 4.14 10.07 4.42 16 8 4.44 2.67 12.38 9.55 19 18 10.48 13.34 13.19 24.77 23 27 7.2 1.63 11.27-2.85 20-1 5.27 1.11 8.94 3.64 10 5 3.57 4.55 1.31 11.32 5 14-3.64 1.16-8.53 3.16-12 6-8.06 6.59-14.34 18.78-11 28 3.93 10.85 18.63 9.81 22 20 3.1 9.38-11.12 26.93-14 35-3.89 10.89-4.67 21.8-4 26 2.36 14.87 19.07 32.81 22 38 8 14.18 9.31 26.92 8 31-3.74 11.58-18.78 17.55-25 25-8.19 9.81-12.14 23.13-12 40-8.55 7.78-36 32-36 32s1.44-.24-4 1a28.28 28.28 0 0 1 -11 0s-2.81-5 2-8-.88-9.23-4-8-9.31 6.92-7 8 7.38 4.64 5 6-1.57 2.76-7 3-14.41 5-14 2-10 .1-7 2a7.74 7.74 0 0 1 4 8c-.35 3.63-.61 10.64-3 12s-3.34.09-6-1-11.37-.45-10 3 2.12 4.27 3 7 .3 6.2 2 12-11.8 16.35-14 15-7 1.78-12 1-11.83 2.55-12-1-1.94-5.46-2-10-8-.24-7-6 3.06-8.62 5-13-1-3.65 5-7 3.52.14 4-6-2.11-8.41-6-9-11.27.48-17-1-11.4-.24-15-4-5.06-5.15-7-1-4.58 3.68-2 8 4.43 1.17 9 4 5.15 4.38 8 8 9.07 2.41 8 6 2.7 3.22-5 10-8.86 4.63-10 9 4.26 2.42-3-1-5.83-13-10-9-3.53 3.08-4 7 .13 13.52-3 15-2.36-1.31-4-4 1-1.61 0-10-1-10-4-15-11-6-11-6-12.87 13.74-17 16-15.8.71-17 11c-8.41-5.62-13.92-12.24-16-20-3.21-12.06 5.83-24.33 0-34-3.79-6.28-11.9-6.81-17-11-11.41-9.37-16.26-28.16-12-42 5.1-16.58 28.11-26 38-37 15.4-17.18 19.9-32.45 20-43 .16-17.36-9.29-35.3-29-53-13-11.7-24.49-14.87-38-26a146.5 146.5 0 0 1 -25-27c-12.25-16.79-16.72-33.06-15.99-39 2.19-17.81 18.23-32 33-38 17.36-7 33.9 1.4 48-9 11.88-8.76 12.46-25.21 21-37a74.66 74.66 0 0 1 23.99-21z"/></svg>