<svg viewBox="0 0 234.01 190.7" xmlns="http://www.w3.org/2000/svg"><path d="m234 56.63c-.7 1.53-.82 3.94-1 7s1.14 9.31 1 11-4.53 4.59-5 6 2.52 7.3 2 8-4.62 4.8-4 6 5.87 6.74 5 8-3.18 4.62-3 6 5 4.07 4 5a10 10 0 0 1 -4 3c-2.17.79-5.72 1-7 2s-.51 5.32-2 7-6.48 5.38-6 6 2.87 6.53 2 8-.87 4.16-1 6-.39 7.18 0 9a86 86 0 0 1 1 10c-.09.92-.38 5.19-1 6s-2.41.56-5 0-5-1.67-6 1-3.63 6.5-4 8-4.71 4.13-5 5-4.2 6.76-6 6-9.36-15-12-18-18.11-3.84-20-6-1.46-14.27-4-16-13.35-8.35-16-9-8.47 4.05-10 3a10.22 10.22 0 0 0 -6-2c-2.63 0-5.09 3.23-7 4s-13.56 8-16 8-10 1.41-11-1-7.45-9.21-9-11-9.67-11.1-12-12c-8.41-3.24-24.9-.46-27 0s-9.1 8.11-11 8-10-4.59-14-5-5.06-.4-6 1-6 10-6 10c3-8.07 3.05-15.58 2-24-.51-4.1-2.52-10.12-4-14 6.11-.79 13.05-2 16-6 3.09-4.19 3-9 3-11 .06-13.71 6.65-18.3 6-32-.06-1.29.07-12.41 1.72-20.06 1-4.6 2.76-9.82 6.86-11.44 2.55-1 4.69-.08 7.42.5 5.45 1.15 14.56 1 19-4 3.49-3.95 1.57-8.09 5-12 4.27-4.87 11.59-3.47 20-4 9.81-.62 14.25-4.77 24-6 14.73-1.86 27.72.76 32 3 11.87 6.2 11.9 15.55 24 21 10.21 4.6 18 0 28 6 6.58 3.94 6.28 13.55 14 19s27 7 27 7z"/></svg>