<svg viewBox="0 0 336.64 391.15" xmlns="http://www.w3.org/2000/svg"><path d="m308.64 291.05c1.6-7.54 1.24-17.34 6-24s16.62-24.6 17-32-5.62-39.19-4-44 9-16 9-16l-5-9-4-6a45 45 0 0 1 -12-6c-5.84-4.45-5.71-12.81-12-15-4.57-1.59-7.16 1.93-12 0-3.06-1.22-4.76-5-8-5-2.47 0-4.09 2.29-6 3-5.49 2-12.36-1.69-16-5-2.21-2-2.89-3.89-5-6-2.77-2.76-5.21-3.27-8-6s-8-9.32-7-17c.11-.89 1.77-4.56 1-7-1.45-4.56-7.85-4.64-9-9-.81-3.06 2.08-5 1-8-1.15-3.17-5.18-2.94-7-6-2.33-3.9.89-9.71-1-11s-5.82 3.46-10 3c-5.39-.6-10.79-8-11-15-.11-3.54 2.58-7.81 1-11s-5.7-2.64-11-5-8.82-8.88-15-9c-4.81-.09-6.21 3.32-11 3-5.68-.38-8.64-6-14-8-4.41-1.66-9.87-.79-12-1-8.35-.82-12.89-5-20-7-6-1.71-11.11-.75-17-4-1.89-1-9.4-8.71-14-8-5.26.81-6 8-12 10-3.65 1.18-6.88-1.09-10 1-3.75 2.51-2.49 8.26-6 10s-7.45-2.74-11-1c-2.63 1.29-2.72 4.82-4 9a28.26 28.26 0 0 1 -7 12c-3.9 3.78-7.72 3.64-11 8s-1.88 9.65-6 13c-3.39 2.75-7.17.92-10 4-3 3.28-.89 8.93-4 11-2.21 1.47-4.63-.43-7 1s-2.48 4.92-3 9c-.78 6-2.61 9.73-1 11 1.86 1.47 7.12-1.71 11-2a19.67 19.67 0 0 1 12 3c3.94 2.53 5.71 5.41 6 7 .61 3.37-2.28 6.25-1 9 1 2.19 4.2 2.42 6 4a13 13 0 0 1 3 14c-1.43 3.12-3.68 2.94-5 6-2 4.57 2.06 8.57 0 12-2.68 4.46-11.67 1.38-15 6-2.55 3.53.67 8.15-1 13l8.73 16.75a52.06 52.06 0 0 0 8.27 4.25c2.75.94 7.41.14 8.3 1.85s-2.52 5.81-3.3 8.15c-1 3-.33 4.89-1 8-.94 4.32-3.24 6.09-3.44 10-.28 5.37 4.61 9.34 10.44 17 2.31 3 4.8 6.49 9 7a9.48 9.48 0 0 0 7-2c5.82-4.82 2.8-16.75 4-17 .84-.17 4.3 5.53 4 13-.1 2.72-3 9.75-1 14 1.36 3 3.86 3.84 7 6a48.06 48.06 0 0 1 8 8 55.93 55.93 0 0 1 6 9 19.64 19.64 0 0 0 5-5c3.19-4.66 2.36-8.95 4-13 1.78-4.43 4.09-6.57 3-9-1-2.15-4.71-3-6-4-3-2.29-4.64-6.37-5-12 4.94-5.22 7.29-10.2 7-15-.21-3.29-1.74-8.4-2-12a5.57 5.57 0 0 1 0-1c.48-3.87 5.2-5.44 6-9 .53-2.39-1.41-5.22-2.08-7.22a31.07 31.07 0 0 1 -.92-3.78c-1.39-6.83-3.21-13-3-13a.93.93 0 0 1 .12.4 96.22 96.22 0 0 0 4.88 12.6c2.16 4.55 4.56 8.74 3 13-1.38 3.76-4.76 4.12-6 8-1.43 4.46 2.19 7.46 2 12-.28 6.64-6.83 9.63-6 16a12.69 12.69 0 0 0 5 8c2.26 1.7 5.73 1.79 7 4 1.7 3-1.48 6.42-4 13-1.8 4.7-1.83 8.35-4 13-1.22 2.61-2.65 4.45-4 7-3.16 6-3.25 10.39-7 16-2 3-4.07 4.93-6 8-3.37 5.36-4.45 10.07-4 12 1.13 4.94 6.2 6 7 11 .7 4.39-3 6.69-2 11 .43 1.8 3.36 4.92 8 8 3.58 2.38 6.85 4.17 7 7 .11 2.11-1.69 2.93-2 5-.65 4.39 5.09 7.67 4 11-.52 1.58-4.08 3.24-5 4-2.18 1.8-3.16 3.27-3 4 .35 1.64 3.69 2.53 10 3 4.93.36 8.7-.55 12 1 5.6 2.63 5.41 7.91 11 11 3 1.64 8.48 3.25 13 1 4-2 5.22-7.61 9-8 2.73-.28 4.13 2.52 7 2 2.25-.41 4.09-3.32 5-4 1.58-1.18 6.47-2.28 13-1 4.05.79 7.84 2.77 15 7 0 0 9.86-13.24 23-16s34.54-9 41-13 14.21-8.12 20-9 7.08-2.61 12-7c-2.84-3.44-6.1-11.29-5-23 .66-7.08 2.78-13 1-14-2-1.1-6.85 5.21-9 4s1.29-9-2-13c-2.33-2.85-8.23-2.81-11-4-5.73-2.46-10.8-7.62-10-11 .68-2.89 5.83-3.41 6-6 .14-2.32-4-3.64-5-7a7.14 7.14 0 0 1 1-6c2.39-3.4 8-4 11-2s2 5.95 5 8c3.75 2.53 8.32-1.48 12 1 3.12 2.1 2.18 6.78 5 10 2 2.28 5 3.58 9 4l4 5c7.24-.7 12.86.4 16 4"/></svg>