<svg viewBox="0 0 338.29 242.97" xmlns="http://www.w3.org/2000/svg"><path d="m338.13 155c-3.72 2-2.68 7.47-6 9-3.08 1.43-6.47-2.45-9-1-3.58 2.06-.43 12.1-4 14-1.86 1-4.31-1.26-6 0s-.52 4.07-2 5-3.77-1.51-6-1c-3.47.8-3.38 6.77-7 9-4.28 2.65-9.9-1-15 0-3.14.64-8.35 3.82-13 11-2.92 4.52-4.58 15.74-10 18-3.24 1.36-6.29-1-9 1-3.93 2.87-1.57 11.43-5 13-1.67.77-3.13-.94-5 0s-1.41 3.61-3 5c-3.65 3.21-11.31-2.87-17 0-1.9 1-2.94 3.29-6 4a9.3 9.3 0 0 1 -4 0c-5-1-8.25-5.53-10-8-3.63-5.15-5.85-8.21-8-8-2.39.24-4.32 4-5 7s.73 7.31-1 9c-1.53 1.5-4.78 1.08-7 0-3.64-1.79-4.8-5.7-8-11-1.91-3.19-3.43-4.81-5-5-3.57-.43-5.78 4.91-10 5-1 0-4-1.41-7-4-3.16-2.75-4.64-5-7-5-3.28 0-5.82 4.58-7 4s1.05-6-1-8c-2.31-2.22-7.7 1.81-12 0-4.69-2-4.28-7.92-9-11-4.32-2.81-11-2.94-15 0-3.3 2.44-4.16 8-6 8s-2.34-5.31-5-6c-3-.78-7.49 4.06-10 8-1.12 1.75-2.16 3.8-4 4-2.5.27-4.06-3.31-7-4-4.65-1.08-9.48 3.37-11 5-2 2.09-3 4.26-4 4s-.83-3.26-2-5c-3.18-4.7-13.68-5.42-18-1-2.19 2.23-1.7 5.89-4 7-3.14 1.51-9.65-2.12-11-7-1.18-4.2 2.73-8.26 1-11s-7.8-.85-11.7-3.28c-5.87-3.66-8-14.12-5.3-21.72 2.56-7.32 8.36-8.47 11-15 2.77-6.85.74-15.33-5-25-1.51-4.28-1.65-8-.23-11 1-2.08 4.45-5 4.79-8.37a5 5 0 0 0 -.56-2.65c-3.23-6.81 15.74-7.63 21-19s10.14-12.7 16-21 1.84-24.43 2-39 7.55-8.54 15-14 5.06-4.17 6 1-1 20-1 20 4.87-.14 7-11 5.58-13.2 3-18-1-21-1-21 11.28 13.28 17 11 17.37 16.72 20 21 11.82-1.39 17-13c5.17-.09 23.47 5.87 26 13 2.64 7.46-4.38 13.71-1.58 21.44s13.64 11.21 20.59 12.58c8.1 1.6 13.27 0 20 4 5.31 3.12 7.49 6.48 8 9 1.47 7.32-7.25 12.09-6 18 1.66 7.89 19.44 10.13 33 12 19.42 2.68 39.39 4.42 57 7 9.32 1.36 22.44 3.57 33-4 3.17 8.9 5 16 5 16a59.63 59.63 0 0 0 -2 10c-.43 4.82 13.78 16.05 11.99 17z"/></svg>