<svg viewBox="0 0 663.06 263.72" xmlns="http://www.w3.org/2000/svg"><path d="m347 263.72s-.36-8.35-20-11c-10.45-1.41-13.27-2.95-18-7s-22.37-16.28-27-17-33.61-18.64-42-20-34-2-34-2l-41-9s-88.41-14.87-89-15c-3.91-.89 6.12-17.07 3-18s-.77-8.83-5-12-21.57-6.79-27-9c-3.77-1.54-3.32-14.93-14-22s-23.36-8.9-33-9c1.84-5 9-16 9-16l26-9 17 5s16.56-2.52 22-2 20.57 0 26 2 20.55 3.55 25 3 24.54-2.47 27-2 26.73-2.58 32-4 21.72-9.27 26-10 32.94.13 37-3 23-10.08 27-12-4.18-6.28-4-9 .8-7.24 0-4-5-8.61 3-12 26.5-6.64 29-6 19 9 19 9 9.31 0 17 0a49.76 49.76 0 0 0 15-2c3.48-1 11.06 3.07 21 4s19.05 2.55 27 1 16.33-4 19-4 15.38 4 23 1 28.39-5.61 31-6 7.66-7.27 12-8a40.52 40.52 0 0 1 11 0c2.66.25 26-2.37 31-4s8.7-8 12-9 .29-7.87 4-13 16.71-1.73 21 0 21.2 17.14 25 19 22.33 2.63 29 2 25-4 25-4 13.55 13.55 16 19 4.94 19.43 1 22-16.93 11.89-20 19-17.89 17.78-22 35-22 52-28 53-37.39-5-45-3-16.63 17.37-18 20-16 23.3-18 24c-4.46-2.25-14.87-11.38-18-10a88.73 88.73 0 0 1 -9 3s-12.82-16.16-15-16-16 10-16 10-7.31 14.72-9 12-10-6-10-6-.62-10-4-10-18 10-18 10-11.69 4.34-13 7-7 7-7 7l-11-8s-8.81 8.56-12 12-26 9-26 9 21.83 4.81 26 6-3 6-3 6l15 3-11 11s-3.44-6.87-7-5"/></svg>