<svg viewBox="0 0 580.11 312.27" xmlns="http://www.w3.org/2000/svg"><path d="m179 19.18c3.55 1.64 3.47 4.93 7 7 4.81 2.82 16-2 16-2a86.06 86.06 0 0 0 7 13c7.33 11.19 15 17.39 13 23-2.16 5.94-12.83 4.5-16 11-3 6.17 5.67 18.83 6.95 24 2.77 11.13-1.68 16.17 2.05 27 3.42 9.94 11.14 18.19 20 24 11.19 7.34 31.14 14.17 49.16 6.8 1.76-.72 13.61-10 21.15-8.8 10.23 1.68 11.88 14.35 22.69 17 8.28 2 12.55-4.11 22-4 6.11.07 12.48 4.35 19 2 5.93-2.14 9.11-7.7 14-17 4.25-8.09 7.86-14.73 13-15 4.79-.25 8.55 6.26 12 5 2.83-1 2.15-6.08 5.18-8.11 4-2.65 9.69 1.53 16.82 3.11 12.31 2.72 25-4 25-4 .69 14.14 12.45 28.87 27 35 17 7.14 31.3-2.81 46 6 11.11 6.66 11.27 19 20 34s18.56 18.37 26 34c8.91 18.73 5.19 33.49 6 58a195.48 195.48 0 0 0 -21 3c-9.71 2.08-18.67 8.56-18.67 8.56-5.07 5.92-10.85 9.79-17.33 10.44-9.27.92-16-6.21-25-8-5.11-1-9.5-.41-15-2-7-2-15.42-5.69-16-11-.72-6.62 11.21-10.5 11-18-.14-4.78-5.53-6.95-12-13-7.6-7.11-10.45-13.68-15-13-5.36.8-6.66 10.49-13 15-8 5.67-14.52.92-23 5-11.11 5.35-12.16 18.43-24 22-3.79 1.14-12 0-12 0a115 115 0 0 0 -43-21c-15.37-3.66-30.79-4.2-37-3-5.68 1.1-19.9 8.82-32 7-13.31-2-16.36-10.83-30-13-10.35-1.64-16.59 2.09-27 5-17.55 4.9-27-.77-45 2-15.14 2.33-23.84 6.9-37 4-12.71-2.8-17.57-9.79-31-12-6.57-1.08-26.64-3-37 9-3.61-10.77-8.91-19.4-16-26-8.16-7.6-16.47-10.58-18-19-1.16-6.38 2.17-13.36 8-20 6.93-7.9 13.83-8.48 21-15 6.28-5.71 6.34-10.74 13-16 7.26-5.74 15.61-5.46 22-13 5.26-6.2 4.61-14.2 7-20 2.29-5.57 11.92-15.3 11-24-.82-7.79-6.65-9.09-8-17-1.56-9.11 4.73-12.91 3-22a23.37 23.37 0 0 0 -15-17c-8.57-2.74-15.86 2.16-26 6-18.34 6.95-33 8.18-41 1-6.64-6-7.73-16.78-6-28l-15-21c20.67 3.41 33.57-19.84 55-15 4.5 1 6.47 3.13 11 4 12.67 2.43 23.49-4.3 32-5 6.88-.56 21.57-.31 32 8 4.39 3.5 10.67 15.35 19 17 5.08 1 10.49-.94 16-5 0 0 .42-.16 1.13-.4 2.98 2.79 8.7-2.52 12.87-.6z"/></svg>