<svg viewBox="0 0 276.54 406.14" xmlns="http://www.w3.org/2000/svg"><path d="m9.52 56.14c3 3.18 10.82 2.52 16-1s5.81-10.42 11-12c4.31-1.32 9.53 2.63 11 1s-2.63-6.42-1-9c1.92-3 9.67-.43 11-3 1.24-2.39-4.59-6.42-4-11 .51-3.9 4.66-4.69 6.07-8.71 8.31.94 14.78-1.84 20.94-2.29s21 5 32 4 11.28-9.09 22-12 16-2 16-2c-.35 6.78 7.17 9.16 7 16-.19 7.22-8.59 9.37-10 17s5.08 13.44 6 21c1 8.45-2.63 14-6 22-9.22 21.81-9.06 36.13-4 46 2.16 4.21 10.65 12.53 20 20 4.18 3.34 9.3 7.18 11 14 2.11 8.56-4.05 15.52-1 23 2.2 5.4 8.26 8.91 17 11 9.87 3 7.46 1.22 15 6s11 17.73 17 19 33 5 33 5a11.19 11.19 0 0 0 7 9c3.69 1.25 8.07-1.25 9 0 1.6 2.15-9.18 11.2-7 16 1.79 4 11.73 3.07 12 5 .32 2.34-14.18 5-15 11-.63 4.53 6.65 7.39 6 12-.79 5.52-11.95 6.28-13 12-1 5.43 8.34 10 7 15-1 3.7-6.76 3.47-9 8-1.21 2.44-.17 5.33-2 7-3.13 2.83-9.3-1.54-12 1-2.42 2.26.91 15.57 1 17 .27 4.91-.34 7.78-2 10-2.61 3.43-7.19 3.91-10 6-4 3-4.76 7.18-7 10-5.82 7.31-12.88 7.55-19 13-5.23 4.64-7.29 11.57-11 17-4.52 6.6-7.4 9.75-8 17-14.2-1.57-24.36-6-29-14-7.41-12.83 4.13-26.75-2-42-5.42-13.49-17.55-13.46-25-25-12-18.52-1.5-40.64-2.21-74-.53-24.71-6.51-39.2-14.79-47-7.78-7.37-24.08-13.6-36-11-2.92-8.35-6.83-13.82-12-15-5.76-1.33-9.63 3.54-16 3-8.24-.7-14.45-8.38-17-14-2-4.34-3.27-11.75 0-22 2.63-8.24 11.86-16.63 10.66-24.68-.66-4.39-6.33-10-16.66-16.32-11.8-7.2-19.89-10.14-22.11-17.6-1.53-5.16 1.29-11.12 5.11-20.4 1.36-3.3 3-7.4 3.99-10z"/></svg>