<svg viewBox="0 0 407.07 345.36" xmlns="http://www.w3.org/2000/svg"><path d="m377 165c1.87.24 2.85 2.32 4 4 1.38 2 4.27 3.67 7 6a56 56 0 0 1 8 8 33.13 33.13 0 0 1 5 11 40.65 40.65 0 0 1 -5 12c-1.41 2.23-4.23 5.48-6 9-2.93 5.8-3.49 11.15-3 13 1.33 5.09 6.68 6.94 7 12 .27 4.27-3.44 5.82-3 10 .36 3.46 3.43 7.1 10 11 1.91 1.13 4.8 2.61 5 5 .16 2-1.82 2.89-2 5-.28 3.23 3.66 5.28 3 8-.31 1.27-1.6 1.67-3 3-1.94 1.84-1.86 3.41-4 5a11.77 11.77 0 0 1 -8 2c-1.69-.18-4.22-1.71-6-1-2.95 1.18-2.5 6.26-5 7s-5-4.08-9-5c-3.37-.77-6 1.58-9 0-2.45-1.29-2.54-4.27-5-5s-4.44 1.76-7 2c-4.57.42-6.64-3.73-11-4-3.95-.24-7 3.87-13 8-3.32 2.3-5.83 3.78-7 7-.36 1-.49 5.17-2 6-1.7.93-3.74-1.45-6-1-4.17.82-4.68 8.64-8 9-2.26.25-4.85-3.07-6-6-1.08-2.73-.22-6.49-2-8-2.83-2.4-9.61 1.8-11 0-1-1.32 2-4.32 1-6-1.13-1.89-6.84-1.73-11 1-3.65 2.39-4.51 5.89-8 9-3.19 2.83-5.43 3.55-7 3-1.27-.45-1.69-1.71-3-2-1.71-.38-3.69 1.14-6 4-1.34 1.66-4.15 7.94-7 9-4 1.48-7-3.18-11-2-5.77 1.71-4.94 12.66-11 15-4.44 1.71-8.44-2.73-14-2-3.35.44-6.54 2.94-11 7-5.33 4.84-8.68 8.14-14 10a20.14 20.14 0 0 1 -11 1c-2.87-.79-4.13-2.2-7-3-4.54-1.26-10.54-.81-12 2-15-10.06-30.63-19.14-35-27s-9.08-35.76-13-44-29.7-33.58-39-44-48.66-29.12-57-46-9-25-9-25 9.18.9 19-8c15.19-13.78 10.74-13.92 26-24a265.45 265.45 0 0 1 33-18s34.7-33.87 35-50c5.06-14.68 7.35-8.22 6-12s3.42-8.08 5-9 3.69.77 7 1 4.87-1.41 10-1 9.19 2.88 12 3 9.4-3 12-6c.83-1 1.89-4.08 4-5 2.92-1.28 6.07 1.41 8 0 2.45-1.8-.5-7.65 2-10 3-2.82 10.12 2.16 14-1 1.5-1.22 1.83-4 3-4 1.36 0 2.2 3.57 4 5 3.54 2.81 10.2 1 18-3-6.82 2.41 20.07-10.23 24-11s18.86.2 24 0 20.65-4.83 26-5 20 2 20 2-2.08 11.4 0 14 7.39.24 15-1a12.35 12.35 0 0 1 8 1c1.29.7 4.22 2.66 5 6 .85 3.7-1.88 5.54-1 9 .75 3 4.39 4.87 6 7 3 4 3.59 6.94 3 9-.84 2.9-3.62 3.4-5 6-2.38 4.48 1.3 8.24-1 12-2.94 4.79-10.89 2.6-14 7-1.59 2.25-.11 4 0 9l11.73 20.75c-3.2-.06-6.47 2.35-9.73 7.25-3.47 5.2-4 8.79-3 11 1.77 3.89 8.52 4.25 12.19 7.14s4.81 6.45 6.81 10.86c3.18 7 7.45 8.72 10 16 .92 2.62 2.13 7 6 9 3.12 1.58 7.06.13 7.71 1.42 3.55.42 5.53.36 7.29.58z"/></svg>