<svg viewBox="0 0 461 568.55" xmlns="http://www.w3.org/2000/svg"><path d="m0 144.55c.37-2.86.7-5.66 1-8.5.33-3.2.22-6.44 1-8.5 4.28-11.27 18.1-12.67 20-23 1.24-6.72-3.94-10.56-4-18 0-5.52 3.49-11.6 9-20 4.22-6.42 7.17-10.64 10-11 8-1 13.14 13.36 24 14 5.87.35 7-3.26 13-3 7.64.34 11.43 7.14 18 6 5.85-1 7.31-7.71 13-8 5-.25 8.37 5.37 13 7 9.35 3.32 19.31-2.37 23-5 4.47-3.19 8.26-11.3 14-12 6.22-.76 9.55 6.13 16 5 4.36-.76 4.7-4.31 9-5 6.46-1 10.3 6.47 17 7 7.4.6 10.7-6.41 20-12 8.3-5 23.7-5.14 26-12 2.52-7.5-8.95-14.26-7-23 2-9.06 16.76-16.71 28-14 7.41 1.8 9.09 8 17 9 5.59.73 12.46-3.48 15-1 2.84 2.79-2.08 9.9 1 14s10 1.12 13 5c3.79 4.94-3.65 15.79-1 18 3 2.54 14.87-10 24-7 5.75 1.93 6.58 9.27 12 10 6.76.93 10.87-9.7 19-10 7.09-.26 14.62 6.5 14 11-.8 5.89-15.35 5.45-19 14-3.13 7.35 1.85 18.22 9 24 7.68 6.2 14.92 3.66 23 8 10.4 5.59 9.46 12.63 20 18 7.47 3.8 13.56 2.93 22 6 10.42 3.79 15.33 8.3 16 12 1 5.29-4.14 8.51-3 14 1.19 5.69 8.41 10.58 15 10a78.59 78.59 0 0 1 -21 22c-13.24 9-20.87 24-36 33s-11.29 32.28-23 37-26.25 4.08-39 12-18.06 17.94-24 30-17.17 6.1-25 18-2.31 22.28-2.31 22.28c-1.31.93-3.11-.65-4.69.72 2.52 5.26-5.68 12.13-3 17 3 5.44 15.67 1.46 19 7 2.91 4.88-4.94 12-4 20 1.13 9.72 12.76 13.69 12 22-.65 7.07-10.32 9.66-10 16 .28 5.88 9.57 8.57 13 15 4.74 8.9 1.79 21.34-3 29-4.22 6.75-13.85 10.38-15 18s6.95 12.44 5 19c-2.23 7.46-14.66 7.21-20 16-1.74 2.87-20.54 8.63-24 5-3.94-4.13 3.21-14.23-1-19-3.67-4.15-14.27-2.55-22 2-15.19 8.95-19.87 35.2-28 47-8.91 12.92-20 23.77-30.51 22.28-9.49-1.35-12.27-12.33-22.49-13.28-8.95-.82-19 6.48-23 15-5.52-11.2-7.58-21.84-6-32 2.12-13.7 12-20.35 12-34 0-14.46-11.68-21.8-22-39-11-18.24-14.22-36-14-44.77.19-7.25 5.07-25.2 15-42.23 9.08-15.57 18.2-23.64 21-39 1.56-8.57 2.8-26-6-40-5.41-8.6-18.65-14.61-20-25-1.68-13 15.52-23.71 12-32-3.23-7.6-20-3.54-28-13-6-7.12-2.25-16.72-9-22-7.43-5.8-17.56 1.71-27-2-13.83-5.42-17.2-28.73-27-40-7.45-8.55-17.44-14.84-30-19z"/></svg>