<svg viewBox="0 0 142 192.54" xmlns="http://www.w3.org/2000/svg"><path d="m74 142c11.1-11.18 11.79-20.88 24-30 5.35-4 16.52-11.27 20-13 4-2 1-5.11 6-10s11.21-8.53 14-8-1.62-7.92 4-8c0 0-.27-17.32-4-24-3.09-5.54-5.6-10.39-7.89-15.6-1.56-3.55-2.72-6.79-4.11-10.4a169 169 0 0 0 -11-23 101 101 0 0 0 -16 9c-6.73 4.66-17 16.9-30 22-6.45 2.52-10.83 1.87-17 5-6 3-17.52 14.3-25 33-6.19 15.46-7.32 27.86-17 32a17.9 17.9 0 0 1 -10 1c3.65 11.23 4.71 21.88 3 32-1.28 7.6-3.76 13.32-2 22 1.86 9.18 7 11.19 10 20 2.65 7.88 1.74 13.53 6 16 2.32 1.35 8.06.09 16-3a140.58 140.58 0 0 0 14-7c5.59-3.07 9.06-5.16 10-9 1-4.09-1.72-6.75-1-11 .81-4.81 4.92-7.57 8-10 .31-.24 8.77-8.77 10-10z"/></svg>