<svg viewBox="0 0 234.41 271" xmlns="http://www.w3.org/2000/svg"><path d="m86.41 271c10.38-13.28 29.72-20.84 45-27 7.22-2.91 17-6.47 26-15 9.93-9.42 11.28-18 21-27 10.24-9.46 23-13.6 41-15-.66-7.3 4.58-12.88 6-20 1.23-6.19.73-12.05 0-14-2.43-6.49-9.61-9.1-10-15-.43-6.43 7.77-10.3 10-18 1.57-5.42-.61-7.93.16-13.52 1.43-10.36 8.66-13.59 8.84-23.48.13-7.15-4.54-12.61-6-18a59 59 0 0 1 -1-23c.4-2.8 1.35-8.21-1-14-1.75-4.3-5.21-8.48-11-12-7.23-4.4-15.87-4.36-21-6-2.39-.77-7.34-3.3-12-4-5.5-.82-10.39.17-17 1-6.09.76-11.41 1-14 0-4.22-1.63-7.78-6.89-13-7-3.32-.07-5.88 2.33-8 3-7.08 2.23-12.34-1.67-19-1a27.26 27.26 0 0 0 -14 6c-4.86 9.94-6.49 19.38-4 28 1.8 6.24 5 8.83 7 15 1.25 3.84 1.45 15.62-2 28-2.87 10.29-7.6 19-10 21-9.33 7.94-19.3 3.86-29 11-8.8 6.47-9 15.46-15 28-2.49 5.2-10.21 15.19-17 24-17.76 23-29.82 36.42-27 49 3 13.57 18.66 20.15 31 26a347.8 347.8 0 0 1 55 33z"/></svg>