<svg viewBox="0 0 454.64 413.52" xmlns="http://www.w3.org/2000/svg"><path d="m52.64 29c-1.29 7.11-3.82 12.09-8 14-3.53 1.61-6.52.1-10 1-8.55 2.2-15.73 13.56-14 22 1 4.68 4.3 5.46 5 10 1.05 6.75-5.34 11.2-11 21s-6.3 17.69-5 21c2 5 6.61 5.71 8 11 1.7 6.43-4.32 11.09-2 17 1.62 4.09 5.21 3.67 7 8 2 4.89-1.41 8 0 13 1.68 5.9 7 6.42 9 12 1.46 4 .14 9.66-4 18-4.64 9.37-9 15.31-7 18s7.94-.54 12 2c6.5 4.05 6.57 18.1 3 29-2.08 6.37-9.15 17.48-19 28-2.78 3-7.62 7.93-8 15-.21 4.2 2.22 7.44 1 12-1.54 5.81-6.8 6.65-9 12-1.14 2.82-1.06 10.13 3 19 2.35 5.09 5.58 9.13 7 10 7.95 4.85 16-2.19 24 2 7.85 4.11 7 15.06 15 18 2 .74 7 .75 13-2 7.09-3.26 8.34-7.95 15-11 6.4-2.92 16.78-.87 19-1 7.28-.44 16.8-6 25-3 7.79 2.85 10.31 10.35 17 15 5.56 3.86 10.65 4.26 16 7 6.43 3.28 14.41 9.65 22 20 8.64 11.75 10.23 21.3 20 25 3.32 1.25 11 3.09 16-1 5.36-4.41 2.91-13.23 7-20 1.37-2.24 6.93-7 13-11 4.7-3.09 8-4.76 10-9 3.21-6.82 1.25-16.43-3-18-5-1.83-11.43 8.52-14 7s-.92-15.28 8-23c6.39-5.54 17.86-5.25 20-11 2-5.5-5.62-10.53-4-17 1.82-7.3 14.05-9.07 14-14 0-3.17-5.52-5-12-10-5.26-4.06-7.93-8.14-8-10-.34-8.34 14.28-17.1 19-14s-.33 18.66 1 19c1 .25 2.6-8.83 9-13 5.24-3.42 11.12-1 15-5 4.12-4.23 1.37-10.62 2-20 .32-4.83 2.26-21 13-27 7.74-4.34 15 .5 23-5 5.05-3.48 4.87-7.29 10-11 4.49-3.25 9.44-3.44 13-5 8.57-3.76 10.53-9 19-13 7.22-3.42 13.8-3.68 16-3 2 .62 6.23 3.94 8 3 2.71-1.45-.3-10.42 2-17 2.34-6.74 10-11.58 12-14 5.8-7.09 6.85-17.56 11-30 2.94-8.82 5.54-14.31 10-18 6.53-5.42 12.63-4.08 19-10 5.71-5.31 5.44-10.93 9-19a260.36 260.36 0 0 1 -25-14c-10.19-6.5-15.87-11-25-11-13.57 0-24.57 13.74-34 10-7.56-3-5.83-13.67-13-19-13.71-10.2-35.51 7.8-52-2-6.89-4.1-8.59-11.93-14-18-9-10.13-20.62-18.47-33-19-5.63-.24-20.87 4.85-36 16-7.94 5.85-15.57 12.53-21 10-6.3-2.94-3.49-15.4-10-19s-14.88 5.31-30 13c-9 4.59-24 5.41-33.38 15.26-1.6 1.74-8.18 14.23-15.62 16.74-9.75 3.3-19.38-4.43-31-11a131.72 131.72 0 0 0 -29-12z"/></svg>