<svg viewBox="0 0 335.44 203.25" xmlns="http://www.w3.org/2000/svg"><path d="m250.11 0c7.24 9.9 14.43 12.92 20.89 23.36 4.37 7.07 5.61 13.74 11 21a67.83 67.83 0 0 0 13 13c3.37 2.63 10.95 6.33 16 12a41.63 41.63 0 0 1 10 21c1.48 9.75-1.81 15.52-3 25-1.13 9-.26 21.72 6 33 4 7.26 9.2 12.27 11 22a55.59 55.59 0 0 1 0 14c-1.2 10.51-4.48 16.79-7 18-4.1 2-9.89.42-13.65-2.3-1.43-1-4.39-5.43-7.35-5.7s-5.58 3.07-8 4c-4.87 1.87-9.51-1.08-14-1-5.37.09-9 3.57-14 2-6.08-1.92-7.85-9.79-13-10-4-.17-5.71 4.62-10 6-7.24 2.33-11.6-4.18-19-2-3.86 1.13-6.17 5.41-10 5-4.1-.43-7.67-7.11-10-9-5.09-4.12-10.14-3.86-16-5-6.75-1.31-16.23-8.27-27-15-11.61-7.26-20.57-12.33-24-19-1.7-3.31-3.09-14.92-9-19-5.55-3.82-13.28-1.24-20-3-8.68-2.27-13.3-5.75-15-10-2.43-6.06 2.56-13.71 0-16-2.82-2.51-11.86 5-20 5-12.08-.07-20.06-11.39-29-21a140.28 140.28 0 0 0 -28-23c-11.62-8.63-21-17-21-17 7.48 1.31 18.94.15 24-7 3.17-4.49 1.92-11.7 5-13 4.15-1.75 11.12 9.08 21 11 6.39 1.24 12-.55 12-1s14-6.11 33-5 42.34 4.46 49 3 34.48-12.38 42-13 25.17 4.29 43-2 15.6-11.62 21.11-19.36z"/></svg>