<svg viewBox="0 0 207.42 155.27" xmlns="http://www.w3.org/2000/svg"><path d="m207 8.27c-3.85 1.58-2.19 42.8-6 41s-2 16-2 16-5.22.75-11 7-9.38 26.8-11 30-21.69 15.38-24 20-6.67 14.82-7 19-19 6-19 6l-5 8s-2.57-.8-10-1-21-7-21-7 11.52-.5 13-2 2.22-11 2-12-7.91-8.27-8-11-2.52-6.73-6-7-8.7 3.18-12 1-18.53-6.73-20-9-6.17-5.61-7-5-6 5-6 5-9.3-4.16-11-7-4.3-9.1-8-9-5.15 6.08-7 4-6.15-12.53-9-12-12 0-12 0 19.58-2.89 23-3 16.59-3 20-4 10.16-5.59 8-6-1.29-4 1-4 6.68-1.9 1-4-12-18-12-18a87.89 87.89 0 0 1 20-2c12.07 0 16.36-4.76 23-6s9.67-5.12 18-5 25.92-3.88 30-4 3.26 5.27 7 5 15.6-4.7 23-4 8.77-25.95 17-28c7.43-1.85 31.91 6.39 28 8z"/></svg>