<svg viewBox="0 0 706.25 316.64" xmlns="http://www.w3.org/2000/svg"><path d="m12.18 6c-.07 4-3.42 7.85-2 12 1.12 3.29 4.48 3.79 5 7 .69 4.28-4.86 7-4 11 .73 3.38 5.37 3.64 6 7s-4 5.87-5 10c-1.17 5 2.58 7.57 1 12-1.86 5.21-9.46 5.76-10 10s6.73 6.7 7 12c.25 5-5.57 7.21-5 12s6.43 5.44 7 10c.65 5.26-6.77 8.06-7 14-.22 5.52 5.59 8.48 7 14 1.64 6.43-1.53 13.73-6 20-2 2.74-3.75 4.52-5 8-1.17 3.23-1.39 6.38-1 11s1.18 9.77 2 12c3.82 10.25 13.82 13.43 15 23 .49 3.89-2.15 8 0 12 2.41 4.51 9.1 4.87 10 9 .68 3.14-3.12 6.41-2 8s5.1-.61 8 1c2.65 1.47 2.32 4.2 5 6s7.12 1.93 9 0 .76-6.55 1-8c.93-5.73 6-8.29 12-13 3.87-3 9.9-12.38 17-14 6-1.39 12.53 2.29 18-1s3.81-9.18 9-13c6.17-4.56 13.68 0 19-5 3.51-3.28 3.22-9.28 5-13 2.32-4.86 5.49-7.25 10-11 4.69-3.92 10-8.47 12-11 6.8-8.48 8.95-22.87 13-23 4.25-.15 6.08 13.14 15 17 3 1.3 8.25 2.3 13 0 8-3.9 9.08-16.95 13-17s5.26 12.7 13 16c5.41 2.29 11.67.05 15-2 5.72-3.54 8.4-12.23 12-12s4.71 8.52 9 9c3.13.34 4.57-3.82 8-4 5.67-.31 8.8 9.45 14 9 4.08-.37 5.37-7 9-7 4.39 0 5.82 10 12 12 5.88 1.94 11.76-4.54 16-2 4.54 2.72 1.68 12.83 6 15 3.6 1.79 8.72-4 12-2 2.91 1.72.91 7.47 4 10 3.39 2.76 8.66-1.2 13 1 5.56 2.8 7 12.69 6 20-.82 5.79-3.9 11.58-8 19-2.11 3.79-5.07 9.27-3 14 1.79 4.09 7.15 4.87 8 9s-3.72 6.2-3 10c1.17 6.16 14.92 7.69 16 13l33 12a174 174 0 0 1 43 27c7.27 6.33 18.4 17.09 28.7 14.11 9.47-2.73 10.36-15.4 19.3-21.11 14.92-9.54 41 4.44 57 4 21.46-.6 46.84-11.44 62-30 7.1-8.71 13.39-31.59 29-40 9.22-5 20.18-5.55 32-3a113.8 113.8 0 0 1 12-6c9.48-4.08 15.79-5.41 21-12a29.44 29.44 0 0 0 6-16 30.1 30.1 0 0 0 -1-10c-11.71-1.13-20.07-4.74-25-11-3.45-4.39-4.14-8.64-9-11-3.77-1.84-7.77-.33-11-3-3.49-2.89-2.63-7.48-4-13-2.38-9.6-10.68-18.55-19-20s-14.07 5-26 12c-7.15 4.16-26.55 14.15-33 8-4.22-4-.15-13.5-3-21-2.69-7.06-10.89-11-23-18-9.5-5.47-15.29-9.19-21-8-9.25 1.92-11.55 11.76-21 15-10.85 3.71-21.87-2.23-26-5-11-7.39-10.24-17-20-24-3.94-2.85-17.95-6.21-35.11-4.48-13.79 1.39-22.4 5.82-32.89 2.48-11.73-3.75-17-14.21-26-20s-24.05-12.55-38-9c-10.27 2.6-14.89 9.76-24 14-15.48 7.2-27.15 7.27-36 3-10-4.84-16.36-14.87-19-26 0 0-6.47-3.21-17-4a55.36 55.36 0 0 0 -16.79 3.33c-5.75 2.13-9.25 4.56-15.32 5.47-8.09 1.2-14.67.1-19.33-3.29-3.88-2.81-3.77-5.6-7.67-8.39-3.39-2.42-13.4-3.65-26.62-1.1-5.14 1-9.48 2.1-14.24 0-5.42-2.4-5.92-7-11.66-9.12-4.47-1.67-6.57.44-11-1.45-6.41-2.77-10.69-11-9.42-17.46.6-3.09 2.28-4.82 4-7 0 0-20.07 5.73-29 8s-21.49.59-30 0-36.95-1.99-36.95-1.99z"/></svg>