<svg viewBox="0 0 533.79 374.64" xmlns="http://www.w3.org/2000/svg"><path d="m428.61 220.64c11.51-16.44 24.11-26.07 38-29 11.21-2.36 19.47.37 27-6 8.9-7.53 4.77-17.81 13-27 4.58-5.11 14.61-7.47 16-14 1.49-7-6.73-11.32-7-19-.44-12.41 16.11-17 18-30 2-13.83-12.89-20.76-14-37-.78-11.46 5-17.38 6-30 .52-6.28-1-19-1-19s-20.83-.37-35-3c-24.5-4.56-38.56-10.65-50-3-10 6.68-10.27 19.31-17 27.44-11.74 14.1-31.53 11.94-62 17.56-18.09 3.34-27.91 6.62-39 1 0 0-11.78 13.45-16 23s4.71 23.65 5 31-4.68 6.32-9 18-3 17.61-11 23-17.3 1.41-20 4a14.68 14.68 0 0 0 0-10c-.69-1.83-3.14-7.19-8-8s-9.6 3.89-12 7c-5.43 7-5 19.36-10 21-2.85.94-5.14-2.28-8-1-3.5 1.56-2.75 7.85-6 9-2.76 1-5.18-2.87-8-2-3.79 1.17-2.84 8.94-7 11-3.68 1.82-10.16-.83-12-5-1.28-2.88.57-6.72-1-8-2-1.65-7 2.58-9 1-2.21-1.75 1.53-9 0-10-1-.67-3.82 1.84-5 3-1.72 1.68-8 11-11 11-4.06 0-9.06-8-8-15a69.77 69.77 0 0 1 -17 6c-10.55 2.22-20.3 1.3-24 0-5.8-2-11.18-6.58-18-13-6.15-5.8-10.67-10.12-17-10-4.23.08-10.07 2.2-13 7-3.08 5.05-.35 10.53-4 15-1.4 1.71-3.74 3.24-8 4-6.1 1.09-11.81-3.28-15-1-2.85 2-1.29 7.7-2 16-.36 4.23-1.25 8.08-2 9-6.21 7.63-22.69-.57-32 7-5.61 4.56-6 11.76-7 20-1.58 13.27-8.71 25.71-6 38 4.11 18.65 19.78 23.19 22 42 1 8.51-3.5 15.48 0 26 2.32 7 6.62 10.43 11 17 3.82 5.73 5.67 11 9 17 2.81 5.1 5.78 10 9 15 5.82-8.95 11.88-14.35 18-14 5.83.33 7.86 5.65 14 6 5.55.31 9.66-3.7 17-10 5.86-5 9.93-7.91 14-8 8.71-.19 15.6 8.4 18 12s3.1 8.82 7 12c5.76 4.7 18.14 2.37 22 3 8.18 1.33 11.81 6.16 21 6 7.31-.13 12.4-4 21-8 10.82-5 18-6.46 21-13s-.75-10.3 2-17c3.49-8.49 12.29-8.5 15-17 2.06-6.48-2.32-9.78 0-16 2.89-7.73 15.38-11 20-15 3.53-3.05 10.26-14.1 14-28 2.72-10.11 3.08-18.71 10-23 5-3.1 9.89-1.3 15-3 9.1-3 11.87-11 18-15 9.64-6.26 21.94-4.34 42-2 8.2 1 17.42 2 23 2 9.25 0 16.75-1.25 26-1a120.07 120.07 0 0 1 19 2z"/></svg>