<svg viewBox="0 0 188.37 552.42" xmlns="http://www.w3.org/2000/svg"><path d="m0 528.36s10.08-.88 15-1.36c27.9-2.75 45.91-6.76 64.17 3.8 9.56 5.53 13.59 14.46 26 19 22.71 8.31 48.82-4.71 63-17 7.31-6.35 14.19-14.49 18-23-5.67-9.9.73-21.39-1-33-1.41-9.43-8.48-19.32-7-29q-7.44-9-15-18c-7.52-8.95-15.3-18.44-21-23-6.6-5.28-11.61-7.46-16-14-8.44-12.54-5.13-27.26-9-39-3.25-9.83-8.62-13.22-12-23-3.08-8.86-9.87-34.49 3-54 4.36-6.62 12.55-10.59 16-20 1.91-5.23 1.56-20-7-37-3.43-6.82-16.8-23.08-21-40-2.36-9.48-1.66-16.81 0-21 5.74-14.51 25.15-23.48 42-23 9.58.27 20 6.74 32 4 6.81-1.56 12.79-5.44 18-11 1-.83-1.35-6.67-2-10-2.67-1.67-5.35-3.33-8-5l-6 1c-.12-5.63-1.3-9.59-4-11-4.11-2.14-8.83 3.21-14 2-9.3-2.18-11.76-21.18-17-21-2.84.1-3.67 5.68-7 6s-9.07-8.17-10-9c-4.39-3.89-8-3.88-13-7-8.4-5.29-13.06-12-14-15-1.42-4.56-.55-9.28-1-13a35.67 35.67 0 0 0 -3-11c-1.86-4-3.74-5.88-3.95-9.76-.23-4.66 3.47-9.22 1.95-11.24-1.3-1.71-5.4.32-12 1-2.43.25-4.59.34-6 2-2.67 3.12.47 8.83-2 11-1.37 1.2-3.62.61-6 0-8.11-2.1-13-2.8-14-6-.58-1.91.86-4.3 0-5-1.29-1.06-5.58 3.33-10 3-3.89-.29-6.49-3.37-8-5-.38-.41-7-5.7-11-9a118.83 118.83 0 0 0 -10.04-6.8l-8.13 213.42z"/></svg>