<svg viewBox="0 0 174.94 327" xmlns="http://www.w3.org/2000/svg"><path d="m157 327c-4.22 0-10.43-2.36-14.59-3.14-5.21-1-8.38.41-13.41-1.86-5.82-2.63-11.11-3.94-15-9-1.38-1.79-12-7-12-7-1.34-2.86-6.15-8.1-9-12s-13.08-14.68-15-19-13.12-6.11-15-11-7.49-16.72-7-19-7.35-7.47-11-12-7.32-11.8-7-16-8.21-16-10-19-11.6-5.91-14-9-12.15-13.33-12-14-2.2-9.26-2-12 2.89-5.6 6-8 4.44-6.08 6-7 7.35 1.59 9-1 5.9-9.08 6-11 .22-5.89-1-8-2.43-8.76-2-9-5.7-6.86-7-8-3.65-3.84-4-9-2.26-7.61 3-10 7.36-3.61 7-8 1-8.72 5-10 9.16-5.07 10-8 2.68-5.49 9-8 12.8-5.7 13-11 .41-6.91 1-13 .8-7.92 5-12 1.59-8.75 6-9 12.15 4.67 15 1 6.34-8.27 12-12c.9-.59 2.76-1.73 2.76-1.73l.24-.27c2.41 4.75 11.47 11.2 12.74 12.75 12.67 15.44 1.4 34.64 8.85 53.11 8.61 21.35 32.11 38.12 51.34 36a44.61 44.61 0 0 1 -2.93 15.14c-4.61 12-13.19 17.21-18 26-2.71 4.95-5 17.07-6 30-.64 8.59.1 15.46-1 24-2.6 20.19-13.74 27.82-13 45 .94 22 19.27 31.08 24 54 2.12 10.24 1.73 19.9-1 31z"/></svg>