<svg viewBox="0 0 289.49 532.22" xmlns="http://www.w3.org/2000/svg"><path d="m34.48 0c17.89 19.79 27.87 40.18 25 60-3 20.69-19.08 30.52-35 53-17.48 24.73-31.17 58.07-20.99 69 9.87 10.59 39.25-6.43 67 3 15.64 5.31 24.88 12.8 28 22 4.42 13.07-8 31.95-10 44-1.67 9.88 1 15.44-2 25-7.37 23.47-27.18 26.88-35 47-6 15.53-3.54 35.75 10 62 5.08 9.85 16.39 19.17 19 33 4.61 24.43-15 38.75-10 61 3.29 14.56 13 22.4 35 36s25 15.56 39 17c23.4 2.42 48.17-15.79 59-7 5.06-1.83 8.49-4.46 10-8 2.41-5.66-1.78-9.66 0-15 3.11-9.35 18-7.75 23-17 5.34-10-5.67-21.73 0-30 4.44-6.49 18.69-5 26-8 14.74-6 27.32-21.82 27-37-.18-8.33-8.44-15.76-16-28-4.48-7.26-9.76-16.41-18-17-4.71-.34-6.8 2.48-12 2-7.12-.66-14.45-7-16-14-1.69-7.63 5-12 3-18-2.89-8.79-32.94-13.38-39-16-13-5.6-29-16.24-28-26 .76-7.16 10.9-9 15-17 6.4-12.53-4.42-26.11 3-36 5.33-7.11 13.58-3.72 19-11 7.06-9.5-1.86-25.56 4-30 5.53-4.19 18 7.64 30 6 15.89-2.17 29.22-21.68 31-40 2-20.76-10.27-36.49-19-44-19.66-16.9-37.91-7.23-58-23-12-9.41-13.09-23.74-28-30-15.53-6.52-33.06 4.42-42-4-10.51-9.9 3.4-33.25-7-48-6.71-9.52-19.12-11.29-38-13-13.21-1.19-26.1-2.19-39.01-3z"/></svg>