<svg viewBox="0 0 313.7 323.41" xmlns="http://www.w3.org/2000/svg"><path d="m296.26 0s-.52 13.5 2.18 14.93c4.57 2.43 13.14-5.8 15-4 2 2-8.24 12.24-7 23 .58 5.1 6.18 11.65 4 16-1.43 2.85-4.82 2.76-7 5-5.2 5.35-.62 13.89-4 21-3.49 7.33-14 9.7-14 16 0 3.89 3.89 5.53 5 10 1.29 5.24-.67 11.29-4 15-3.89 4.32-7.8 3-11 7-4.95 6.24.38 16.72-4 20-3.72 2.78-10.1-3-16-1-8.13 2.71-13.91 16.63-11 27 .89 3.2 4.65 7.1 4 11-1.23 7.35-13.48 8.09-16 16-2 6.21 4.1 13.07 5 19 .81 5.36-1.48 17.08-9 30-2.59 4.44-6.25 9.69-5 16 1.09 5.55 5.6 7 6 12 .66 8.25-11.54 13.92-15 24-1.65 4.79-1.73 14.12-2 10a154.85 154.85 0 0 0 -23-3c-4.25-.23-11.06-.12-17 0-12 .25-21.45.83-27 4-3.72 2.12-8 7.92-14 9-9.44 1.69-16.18-7-27-8-8-6.62-17.34-8.91-23-6-6.6 3.39-6 13.19-13 16-5 2-9.38-2.11-15-2-8 .15-14 7.38-20 5-5.63-2.22-5.11-10-11-12-4.71-1.6-9.69 2.94-12 1-3.58-3 5.85-15.95 2-26-2.79-7.26-9.55-7.49-12-15-2.27-6.91 5-18.9 6-23s1.7-8.4 5-10c4.3-2.09 9.71 2.45 15 2 6-.51 9.62-5 15.65-12 6.22-7.2 12.51-12.65 14.35-18 3-8.56-.1-14.91 4-24 1.83-4.07 6.28-9.85 14-15 7.07-4.71 13.31-6.6 18-7 7.22-.61 11.11 2.49 18 1 11.53-2.48 22.16-15.34 21-26-.87-7.9-7.7-9.72-9-19a21.94 21.94 0 0 1 2-13c2.91-5.54 8.19-6.41 10-12s-2.81-11.62 0-15c2.29-2.77 7.19-.78 11-3 4.63-2.7 8-13.94 8-14 3-5.19 6.54-6.28 10-11 6.28-8.56 6.6-17.56 6.82-27 28.8 20.39 51.74 29.29 51.74 29.29l15.24-54.22z"/></svg>