<svg viewBox="0 0 539.04 462.43" xmlns="http://www.w3.org/2000/svg"><path d="m57 374.43c16.71-10.4 35-6.61 48-1 5.69 2.45 11.64 6.11 20 7a44.7 44.7 0 0 0 21-3c4.93 6.32 31.2 23.93 35 18 0 0 38.87 10.67 44 26s23.35 30.33 16 41a50.54 50.54 0 0 0 18-15c6.49-8.84 9.13-19.5 10-37 1-20-.54-35.12 7-39 5.42-2.79 10.82 2.94 16 0 9.48-5.39 1.33-30.2 11-36 6.33-3.79 14.59 4.22 21 0 5.88-3.87 2.79-13.62 8-20 7.66-9.38 26.24-6.73 27-11 .65-3.67-12.36-7.68-12-13.05.25-3.64 6.35-4.49 8-8.95 2.11-5.83-4.3-10.57-3-17s8.95-11.82 16-12c10.46-.27 17.05 10.24 19 14 1.58 3.06 2.72 11.77 6 13 4.12 1.54 12.5-8.41 17-11 9-5.2 19.05-2.37 26-10 5.29-5.81 3.2-12.78 9-17 8.61-6.27 20.85 3.25 29-3 6.24-4.79 3.85-16 9-18 3.71-1.45 9.15 2.62 15 9a118.41 118.41 0 0 1 9-13c6.19-7.75 16.3-17.2 24-28 5.18-7.27 8.41-13.58 8-21s-4.48-15-10-22c-2-2.47-5.73-6.81-5-12a11.32 11.32 0 0 1 3-6c-3.36-8.2-4.37-15.83-3-23 1-5 6.29-12.8 5-20-1.51-8.42-9.14-10.88-17-19-10.05-10.38-8.61-19-17-31-5-7.17-13.33-16-25-24-14.41-9.93-26.36-12.6-31-11-11.35 3.93-13 20.67-22 29-16.92 15.7-48.4 5-69 10-23.69 5.72-35 17.27-52 11-10-3.68-13.08-10.42-22-15-15.84-8.13-34-5.39-43-3-10 2.66-22.11 13.53-35 12-9.95-1.18-16.46-8.12-28-19-9-8.48-17.13-15.09-22-16-17.69-3.31-37.37 21.51-52 28-19.47 8.64-39.1 1.75-58 17-9.34 7.54-14.11 22.24-23 39-8 15-13.13 23.53-13 37 .14 14.82 6.89 28.57 15.1 38.67 12.16 14.9 34.2 19.72 39.9 36.33 1.8 5.26.11 21-9 39-4.27 8.42-14.73 18.28-16 29-2.64 22.21 24 38.67 18 57-2.25 6.88-9.21 9.19-10 17-.9 8.91 6.56 18.06 19 27z"/></svg>