<svg viewBox="0 0 500 209.08" xmlns="http://www.w3.org/2000/svg"><path d="m490 7.08c-6.59-3.42-12.38 5.14-19 6-1 .12-3 1.05-5 1.26-4.18.42-6.36-1.41-10-1.26-7.05.29-9.21 6.72-16 8-6.37 1.2-10.25-2.82-18-5-7.91-2.23-15.45-1.54-21-1-3.23.32-4.95 0-7.08.45-2.35.47-4.91 2.14-5.92 2.55-7.67 3.12-17.87-2.69-24-3-5-.25-13 .54-20 5-1.88 1.21-7 6-12 8-5.6 2.23-13.73-4.27-20-3s-10 7.66-15 9-31.68-3.71-39-3-19.31-2-24-6-10.57-9.53-16-13-9.16 10.66-14 7-14.23-20.38-24-19-14.63 7.64-26 7-21.35-4.37-26-3-3.38 5.65-9 7-14.74-.34-17 3 2.25 9.37-1 13-8.44 7.06-11 11-7.81 15.79-11 21-13.52 3.79-18 6-12.21 5.16-13 9 4.46 8.52 3 12-8.23 11.89-8 15 6.45 7.26 4 13-17.27 16.65-19 21 1.72 12-2 15-14.65 9.71-18 12-8 9-8 9 13.06 3.89 19 5 8.72 12.17 16 12 15.42-2.13 19-6 13.5-16 19-14 15.43 7 25 4 22.45-4.6 28 0 12.52 11.15 20 14 13.48-2.81 24-1 16.09 12.3 23 17c10.44 7.11 20.62-3.43 34-1a43.68 43.68 0 0 1 18 8 150.63 150.63 0 0 1 2-25c2-12 5.53-24.05 8-28 1-1.65 8.92-11.16 12-19a48.21 48.21 0 0 0 3-12 79.81 79.81 0 0 1 15-13c10-6.65 19.54-10 26-11a57.7 57.7 0 0 1 19 0c6.08 1 10.11 4.13 17 4 5.53-.1 12.3-4.16 19-2a16.31 16.31 0 0 1 11 19c-.91 4.46-3.41 5.76-4 10-.95 6.79 3.89 14.26 7 14s4-10.31 9-17c3.22-4.29 6.51-5.93 10-10 3.2-3.73 5.18-7.59 8-12 3.92-6.13 8.27-11.94 11-14 5-3.77 9-4.23 14-8a36.12 36.12 0 0 0 9-10c2.56 5.37 5.32 9.24 8 9 4-.36 4.73-9.9 11-13 4.6-2.27 8.32 0 14 0 8.61.06 17.24-5 26-15-1-9.67-9-39.33-10-49z"/></svg>