<svg viewBox="0 0 365.99 314.36" xmlns="http://www.w3.org/2000/svg"><path d="m3.93 118.75-3.93 42.61s8.54 7.58 13 14a123.88 123.88 0 0 0 10 11c1.7 1.71 3.87 3.7 7 4 4.66.44 9.19-4.29 11-3 1.37 1-.22 4.41 1 7 2 4.25 8.91 4.94 12 5 2.15 0 3.47-.38 4-1 1.91-2.27-1.76-6.89 0-10 1.49-2.64 5.6-2.74 9-3 8.92-.68 14.48-3.3 16-1 1.76 2.65-3.59 7.89-3 14 .34 3.57 2 5.38 4 9a40 40 0 0 1 4 11c.81 3.93.21 8.25 2 13 1.91 5.06 5.87 9.53 11 13 5.43 3.66 9.4 2.56 14 7 3 2.87 4.12 5.82 7 6 3.57.23 4.88-4.14 8-4 6.07.27 7.42 17.09 17 21 4.6 1.88 11.13 1.29 15-2 2.38-2 3-6 6-7 3.3-1.12 8.23 1.35 10 5 1.65 3.43-.34 8.27 1 9s4.6-3.8 7-3c2.22.74 1.75 5.21 4 6 2.5.87 5.34-3.8 8-3s3 6.07 4 6 .72-4.37 3-6c2.74-1.95 7.32.08 9 1 5.5 3 5 7.47 10 10 3.7 1.89 9 .19 11 3 1.75 2.5-.75 6.33 1 8 2.31 2.21 8.68-2.47 12 0 1.85 1.38 1.57 4.7 3 5 2 .41 4.43-5.43 6-5s.5 6.79 3 8c1.73.84 3.63-1.47 6-1 2.74.55 3.37 3.74 6 5 3.76 1.8 9.84.37 11-3 .77-2.27-.67-5.46-3-7-2.92-1.93-6.26 0-8.41-2-2.46-2.3-.33-7.63-2.59-9-1.14-.68-2.47.34-4 0-2.87-.63-5.45-4.21-5-7s3.88-3.46 4-6-3.54-4.28-3-6c.48-1.56 3.8-1.12 5-3 1.42-2.24-1.24-4.92 0-7 1.76-3 10.51-3.21 13 1 1.7 2.9.1 7.34-2 10-.32.4-3.91 3.1-4 5-.1 1.73 1.5 3.42 4 5l13 2c.33 1.67.66 3.33 1 5l8 1c-2.37 2-4.48 4.05-4 5s4.27-.47 7 1c3.53 1.89 3.27 6.87 6 10 3.21 3.68 6.21 2.32 9 6 4.3-7.59 4.35-7.27 4-18a73.66 73.66 0 0 1 8-16c6.15-9.24 12-13.33 12-21 0-8.69-9.31-16-12-22-2.32-5.18-4-17.76 0-33 4.07-15.42 14.08-22.38 20-34 6.06-11.89 11.13-21.83 17-26-4.11-12.29-9.62-20.38-17-22-10.35-2.28-18.37 9.84-31 10-4.37.06-15.32-3.64-26-13s-19.4-20.52-16.84-29.85c-12.78-10-7.6-10.42-21.17-19.15s-13-20.91-23-35-30.53-14.37-43-15-8.62-15.4-20-19-25.32 1-37 2c-4.44.4-20.99 2.64-20.99 2.64l19.58 11s-25 13.39-65.83 31a351.12 351.12 0 0 1 -32.91 12.2c-8.32 2.58-14.9 3.63-17 8.7-5.55 13.23-6.77 23.21-9.91 49.85z"/></svg>