<svg viewBox="0 0 254.07 616.05" xmlns="http://www.w3.org/2000/svg"><path d="m240.07 132c-.6 6.59-7-41-7-41s8.46-33.73-2-48-37-43-37-43a78.69 78.69 0 0 1 -21 22c-13.24 9-20.87 24-36 33s-11.29 32.28-23 37-26.25 4.08-39 12-18.06 17.94-24 30-17.17 6.09-25 18-2.31 22.27-2.31 22.27c2.63 6.1-6.58 10.13-3.69 14.73s15 3.84 19 9c3.57 4.58-3.1 13-2 21 1.43 10.59 13.82 16.64 12 25-1.17 5.36-7.9 6.89-8 12s7.47 8.76 10 13c5.85 9.84 2.83 25.44-4 35-2.71 3.8-10.69 8.37-12 15-1.62 8.15 6.15 13.06 4 20-2.67 8.55-16.62 8-21 18a13.89 13.89 0 0 0 -1 9c1 3.85 3.72 4.94 5 8 2.19 5.25-1 9.7-3 18-1.83 7.46-1.76 14.65-1 17s3.8 6.36 4 11c.15 3.69-1.09 9-5 12-6.07 4.6-16.07-.06-16.99 2-.72 1.55 3.67 6.6 9.75 8 6.32 1.46 10.24-2.13 16.35-1.49 7.83.83 14.58 6.75 13.9 9.49s-8.77 1.53-10 5c-1.16 3.27 4.07 9.11 10 12 3 1.45 5.12 1.33 8 3 4.44 2.58 5.52 6.87 9 13s6.18 9.15 5 13c-.64 2-2.65 3.57-5 6-2 2.08-3.71 4.25-4.13 5.43-1.47 4.19.34 8.57 3.13 13.57s6.13 8.87 7 13c1.32 6.31-1.3 11.67-5.66 20.12-4.49 8.71-7.27 14.28-6.34 19.88.7 4.27 5.62 9.87 4 14s-7.21 3.73-9 8c-.6 1.4-.13 5.28 2 10 2.86 6.39 6.27 9.75 8 10 2.21.32 4.84-.72 8-4a19.43 19.43 0 0 0 5-11c.69-5.27-1.85-9 0-14 1-2.68 4-4.67 4-8 0-3.79-3.3-5.65-4-9-.53-2.48 1.33-8.36 7-15 4.59-5.38 8.76-7.74 9-12 .34-5.82-6.09-8-6-14 .08-5.69 5.88-7.83 7-14 .79-4.36-1.37-7.47-3-13-2.12-7.22-2.55-14.45-2-17 .88-4.1 4.48-8.08 4-13-.72-7.38-10.13-11.57-9-16 1.21-4.74 12.71-4.12 14-9 1.15-4.39-7.31-9-6-13s10.33-2.73 12-7c1.47-3.76-4.18-7.55-3-12s7.82-4.34 10-9c2.82-6-4.2-12.85-1-18 2-3.17 6.12-2.29 8-6 1.39-2.72-.28-4.28 1-7 1.84-3.9 7.72-4.29 8-7 .31-2.87-5.89-4.55-6-8.09s5.91-5.19 7-9.91c.74-3.05-1.45-5.57 0-8 2-3.33 7.52-1.65 10-5 2-2.67.19-6.59 1-10 1.09-4.54 4.05-4.7 5-9 1.73-7.75-6.75-12.64-6-21 .51-5.6 4.54-11.24 9-12 3.82-.66 6.38 2.79 12 7 7 5.2 13.14 6.12 16 12 2.07 4.23 1.75 8.2 5 10 2.56 1.41 4.25-.21 7 1 3.27 1.43 3.94 5.52 7 6 2 .31 3.55-1.07 5-2 3.26-2.09 7.66-2.68 13-2 6.39.8 13 6.65 15 5 1-.81.13-2.53 1-4 1.66-2.77 6.27-1.84 9-4 3.09-2.45 2.35-5.91 4-11 2.36-7.21 6.81-7.75 9-15 1.75-5.8 0-9 1-15 1-5.7 3.48-8.25 4-14 .62-6.81-2.45-9.67-1-16 1.61-7 7.79-9.38 8-16 .21-6.19-7.54-13.25-9-16-5.63-10.63 0-15.56-6-26-3.11-5.45-11.29-9.81-12-17-.63-6.46 4-10.14 8-18 2.73-5.42 5.92-11 4.99-18z"/></svg>