<svg viewBox="0 0 399.42 528.27" xmlns="http://www.w3.org/2000/svg"><path d="m123.76 423c2.92 14 7.6 24.18 15 26 4.59 1.13 10.62-2.69 14 0 3.53 2.81.62 9.22 4 12s9.93-1.11 18-3c12.87-3 27.64-.17 30 6 1.5 3.9-3.84 10.69-5 15-2.35 8.85-1.27 20.25 4 23 6.59 3.42 16-8.53 24-5 6 2.66 4.72 10.92 11 14 6.7 3.28 13.1-3.66 21-2 10.65 2.23 16.06 17.33 21 16 4.3-1.15 4-13.64 7-14 3.34-.4 5.87 14.8 14 17 7.39 2 16.3-7.56 18-6 6.5-5 44-34 44-34a64.75 64.75 0 0 0 29-30c6.59-14.24 9-28.07 4-39-6.84-15.06-26-19.36-55-31-13.48-5.41-26.68-11.6-38-25-10.74-12.71-16.8-26.63-15-40 1.73-12.86 10.51-21.47 26-36 5.33-5 10.75-10.08 16-15 7.11-5 12.58-19.92 30-30-3.37-5.95 2.89-13.18-1-19-1.48-2.2-3.13-2.06-5-4-4.91-5.05-2.24-10.46-6-14-7.47-7-26.24 6.36-33 0-4.76-4.48.77-17.19-2-28-2-7.78-6.51-15.35-10-15-2.62.27-4.94 7.38-7 10-4.25 5.4-12.12 10.75-18 9-6.28-1.87-10.74-12-14-31-.93-5.41-2.15-14.47-8-17-.9-.4-4-1.51-6 0-4.3 3.25 2.68 14.59-2 21-4.48 6.16-17.59 7.32-25 2-5-3.59-5.1-10.19-10-12-7.92-2.94-17.36 10.74-23 8-4.56-2.23-4.69-14.31-2-24 1.92-6.86 5.07-10.51 4-16-1.64-8.52-11.61-10.69-12-18s10.12-11.7 13-21c1.94-6.23 1.92-15.41-3-20-5.57-5.22-14.73-.86-19-6-4.54-5.47 2.72-14.36-1-22-4.18-8.6-15.92-7.31-22-17a21.92 21.92 0 0 1 -3-8c-11.7 2.08-20.87 6.61-27 14-7 8.43-7.89 25.51-17 29-5.91 2.26-12.19-3-16 0-4.74 3.76 1.1 22.06 1 29-.14 10.18-3.61 29.76-18 40-10.71 7.62-20.54 3.06-31 12-9.55 8.16-6.89 17.13-15 27-6.46 7.86-17 10-21 20-4.72 11.93.48 29 10 33 8.44 3.51 15.82-5.16 25-2 4.6 1.58 10.86 8.41 15 22 2.93 9.64.59 16.48 5 25 5.65 10.93 18.16 12.47 20 22 2.22 11.52-14.87 21.53-19 35-2.51 8.16 3.41 30.77 16 57 5.19 10.81 10.68 20.64 21 24 9.21 3 19.42-2.8 26 2s6.59 17.83 3 34z"/></svg>