<svg viewBox="0 0 275.81 167.25" xmlns="http://www.w3.org/2000/svg"><path d="m256.22.25c6.59 5.3 17 .23 19 5 1.9 4.44-1.1 10.55-5 14-4.77 4.21-12.56 3.34-15 8-1.6 3.07.71 5.84 0 10-.43 2.58-2.62 5.14-2 8 1 4.43 6.34 5 7 9 .77 4.62-6 7.85-5 12 .82 3.36 6.21 3.87 9 8a10 10 0 0 1 2 6c-.43 4.11-5.23 5.8-5 9 .32 4.42 9.88 6 10 10 .11 3.46-6.89 5.1-7 9-.1 3.74 6.46 5.94 6 9s-7.1 3-9 7c-1.83 3.84 2 8 0 11-2.39 3.5-10 .73-12 4s3.92 9.05 2 12-10-.78-16 1c-9.29 2.76-12.2 14.92-20 15-1.16 0-4.6-1.53-8-4-6-4.35-8.6-9-13-9s-6 4.41-10 4c-5-.5-6.27-7.69-11-8-4.14-.27-6.31 5.18-11 6-5.23.91-9.75-3.38-13-6-6.56-5.32-19.48-13.82-31-12a154.39 154.39 0 0 0 -19 5c-.56.2-2.16.74-3 0-1.93-1.7 2.94-8.07 1-13-1.66-4.24-10.5-6.38-13-8-4.25-2.76-6.22-5.25-10-5a10.17 10.17 0 0 0 -8 5c-2.29 4.23.86 9.54-1.39 11.59s-8.25-2.08-13.61-1.59c-4.48.41-6.5 3.54-11 3-4.83-.58-6.83-4.47-12-9-4.18-3.66-9-6.41-11-7-4.58-1.34-13.14.45-16-3-1.52-1.83-1.31-4.27-1-7 .78-6.68 1.75-12.68 3-14 5.76-6.07 16.65-.23 25-5s9.23-17.81 14-25c4.28-6.47 14-11.5 16-21 2-9.12-4-14.58-1-23 3.57-9.9 14.11-9.22 18-19a85.54 85.54 0 0 0 16 15c10 7.18 18.69 9.27 31 14 13.65 5.24 22.53 10.63 33 10 10-.6 20.19-6.1 34-16 10.73-7.68 18.57-14.59 29-19a82.92 82.92 0 0 1 38-6z"/></svg>