<svg viewBox="0 0 320.09 616" xmlns="http://www.w3.org/2000/svg"><path d="m62.09 602s-22-20.43-27-24-32.09-11.54-33-20-2.47-5.89-2-10 5.17-16.43 8-12 3.08 5.33 5 3 3.34-.68 2-7-3.06-10.45 0-12 5.61-1.71 7-1 3.15-1.49 4-4a10.76 10.76 0 0 0 0-7c-.73-2.11-.54-9.33 0-12s.64-8.94 2-8 1.7-1.3 2 5-.5 11.85 1 13 8.85-4.67 8-6-1.9-11.8-2-13 0-7 0-7 2.3-2.26 0-2-3-4-3-4-4.73 4.14-5 2-.36-11.5 0-12 4.38-7.88 3-10-3.33-6.66 0-8a17.08 17.08 0 0 0 8-7c1.92-3.13 5.6-2.35 8-4s7.87 2 10-2 3.39-7.93 7-3 5.2 5 11 2 7.06-7.65 8-11 2.35-3.71 4-4 .27-7.35 3-9 10.16 1.1 11-2 .85-7.82 1-13-.87-13.37 2-11 3.85 4.62 1-2-5.9-8-5-10-2.62-3.81-4-1a18.11 18.11 0 0 1 -4 5s-5.83-1.3-6-3 0-6 1-7-4.35 4-7 4-9-4-9-4-5.82-7.51-9-11-5.56-7.29-5-9 3.67-9 4-11 1.87-7.82 0-9-5.9-8.66-2-9 6.73-4.44 5-6-2-5.73-5-6-9.14 3.17-10 6 1.57 7.52-2 8-5.41.74-7-3-1.9-12.84-3-13a12.89 12.89 0 0 1 -9-8c-2.16-6-4.31-9.12-7-11s-.8-9.47-3-14-4.58-17.46-7-19-2-11-2-11a8.55 8.55 0 0 0 -1-7c-2.25-3.64 0-6.63 2-10s2.75-.63 6-2 5.49-4.89 5-8 1.15-7.82 3-13-2-10-2-10l-2-8-6-5c-2.92-3.53-2.31-5.24 1-8s10.09-2 10-6 2-9.2 6-8 10.82.46 11-2 0-7 0-7a3.23 3.23 0 0 0 2 1c1.63.4 7.46-5.93 8-7s3.69 1.9 4-1 1.38-11.71 1-15 3.67-4.47 4-10-2.85-8.5 0-10 2.76-.19 5-1 1.88-6.2 3-9 .36-5.74 2-6 4 6 4 6 6.11-.8 8-4 6.23-6.44 5-10-1.79-8.07 1-11 7.32-5.42 6-7 1.24-5.2 2-7-2-5.18 3-6 6.82 1.34 7-1c.13-1.76-.7-2.25-1.4-3.91a12.77 12.77 0 0 1 -.6-2.09 59 59 0 0 1 -1-7l37-33c3.09 14.27 9.16 25.72 19 33 13.07 9.67 26.53 5.6 40 11 11.51 4.62 20.91 17.59 35.91 18.09 12.52.42 21.11-7.24 30.08-9.09 15.88-3.27 33.5 2.19 53 16a350.69 350.69 0 0 1 -33 19c-27 13.61-45.7 18.39-60 37 0 0-19.21 27.71-19 90-1.63 26.8-11 38-11 38-1.75 2.81-15.31 16.45-19 30-2.11 7.76-1.61 26.72 8 48 6.07 13.43 12 20.26 12 33 0 10.54-4.06 20.58-11 30a87.86 87.86 0 0 0 -18 33c-4.7 16.66.68 27.29-6 42-10.74 23.63-37.2 24.46-53 45-12 15.66-11.62 32.34-18 56-4 14.89-17 46-17 46z"/></svg>