<svg viewBox="0 0 361.74 401.57" xmlns="http://www.w3.org/2000/svg"><path d="m90 0a18 18 0 0 0 -2.3 2.68c-1 1.7-.7 2.84-1.7 4.55-3.59 6.26-10.12 5.65-13.76 11.43-2 3.1-3.16 7.94-1.18 10.54 2.56 3.36 10.76 1.44 16.71 3.81 4 1.6 5.84 3.19 5.92 4.67.2 3.45-7.69 8.48-14 7-5.68-1.33-6.72-7.16-13-9-3.16-.92-7.54-.92-8.81 1.14-2 3.22 5.32 9.78 5 17.58a18.6 18.6 0 0 1 -1.77 6.74c-2.1 5.08-4.7 10-6.45 14.35-3.2 8.11-3.41 18.51-4.66 18.51s-1-7.46-5.27-12.27c-5.85-6.63-18.38-8.88-25-4-5.1 3.76-3.6 10.26-9.28 13.63-3.25 1.93-7.7.65-9.72 3.37s.88 11.22 1 13c.21 3.18-.77 4.91 0 8 1.26 5.18 5.72 7.6 6 13 .07 1.36-.63 3 0 5 1.16 3.63 4.81 4.69 8.87 7.14 4.72 2.85 5.12 6.18 10.13 7.86 5.28 1.78 11.3-1.05 15 2 3.2 2.65 2.16 7.14 3 14 1.3 10.76 5.57 17.16 9 20a21.57 21.57 0 0 0 15 5c12.58-.92 20.49-14 23-19 3.77-7.49 3.81-13.33 9-16 5.73-2.94 10.36 1.72 16-1 6.92-3.33 6.18-13.87 12-20 3.05-3.19 12.86-7.8 27-8 11.67-.16 17.74 1.62 19 5 1.4 3.72-1.88 9.92-6.48 11.43-6.58 2.17-13.21-6.9-18.52-4.43-3.78 1.77-3.11 8.75-6 13-5.2 7.65-13.81 5.55-18 13-3.7 6.6 1.31 15-3 19-3.37 3.12-12.3.49-17.43 1.23-7.47 1.06-12 3.35-13.48 6.87s1 10 8.91 18.9c6 6.74 11 9.63 12.54 16.29 1.62 6.95-.86 15.65-5.23 16.77-3.78 1-8.67-3.83-11.31-8.06-4.39-7.07-2.07-16.66-7-20-4.1-2.78-11.88-1-14 3-2.47 4.71 4.21 10.71 3 18-.78 4.77-3.84 6.73-7 11.46-2.72 4.1-9.42 16.1-5 25.54 2.44 5.23 9.42 6.88 18.21 11.86 5 2.85 8.31 5.4 12.78 6.14 8.83 1.46 14.41-3 23-2.57 2.42.12 8 1.64 13 3.57 11.11 4.24 17.19 10.35 25 9 5.91-1 8.8-6.45 15-6s7.68 6 14 7c6.91 1.07 14-5.35 16.26-3.26 1.54 1.45-1.11 5.58-.26 9.26 1.18 5 6.51 6.8 9 11 3.05 5.15 3.86 12.82.67 17.56-4.53 6.7-17 5-17.67 8.44-.34 1.75 2.66 3.71 8 7 7.16 4.4 11.63 6.86 16 6 5.68-1.11 7.43-6 13-11 6.75-6.1 18.4-11.81 26.43-8.33 8.57 3.7 6.94 15.86 15.57 23.33 3.88 3.36 13.06 5.24 15 11 2.05 6.08-3.69 10.54-2 17 2.13 8.05 13.78 14.05 19 11.16 5.88-3.25 1.63-16.76 8-20.16 4.45-2.37 9.25 2.82 15 1 6.26-2 5.41-9.27 12-12-3-9.48-3.2-17.89 0-25 4.89-10.89 19.34-14.82 20-24 .57-7.95-9.2-12.47-16.88-21.5-5.43-6.37-12.78-29.37-12.12-58.5.48-21.52 6.51-34.87-1-48-8.8-15.39-24.23-13.82-33-30-6.67-12.3-6.81-29.93.32-42.56 10.38-18.38 31.16-15.19 41.68-34.44 5.09-9.32 2.4-13.57 6-24 3.85-11.18 8.25-8.88 10.18-20.19 1.69-9.86-3.65-31.7-3.65-31.7z"/></svg>