<svg viewBox="0 0 435.46 288.24" xmlns="http://www.w3.org/2000/svg"><path d="m435.46 41.39s-19.74-16.72-24-15c-6.12 2.48-12.94 8.63-20 8-6.77-.61-13.78-7.9-20-10-5.32-1.79-15.58 2.75-26 1-15.95-2.68-23.43-18.31-29-25-2.31-2.77-8.44 9.87-15 16-6.24 5.83-14.22 7.88-17 15-2.16 5.52 3.24 19.2 1 27-3.69 12.85-15 20.2-18 26-4.87 9.31-26.7 11-45 5-19.09-6.25-23.64 4-35 0-15.56-5.41-26.85-20.36-34-21-24.27-2.18-23.13 10.22-44 10-19.13-.2-39.58-16.59-47-13-15.52 7.5-21 14-21 14s-.13 6.08-3 6-26.26 1.21-18 4 12.88 4.19 16 4 11.22-.9 14 1 8.13 13.08 11 16 4.23 4.9 2 7-13 8.74-16 8-17.42 4.1-20 4-23.57 1.58-27 1c-1.62 2.77 1.37 10 4 10s6.54-1.67 10-2 8.23 4.08 11 6 12.73 6 16 6 10.35-.82 13 0 7.1 9.13 9 10c3.7-3.25 5.59-5 8-4s7.34 7.45 9 9 5.06 7 8 7c2.94-2.1 4.29-5.12 8-4s11.53 8.56 16 10 14.45 3.53 19 3 6.49 2.28 9 5 5.95 10.45 9 12-.1 8.82-3 10-9.43 2-12 4c5 4 12.5 6.93 16 7s9.57-1.08 13 0 13.13 14.15 15 17 .47 7.51-2 10-9.44 3-9 5 11.86 15 13 14 5.26-5.91 7-5 8.34 8 11 9 11.87 4.65 15 5 5.7-17.62 10-16 13.34.24 16 3c3.67-1 10.45-5.2 14-4s4.08 6.15 6 7 7-5 7-5 10.36-5.36 13-5 9.38 6.5 13 8 6.15 10 9 10 5.55 6.19 8 8 8.94 1 10 2 4.56 8.3 8 5 8.75 1 4-6 .77-1.69-1-8 2.36-4.38 2-8 .05-7.69-1-11-8.09-2.15-8-4 4.61-3.7 5-9-6.95-8.9-2-15 6.4-3.52 9-7-3.64-13.47 1-19 10.42-10.55 14-14-.28-5.84 0-12-2.82-17.39 0-19 8.79-1.54 11-5-5.17-8.09-3-13-3.33-2.15 5-19 26-18 32-22 12.84-7.65 15-19 1.71-10.64 5-15 6.33-1.19 11-6 9-15 9-15z"/></svg>