<svg viewBox="0 0 386.05 226.04" xmlns="http://www.w3.org/2000/svg"><path d="m386.05 74c-13.75 4-24.86 10.74-32 21-3.71 5.33-7.87 18.32-11 32-2.16 9.43-4.05 18.65-12 25-6 4.75-11.93 4-18 10-5.81 5.76-5.41 11.37-9 19-3.05 6.47-10.9 15.52-25 23-5.53 2.93-12.46 4.68-19 9-5.45 3.6-14 13-14 13s-8.32-13.25-14-14c-7.68-1-13 10.53-20 9-5.72-1.24-6-9.77-12-11-5-1-9.31 4.77-15 6-6.54 1.42-9-2.1-16-2-5.05.07-8.09 1.18-11-1-3.61-2.7-2.65-7.64-5-11-4.72-6.75-19.51-6.3-26-9-6-2.48-7.91-5.9-14-8a45.56 45.56 0 0 0 -34 2c-8.71 4.25-12.37 10-19 9-7.14-1.06-8.34-8.46-16-10-6.21-1.25-8.42 2.78-15 2-7.28-.87-8.52-5.66-16-7-5.62-1-12.2 1.57-13 0s7.82-8.67 9-10c2.28-2.57 6.08-10.34 12-14 4.5-2.79 7.58-2.07 12-5 6.58-4.36 6.18-9.2 12-14 5.32-4.39 9.16-3.08 14-8 5.46-5.56 4.83-11.75 9-18a32.76 32.76 0 0 1 12-11c4.7-2.43 11.61-3.36 21-3 11.43.44 18.32 2.12 24-2 2.8-2 6.12-8.4 9-8 2.61.36 2.88 4.77 6 6 3.73 1.47 7.26-2.54 12-2 2.83.32 6.58 2 8 5 2 4.23-2.05 8.34-1 13 1.31 5.83 8.57 9.41 13 11 7.44 2.67 15.42-.48 21 4 4.58 3.68 3.65 10.52 9 13 2.64 1.22 5.87-.08 8 2 2.4 2.35.58 5.78 2.66 8.22 3.3 3.87 12.57 1.9 18.34-1.22a25.87 25.87 0 0 0 11-12 40.34 40.34 0 0 1 -13 10c-6.77 3.22-11 3.6-13 2-3-2.36-.83-7.38-4-10-2.7-2.23-6 0-9.13-1.84-4.73-2.72-2.78-9.44-6.87-13.16-5.37-4.88-14.63-.49-23-4-5.65-2.37-9-5.4-10-9-1.3-4.83 2.59-8.18 1-13-1.4-4.23-6.36-7.65-11-8a53.11 53.11 0 0 1 10-22c5.58-7.13 13.09-11.65 17-14 7.94-4.77 21.72-17.65 34-31 9.25-10 17.28-20.14 30-21 15.36-1 33.57 17.62 43.88 22.28 8.88 4 22.15 5.84 29.12 7.72 24 6.48 39.94 13 52.29 24.05a92.38 92.38 0 0 1 16.71 19.95z"/></svg>