<svg viewBox="0 0 502.46 385.65" xmlns="http://www.w3.org/2000/svg"><path d="m388.46 267.65c-5.33 4.31-13.8-2.08-20 2-4.27 2.8-3.8 8.42-6.57 16.09a47.85 47.85 0 0 1 -10.43 16.91c-6 6.24-12.35 8.89-15 9-8 .34-12-7.2-19-6-8.07 1.39-8.95 12.6-18 16-6 2.24-10.47-1.31-16 2-7.13 4.26-7.86 16.12-10 16-2.33-.13-3-13.67-6-14-2.61-.28-4.36 9.63-10 11-4.8 1.17-8.83-4.66-13-3-3.66 1.46-3 6.9-7 9-3.32 1.74-6.5-.6-10 0-6.08 1.05-11.28 9.29-15 12-6.29 4.57-11.7 5.62-14 5-6.71-1.8-9.27-12.4-13-12-4 .43-5.39 13.07-8 13-1.58 0-2-4.92-5-7-4.24-3-12.12-1.37-16 3-2.6 2.93-2.8 7.38-4 10-2.27 4.9-7 10.52-11 10-4.8-.62-6.58-10.23-10-10-3 .21-3.4 7.88-8 10-5.06 2.34-9.7-3.2-15-1-4.91 2.05-5.7 9.93-9 10-2.58.06-4.6-5.56-8-8-2.19-1.58-5.28-2.78-10-3 4-6.2 5.83-12.21 5-18-1.32-9.21-10.92-14.52-10-23 .66-6.18 6.21-7.77 8-14 2.87-10-3.47-23.47-13-29-8.08-4.68-14.26-1.16-22-5-9.63-4.77-11.61-14.87-17-29-2-5.3-15.54-25.08-14.9-38.25.51-10.71 10.75-25.29 5.9-34.75-4.48-8.74-15.86-6.49-21-15-6.93-11.45 1.65-33.06 15-46 10.35-10 21.81-9.51 30-21 10.18-14.28 1.18-26 10-41 8.55-14.5 25.45-14.3 31-30 2.89-8.17-1.38-17.21 4-24 4-5.08 13.77-8 31-6 16.88 2 31 7.5 39 12 14.3 8 20.91 17.35 32.22 16.88 15-.63 20.88-16.8 34.78-15.88 13.1.88 17.1 15.79 31 17 7.16.63 14.5-2.52 22-9 7.73 17.64 10.91 7.24 18 6 2.54-.44 5.44 5 8 7 2.06 1.62 3 2.91 6 3 4.11.13 7.43-3.19 12-5 4.24-1.68 9.54-1.24 11-1 4.24.69 6.76 3.17 11 3 3.9-.15 7.4-2.34 10-6 2-2.86 2.67-7.2 6-10a16 16 0 0 1 8-4 53.5 53.5 0 0 1 12 0c10.82 1 17.56 9.69 27 8 6-1.08 10.28-6.88 14-9 5.55-3.17 15-3.75 27-4 5.94-.12 12.75-.23 17 0a156.18 156.18 0 0 1 23 3 26.43 26.43 0 0 0 3 11c1.48 2.76 3.55 4.76 5 8a20.92 20.92 0 0 1 2 9c-.26 4.72-2.8 7.12-5 12a31.13 31.13 0 0 0 -3 13c.11 3.1.54 6.81 2 9a8.41 8.41 0 0 0 4 3c-.53 14.3 1.81 23-3 34s-22.33 11.53-29 24-35.62 8.27-53 4-39.72-17.76-48-8-23 50.51-16 63 5 34.63 6 41 6.73 36.8 11 34"/></svg>