<svg viewBox="0 0 247.9 210.43" xmlns="http://www.w3.org/2000/svg"><path d="m3.9 76c24.88 2.3 42.83-1.7 53-13 4.49-5 7.36-16.91 17-22 5.21-2.76 13-1.72 18-7 4.36-4.64 2.07-8.47 6-13 6-6.94 16.15-4 24-10a25.51 25.51 0 0 0 8-11c3.5 3.85 6.29 4.61 12 7s7 9.48 15 10 23.11 3.35 28 6 12.34 7.12 17 12 16.09 8.8 18 17 5.93 15.47 9 22 2.86 15.3 11 16c0 0-15.39 22-17 30s6.51 28.13 7 34-5.65 15.54-4 24 22 31 22 31c-9.63 2.1-19.08 2-28-1-11.82-4-16.3-10.93-26-18-13.87-10.11-27.55-9.59-40-15-23-10-30.64-23.68-53-35-19.48-9.86-40.41-15.62-49-16-20.77-.91-35.47 5.63-45-3-8.9-8.1-8.35-25.06-3-45z"/></svg>