<svg viewBox="0 0 508.6 788.1" xmlns="http://www.w3.org/2000/svg"><path d="m304.46 755c8.25-19.67 41-31.07 56-21 15.15 10.18 4.56 37.24 21 49 11.34 8.11 30.72 5.76 43-2 7.14-4.52 10.67-12.12 20-16 7.76-3.23 21.22-2.36 26 0-2.86-5.29-.52-9.88 0-18 .37-5.62-1-9.37-1-15 0-5.26.79-11.44 1-15s-.47-12.37 1-18c1.55-5.93 4-9 3-14-1.16-6-7.75-9.68-7-15 .57-4 5.19-5.34 5-9s-5.81-6.13-8-10c-.7-1.25-1.67-5.1-2-9-.43-5.24 1.39-8.3 0-13-1.07-3.64-3-5.63-2-8 1.15-2.75 4.66-2.32 6-5 1.74-3.45-2.32-7-1-11 1.2-3.59 5.31-3.71 6-7 .87-4.06-5.39-8.12-7-13-2.2-6.7-.07-15.66 5-19 4.36-2.87 8.79.1 13-3 3.43-2.52 3-6.83 5-13 1.58-4.88 4.05-7 5-12 1.26-6.6-1.45-9.5 0-16 1.79-8 10.75-14.25 9-18-1.51-3.26-8.64-1.35-11-5s4.29-14.41 5-17c1.45-5.24.27-12 4-19 .7-1.28 2.51-3.88 4-6 2.55-3.61 4.51-6 5-9 1-6-3.39-9.51-4-15-.49-4.48 2.6-10.25 0-14s-7.44-2.25-10-6c-3.13-4.61 1.9-10.23-1-15-3.07-5.08-11.27-2.93-14-8-2.24-4.2 2-8.18 0-13-2.1-5-7.7-4.24-10-9-3-6.21 4-14.49 1-18-2.71-3.13-10.22 1.14-13-2-3.06-3.47 3.67-11.84 1-19-1.61-4.36-5.64-5.78-8-9-5-6.89-2.78-14.55-5-21-3.49-10.19-11.73-11.94-13-22-1-8.06 5.67-15.73 2-23-.8-1.6-3.82-3.93-4-7-.21-3.9 3.93-6.59 3-9-1.36-3.55-11.48-1.13-15-6-2.13-3 0-5.57-2-9-2.58-4.55-8.7-4.05-10-8-1.52-4.65 5.78-9.54 4-14-1-2.55-4.83-2.89-5-5-.24-3.13 7.84-5.05 8-9 .13-2.87-4-4.5-5-8-.86-3.1.43-6 2-9 2.61-4.94 5.71-8.71 6-12 .61-6.65-5.3-10.12-6-17-.59-5.89 2.19-11.29 4-14 2.18-3.22 7.45-6 8-10 .87-6.31-8-10.1-7-16 .89-5.16 8.34-5.9 10-12a11.45 11.45 0 0 0 -1-8c-3.65-7.11-14-7.26-25-10-13.45-3.34-24.08-9.66-27-13-12.08-13.81-4.09-29.8-16-44-9.84-11.72-25.67-13.74-32-14-17.17-.7-23.88 9.73-39 12-12.47 1.88-32.5-6.14-41 2-6.89 6.6-2 16-8 25-6.94 10.4-22.43 10.36-25 20-1.92 7.2 5.46 13.26 6.13 21.19 1 11.35-8 17.44-17.13 31.81-7.86 12.38-8.88 23-17 26-13.4 4.93-29.36-11.68-47-13-11.11-.83-19.44 2.55-33 8-12.09 4.9-27.46 11.39-33.9 13.11-23.51 6.33-40.82 3.42-44.1 11.92-3.68 9.54 15 21.43 15 38 0 8.43-5.48 17.45-16 30-15.26 18.2-27 28.7-24 37 2.1 5.88 14.32 8.08 20 12 8.58 5.93 10.1 12.18 18 19 11.42 9.85 23.33 14.39 29 15 11.08 1.18 26.81-7.25 36-1 5.22 3.55 5.13 10.79 10.33 12.28 8.87 2.54 17.57-15.22 29.67-14.28 8.66.68 11.36 10.32 19 10 13.38-.55 17.52-30.68 29-31 8.18-.23 18.35 14.72 18 29-.3 12.41-9.1 19.44-11.74 30.69-1.22 5.22-1.38 16.67 1.81 28.89 2.78 10.66 7.5 19.34 10.92 23.46 8.45 10.2 18.19 13.19 29 18 22.56 10 35.74 23.18 38 30 4.52 13.66-4.76 23.6-3.91 38.65.91 16.05 10.25 20.77 9 37-1.08 14.37-10.32 19.85-9.93 34.3.41 14.89 10.46 24.44 17.81 34 10.86 14.18 12.67 33.94 22 56 8.21 19.42 16.05 36 9 53-3.54 8.56-10 3-19 21s2.04 35.98 2.04 35.98z"/></svg>