<svg viewBox="0 0 418.57 589.15" xmlns="http://www.w3.org/2000/svg"><path d="m82.17 148.15c-1.26 3-7.46 10.21-8 18-.3 4.39.82 7 2 8 3.83 3.17 10.81-1.9 14 1 2.07 1.87 1.48 7.15-2 16s-8.49 14.06-11 15c-3.35 1.26-7.29-.26-10 2-4 3.39-1 12.15-3 18-2.79 8.15-12.54 12.93-16 17-3.61 4.24-7.66 15-10 28-1.73 9.69-.56 16.61-3 26-1 3.82-2.69 9-1 15 .18.59 1.89 4.2 2 7 .15 3.49-3.36 7.29-1 9s10.14 6.72 16 4c3.35-1.55 3.64-5.13 7-6 4.38-1.14 7.36 3.85 12 3 4.34-.8 6.09-6.5 8-6 3 .78 2.52 15.58 0 16-1.24.21-2.3-3.23-4-3s-1.75 3.74-3.85 5.06c-3.09 1.94-7-1.62-11.07-.77-4.64 1-7 6.81-10.45 6.15-1.95-.38-3.43-3.41-4.63-4.44-4.07-3.52-10.59-4-12-2-1.25 1.8 2.15 5 1 8s-6.34 5.25-10 4c-4-1.37-4.64-7-7-7-3.09 0-6.65 9.35-7 19a43 43 0 0 0 4 20c3.9 8.12 9 11.58 9 19 0 4.29-2.09 5.7-2 10 .16 7.06 6 10.31 5 16-.89 5.16-6.67 7.22-14 13-8.58 6.78-12 11.65-11 15 .91 3 5.19 5.27 9 5 4.86-.35 7.85-5.86 11-5 3.84 1 3.74 10.46 7 11 2.4.39 4.21-4.36 7-4 2.32.3 3 4 5 4 2.41 0 3.24-5.55 6-6 3.49-.58 7.5 6.69 9 10 2.74 6 4 13.35 3 22a52.18 52.18 0 0 1 -6 19 63.12 63.12 0 0 0 -8 13 37.07 37.07 0 0 0 -3 9c-.71 8.5 3.94 12.7 3 21a26.07 26.07 0 0 1 -4 11c-.75 1.12-3.68 2.37-4.71 3.58s-.13 2.35-1.29 3.42a34.34 34.34 0 0 0 4 4c2.78 2.34 5.83 3.83 7 4 3.86.56 6.48-1.59 11-4a38.73 38.73 0 0 1 11-4 33.4 33.4 0 0 1 11 1 45.06 45.06 0 0 1 15 7 48.91 48.91 0 0 1 8 7c15.73-5 26.92-11.46 28-20s-10-16.68-13-26c-2.43-7.4-.58-17.64 2.73-31.47 3-12.73 6.36-24.54 10.27-30.53 8-12.25 16.81-16 30-25 13.81-9.4 20.4-18.89 35-27 13-7.22 24.53-10.9 36-14 12.34-3.35 26.28-6.92 36-9 13-2.78 25.8-5.75 39-9 0 0 11.11-8.47 16-13 7.47 1.23 11.1-6.8 19-6 3.86.39 6.94 4 11 3 3.42-.86 4.89-4 7-7 4-5.65 8.05-5.32 12-11s5.35-16.64 2-33c-2.83-13.85-7.79-22.72-6-34 1.18-7.48 6.09-15.47 10-25 3.21-7.84 5.09-13.78 3-20-2.59-7.67-10.16-9.67-12-18-1.13-5.16.12-11.79 4-16 4.52-4.92 9.87-3.11 14-8s2.11-11.8 4-17c3.29-9.1 11.56-10.66 17-18 5.92-8 6.64-15.13 12-16a75.53 75.53 0 0 0 1-22c-1.42-14-5.71-25.38-12-34-6.92-9.49-16.92-12.51-22-24-4.85-11-1.54-20.73 0-37 1.75-18.51-1.26-31.45-5-35-9.33-8.84-29-7.83-41 1-7.22 5.32-7.48 12.36-15 16-14 6.77-29.08-9.58-41-3-11.67 6.44-7 29.09-17 33s-23.47-16.62-42-19c-14.89-1.92-29.76 4.78-38 14-3.63 4.06-7 12.2-10 21.93-4.38 13.86-7.35 25.51-13 26.07-5.41.54-8.29-9.79-15-10-7.92-.25-17.67 12.7-15.49 22.17 1.82 7.89 11.9 9.24 12.49 15.83.78 8.86-16 21.77-31 20-11.62-1.37-20.32-14.52-26-12-3.61 1.6-2.78 10.65-5 16z"/></svg>