<svg viewBox="0 0 409.34 286.43" xmlns="http://www.w3.org/2000/svg"><path d="m394.29 81.13c-4.28-2.9-12.53-4.48-25-1-9.12 2.54-13.83 7-20 5s-6.24-8.13-12-11c-8.79-4.37-17.39 3.45-28 1-7.85-1.81-8.31-6.61-16-9-12.1-3.76-23.91 5.19-33-1-4.26-2.9-3.31-6.24-8-9-7-4.13-14.52.35-22-2-2.41-.76-8.64-5.56-14-12s-10.62-13.32-12-17a8 8 0 0 0 -3-4c-3-1.9-7.25-1.18-12 1a38.22 38.22 0 0 0 -14-8c-4.59-1.4-18.69-.49-23-6-2-2.56-1.69-7.19-4-8-3.74-1.31-8.54 7.88-14 7-4.24-.68-4.9-6.46-9-7-4.61-.61-8.55 7.36-14 10-4.46 2.16-11.6 1.57-20 2-4.07.21-7.64.55-11 3-5.16 3.76-4 8.35-9 12-3.73 2.72-8 1.42-11 5-2.79 3.29-1.2 7-3 11-1.26 2.8-5.31 5.72-5 9 .37 3.86 4.94 6.24 7 7 5.37 2 11.46-.07 16-4a27.86 27.86 0 0 0 11 5c5.24 1 9.06.09 13 3 1.59 1.18 4.38 3.87 4.51 7.55.11 3.19-1.91 5.43-3.51 7.45-3.78 4.76-3.58 8.78-8 12-3.29 2.4-9.68 3-12 7-1.14 2-.77 5.27 0 10a58.79 58.79 0 0 0 2 9c2.1 6.17 5.35 10.18 7 11 3.93 1.94 7.13-.41 13-1s11.57 2.79 18 0c4.66-2 8.12-6.22 10-9.19.7-1.1 1-1.83 1-1.81.22.09-1.75 9.63-9 14-5.81 3.5-17.12.82-20 1-6.72.42-10.51 2.34-15 0-3.25-1.69-5.58-7-9-14a29.75 29.75 0 0 1 -3-10c-.49-5.35 1-9.56 2-11 2.83-4.11 7.89-6 13-6 .62-5.11 2.27-9.1 5-12 1.69-1.8 4-3.45 4-6a5.93 5.93 0 0 0 -2-4c-3-2.94-7-2.27-12-3-4.27-.62-5.69-2.74-10-3-6.49-.4-12.31 4.29-18 2-3.74-1.51-3.79-4.42-8-6-2.56-1-7.11-1.63-11 1a10.8 10.8 0 0 0 -4 5c-.74 1.92-.29 5.71-2 7-1.29 1-2.64.16-4 1-2.3 1.43-2.07 5.58-2 8 .15 4.74-.27 9.36-1 11-1.08 2.42-6 6.85-14 10-3.11 1.23-6 2.1-8 5-2.32 3.36-1.19 7.75-2 11s-1.8 4.71-1 7c1 2.74 4.08 5.24 7 5 4.09-.33 5.44-6.09 10-8 3.52-1.47 7.8-.81 12 1a18.36 18.36 0 0 1 10 10c.92 2.39 2.54 8.05 0 12-3 4.72-9.37 3.42-12 8-1.74 3 .34 6.39 1 12 .6 5.1-.29 8.34 2 11 2.81 3.27 8.62 4.75 13 3 2.46-1 4.58-4.28 7-4 2.82.33 3.24 4.41 6 5 4.08.87-2.31 5.7 1 6 5.18.47 1.53 24.41 5 31s18.22 15.07 22 20 .81 22.9 8 34a56.24 56.24 0 0 0 18 17s7.18 1.13 11-1c3.57-2 3.76-7.73 6-11s9-8.1 10-9c2-1.8 3.19-3 4-5 2-4.92-1.35-9.27 1-13s7.48-2.56 11-6c2.88-2.82 2.68-5.82 4-10 3.4-10.81 13-16.93 17-19 4.59-2.4 8.11-2.26 13-4 5.25-1.87 8.7-4.27 14-6a60.17 60.17 0 0 1 16-3c7.55-.34 14.71.79 17-3 1.7-2.82-.78-5.89 1-9s6-3.61 9-4c4.43-.58 9.47-1.27 11-2 7.14-3.4 7.81-12.78 14-14 4.77-.94 7.08 4 12 3 5.81-1.18 6.3-8.81 12-10 5.31-1.11 8.37 4.79 14 4 4.76-.67 6.6-5.55 12-11a39.42 39.42 0 0 1 13-9 35.42 35.42 0 0 1 16-2c11.86.89 19.73 5.6 30 7 13.94 1.89 24.87-2.57 25-2s5.45-6.18 6-13-3.85-16.19-3-23a121.06 121.06 0 0 1 2-13c-8.2-1.68-7.08-12.3-14-17z"/></svg>