<?xml version="1.0" encoding="utf-8"?>
<!-- Generator: Adobe Illustrator 25.0.0, SVG Export Plug-In . SVG Version: 6.00 Build 0)  -->
<svg version="1.1" id="Layer_1" xmlns="http://www.w3.org/2000/svg" xmlns:xlink="http://www.w3.org/1999/xlink" x="0px" y="0px"
	 viewBox="0 0 37 38" style="enable-background:new 0 0 37 38;" xml:space="preserve">
<g>
	<defs>
		<rect id="SVGID_1_" x="2" y="3.1" width="32.1" height="32.9"/>
	</defs>
	<clipPath id="SVGID_2_">
		<use xlink:href="#SVGID_1_"  style="overflow:visible;"/>
	</clipPath>
	<g class="st0">
		<path fill="#333333" d="M8.7,29.2C9,29.5,9.4,29.8,9.9,30l-2.4,2.5c-0.4-0.9-1.1-1.7-2-2L7.9,28C8.1,28.4,8.3,28.8,8.7,29.2z
			 M23.6,9.1c-2.3,2.4-4.1,5.7-7.3,9c-0.6,0.7-2.9,2.7-4.2,3.9l3.5,3.5c1.1-1.3,3.1-3.6,3.8-4.3c3.2-3.3,6.5-5.2,8.8-7.6
			c3.8-4,5.9-10.7,5.9-10.7S27.5,5.2,23.6,9.1z M5.8,32.2c-0.9-0.9-2.3-0.9-3.1,0c-0.9,0.9-0.9,2.3,0,3.2c0.9,0.9,2.3,0.9,3.1,0
			C6.6,34.5,6.6,33,5.8,32.2C5.8,32.2,5.8,32.2,5.8,32.2z M12.2,29.2c0.8,0,1.5-0.2,1.7-0.5l1.5-1.5l-5-5L9,23.8
			c-0.6,0.6-0.8,3.1,0.6,4.5C10.3,29,11.3,29.2,12.2,29.2z"/>
	</g>
</g>
</svg>
