<svg width="39" height="38" viewBox="0 0 39 38" fill="none" xmlns="http://www.w3.org/2000/svg">
<path d="M33.5121 0.725159C33.1112 0.725159 32.7102 0.835588 32.3427 1.01397C33.0945 7.70766 32.8021 13.1696 28.7342 20.7043C34.0718 14.4608 35.4166 5.53306 34.9822 1.31128C34.5395 0.895049 34.03 0.725159 33.5121 0.725159ZM25.9109 4.87049C17.6582 5.07436 17.9338 29.8529 0 34.3295C16.9899 45.0326 49.8923 29.5131 35.4082 11.4877C35.3331 11.7256 35.2495 11.9634 35.1744 12.2013C36.0765 16.6864 35.7424 21.5622 33.4704 26.8883C33.8045 23.4735 33.746 20.1946 33.2281 17.0601C32.6184 18.2749 31.8332 19.4471 31.0313 20.6363C31.1482 24.0342 30.5218 27.6188 28.8846 31.4499C29.1435 28.7316 29.1018 26.1068 28.8345 23.5585C27.7653 24.7987 26.5625 25.9879 25.226 27.0837C24.9086 29.2413 24.3071 31.4754 23.3215 33.7774C23.4969 31.9426 23.5303 30.1332 23.4635 28.3664C20.4898 30.422 16.9565 32.07 12.6798 32.9789C16.2799 30.9232 19.1534 28.7996 21.5089 26.625C19.9636 26.2937 18.3682 26.0813 16.7728 25.9284C18.8777 25.3848 20.9576 25.1724 22.9707 25.2319C24.4074 23.7368 25.6102 22.2333 26.5792 20.6703C23.8979 20.1776 21.1748 20.0332 18.435 20.2201C21.5841 18.6656 24.7331 18.1305 27.8488 18.3343C28.659 16.6439 29.2103 14.9025 29.6029 13.1272C27.2307 12.8978 24.6413 13.4755 21.701 14.2145C24.3573 11.7341 27.2307 10.6638 30.0874 10.341C30.2378 9.10926 30.3129 7.87755 30.3296 6.61187C28.6841 5.42264 27.2975 4.87898 26.0863 4.84501C26.0362 4.862 25.9694 4.862 25.9109 4.87049Z" fill="#333333"/>
</svg>
