<svg width="51" height="51" viewBox="0 0 51 51" fill="none" xmlns="http://www.w3.org/2000/svg">
<g clip-path="url(#clip0)">
<path d="M19.4405 0L18.3605 3.36659L13.9423 5.3495L10.8114 8.41102L14.1823 12.2788L19.3641 11.7776L23.3023 12.6928L26.6623 9.04294L26.1823 2.85452L19.4405 0ZM0.69865 11.2111C-0.774077 14.0438 -0.0322592 18.5544 4.01501 21.7466C8.05138 24.9498 12.6114 24.6229 15.0223 22.5311L0.69865 11.2111ZM39.8841 18.7287L36.1532 19.9707L36.9386 22.3241L12.1096 38.4488C13.4732 38.9282 14.6623 39.778 15.5459 40.9002L38.2259 26.1809L42.1859 38.0457C44.0077 38.0893 45.6768 38.7975 46.9532 39.9306L39.8841 18.7287ZM16.5823 23.784C15.5568 24.7755 14.2587 25.4619 12.7968 25.8214L19.7241 31.1709L23.215 28.9047L16.5823 23.784ZM29.7932 33.9818L26.3023 36.248L32.4987 41.031H36.0114C36.3714 40.5516 36.7859 40.1158 37.2441 39.7345L29.7932 33.9818ZM9.67683 39.9959C6.62229 39.9959 4.16774 42.4473 4.16774 45.498C4.16774 48.5486 6.62229 51 9.67683 51C12.7314 51 15.1859 48.5486 15.1859 45.498C15.1859 42.4473 12.7205 39.9959 9.67683 39.9959ZM42.0005 39.9959C38.9459 39.9959 36.4914 42.4473 36.4914 45.498C36.4914 48.5486 38.9459 51 42.0005 51C45.055 51 47.5096 48.5486 47.5096 45.498C47.5096 42.4473 45.055 39.9959 42.0005 39.9959ZM0.600468 42.9921V48.0038H2.64047C2.35683 47.2194 2.2041 46.3805 2.2041 45.498C2.2041 44.6155 2.35683 43.7765 2.64047 42.9921H0.600468ZM16.7132 42.9921C16.9968 43.7765 17.1496 44.6155 17.1496 45.498C17.1496 46.3805 16.9968 47.2194 16.7132 48.0038H34.9641C34.6805 47.2194 34.5277 46.3805 34.5277 45.498C34.5277 44.6155 34.6805 43.7765 34.9641 42.9921H16.7132ZM49.0368 42.9921C49.3205 43.7765 49.4732 44.6155 49.4732 45.498C49.4732 46.3805 49.3205 47.2194 49.0368 48.0038H51.0005V42.9921H49.0368ZM9.67683 43.3407C10.8768 43.3407 11.8368 44.3104 11.8368 45.498C11.8368 46.6964 10.8659 47.6552 9.67683 47.6552C8.47683 47.6552 7.51683 46.6855 7.51683 45.498C7.50592 44.3104 8.47683 43.3407 9.67683 43.3407ZM42.0005 43.3407C43.2005 43.3407 44.1605 44.3104 44.1605 45.498C44.1605 46.6964 43.1896 47.6552 42.0005 47.6552C40.8005 47.6552 39.8405 46.6855 39.8405 45.498C39.8405 44.3104 40.8005 43.3407 42.0005 43.3407Z" fill="#333333"/>
</g>
<defs>
<clipPath id="clip0">
<rect width="51" height="51" fill="white"/>
</clipPath>
</defs>
</svg>
