<?xml version="1.0" encoding="utf-8"?>
<!-- Generator: Adobe Illustrator 25.0.0, SVG Export Plug-In . SVG Version: 6.00 Build 0)  -->
<svg version="1.1" id="Layer_1" xmlns="http://www.w3.org/2000/svg" xmlns:xlink="http://www.w3.org/1999/xlink" x="0px" y="0px"
	 viewBox="0 0 48.3 48.3" style="enable-background:new 0 0 48.3 48.3;" xml:space="preserve">
<path fill="#333333" d="M22.3,4.1c-2.2,0.2-4.3,0.7-6.3,1.6c1.3,2.7,1.2,5.6-0.6,6.9c-1.7,1.3-4.5,0.7-6.8-1.3
	c-1.4,1.6-2.5,3.5-3.3,5.5c2.8,1,4.7,3.1,4.4,5.3c-0.3,2.2-2.7,3.6-5.7,3.8c0.2,2.2,0.7,4.2,1.6,6.2c1.5-0.7,3-0.9,4.3-0.7
	c1.1,0.2,2,0.6,2.6,1.4c1.3,1.8,0.6,4.6-1.4,6.8c1.6,1.4,3.5,2.5,5.6,3.3c1-2.8,3.2-4.7,5.3-4.4c2.2,0.3,3.7,2.7,3.9,5.7
	c2.2-0.2,4.3-0.7,6.3-1.6c-1.3-2.8-1.2-5.6,0.6-7c0.8-0.6,1.9-0.8,3-0.6c1.3,0.2,2.6,0.9,3.8,1.9c1.3-1.6,2.5-3.5,3.3-5.5
	c-2.8-1-4.7-3.1-4.4-5.3c0.3-2.2,2.7-3.7,5.7-3.8c-0.2-2.2-0.7-4.2-1.6-6.2c-2.7,1.3-5.6,1.1-6.9-0.6c-1.3-1.7-0.6-4.5,1.4-6.8
	c-1.6-1.4-3.5-2.5-5.6-3.3c-1,2.8-3.2,4.7-5.3,4.4C24,9.6,22.5,7.1,22.3,4.1z M24.1,12.1c6.7,0,12.1,5.4,12.1,12.1
	s-5.4,12.1-12.1,12.1c-6.7,0-12.1-5.4-12.1-12.1C12.1,17.5,17.5,12.1,24.1,12.1z M24.1,13.6c-5.8,0-10.5,4.7-10.5,10.5
	c0,5.8,4.7,10.5,10.5,10.5c5.8,0,10.5-4.7,10.5-10.5C34.7,18.3,30,13.6,24.1,13.6z M24.1,14.9c5.1,0,9.3,4.1,9.3,9.2
	c0,5.1-4.1,9.2-9.3,9.2s-9.3-4.1-9.3-9.2C14.9,19,19,14.9,24.1,14.9z"/>
</svg>
