<svg width="42" height="42" viewBox="0 0 42 42" fill="none" xmlns="http://www.w3.org/2000/svg">
<path d="M16.7319 1.88672L15.2527 2.28408L16.2089 5.84981C14.0894 6.5123 12.0811 7.62603 10.3359 9.19258L7.75442 6.61123L6.67013 7.69568L9.24394 10.2693C7.64704 12.0022 6.50295 14.0042 5.81397 16.1217L2.34298 15.1912L1.9457 16.6729L5.41152 17.601C4.91466 19.8404 4.90645 22.1665 5.38322 24.4095L1.94578 25.3296L2.34306 26.8114L5.77295 25.891C6.32199 27.6321 7.17683 29.2974 8.33643 30.8027L5.87795 35.1248L4.499 37.5523L6.92385 36.1708L11.2434 33.7123C12.7536 34.8785 14.4249 35.7376 16.173 36.2887L15.2526 39.7212L16.7318 40.1157L17.6521 36.6782C19.8952 37.1547 22.221 37.1446 24.4607 36.6475L25.3886 40.1157L26.8703 39.7212L25.9398 36.245C28.0571 35.556 30.0591 34.4145 31.792 32.8177L34.3658 35.3913L35.4502 34.307L32.8687 31.7255C34.4347 29.981 35.5464 27.9736 36.209 25.8551L39.7798 26.8113L40.1746 25.3296L36.596 24.371C37.062 22.1525 37.0534 19.8544 36.5678 17.6393L40.1747 16.6729L39.7799 15.1912L36.1682 16.1602C35.6162 14.4485 34.7671 12.8141 33.6226 11.3331L36.0811 7.01367L37.4627 4.58858L35.0351 5.97032L30.7157 8.42879C29.2393 7.29061 27.6089 6.4438 25.904 5.89353L26.8706 2.28416L25.3887 1.88672L24.4223 5.49363C22.2075 5.0076 19.909 4.99734 17.6905 5.46279L16.7319 1.88672ZM33.2661 8.85937L24.3838 24.471L24.3223 24.5068L20.9718 21.1538L8.77209 33.3535L8.59277 33.456L17.5444 17.7265L20.9717 21.1538L33.2663 8.85937H33.2661ZM20.9872 9.72841C22.7802 9.72841 24.5734 10.1522 26.2039 10.9974L16.637 16.4396L16.4549 16.5446L16.3499 16.7267L10.9153 26.2756C8.70524 22.0067 9.38823 16.6285 12.9686 13.0481C15.1826 10.8342 18.0857 9.72841 20.9871 9.72841H20.9872ZM31.0541 15.8475C33.2684 20.1175 32.5856 25.5002 29.0031 29.0826C25.4217 32.6643 20.0402 33.3487 15.7705 31.1361L25.3221 25.6989L25.5066 25.5964L25.6092 25.4118L31.054 15.8476L31.0541 15.8475Z" fill="#333333"/>
</svg>
