<svg width="43" height="43" viewBox="0 0 43 43" fill="none" xmlns="http://www.w3.org/2000/svg">
<path d="M1.65869 1.21255C6.65895 10.6432 13.6273 18.2068 21.1666 25.7963L21.4711 26.1112L21.4764 26.106C23.3095 27.9478 25.1751 29.7949 27.0534 31.67C25.4698 32.914 23.7802 34.0383 22.0195 35.0556L24.4158 37.4516L30.1869 31.6805C33.7426 34.0015 36.5938 37.0257 38.9292 40.5669L41.2861 38.2103C37.7193 35.9013 34.5892 33.1539 32.3813 29.4863L38.1708 23.6966L35.7747 21.3005C34.8413 23.1358 33.7244 24.8291 32.4599 26.3894C28.777 22.7109 25.1984 19.18 21.5314 15.8519C21.5126 15.8348 21.4951 15.8164 21.4763 15.7994C15.4215 10.3091 9.11356 5.36742 1.65869 1.21246V1.21255ZM41.2888 1.21255C34.3149 5.09934 28.345 9.67649 22.6468 14.7471L24.5628 16.558L29.334 11.7867L30.4443 12.8942L25.7043 17.6343L27.7699 19.5815C32.9603 13.9613 37.6464 8.08239 41.2888 1.21246V1.21255ZM13.6134 11.7867L30.4574 28.6281C30.0912 29.0012 29.7149 29.3665 29.3315 29.7226L12.5032 12.8941L13.6134 11.7867ZM7.17269 21.3004L4.77913 23.6967L10.5662 29.4837C8.35829 33.1516 5.23072 35.9013 1.6639 38.2103L4.02075 40.5669C6.35611 37.0257 9.20746 34.0015 12.763 31.6805L18.5343 37.4516L20.9303 35.0556C19.1699 34.0383 17.4803 32.914 15.8966 31.6699C17.3969 30.1725 18.8872 28.6941 20.3609 27.2212L18.2745 25.0666L13.6159 29.725C13.2325 29.3691 12.8588 29.001 12.4927 28.628L17.1827 23.938L15.1226 21.8069C13.5873 23.3066 12.0486 24.8354 10.4902 26.392C9.22468 24.831 8.10668 23.1369 7.17277 21.3004H7.17269Z" fill="#333333"/>
</svg>
