<svg width="43" height="45" viewBox="0 0 43 45" fill="none" xmlns="http://www.w3.org/2000/svg">
<path d="M30.3765 0C29.7434 0 29.1849 0.0564735 28.6915 0.169421C26.4386 0.687095 25.3029 2.24012 23.953 4.04727C22.6032 5.85442 21.0392 7.9063 18.1067 8.51809C15.3325 9.09224 11.5343 8.38632 5.66941 5.58147C4.73847 9.80757 2.56008 17.6856 0 22.4012C5.59493 25.0837 9.04871 25.686 11.2643 25.3096C13.2752 24.7636 14.4761 23.4177 15.7235 21.2529C17.3061 18.5045 18.7584 14.4572 21.3278 9.65697L22.8545 10.4947C21.2998 13.3842 20.1734 16.0102 19.1308 18.2974C19.9314 17.6856 20.8623 17.1868 22.026 16.9232C24.6047 16.3303 28.0864 16.8762 33.3555 19.2575C32.7131 16.4997 33.1786 13.4313 34.2771 10.5794C35.4594 7.50157 37.3492 4.65907 39.5183 2.67308C35.5432 0.828278 32.7038 0.075298 30.6558 0.00941226C30.5627 0 30.4696 0 30.3765 0ZM42.2552 1.32713C42.1715 1.32713 42.0877 1.33654 42.0039 1.35536C41.5943 1.44949 41.1754 1.7695 40.8775 2.40013L24.1299 45H26.3269L42.879 2.8425C43.2048 1.88245 42.8138 1.34595 42.2552 1.32713Z" fill="#333333"/>
</svg>
