<svg width="30" height="41" viewBox="0 0 30 41" fill="none" xmlns="http://www.w3.org/2000/svg">
<path d="M12.9317 0V14.0704H17.0683V0H12.9317ZM11.3129 1.93245C9.05576 2.60035 7.27518 3.89162 5.91727 5.57472C4.05576 7.88119 3.03957 10.9446 2.88669 14.0704H11.3129V1.93245ZM18.687 1.93245V14.0704H27.1133C26.9604 10.9446 25.9442 7.88119 24.0827 5.57472C22.7248 3.90052 20.9442 2.60925 18.687 1.93245ZM1.42086 15.6733V18.3449H28.5791V15.6733H1.42086ZM2.93165 19.9479C3.29137 22.0139 5.01799 23.6525 7.28417 24.8547C8.95683 25.7274 10.8813 26.333 12.5719 26.6447V25.2821C11.3399 24.9527 10.018 24.4183 8.77698 23.7682C7.71583 23.2072 6.72662 22.5571 5.98022 21.8002C5.43165 21.257 4.99101 20.6336 4.78417 19.9479H2.93165ZM14.1906 19.9479V26.894H15.8094V19.9479H14.1906ZM25.2158 19.9479C25.009 20.6336 24.5683 21.257 24.0198 21.8002C23.2734 22.5571 22.2842 23.2072 21.223 23.7682C19.982 24.4183 18.6601 24.9527 17.4281 25.2821V26.6447C19.1187 26.333 21.0432 25.7274 22.7158 24.8547C24.982 23.6525 26.7086 22.0139 27.0683 19.9479H25.2158ZM2.48201 22.9133C1.96942 27.74 0.980216 32.344 0 36.2802C0.0179856 36.298 0.16187 36.7522 0.548561 37.2598C0.953237 37.803 1.55576 38.4353 2.23022 39.023C3.28237 39.9314 4.55935 40.6972 5.56655 41V25.7007C4.34352 24.9437 3.2554 24.0176 2.48201 22.9133ZM27.518 22.9133C26.7446 24.0176 25.6565 24.9437 24.4424 25.7007V41C25.4496 40.6972 26.7266 39.9314 27.7788 39.023C28.4532 38.4353 29.0558 37.803 29.4604 37.2598C29.8381 36.7522 29.982 36.298 30 36.2802C29.0108 32.344 28.0306 27.74 27.518 22.9133ZM15 31.5248C13.1745 31.5248 11.3489 31.6138 9.77518 31.8008C8.79496 31.9166 7.91367 32.0502 7.17626 32.255V33.9381C7.81475 33.7244 8.81295 33.5285 9.97302 33.386C11.4568 33.2168 13.2284 33.1277 15 33.1277C16.7716 33.1277 18.5432 33.2168 20.027 33.386C21.187 33.5285 22.1853 33.7244 22.8237 33.9381V32.255C22.0863 32.0502 21.205 31.9166 20.2248 31.8008C18.6511 31.6138 16.8255 31.5248 15 31.5248Z" fill="#333333"/>
</svg>
