<svg width="35" height="37" viewBox="0 0 35 37" fill="none" xmlns="http://www.w3.org/2000/svg">
<g clip-path="url(#clip0)">
<path d="M16.1805 0C14.1199 0.0234722 12.1813 0.453796 10.3955 1.24403L14.1962 9.51406C14.9288 9.06809 15.7226 8.67689 16.5773 8.34045L17.8824 0.0704166C17.6 0.0469444 17.3253 0.0234722 17.0505 0.00782406C16.7605 0 16.4705 0 16.1805 0ZM19.2943 0.266018L18.1037 7.81624C19.3935 7.44068 20.8054 7.17467 22.3394 7.04948L22.5226 7.03383L27.7123 3.76337C24.8274 1.89342 21.9884 0.75111 19.2943 0.266018ZM9.12094 1.90125C7.69377 2.72277 6.38871 3.79467 5.24392 5.09347C4.57994 5.84458 3.96939 6.68175 3.41989 7.58934L9.96808 13.4026C10.8152 12.2525 11.8226 11.2119 13.0056 10.3278L9.12094 1.90125ZM22.0952 8.54388C14.5854 9.28716 10.7389 13.1679 8.93777 18.5352C7.1519 23.8321 7.49534 30.6312 8.8004 37H26.5217C25.522 32.9863 23.7132 31.0928 22.286 29.4498C21.5228 28.5657 20.8207 27.7363 20.5459 26.6331C20.317 25.7177 20.4391 24.7006 20.9428 23.5035C20.0346 23.2062 18.9509 23.1905 17.6534 23.5191L17.3176 22.0952C19.5538 21.5396 21.5381 21.8213 23.0339 22.9793C24.423 24.0512 25.3388 25.8038 25.812 28.0806C27.8039 28.4248 30.0324 28.6908 32.6502 28.8239C32.9936 26.4297 33.8331 24.059 35.0084 21.7118C29.9027 17.7997 25.7967 13.2774 22.0952 8.54388ZM2.69486 8.88031C1.75613 10.7268 1.0311 12.8315 0.57318 15.1865L7.69377 17.7684C8.083 16.6653 8.57144 15.609 9.1591 14.6232L2.69486 8.88031ZM19.5538 12.1977C20.6146 12.1977 21.477 13.0818 21.477 14.1694C21.477 15.2569 20.6146 16.141 19.5538 16.141C18.4929 16.141 17.6305 15.2569 17.6305 14.1694C17.6382 13.074 18.4929 12.1977 19.5538 12.1977ZM0.328959 16.6418C0.092369 18.3161 -0.0221099 20.1078 0.00841776 21.9934L6.48029 23.2766C6.64056 21.8526 6.89242 20.4756 7.25875 19.1533L0.328959 16.6418ZM0.0618413 23.4957C0.138161 24.8492 0.283167 26.2497 0.504493 27.6972L6.28186 27.8145C6.2666 26.7818 6.28949 25.7568 6.35055 24.7475L0.0618413 23.4957ZM0.748715 29.1603C0.985305 30.4513 1.28295 31.7735 1.64165 33.1271L6.61767 32.5951C6.48029 31.484 6.38108 30.3808 6.32765 29.2776L0.748715 29.1603ZM6.8161 34.0425L2.03851 34.5589C2.26747 35.3491 2.51932 36.1472 2.79407 36.9609H7.32744C7.13664 35.9907 6.9611 35.0205 6.8161 34.0425Z" fill="#333333"/>
</g>
<defs>
<clipPath id="clip0">
<rect width="35" height="37" fill="white"/>
</clipPath>
</defs>
</svg>
