<svg width="39" height="40" viewBox="0 0 39 40" fill="none" xmlns="http://www.w3.org/2000/svg">
<g clip-path="url(#clip0)">
<path d="M17.7254 -0.000144503C15.9803 0.0166622 14.5011 0.20994 12.5731 0.856998C12.2324 1.02507 11.8916 1.20154 11.5592 1.37801C11.6257 1.82339 11.8252 2.28557 12.0163 2.6133C11.6091 2.96624 11.2185 3.31918 10.8445 3.68893C10.5371 3.22675 10.2961 2.73095 10.1548 2.22675C8.97474 2.99986 7.85286 3.87381 6.82238 4.8654C6.98028 5.66372 7.58693 6.39481 8.08554 6.89902C7.77806 7.33599 7.48721 7.77297 7.21297 8.21834C6.53153 7.6133 5.95812 6.91582 5.60909 6.14271C4.45396 7.56288 3.36532 9.06708 2.63402 10.4452C3.07446 11.5377 4.21297 12.3528 5.11047 12.8318C4.94427 13.3444 4.80299 13.857 4.68665 14.378C3.56477 13.8402 2.50106 13.0587 1.81962 12.1427C1.09662 13.8318 0.598009 15.5629 0.307151 17.3024C1.10493 18.6049 2.85009 19.2267 4.12986 19.4788C4.13818 20.0167 4.16311 20.5545 4.20466 21.0923C2.72543 20.8654 1.10493 20.2856 0.0578431 19.378C-0.0751209 21.252 0.0162918 23.1175 0.340392 24.941C1.61186 26.0923 3.7559 26.2267 5.2102 26.0923C5.3764 26.6049 5.55092 27.1175 5.75036 27.6133C4.20466 27.9915 2.15203 27.7057 0.822386 27.0923C1.37086 29.0839 2.18527 30.9915 3.24898 32.7562C4.85286 33.4788 6.94704 33.0587 8.3764 32.5461C8.68388 32.9915 9.00798 33.4284 9.34039 33.8486C7.86117 34.6469 6.0246 34.815 4.562 34.6973C5.58416 36.0671 6.77252 37.3192 8.11047 38.4284C8.51768 38.5209 8.98305 38.5209 9.49829 38.4536C10.4706 38.3108 11.5925 37.8654 12.6479 37.2183C14.0357 38.3528 15.5481 39.294 17.1437 39.9999L17.767 38.5545C16.4373 37.9746 15.1659 37.1931 13.9775 36.2604C15.0828 35.3444 15.9969 34.2436 16.4872 33.1931C16.8778 32.378 17.0107 31.6469 16.8612 30.9831C15.972 30.5041 15.1493 29.9326 14.4096 29.2772C13.7614 31.0251 12.2157 32.3108 10.7947 33.1427C10.4623 32.7309 10.1382 32.3108 9.8307 31.8822C11.2268 31.0587 13.1465 29.5713 13.08 27.9242C12.3404 27.0587 11.7005 26.0923 11.177 25.0587C10.1797 26.2352 8.62571 26.9494 7.31269 27.3024C7.11324 26.815 6.93042 26.3276 6.76421 25.8234C8.16033 25.3864 9.9138 24.731 10.429 23.3276C10.0717 22.3612 9.80576 21.3444 9.62294 20.3024C8.47612 21.0083 6.96366 21.2352 5.77529 21.2183C5.72543 20.6973 5.69219 20.1763 5.67557 19.6469C6.96366 19.5965 8.49274 19.4368 9.40687 18.4452C9.34039 17.3864 9.36532 16.3024 9.48166 15.2099C8.36809 15.4452 7.07169 15.2352 6.12432 14.941C6.23236 14.4368 6.36532 13.9242 6.52322 13.42C7.58693 13.6889 8.77529 13.9831 9.74759 13.4873C9.97197 12.3444 10.3044 11.1931 10.7448 10.0587C9.92211 9.90742 9.06615 9.52927 8.44288 9.15952C8.71712 8.71414 9.00798 8.27717 9.31546 7.84019C9.98859 8.19313 10.67 8.57969 11.4096 8.54607C11.8833 7.57128 12.4318 6.63851 13.0301 5.78977C12.6063 5.56288 12.1991 5.25196 11.8335 4.89902C12.1991 4.53767 12.5897 4.18473 12.9886 3.83179C13.3044 4.12591 13.6534 4.3528 14.0107 4.52086C15.3321 2.95784 16.9941 1.47885 18.0828 -0.000144503H17.7254ZM20.9166 -0.000144503C22.1963 1.74775 23.7254 2.99145 24.9803 4.51246C25.3625 4.3612 25.7365 4.07549 26.0024 3.83179C26.4096 4.18473 26.7919 4.53767 27.1576 4.89902C26.7919 5.25196 26.393 5.56288 25.9609 5.78977C26.5675 6.63851 27.116 7.56288 27.5897 8.53767C28.3376 8.52927 29.1188 8.16792 29.6839 7.83179C29.9914 8.26876 30.2822 8.70574 30.5481 9.15112C29.8168 9.64692 29.0357 9.95784 28.2545 10.0503C28.695 11.1847 29.0274 12.336 29.2517 13.4788C30.2739 13.9326 31.5204 13.7057 32.4678 13.4116C32.6257 13.9158 32.7587 14.4284 32.875 14.9326C31.695 15.2183 30.6063 15.4536 29.5177 15.2099C29.634 16.294 29.6506 17.378 29.5842 18.4452C30.5315 19.4788 32.0938 19.6553 33.3155 19.6385C33.2988 20.1679 33.2739 20.6889 33.2157 21.2099C31.7947 21.1679 30.49 20.9999 29.3681 20.294C29.1936 21.336 28.9276 22.3528 28.5703 23.3276C29.2517 24.7898 30.8806 25.4536 32.2351 25.815C32.0689 26.3192 31.8861 26.8066 31.6866 27.294C30.1493 26.8234 28.7864 26.2015 27.8141 25.0503C27.2905 26.0923 26.6589 27.0503 25.911 27.9158C26.0357 29.7982 27.7725 31.0923 29.1686 31.8738C28.8612 32.3024 28.5371 32.7225 28.2047 33.1343C26.6257 32.1427 25.1631 30.9662 24.5897 29.2688C23.8418 29.9242 23.0274 30.4957 22.1299 30.9746C21.9803 31.6385 22.1216 32.3696 22.5038 33.1847C23.0024 34.2352 23.9166 35.336 25.0218 36.252C23.8335 37.1847 22.562 37.9662 21.2324 38.5461L21.8473 39.9915C23.4512 39.2856 24.9553 38.3444 26.3432 37.2015C27.3986 37.857 28.5204 38.3024 29.5011 38.4452C30.0163 38.5125 30.4817 38.5125 30.8889 38.42C32.2268 37.3108 33.4152 36.0587 34.4373 34.6889C32.9415 34.8318 31.2878 34.4957 29.7421 33.8738C29.7171 33.8654 29.6839 33.8486 29.6506 33.8402C29.9914 33.42 30.3071 32.9831 30.6229 32.5377C32.1354 33.1931 34.2545 33.5209 35.7421 32.7478C36.8058 30.9831 37.6202 29.0755 38.1686 27.0839C38.1354 27.1007 38.1022 27.1175 38.0689 27.1259C36.3653 27.6637 34.7365 27.7646 33.2407 27.6049C33.4401 27.1091 33.6146 26.5965 33.7808 26.0923C35.3681 26.2352 37.5371 26.1007 38.6506 24.9326C38.9747 23.1091 39.0745 21.2436 38.9332 19.3696C37.7365 20.2688 36.0329 20.8738 34.7864 21.0839C34.8279 20.5461 34.8612 20.0083 34.8695 19.4704C36.2656 19.0671 38.0191 18.6301 38.6839 17.294C38.393 15.5545 37.8944 13.8234 37.1714 12.1343C36.3902 13.1091 35.2517 13.899 34.3127 14.3612C34.188 13.8486 34.0468 13.336 33.8806 12.8234C34.8778 12.2015 35.9664 11.5377 36.3653 10.4368C35.526 8.8654 34.5204 7.42843 33.3819 6.14271C33.0329 6.90742 32.4595 7.6049 31.7864 8.21834C31.5121 7.77297 31.2213 7.33599 30.9055 6.89902C31.4207 6.29397 32.0855 5.66372 32.1686 4.8654C31.1382 3.87381 30.0246 2.99986 28.8445 2.22675C28.695 2.73095 28.454 3.22675 28.1548 3.68893C27.7808 3.31918 27.3903 2.96624 26.983 2.6133C27.2074 2.20994 27.3736 1.80658 27.4318 1.37801C27.0994 1.20154 26.7587 1.02507 26.4179 0.856998C24.3653 0.167923 22.8196 -0.00854787 20.9166 -0.000144503Z" fill="#333333"/>
</g>
<defs>
<clipPath id="clip0">
<rect width="39" height="40" fill="white"/>
</clipPath>
</defs>
</svg>
