<?xml version="1.0" encoding="utf-8"?>
<!-- Generator: Adobe Illustrator 25.0.0, SVG Export Plug-In . SVG Version: 6.00 Build 0)  -->
<svg version="1.1" id="Layer_1" xmlns="http://www.w3.org/2000/svg" xmlns:xlink="http://www.w3.org/1999/xlink" x="0px" y="0px"
	 viewBox="0 0 42 44" style="enable-background:new 0 0 42 44;" xml:space="preserve">
<g>
	<defs>
		<rect id="SVGID_1_" x="3.5" y="3.5" width="35" height="37"/>
	</defs>
	<clipPath id="SVGID_2_">
		<use xlink:href="#SVGID_1_"  style="overflow:visible;"/>
	</clipPath>
	<g class="st0">
		<path fill="#333333" class="st1" d="M9,3.5c-0.1,0-0.2,0-0.3,0c-0.2,0-0.4,0-0.6,0.1c-1.5,0.2-3,1.1-4,2.6c-1.9,2.9,0.2,7.6,4.3,7.6
			c0,0,0.1,0,0.1,0v0.1h4.6c-0.8,2.5-2.3,5.2-4,7.9c-0.2,0.3-0.3,0.5-0.5,0.8l2.7,2.8l-4.3,0.7c-2.5,6.7-2.1,14.2,3.7,14.2l0.7,0
			c1.8,0,3.6-0.3,4.7-1c0.3-0.2,0.6-0.4,0.8-0.7h-2.5c-1.5,0.5-3.1-0.5-3.6-2c-0.7-2,0.6-4.1,2.4-4.7c0.4-0.1,0.9-0.2,1.3-0.2v0
			h13.6c0-3.5,1.3-7,3.8-9.8c1.8-2,3.2-4.7,3.9-7.4l-3.1-1.9l2.9-0.5l-3.3-2l4-0.7C36.1,6.2,34.2,4,30.5,4c-3.4,0.7-12.4,0.9-18,0.4
			C11.4,3.8,10.2,3.5,9,3.5z M9.1,5c1,0,2.1,0.3,3.1,0.8v0c0.4,0.4,0.6,0.8,0.9,1.2H7.5l0.8,1.2c0.8,1.2,1.5,2.5,1.6,3.3
			c0,0.4,0,0.6-0.1,0.7c-0.1,0.1-0.5,0.3-1.2,0.3c-3.1,0-4.3-3.5-3.1-5.4c0.8-1.2,1.8-1.8,3-2C8.6,5,8.8,5,9.1,5z M10.2,8.4h3.5
			c0.3,1.2,0.3,2.6,0,4h-2.5c0.1-0.4,0.2-0.8,0.1-1.2C11.2,10.3,10.7,9.3,10.2,8.4z M17.9,33.2c0.5,0.5,0.9,1.2,1,1.9
			c0.3,1.3,0.2,2.4-0.1,3.4c-0.3,0.9-1,1.5-1.7,2h18.1c1.1,0,1.9-0.4,2.5-1.1c0.6-0.7,0.9-1.6,0.8-2.5c0-0.4-0.1-0.7-0.2-1L33,35.2
			l3.2-1.6c-0.6-0.3-1.4-0.4-2.4-0.4H17.9z M14.7,33.2c-0.1,0-0.2,0-0.3,0c-0.2,0-0.4,0.1-0.6,0.1c-1.2,0.4-1.9,1.7-1.5,2.9
			c0.3,0.8,1.2,1.4,2,1.1l0.1,0h3.3c0.1-0.5,0.1-1.1-0.1-1.8C17.3,34.1,16,33.2,14.7,33.2z"/>
	</g>
</g>
</svg>
