<svg width="49" height="49" viewBox="0 0 49 49" fill="none" xmlns="http://www.w3.org/2000/svg">
<path d="M24.6244 3.10559C26.0217 4.54975 27.3711 5.96711 28.376 7.3462C29.534 8.92434 30.2231 10.4317 30.2231 11.7619C30.2231 14.0875 30.0221 16.394 29.534 18.241C27.8975 19.3895 26.5289 20.7676 25.4857 22.4233V15.0541H23.7631V22.4903C22.5572 20.8155 21.1217 19.4373 19.4852 18.2793C18.9971 16.4227 18.7865 14.0971 18.7865 11.7524C18.7865 10.4221 19.4756 8.92434 20.6336 7.3462C21.6385 5.96711 23.1697 4.54975 24.6244 3.10559ZM38.5109 16.4992C39.4479 16.5184 40.603 16.7385 41.7677 17.1309C43.3947 17.6764 45.1786 18.5282 46.9912 19.4278C46.0648 21.1887 45.1384 22.9018 44.1479 24.2799C43.0138 26.0887 41.8031 27.1989 40.5044 27.6104C38.176 28.3377 36.1279 28.778 34.2139 28.8832C32.4912 27.6869 30.6346 26.816 28.7301 26.3471L35.8791 23.8588L35.3432 22.2127L28.1272 24.4905C27.8305 24.0024 27.4477 23.5717 26.9883 23.2463C28.9598 20.1264 32.2902 18.1836 36.951 16.7194C37.4295 16.5567 37.9463 16.4897 38.5109 16.4992ZM10.6805 16.528C11.1686 16.5375 11.6184 16.6045 12.0299 16.7385C16.7672 18.2028 20.002 20.1264 21.983 23.2367C21.5141 23.5717 21.1121 24.0024 20.825 24.5L13.8865 22.2414L13.2453 23.8875L20.2795 26.3758C20.2699 26.5194 20.2604 26.6533 20.2604 26.7969C20.2604 27.2371 20.3369 27.6678 20.4709 28.0697C17.0543 29.4287 13.1879 29.0938 8.575 27.6199C7.30215 27.2276 6.125 26.1078 5.01484 24.2895C4.03867 22.9209 2.93809 21.1983 2.00977 19.4469C4.00996 18.5473 5.75176 17.6955 7.34043 17.15C8.4793 16.7576 9.53203 16.528 10.4699 16.5184L10.6805 16.528ZM24.5957 24.1842C25.9164 24.1842 26.9691 25.4762 26.9691 26.7969C26.9691 28.1176 25.9164 29.1703 24.5957 29.1703C23.2176 29.1703 21.9926 28.1176 21.9926 26.7969C21.9926 25.4762 23.2176 24.1842 24.5957 24.1842ZM28.5004 28.041C32.1371 28.9598 35.1518 31.4481 37.9367 35.5155C38.7215 36.5873 39.0182 38.176 38.9895 40.1092C38.9607 41.784 38.6832 43.7076 38.377 45.8992C36.4342 45.5834 34.5201 45.2485 32.8645 44.7604C30.8356 43.9469 29.4191 43.1717 28.6344 42.0998C27.2563 40.1953 26.1939 38.377 25.5049 36.5873C26.1461 34.4531 26.4332 32.5391 26.2992 30.5867L30.5676 36.7022L32.0318 35.6782L27.6486 29.5053C28.0314 29.0938 28.3186 28.577 28.5004 28.041ZM21.227 29.6297L17.016 35.6686L18.4133 36.683L22.8252 30.5389C23.3898 30.7686 24.0023 30.893 24.5957 30.893H24.6053C24.835 34.5967 23.3037 38.2621 20.3369 42.0807C19.5617 43.1621 18.1453 43.9373 16.2982 44.7412C14.7 45.2389 12.585 45.5643 10.6039 45.8801C10.2977 43.6885 10.0105 41.7649 9.99141 40.0901C9.9627 38.1664 10.2594 36.5778 11.0441 35.5059C12.4223 33.3813 14.0301 31.8213 15.5039 30.6155C17.5041 30.6537 19.4086 30.3475 21.227 29.6297Z" fill="#333333"/>
</svg>
