<svg width="48" height="48" viewBox="0 0 48 48" fill="none" xmlns="http://www.w3.org/2000/svg">
<path d="M17.6572 0C25.0837 1.5 19.6294 7.36644 25.2891 11.1781C24.7961 11.1267 24.2927 11.1062 23.7792 11.1164C22.1049 11.1473 20.41 11.4966 18.7871 12.2158C18.2735 12.4418 17.7907 12.6986 17.3285 12.976C16.0959 8.09589 21.1496 3.07192 17.6572 0ZM36.4853 2.54795C40.6762 8.85616 32.6848 9.15411 33.979 15.8425C32.1917 13.6541 29.7471 12.1541 27.0764 11.4966C29.6546 7.16096 36.7832 7.18151 36.4853 2.54795ZM5.94736 10.2945C9.28568 10.387 10.621 15.0514 15.8699 14.0137C13.6717 15.8014 12.1721 18.2466 11.5044 20.9281C7.15943 18.3699 7.17997 11.2192 2.53713 11.5171C3.92382 10.5925 5.01263 10.2637 5.94736 10.2945ZM24.2311 13.0274C26.6655 13.0788 29.0075 13.9315 30.8975 15.4521L28.9767 19.1712L33.0648 17.8151C33.4346 18.3596 33.753 18.9349 34.0304 19.5514C34.924 21.5753 35.1603 23.7226 34.8316 25.7466L30.2298 25.9623L33.7222 29.0753C32.6129 31.1918 30.805 32.9692 28.4425 34.0068C28.1241 34.1507 27.8057 34.274 27.4873 34.3767L24.9707 30.4521L24.0359 34.9521C21.2318 34.9623 18.52 33.8836 16.4759 31.9521L18.4481 28.1404L14.5037 29.4452C14.3189 29.1164 14.1442 28.7774 13.9902 28.4281C12.9938 26.1678 12.8089 23.7534 13.3328 21.524L17.195 21.339L14.3497 18.8014C15.459 16.726 17.2463 14.9897 19.578 13.9623C19.7218 13.9007 19.8553 13.839 19.9991 13.7877L22.6595 17.9281L23.6764 13.0171C23.7278 13.0171 23.7792 13.0171 23.8305 13.0171C23.964 13.0274 24.0976 13.0274 24.2311 13.0274ZM36.8346 17.137C41.1179 17.2089 45.3088 20.7123 48 17.661C46.5003 25.0788 40.6351 19.6438 36.8243 25.2945C37.0503 23.137 36.7319 20.8973 35.7869 18.7808C35.5609 18.2774 35.3144 17.7945 35.037 17.3322C35.6328 17.1781 36.2388 17.1267 36.8346 17.137ZM11.2065 22.6849C10.9805 24.8425 11.299 27.0925 12.2337 29.2192L12.2542 29.2603C12.4699 29.7534 12.7267 30.226 12.9938 30.6781C8.1147 31.9315 3.08153 26.8664 0 30.3493C1.50995 22.911 7.39568 28.387 11.2065 22.6849ZM36.5162 27.0925C40.8406 29.661 40.82 36.7911 45.4629 36.4931C39.156 40.6849 38.8581 32.6815 32.1507 33.9966C34.3385 32.2089 35.8485 29.7637 36.5162 27.0925ZM14.0107 32.1164C15.798 34.3253 18.2427 35.8356 20.9236 36.5034C18.3659 40.8493 11.2168 40.8185 11.5044 45.4623C7.3135 39.1438 15.3563 38.8562 14.0107 32.1164ZM30.6715 35.0342C31.9041 39.9144 26.8607 44.9281 30.3428 48C22.9163 46.5 28.3706 40.6233 22.6903 36.8116C24.8474 37.0377 27.0969 36.7192 29.2232 35.774C29.7265 35.5582 30.2093 35.3116 30.6715 35.0342Z" fill="#333333"/>
</svg>
