<svg width="41" height="42" viewBox="0 0 41 42" fill="none" xmlns="http://www.w3.org/2000/svg">
<path d="M24.3504 0L18.7245 1.8768L17.5048 7.78785L20.8374 10.8398C19.7466 10.7434 18.673 10.8311 17.6508 11.0854L18.6987 14.3391C18.1662 14.4444 17.6594 14.6198 17.1698 14.8478L16.122 11.5941C15.1342 12.015 14.2152 12.6026 13.4078 13.3218L14.3268 8.84903L9.94632 4.82355L4.32038 6.70036L3.10071 12.6114L7.49839 16.6369L11.7586 15.2161C11.1746 16.0844 10.7193 17.0578 10.4101 18.1103L13.6998 18.8206C13.6139 19.075 13.5366 19.3381 13.4851 19.6099C13.4249 19.8818 13.3906 20.1537 13.3648 20.4256L10.0752 19.7152C9.93773 20.8378 9.98067 21.9428 10.1868 23.004L6.81984 19.9257L1.20249 21.8025L0 27.696L4.39768 31.7302L10.015 29.8534L10.9427 25.3193C11.3979 26.3103 12.0077 27.2224 12.7464 28.0205L14.9882 25.4684C15.3403 25.8806 15.7354 26.2489 16.1821 26.5646L13.9489 29.1167C14.7735 29.7569 15.7097 30.2744 16.7318 30.634L12.463 32.0547L11.2519 37.9658L15.6496 42L21.2669 40.1232L22.4866 34.2209L19.154 31.1602C20.2448 31.2566 21.3099 31.1689 22.332 30.9146L21.2927 27.6697C21.8252 27.5644 22.332 27.389 22.8216 27.161L23.8608 30.4059C24.8486 29.985 25.7677 29.3974 26.5836 28.6695L25.656 33.151L30.0623 37.1764L35.6796 35.2996L36.8993 29.3886L32.5016 25.3631L28.2328 26.7927C28.8168 25.9244 29.2806 24.9509 29.5899 23.8897L26.3174 23.1881C26.4033 22.9338 26.4806 22.6707 26.5321 22.3988C26.5836 22.127 26.6266 21.8551 26.6438 21.592L29.9163 22.2936C30.0537 21.171 30.0107 20.066 29.8046 19.0048L33.1802 22.0919L38.7975 20.2151L40.0172 14.3128L35.6109 10.2786L29.9764 12.1466L29.0402 16.6807C28.5849 15.6897 27.9751 14.7776 27.2364 13.9795L25.0032 16.5229C24.6511 16.1107 24.2474 15.7423 23.8093 15.4266L26.0425 12.8833C25.2179 12.2431 24.2817 11.7256 23.2682 11.366L27.537 9.93652L28.7481 4.03425L24.3504 0ZM18.8533 16.6106L23.1394 17.7858L24.2903 22.162L21.1552 25.3631L16.8692 24.1879L15.7183 19.8117L18.8533 16.6106Z" fill="#333333"/>
</svg>
