<svg width="49" height="49" viewBox="0 0 49 49" fill="none" xmlns="http://www.w3.org/2000/svg">
<path d="M31.6458 28.5833H30.0329L29.4612 28.0321C31.4621 25.7046 32.6667 22.6829 32.6667 19.3958C32.6667 12.0662 26.7254 6.125 19.3958 6.125C12.0662 6.125 6.125 12.0662 6.125 19.3958C6.125 26.7254 12.0662 32.6667 19.3958 32.6667C22.6829 32.6667 25.7046 31.4621 28.0321 29.4612L28.5833 30.0329V31.6458L38.7917 41.8337L41.8337 38.7917L31.6458 28.5833ZM19.3958 28.5833C14.3121 28.5833 10.2083 24.4796 10.2083 19.3958C10.2083 14.3121 14.3121 10.2083 19.3958 10.2083C24.4796 10.2083 28.5833 14.3121 28.5833 19.3958C28.5833 24.4796 24.4796 28.5833 19.3958 28.5833Z" fill="#333333"/>
<path d="M24.5 20.4167H20.4167V24.5H18.375V20.4167H14.2917V18.375H18.375V14.2917H20.4167V18.375H24.5V20.4167Z" fill="#333333"/>
</svg>
