<svg width="48" height="48" viewBox="0 0 48 48" fill="none" xmlns="http://www.w3.org/2000/svg">
<path d="M31.0143 28.0126H29.4334L28.8731 27.4723C30.8342 25.191 32.0149 22.2293 32.0149 19.0074C32.0149 11.8233 26.1915 6 19.0074 6C11.8233 6 6 11.8233 6 19.0074C6 26.1915 11.8233 32.0149 19.0074 32.0149C22.2293 32.0149 25.191 30.8342 27.4723 28.8731L28.0126 29.4334V31.0143L38.0183 41L41 38.0183L31.0143 28.0126ZM19.0074 28.0126C14.0246 28.0126 10.0023 23.9903 10.0023 19.0074C10.0023 14.0246 14.0246 10.0023 19.0074 10.0023C23.9903 10.0023 28.0126 14.0246 28.0126 19.0074C28.0126 23.9903 23.9903 28.0126 19.0074 28.0126ZM14.0046 18.0069H24.0103V20.008H14.0046V18.0069Z" fill="#333333"/>
</svg>
